<?xml version="1.0" standalone="no"?>
<!DOCTYPE svg PUBLIC "-//W3C//DTD SVG 1.1//EN" "http://www.w3.org/Graphics/SVG/1.1/DTD/svg11.dtd">
<svg width="100%" height="100%" viewBox="0 0 34 15" version="1.1" xmlns="http://www.w3.org/2000/svg" xmlns:xlink="http://www.w3.org/1999/xlink" xml:space="preserve" style="fill-rule:evenodd;clip-rule:evenodd;stroke-linejoin:round;stroke-miterlimit:1.41421;">
    <g id="Calque 2">
        <path d="M2.835,0C1.275,0 0.001,1.275 0.001,2.834L0.001,12.166C0.001,13.725 1.275,15 2.835,15L30.167,15C31.726,15 33.001,13.725 33.001,12.166L33.001,2.834C33.001,1.275 31.726,0 30.167,0L2.835,0ZM7.643,10.492L7.299,9.521L4.359,9.521L4.014,10.513C3.879,10.9 3.765,11.161 3.669,11.297C3.573,11.432 3.417,11.5 3.2,11.5C3.016,11.5 2.853,11.427 2.712,11.283C2.571,11.139 2.5,10.975 2.5,10.793C2.5,10.687 2.516,10.578 2.55,10.466C2.582,10.353 2.637,10.197 2.712,9.996L4.561,4.972C4.614,4.828 4.678,4.655 4.751,4.452C4.825,4.25 4.904,4.082 4.988,3.948C5.072,3.814 5.182,3.706 5.318,3.624C5.455,3.541 5.623,3.5 5.824,3.5C6.027,3.5 6.198,3.541 6.334,3.624C6.471,3.706 6.581,3.813 6.665,3.943C6.749,4.073 6.819,4.213 6.877,4.363C6.934,4.512 7.008,4.712 7.097,4.962L8.985,9.954C9.133,10.334 9.207,10.61 9.207,10.782C9.207,10.962 9.137,11.126 8.997,11.275C8.857,11.425 8.689,11.5 8.492,11.5C8.377,11.5 8.278,11.478 8.196,11.434C8.113,11.39 8.045,11.33 7.989,11.255C7.932,11.178 7.873,11.063 7.808,10.906C7.745,10.749 7.689,10.611 7.643,10.492ZM15.775,9.046C15.775,9.514 15.663,9.935 15.437,10.307C15.212,10.68 14.882,10.972 14.449,11.184C14.014,11.395 13.5,11.5 12.905,11.5C12.192,11.5 11.603,11.356 11.139,11.067C10.811,10.86 10.544,10.583 10.338,10.236C10.132,9.89 10.03,9.553 10.03,9.226C10.03,9.036 10.091,8.873 10.214,8.737C10.338,8.602 10.495,8.534 10.686,8.534C10.84,8.534 10.971,8.588 11.078,8.693C11.185,8.798 11.276,8.955 11.351,9.162C11.444,9.408 11.543,9.614 11.65,9.779C11.756,9.945 11.907,10.081 12.101,10.189C12.296,10.296 12.549,10.35 12.866,10.35C13.299,10.35 13.652,10.241 13.923,10.025C14.195,9.809 14.33,9.539 14.33,9.215C14.33,8.959 14.256,8.75 14.111,8.59C13.964,8.43 13.775,8.307 13.544,8.223C13.312,8.139 13.002,8.049 12.614,7.954C12.094,7.824 11.66,7.671 11.309,7.498C10.96,7.323 10.681,7.086 10.476,6.785C10.271,6.484 10.168,6.11 10.168,5.664C10.168,5.238 10.277,4.86 10.494,4.529C10.711,4.198 11.024,3.944 11.435,3.767C11.846,3.589 12.33,3.5 12.885,3.5C13.329,3.5 13.712,3.559 14.037,3.677C14.361,3.795 14.629,3.951 14.843,4.147C15.056,4.342 15.212,4.546 15.311,4.761C15.41,4.976 15.46,5.186 15.46,5.389C15.46,5.576 15.398,5.744 15.274,5.893C15.151,6.043 14.998,6.118 14.813,6.118C14.646,6.118 14.518,6.072 14.431,5.983C14.344,5.893 14.25,5.746 14.148,5.542C14.016,5.251 13.858,5.023 13.674,4.859C13.49,4.695 13.194,4.613 12.787,4.613C12.409,4.613 12.103,4.702 11.872,4.88C11.64,5.058 11.524,5.272 11.524,5.522C11.524,5.676 11.564,5.81 11.642,5.922C11.721,6.035 11.83,6.131 11.968,6.213C12.106,6.294 12.246,6.357 12.387,6.402C12.529,6.448 12.762,6.515 13.087,6.603C13.495,6.705 13.864,6.818 14.195,6.941C14.525,7.064 14.806,7.213 15.038,7.389C15.269,7.565 15.451,7.788 15.58,8.057C15.71,8.326 15.775,8.656 15.775,9.046ZM22.512,9.046C22.512,9.514 22.399,9.935 22.174,10.307C21.949,10.68 21.619,10.972 21.185,11.184C20.751,11.395 20.237,11.5 19.642,11.5C18.928,11.5 18.34,11.356 17.876,11.067C17.547,10.86 17.281,10.583 17.075,10.236C16.869,9.89 16.767,9.553 16.767,9.226C16.767,9.036 16.828,8.873 16.951,8.737C17.075,8.602 17.232,8.534 17.423,8.534C17.577,8.534 17.708,8.588 17.815,8.693C17.921,8.798 18.013,8.955 18.088,9.162C18.181,9.408 18.28,9.614 18.387,9.779C18.493,9.945 18.644,10.081 18.838,10.189C19.032,10.296 19.286,10.35 19.602,10.35C20.036,10.35 20.389,10.241 20.66,10.025C20.931,9.809 21.067,9.539 21.067,9.215C21.067,8.959 20.993,8.75 20.848,8.59C20.701,8.43 20.512,8.307 20.281,8.223C20.048,8.139 19.739,8.049 19.351,7.954C18.831,7.824 18.397,7.671 18.046,7.498C17.697,7.323 17.418,7.086 17.213,6.785C17.008,6.484 16.905,6.11 16.905,5.664C16.905,5.238 17.013,4.86 17.231,4.529C17.448,4.198 17.761,3.944 18.172,3.767C18.583,3.589 19.067,3.5 19.622,3.5C20.066,3.5 20.449,3.559 20.774,3.677C21.097,3.795 21.366,3.951 21.579,4.147C21.793,4.342 21.949,4.546 22.048,4.761C22.147,4.976 22.197,5.186 22.197,5.389C22.197,5.576 22.134,5.744 22.011,5.893C21.888,6.043 21.735,6.118 21.55,6.118C21.382,6.118 21.255,6.072 21.168,5.983C21.081,5.893 20.987,5.746 20.884,5.542C20.753,5.251 20.595,5.023 20.411,4.859C20.227,4.695 19.931,4.613 19.524,4.613C19.146,4.613 18.84,4.702 18.609,4.88C18.377,5.058 18.261,5.272 18.261,5.522C18.261,5.676 18.3,5.81 18.379,5.922C18.458,6.035 18.567,6.131 18.704,6.213C18.843,6.294 18.983,6.357 19.124,6.402C19.265,6.448 19.498,6.515 19.824,6.603C20.232,6.705 20.601,6.818 20.931,6.941C21.262,7.064 21.543,7.213 21.775,7.389C22.006,7.565 22.187,7.788 22.317,8.057C22.447,8.326 22.512,8.656 22.512,9.046ZM26.935,3.5C27.685,3.5 28.328,3.663 28.866,3.989C29.404,4.314 29.81,4.776 30.086,5.376C30.363,5.976 30.5,6.681 30.5,7.49C30.5,8.088 30.425,8.631 30.274,9.121C30.122,9.609 29.896,10.034 29.593,10.393C29.29,10.751 28.919,11.026 28.479,11.215C28.038,11.405 27.534,11.5 26.965,11.5C26.4,11.5 25.893,11.403 25.446,11.208C24.999,11.012 24.625,10.737 24.327,10.381C24.028,10.026 23.801,9.599 23.649,9.1C23.495,8.6 23.419,8.06 23.419,7.479C23.419,6.885 23.499,6.339 23.659,5.843C23.818,5.347 24.049,4.925 24.351,4.577C24.654,4.229 25.022,3.962 25.455,3.777C25.89,3.593 26.383,3.5 26.935,3.5ZM29.016,7.479C29.016,6.913 28.931,6.422 28.76,6.007C28.589,5.592 28.345,5.278 28.028,5.065C27.71,4.853 27.346,4.746 26.935,4.746C26.643,4.746 26.372,4.805 26.124,4.923C25.876,5.041 25.662,5.212 25.483,5.437C25.304,5.663 25.162,5.95 25.059,6.3C24.955,6.65 24.904,7.043 24.904,7.479C24.904,7.919 24.955,8.316 25.059,8.672C25.162,9.027 25.309,9.322 25.497,9.556C25.687,9.79 25.904,9.965 26.149,10.081C26.394,10.197 26.662,10.255 26.955,10.255C27.329,10.255 27.674,10.155 27.988,9.955C28.302,9.754 28.552,9.444 28.738,9.026C28.923,8.607 29.016,8.092 29.016,7.479ZM4.744,8.344L6.904,8.344L5.814,5.152L4.744,8.344Z" style="fill:rgb(35,31,32);"/>
    </g>
</svg>
