<?xml version="1.0" encoding="utf-8"?>
<!-- Generator: Adobe Illustrator 15.0.0, SVG Export Plug-In . SVG Version: 6.00 Build 0)  -->
<!DOCTYPE svg PUBLIC "-//W3C//DTD SVG 1.1//EN" "http://www.w3.org/Graphics/SVG/1.1/DTD/svg11.dtd">
<svg version="1.1" id="Calque_1" xmlns="http://www.w3.org/2000/svg" xmlns:xlink="http://www.w3.org/1999/xlink" x="0px" y="0px"
	 width="160.281px" height="82.26px" viewBox="215.391 65.367 160.281 82.26" enable-background="new 215.391 65.367 160.281 82.26"
	 xml:space="preserve">
<g display="none">
	<path display="inline" d="M392.543,53.949v41.213c0,3.003-1.512,5.443-3.368,5.443h-0.97c-1.858,0-3.366-2.44-3.366-5.443V83.159
		h-2.826v8.13c0,2.104-1.708,3.813-3.812,3.813h-0.942c-2.105,0-3.815-1.708-3.815-3.813v-7.792h-5.349v1.362
		c0.029,1.292,0.029,2.493,0,3.598v11.764c0,1.065-1.81,2.025-4.729,2.727l0.081,55.468h22.04c1.77,0,3.204,1.442,3.204,3.208v4.889
		c0,1.775-1.435,3.211-3.204,3.211H207.685c-1.776,0-3.217-1.438-3.217-3.211v-4.889c0-1.768,1.442-3.208,3.217-3.208h97.548
		c0,0,0,0,12.562-38.073c8.255-27.209,0.171-36.607-50.636-35.46c-29.02,0-36.647,21.031-36.647,27.062v8.444
		c0,2.079-1.688,3.764-3.765,3.764h-3.68v10.713h-0.607v4.132h-1.217v-4.132h-0.607h-5.42v-2.442h5.42v-8.271h-0.127h-3.712
		c-2.083,0-3.771-1.685-3.771-3.765V56.59c0-2.086,1.688-3.769,3.771-3.769h9.948c2.077,0,56.53,19.989,96.019-1.014
		c0-0.027-0.209-1.974,1.46-1.974h14.65h10.112h2.384c0.011,0,0.015,0.009,0.025,0.009c0.126-0.002,0.24-0.009,0.364-0.009
		c11.756,0,16.336,0,16.336,3.885v12.232h3.255h2.094v-8.022c0-2.104,1.713-3.811,3.815-3.811h0.942
		c2.104,0,3.813,1.708,3.813,3.811v8.022h2.825v-12c0-3.007,1.508-5.443,3.366-5.443h0.97
		C391.031,48.506,392.543,50.942,392.543,53.949z"/>
</g>
<g display="none">
	<path display="inline" d="M377.867,160.213v-2.657c-0.445-21.404-8.919-28.536-8.919-28.536h-51.442c0,0-2.005-1.787-2.45-7.135
		V91.12c0,0,0.445-29.871-26.305-24.074c0,0-17.165,3.119-25.222,2.427c-0.356-2.444-1.695-4.563-3.614-5.945l0.038-2.231
		c0-1.265-1.268-1.231-1.268-1.231l0.021-2.938c1.82,0,3.29-1.479,3.29-3.296c0-1.82-1.47-3.294-3.29-3.294h-1.229h-1.246
		c-0.304,0-0.542-0.044-0.736-0.118c0.445-0.209,0.853-0.475,1.22-0.791c7.357-0.814,35.302-5.086,35.302-5.086
		c2.916-0.401,4.958-3.088,4.562-6.006c-0.396-2.917-3.088-4.962-6.007-4.566c-0.166,0.025-0.326,0.055-0.484,0.093v-0.004
		l-32.997,8.12c-0.951-1.012-2.29-1.643-3.781-1.643c-2.868,0-5.187,2.322-5.187,5.186c0,0.219,0.018,0.432,0.045,0.641v13.702
		h-3.006c-1.43,0-1.115,1.285-1.115,1.285v2.096c-2.315,1.613-3.83,4.286-3.83,7.318v35.072c0,4.456,3.273,8.141,7.548,8.798v4.07
		h-2.159v-0.888c0-0.502-0.493-0.902-1.105-0.902c-0.607,0-1.099,0.398-1.099,0.902v4.262c0,0.502,0.491,0.905,1.099,0.905
		c0.612,0,1.105-0.401,1.105-0.905v-0.89h2.159v3.183l1.48,1.712h0.64v2.942H226.33c0,0-8.473,7.133-8.917,28.536v2.658l-4.903,4.76
		v12.004h170.265v-12.006L377.867,160.213z M251.007,45.714c0-1.207,0.98-2.179,2.179-2.179c1.212,0,2.187,0.972,2.187,2.179
		s-0.975,2.183-2.187,2.183C251.988,47.895,251.007,46.92,251.007,45.714z M287.104,122.069c0,0-0.582,6.951-4.15,6.951h-29.698
		v-2.942h0.639l1.48-1.755v-3.138h2.162v0.89c0,0.502,0.491,0.905,1.099,0.905s1.104-0.401,1.104-0.905v-4.262
		c0-0.502-0.497-0.903-1.104-0.903s-1.099,0.399-1.099,0.903v0.888h-2.162v-3.986c4.619-0.339,8.259-4.182,8.259-8.883V91.567
		h19.768c0,0,4.53-0.061,4.53,6.093L287.104,122.069z"/>
</g>
<g display="none">
	<path display="inline" d="M388.076,122.624v4.962c0,0.339-0.186,0.649-0.485,0.806c-0.158,0.084-15.891,8.338-36.055,10.59
		c-7.052,0.789-14.172,1.188-21.159,1.188c-3.41,0-6.788-0.097-10.038-0.286c-8.723-0.519-16.69-1.74-23.043-3.53
		c-12.257-3.453-20.516-4.847-22.756-5.19c-0.017,0-8.058-1.455-18.181-1.517l-2.858,8.398c-0.124,0.371-0.472,0.619-0.866,0.619
		l-42.917-0.008c-0.505,0-0.918-0.411-0.918-0.918v-17.301c0-0.407,0.268-0.764,0.658-0.882c0.386-0.109,0.808,0.046,1.027,0.386
		l-0.034-0.023c0.08,0.12,2.166,3.404,8.335,3.756c5.702,0.339,25.352-0.281,25.352-0.281c4.674,0,20.054-0.097,31.095,1.835
		c2.383,0.358,10.991,1.782,23.77,5.388c8.313,2.343,19.135,3.583,31.291,3.583c6.762,0,13.675-0.393,20.55-1.155
		c17.749-1.981,33.617-10.162,35.42-11.066l0.449-0.154c0.278-0.144,0.637-0.137,0.909,0.029
		C387.895,122.016,388.076,122.303,388.076,122.624z M221.467,121.847c0,0,9.347,0.234,24.189-0.261c0,0,6.067-0.125,14.608,0.403
		c4.701,0.238,9.681,0.654,14.075,1.366c6.477,0.871,13.222,2.166,19.354,4.089c1.683,0.439,3.439,0.907,5.308,1.437
		c8.28,2.333,19.049,3.575,31.144,3.583c6.605-0.173,13.324-0.692,19.812-1.42c19.514-2.174,33.374-9.56,33.374-9.56
		c2.119-0.972,1.815-3.397,1.815-3.397c-0.299-5.593-4.1-8.4-4.1-8.4c-1.628-2.018-10.148-2.493-14.003-2.018
		c-11.252,1.434-25.111-2.305-25.111-2.305c-6.369-1.289-17.505-8.259-25.078-13.39l-5.913,5.913
		c-0.18,0.18-0.411,0.268-0.647,0.268c-0.23,0-0.471-0.088-0.647-0.268c-0.358-0.356-0.358-0.936,0-1.295l5.669-5.671
		c-3.826-2.63-6.445-4.572-6.445-4.572c-0.004-0.004-0.013-0.006-0.017-0.01l-6.82,6.822c-0.18,0.179-0.411,0.27-0.65,0.27
		c-0.238,0-0.47-0.088-0.649-0.27c-0.358-0.358-0.358-0.936,0-1.295l6.616-6.611c-2.231-1.613-4.399-3.047-6.491-4.326l-7.382,7.384
		c-0.179,0.177-0.411,0.268-0.649,0.268s-0.471-0.088-0.649-0.268c-0.356-0.359-0.356-0.938,0-1.297l7.065-7.061
		c-13.438-7.831-23.216-9.039-23.216-9.039c-1.909-0.698-2.297,0.759-2.297,0.759l0.023,2.364c-4.263,1.592-14.879,3.15-25.599,4.15
		c-13.848,1.289-27.91-2.48-32.955-3.29c-1.552-0.247-2.104,1.13-2.104,1.13l-1.31,3.087c0,0-6.498,17.142-4.028,28.981
		c0,0,0.093,1.666,0.644,4.232C208.949,114.909,210.633,122.352,221.467,121.847z"/>
</g>
<g display="none">
	<path display="inline" d="M387.524,131.926v4.929c0,0.34-0.186,0.646-0.482,0.803c-0.156,0.085-15.796,8.289-35.84,10.528
		c-7.01,0.782-14.09,1.183-21.037,1.183c-3.387,0-6.744-0.094-9.973-0.284c-8.673-0.517-16.594-1.728-22.908-3.511
		c-12.186-3.43-20.394-4.815-22.62-5.157c-0.02,0-8.01-1.448-18.072-1.508l-2.843,8.347c-0.124,0.369-0.468,0.623-0.86,0.623
		l-42.664-0.016c-0.502,0-0.911-0.406-0.911-0.908v-17.203c0-0.402,0.266-0.757,0.653-0.873c0.384-0.112,0.804,0.046,1.021,0.38
		l-0.034-0.023c0.08,0.125,2.153,3.388,8.286,3.737c5.669,0.338,25.2-0.278,25.2-0.278c4.646,0,19.938-0.097,30.911,1.824
		c2.368,0.356,10.926,1.767,23.631,5.351c8.261,2.33,19.019,3.564,31.104,3.564c6.724,0,13.595-0.391,20.428-1.148
		c17.647-1.971,33.421-10.104,35.216-11.002l0.442-0.152c0.278-0.143,0.635-0.141,0.902,0.027
		C387.345,131.325,387.524,131.605,387.524,131.926z M221.904,131.152c0,0,9.289,0.232,24.044-0.261c0,0,6.031-0.12,14.524,0.403
		c4.671,0.236,9.625,0.651,13.99,1.36c6.439,0.869,13.144,2.153,19.24,4.068c1.677,0.434,3.421,0.9,5.279,1.428
		c8.229,2.319,18.932,3.553,30.957,3.56c6.565-0.169,13.246-0.683,19.691-1.407c19.398-2.166,33.179-9.504,33.179-9.504
		c2.106-0.968,1.807-3.381,1.807-3.381c-0.299-5.559-4.078-8.349-4.078-8.349c-1.622-2.008-10.085-2.478-13.924-2.008
		c-11.182,1.428-24.959-2.291-24.959-2.291c-6.334-1.28-17.401-8.21-24.933-13.312l-0.009,0.006
		c-0.055-0.042-0.075-0.095-0.135-0.133c-1.275-0.835-2.903-2.282-4.705-4.064l-6.308,3.593c-0.217,0.125-0.462,0.15-0.689,0.089
		c-0.222-0.061-0.424-0.209-0.551-0.428c-0.249-0.437-0.097-0.996,0.342-1.244l5.865-3.343c-1.677-1.731-3.493-3.737-5.357-5.882
		l-6.902,3.938c-0.219,0.125-0.466,0.147-0.693,0.088c-0.224-0.065-0.422-0.213-0.549-0.428c-0.247-0.438-0.095-0.993,0.34-1.242
		l6.593-3.756c-1.647-1.921-3.312-3.917-4.95-5.926l-7.666,4.359c-0.22,0.126-0.466,0.147-0.693,0.088
		c-0.224-0.063-0.422-0.208-0.549-0.43c-0.249-0.437-0.095-0.993,0.342-1.242l7.396-4.211c-6.856-8.484-12.901-16.686-13.867-18.289
		c-1.748-2.917-12.242-0.677-14.166-0.245v-0.004c-0.008,0.004-13.043,4.051-23.493,4.051c-14.191,0-25.129-0.128-30.144-0.93
		c-1.542-0.247-2.546,1.122-2.546,1.122l-0.848,3.07c0,0-6.953,35.654-4.498,47.42c0,0,0.093,1.658,0.639,4.206
		C209.46,124.253,211.13,131.654,221.904,131.152z"/>
</g>
<g display="none">
	<path display="inline" d="M394.884,119.591c-0.77-5.962-5.067-8.672-5.067-8.672c-1.911-2.031-11.078-1.845-15.166-1.033
		c-11.945,2.444-27.094-0.451-27.094-0.451c-11.205-1.405-36.002-21.57-36.002-21.57c-19.392-14.198-27.992-17-27.992-17
		c-2.103-0.595-2.402,1.001-2.402,1.001l-4.558,38.868l0.585,0.264c1.921,0.523,3.578,1.753,4.713,3.413
		c0.036,0.053,0.074,0.103,0.107,0.156c0.043,0.062,0.078,0.126,0.121,0.186c0.773,1.232,1.263,2.681,1.359,4.233
		c0.02,0.23,0.03,0.464,0.03,0.698c0.013,4.332-2.855,7.953-6.669,8.803l-1.01,4.844c0.031,0.257,0.062,0.506,0.109,0.747
		c1.413,0.103,10.69,0.839,25.213,3.789c15.796,3.191,37.39,2.149,57.045-1.546c20.742-3.905,35.011-12.936,35.011-12.936
		C395.407,122.172,394.884,119.591,394.884,119.591z M284.934,92.938c-1.019,0-1.839-0.822-1.839-1.839
		c0-1.012,0.82-1.835,1.839-1.835c1.015,0,1.835,0.823,1.835,1.835C286.769,92.117,285.95,92.938,284.934,92.938z M288.546,122.75
		c-1.019,0-1.839-0.823-1.839-1.835c0-1.014,0.82-1.837,1.839-1.837c1.015,0,1.837,0.823,1.837,1.837
		C290.381,121.927,289.559,122.75,288.546,122.75z M332.527,134.105c-1.013,0-1.835-0.822-1.835-1.833
		c0-1.021,0.822-1.839,1.835-1.839c1.017,0,1.837,0.818,1.837,1.839C334.364,133.283,333.543,134.105,332.527,134.105z
		 M269.53,112.825c-0.447,0.015-0.888,0.07-1.31,0.163l-0.278-1l-15.707-21.914l-4.383-5.253l-4.998,1.343
		c-12.146,4.23-29.92,4.64-35.399,4.463c-1.701-0.055-2.103,1.489-2.103,1.489l-0.97,3.463c0,0-4.623,19.168-0.389,31.447
		c0,0,0.329,1.761,1.26,4.427c0.926,2.67,3.72,10.389,15.203,8.386c0,0,9.999-1.013,25.751-3.553c0,0,13.621-1.87,23.658-2.066
		l1.273-7.278l0.508,0.093v-0.006c3.168-0.854,5.445-3.79,5.338-7.21C276.859,115.826,273.522,112.701,269.53,112.825z
		 M245.051,93.781c-1.013,0.032-1.862-0.768-1.892-1.782c-0.031-1.012,0.764-1.862,1.782-1.892c1.012-0.034,1.86,0.764,1.892,1.778
		C246.865,92.9,246.068,93.746,245.051,93.781z M262.395,123.056c-1.014,0.034-1.864-0.761-1.896-1.782
		c-0.036-1.01,0.764-1.862,1.775-1.89c1.017-0.034,1.864,0.759,1.898,1.778C264.204,122.174,263.407,123.02,262.395,123.056z"/>
</g>
<g display="none">
	<path display="inline" d="M391.39,98.008c-2.693-2.318-10.092-8.457-21.821-3.212c-10.79,4.827-19.059,7.702-19.059,7.702
		s-13.122,6.089-30.521-5.764l-34.161-25.801l-4.005-2.944c-5.308-4.41-4.783,2.379-4.783,2.379
		c0.323,15.722-1.801,28.61-2.577,32.761c5.005,1.031,8.704,5.502,8.553,10.781c-0.1,3.522-1.913,6.574-4.596,8.453l-1.706,10.465
		c5.192,0.4,9.263,1.29,12.611,2.954c16.123,8.006,26.17,8.289,26.17,8.289s10.481,3.743,35.61-14.069l40.112-30.131
		C391.217,99.868,392.398,98.876,391.39,98.008z M295.57,124.095c-0.996,0-1.795-0.801-1.795-1.794s0.799-1.797,1.795-1.797
		c0.993,0,1.792,0.804,1.792,1.797S296.561,124.095,295.57,124.095z M278.027,113.251c-0.409-3.939-3.929-6.801-7.864-6.392
		c-0.44,0.044-0.879,0.135-1.293,0.247l-0.339-0.968l-17.098-20.56l-4.701-4.885c0,0-34.051,7.453-39.563,8.596
		c-1.633,0.342-1.964,1.63-1.964,1.63l-0.713,3.497c0,0-3.218,19.276,1.839,31.137c0,0,0.449,1.715,1.551,4.281
		c1.117,2.582,4.431,10.007,15.65,7.216c0,0,6.101-1.062,16.229-3.293c10.743-1.764,24.166-3.284,31.687-1.475l1.814-11.513h-0.007
		l0.007-0.05l0.004,0.038C276.335,119.686,278.385,116.625,278.027,113.251z M225.288,96.4c-0.993,0-1.795-0.803-1.795-1.796
		c0-0.994,0.802-1.797,1.795-1.797s1.794,0.803,1.794,1.797C227.08,95.597,226.281,96.4,225.288,96.4z M258.291,117.427
		c-0.995,0-1.797-0.797-1.797-1.794c0-0.991,0.799-1.797,1.797-1.797c0.993,0,1.793,0.806,1.793,1.797
		C260.081,116.63,259.282,117.427,258.291,117.427z"/>
</g>
<g display="none">
	<path display="inline" d="M391.39,98.008c-2.693-2.318-10.092-8.457-21.821-3.212c-10.79,4.827-19.059,7.702-19.059,7.702
		s-13.122,6.089-30.521-5.764l-34.161-25.801l-4.005-2.944c-5.308-4.41-4.783,2.379-4.783,2.379
		c0.323,15.722-1.801,28.61-2.577,32.761c5.005,1.031,8.704,5.502,8.553,10.781c-0.1,3.522-1.913,6.574-4.596,8.453l-1.706,10.465
		c5.192,0.4,9.263,1.29,12.611,2.954c16.123,8.006,26.17,8.289,26.17,8.289s10.481,3.743,35.61-14.069l40.112-30.131
		C391.217,99.868,392.398,98.876,391.39,98.008z M278.027,113.251c-0.409-3.939-3.929-6.801-7.864-6.392
		c-0.44,0.044-0.879,0.135-1.293,0.247l-0.339-0.968l-17.098-20.56l-4.701-4.885c0,0-34.051,7.453-39.563,8.596
		c-1.633,0.342-1.964,1.63-1.964,1.63l-0.713,3.497c0,0-3.218,19.276,1.839,31.137c0,0,0.449,1.715,1.551,4.281
		c1.117,2.582,4.431,10.007,15.65,7.216c0,0,6.101-1.062,16.229-3.293c10.743-1.764,24.166-3.284,31.687-1.475l1.814-11.513h-0.007
		l0.007-0.05l0.004,0.038C276.335,119.686,278.385,116.625,278.027,113.251z"/>
</g>
<g display="none">
	<path display="inline" d="M393.214,123.385c0,0-14.27,9.031-35.011,12.937c-19.655,3.694-41.249,4.736-57.046,1.545
		c-14.521-2.948-23.799-3.686-25.212-3.789c-0.045-0.24-0.078-0.49-0.11-0.747l1.011-4.844c3.815-0.848,6.681-4.471,6.668-8.803
		c0-0.234-0.01-0.468-0.029-0.698c-0.095-1.552-0.584-3.001-1.36-4.232c-0.042-0.059-0.078-0.125-0.12-0.186
		c-0.033-0.053-0.071-0.104-0.107-0.156c-1.135-1.66-2.792-2.889-4.714-3.412l-0.584-0.264l4.558-38.868c0,0,0.3-1.597,2.402-1.002
		c0,0,8.601,2.803,27.992,17c0,0,24.797,20.166,36.002,21.57c0,0,15.148,2.896,27.094,0.451c4.087-0.812,13.255-0.998,15.166,1.034
		c0,0,4.298,2.71,5.067,8.672C394.884,119.591,395.407,122.172,393.214,123.385z M269.53,112.825
		c-0.447,0.015-0.888,0.07-1.31,0.163l-0.278-1l-15.707-21.914l-4.383-5.253l-4.998,1.343c-12.146,4.23-29.92,4.64-35.399,4.463
		c-1.701-0.055-2.103,1.489-2.103,1.489l-0.97,3.463c0,0-4.623,19.168-0.389,31.447c0,0,0.329,1.761,1.26,4.427
		c0.926,2.67,3.72,10.389,15.203,8.386c0,0,9.999-1.013,25.751-3.553c0,0,13.621-1.87,23.658-2.066l1.617-7.278l0.85,0.091v-0.006
		c2.109-0.854,5.102-3.79,4.996-7.21C277.202,115.826,273.522,112.701,269.53,112.825z"/>
</g>
<g display="none">
	<path display="inline" d="M372.755,117.699c-1.911-15.286-17.741-13.801-17.741-13.801s-7.603-0.04-15.53,5.247
		c-7.923,5.283-20.725,16.456-34.688,6.479c0,0-2.626-1.666-1.89-5.873c0.604-3.484,10.692-12.236,29.895-7.864
		c0,0,19.59,6.139,28.675-1.766l21.704-23.407c0,0,3.471-3.085,5.709-3.212c0.381-0.019,0.728,0.044,1.017,0.222
		c-0.165-0.102-0.289-0.177-0.289-0.177s1.712,0.993,2.159-0.711c0.445-1.71-3.332-5.53-10.159,0.61L362.83,92.339
		c0,0-6.373,8.575-17.227,6.295c-10.329-2.166-30.166-10.91-45.427,5.462l0.105-0.371l-66.489-13.48c0,0-21.347-3.735-30.537,2.894
		l80.315,17.875l-78.745,12.902c8.55,7.43,30.146,5.648,30.146,5.648l64.241-10.232c0.882,0.894,1.597,1.413,1.597,1.413
		c2.765,3.615,14.064,6.827,14.064,6.827c15.119,20.571,39.852,11.038,39.852,11.038S374.661,132.98,372.755,117.699z
		 M291.311,114.327c-1.29-1.109-1.436-3.054-0.326-4.342c1.109-1.287,3.054-1.434,4.342-0.325c1.287,1.109,1.435,3.056,0.327,4.347
		C294.544,115.292,292.598,115.436,291.311,114.327z M358.374,132.398c-21.541,9.109-33.417-0.944-33.417-0.944
		c-6.984-4.743-5.995-6.81-1.883-7.54c4.104-0.728,10.665-3.469,16.013-7.717c5.349-4.245,8.295-5.316,8.295-5.316
		c15.026-6.808,19.31,4.374,19.31,4.374C370.846,125.481,358.374,132.398,358.374,132.398z"/>
</g>
<g display="none">
	<path display="inline" d="M372.075,118.977c-1.217-14.666-16.389-13.879-16.389-13.879s-7.25-0.34-15.028,4.393
		c-7.771,4.727-20.434,14.885-33.361,4.802c0,0-2.079-2.334-1.571-5.677c0.511-3.336,10.688-11.249,28.845-6.318
		c0,0,18.449,6.637,27.436-0.548l24.451-23.574c0,0,3.433-2.807,5.578-2.838c0.366-0.002,0.691,0.074,0.961,0.253
		c-0.155-0.104-0.27-0.181-0.27-0.181s1.597,1.014,2.09-0.595c0.491-1.616-2.961-5.41-9.72,0.177l-21.49,19.386
		c0,0-6.424,7.932-16.687,5.325c-9.654-2.446-27.91-11.399-43.015,2.86l0.032-0.361l-77.218-2.662c0,0-20.695,0.255-28.156,8.099
		l63.163,2.9l-62.147,1.13c7.194,8.085,27.87,9.03,27.87,9.03l76.769-0.666c3.503,3.187,12.224,6.069,12.224,6.069
		c13.615,20.231,37.599,12.113,37.599,12.113S373.29,133.632,372.075,118.977z M296.33,113.567
		c-1.315-1.107-1.479-3.083-0.364-4.399c1.115-1.316,3.083-1.479,4.401-0.361c1.313,1.109,1.474,3.081,0.362,4.397
		C299.618,114.521,297.645,114.685,296.33,113.567z M357.765,132.437c-20.921,7.836-33.004-3.118-33.004-3.118
		c-3.347-2.001-4.296-5.85-0.346-6.382c3.946-0.533,10.317-2.891,15.592-6.728c5.272-3.836,8.121-4.75,8.121-4.75
		c14.615-5.898,18.262,4.939,18.262,4.939C369.944,126.325,357.765,132.437,357.765,132.437z"/>
</g>
<g display="none">
	<path display="inline" d="M352.564,88.648v29.317c0,0-5.582-3.223-13.12-3.484v-4.965h-2.716v5
		c-2.666,0.177-5.498,0.789-8.379,2.031v-8.396h-2.719v9.615c-3.672,1.691-6.548,2.083-8.48,1.995
		c0.167-0.553,0.309-1.114,0.309-1.728V92.866c0-1.356-0.479-2.554-1.264-3.638c2.919,0.257,6.584,0.07,10.576-1.493
		C336.764,83.814,350.575,85.902,352.564,88.648z M314.445,91.468c0.191,0.443,0.297,0.911,0.297,1.398v25.167
		c0,0.443-0.109,0.86-0.268,1.27c-0.98,2.514-4.874,4.351-10.036,5.671v-6.707h-2.715v7.331c-3.106,0.645-6.525,1.132-9.981,1.497
		v-11.207h-2.719v11.469c-4.227,0.365-8.385,0.55-11.964,0.601v-7.308h-2.719v7.327c-3.461-0.011-7.628-0.15-11.962-0.47v-11.621
		h-2.716v11.393c-3.984-0.367-7.968-0.902-11.566-1.63v-7.381h-2.716v6.766c-6.135-1.537-10.558-3.775-10.558-7V92.866
		c0-7.868,26.141-9.946,39.959-9.946c10.396,0,27.762,1.179,35.726,5.112c0.002,0,0.002,0,0.002,0
		c0.053,0.025,0.095,0.057,0.142,0.083c0.595,0.301,1.146,0.611,1.626,0.944c0.035,0.023,0.059,0.055,0.097,0.081
		c0.471,0.335,0.895,0.689,1.233,1.062c0.08,0.087,0.11,0.186,0.184,0.276C314.048,90.801,314.292,91.122,314.445,91.468z
		 M264.546,92.866c0,0.842,4.583,1.529,10.232,1.529c5.65,0,10.233-0.686,10.233-1.529c0-0.843-4.581-1.529-10.233-1.529
		C269.127,91.337,264.546,92.024,264.546,92.866z M310.608,97.508l-0.848-1.601c-5.633,2.986-19.693,4.996-34.981,4.996
		c-15.234,0-28.869-1.913-34.742-4.876l-0.814,1.624c6.107,3.079,20.064,5.065,35.557,5.065
		C290.579,102.717,304.644,100.671,310.608,97.508z M355.115,89.669v29.217l5.345,3.549V93.216L355.115,89.669z"/>
</g>
<g display="none">
	<path display="inline" d="M272.32,142.817l48.793-42.42v21.978l-36.158,31.438h-9.46c-1.753,0-3.175-1.426-3.175-3.175V142.817z
		 M321.113,60.74c0-1.75-1.436-3.176-3.187-3.176h-3.229l-42.378,36.85v20.187l48.793-42.42V60.74z M317.926,153.813
		c1.751,0,3.187-1.426,3.187-3.175v-4.78l-9.15,7.952h5.964V153.813z M287.644,160.652h16.598v-6.839h4.121l12.75-11.081v-17.221
		l-33.469,29.097V160.652z M275.494,57.564c-1.753,0-3.175,1.426-3.175,3.176v6.458l11.081-9.634H275.494z M304.241,57.564v-7.32
		h-16.598v7.32h-0.647L272.32,70.325v20.957l38.778-33.716h-6.856V57.564z M347.144,71.759c-0.722,0.633-1.462,1.226-2.191,1.776
		l-1.919,1.818l-21.921,17.73v4.182l-48.793,42.42v-7.086l-32.13,26.054l32.128-31.143v-9.779l48.795-42.415v5.148l13.262-12.728
		l4.967-4.328c0.101-0.091,0.179-0.175,0.271-0.26c0.109-0.097,0.222-0.167,0.335-0.261l2.646-2.303l1.516-1.08
		c0,0,6.574-5.49,9.957-2.191c0.091,0.089,0.149,0.217,0.221,0.323c0.058,0.051,0.134,0.072,0.178,0.123
		C356.545,60.135,353.268,66.401,347.144,71.759z M351.111,60.603c-0.917-1.04-4.045,0.198-6.984,2.775
		c-2.953,2.582-4.592,5.509-3.685,6.553c0.919,1.046,4.045-0.201,6.989-2.773C350.381,64.585,352.02,61.647,351.111,60.603z"/>
</g>
<g display="none">
	<g display="inline">
		<path d="M390.282,93.828c-8.319-12.801-26.474-14.507-26.474-14.507c-19.906-1.438-27.712,12.158-27.712,12.158h-10.669
			c0,0-5.871,0.567-17.503-4.616c-14.269-5.856-37.51-23.608-71.451-26.742c0,0-11.649-1.877-30.854,1.961
			c0,0-4.349,2.518,0.131,3.372c30.078-3.199,48.209,3.413,57.596,6.614c9.39,3.202,26.668,14.505,26.668,14.505
			c8.765,6.063,20.845,10.37,20.845,10.37l11.796,4.777l0.618,0.308c-2.166,2.25-8.022,5.144-8.022,5.144
			c-10.432,4.209-39.708,22.69-39.708,22.69l-8.601,4.393c-19.035,9.332-29.837,10.558-29.837,10.558
			c-5.116,1.917-27.094,1.277-27.094,1.277c-4.265,2.344,0,4.478,0,4.478c17.28,1.495,27.734,0,27.734,0
			c21.936-2.308,57.377-22.163,57.377-22.163s14.486-9.229,25.982-12.812c7.91-2.465,11.182-5.237,12.424-6.647h13.012l-2.564,15.92
			l0.669,0.749c0,0,16.589,0,17.325,0c0.388,0,0.484-0.571,0.484-0.571l-2.621-16.893l2.986-0.042c0,0,11.224,0.042,22.129,11.106
			c0,0,1.846,2.354,3.411,1.278c1.834-1.261-5.99-17.007-25.416-20.208l-12.91-1.067l-3.683-2.9c0,0,2.546-1.928,3.185-2.276
			c4.891-3.338,11.729-3.84,11.729-3.84s12.319-1.731,21.375,3.294l6.111,3.745C393.368,99.922,390.282,93.828,390.282,93.828z
			 M336.202,91.421C336.485,91.263,337.183,90.877,336.202,91.421L336.202,91.421z M337.501,103.508
			c-1.813,0-3.287-1.466-3.287-3.282c0-1.815,1.472-3.283,3.287-3.283c1.808,0,3.277,1.47,3.277,3.283
			C340.779,102.04,339.311,103.508,337.501,103.508z"/>
	</g>
</g>
<g display="none">
	<path display="inline" d="M204.593,89.892c0.061,0.245,0.392,0.375,0.599,0.431c3.244-1.194,8.235-1.447,11.878-1.447
		c1.765,0,2.961,0.061,2.961,0.061l113.7,4.92c0.304,0.042,6.395,0.935,8.37,4.895c1.747,3.507,7.538,5.144,7.595,5.163
		c0.069,0.023,0.814,0.291,1.917,0.829l0.975,0.464l-0.975,0.473c-1.111,0.536-1.862,0.803-1.89,0.814
		c-0.095,0.032-5.888,1.666-7.639,5.171c-1.976,3.958-8.064,4.836-8.322,4.876l-113.158,4.775l-0.101-0.038
		c-1.04-0.403-2.229-0.614-3.44-0.614l-0.251,0.004c-1.664,0.038-2.855,0.462-3.536,1.257c-0.569,0.667-0.838,1.611-0.804,2.887
		c0.062,2.649,1.377,3.826,4.277,3.826l0.248-0.004c1.067-0.029,2.122-0.221,3.126-0.588l0.171-0.034l125.913-2.08
		c-0.038,0,2.767-0.618,3.69-3.197c1.082-3.035,5.192-7.238,10.094-7.238h0.218l1.512-0.12l0.146,0.652
		c0.034,0.135,0.067,0.276,0.089,0.424l0.346,1.447c3.479,9.016,13.428,9.473,15.389,9.473c0.198,0,0.309-0.008,0.314-0.008
		c11.247-0.069,12.548-14.457,12.698-17.58l-5.658,0.696c-0.205,0.523-0.422,1.029-0.675,1.5c-0.336,1.029-0.935,1.812-1.7,2.373
		c-1.284,1.306-2.839,2.083-4.518,2.067c-4.285-0.048-7.702-5.161-7.626-11.424c0.067-6.27,3.604-11.308,7.892-11.26
		c3.012,0.034,5.563,2.594,6.811,6.27l5.475,0.675c-0.062-1.383-0.342-5.002-1.609-8.571c-2.108-5.945-5.827-8.984-11.049-9.024
		c-0.029,0-0.142-0.002-0.35-0.002c-1.962,0-11.905,0.458-15.408,9.516l-0.336,1.428c-0.013,0.101-0.044,0.24-0.082,0.38
		l-0.142,0.649l-1.558-0.123l-0.15,0.004c-4.905,0-9.016-4.205-10.096-7.244c-0.932-2.613-3.752-3.208-3.781-3.216l-126.111-2.219
		c-6.822,0.561-12.871,4.486-12.928,4.526C204.548,88.808,204.533,89.679,204.593,89.892z M361.757,102.12
		c1.832,0,3.319,1.491,3.319,3.326c0,1.839-1.487,3.326-3.319,3.326c-1.839,0-3.33-1.487-3.33-3.326
		C358.427,103.611,359.918,102.12,361.757,102.12z"/>
</g>
<g display="none">
	<g display="inline">
		<path d="M374.299,172.424c0.01,0.46-0.15,0.903-0.46,1.235l-10.163,10.101c-0.323,0.348-0.747,0.531-1.186,0.548
			c-0.442,0.018-0.886-0.135-1.235-0.457L260.035,71.88l-15.568,17.091c-4.378,4.479-3.474,10.884-3.474,10.884l0.42,1.573
			c0.122,0.416,0.073,0.863-0.133,1.24l-1.395,2.999c-0.213,0.398-0.562,0.67-0.959,0.787c-0.411,0.126-0.853,0.086-1.249-0.131
			l-15.838-8.999c-0.382-0.207-0.669-0.557-0.791-0.966c-0.127-0.419-0.071-0.867,0.135-1.247l2.812-3.732
			c0.202-0.38,0.557-0.673,0.972-0.791l1.911-0.567c0,0,7.143-1.634,12.262-15.821c0,0,4.319-12.935,9.492-18.652
			c5.176-5.713,12.704-9.244,25.137-10.958c12.431-1.717,23.487-6.764,23.487-6.764s7.224-3.256,13.179-10.694l1.597-0.542
			l1.287,1.421l-0.935,5.087l-7.173,6.675c0,0-11.182,9.497-27.212,16.56c-4.694,2.064-8.645,5.359-8.777,5.471l104.53,109.423
			C374.083,171.542,374.281,171.964,374.299,172.424z"/>
	</g>
</g>
<g display="none">
	<path display="inline" d="M367.439,162.533l0.05-0.041l-0.432-0.438c-0.091-0.104-0.156-0.215-0.253-0.314
		c-0.182-0.193-0.393-0.341-0.585-0.524l-83.255-83.958l26.959-34.011l-15.385-17.711l-39.181,24.898
		c-0.426-0.162-0.877-0.276-1.358-0.295c-2.368-0.09-4.361,1.757-4.452,4.125c-0.019,0.464,0.058,0.907,0.18,1.331L221.1,91.845
		l16.043,17.112l36.609-23.363l76.043,91.797c0.059,0.06,0.099,0.131,0.158,0.196c0.006,0.008,0.017,0.012,0.024,0.023l0.013,0.017
		l0.003-0.003c5.402,5.705,13.522,6.809,18.162,2.441C372.606,175.883,372.2,168.226,367.439,162.533z"/>
</g>
<g display="none">
	<path display="inline" d="M253.752,49.995c-0.944-0.935-2.461-0.979-3.435-0.059l-2.565,2.411
		c-0.982,0.921-1.033,2.448-0.141,3.452l-9.495,8.936l-0.555,4.094l3.284,3.509l-4.087,3.83l-6.327-6.724l-3.512-0.105l-1.799,1.689
		c-1.002,0.94-1.05,2.512-0.109,3.511l22.142,23.536c0.942,1.001,2.517,1.048,3.514,0.105l1.801-1.691l0.107-3.509l-6.316-6.715
		l4.096-3.849l3.388,3.598l4.013-0.401l9.106-8.569l95.357,105.391c0.316,0.307,0.729,0.445,1.137,0.429
		c0.402-0.011,0.797-0.179,1.097-0.5l8.705-8.216c0.289-0.309,0.441-0.715,0.429-1.144c-0.015-0.42-0.198-0.813-0.502-1.099
		L274.111,70.068c4.087-4.225,20.297-19.546,33.334-11.635c0,0,1.038,0.658,1.875-0.051c1.48-1.249,0.422-2.622,0.422-2.622
		C284.236,28.619,259.97,44.965,253.752,49.995z"/>
</g>
<g display="none">
	<path display="inline" d="M360.432,138.641c1.213,1.421,1.109,2.579,1.109,2.579v12.375h-23.726c0,0-4.254-0.082-5.915-3.1
		c0,0-4.37-7.173-23.656-6.527h-1.726c-19.286-0.647-23.654,6.527-23.654,6.527c-1.664,3.018-5.915,3.1-5.915,3.1h-23.727V141.22
		c0,0-0.107-1.158,1.109-2.579l8.942-10.302c0.348-0.466,1.388-0.726,1.388-0.726l4.57-1.367h74.859l6.004,1.367
		c0,0,1.04,0.259,1.388,0.726L360.432,138.641z M272.776,57.3v3.018c0,0-1.453,1.873-7.489,1.873h-4.441v2.702h-35.08
		c0,0-5.032-0.168-21.849-1.156l-2.662-0.211c-0.069-0.006-0.142-0.012-0.213-0.012c-0.873,0-1.582,0.708-1.582,1.583
		c0,0.327,0.1,0.633,0.269,0.888l0.151,0.221c0,0,18.771,31.006,60.171,31.424l8.752,0.04c8.208,0,15.51,7.012,15.51,15.216
		c0,4.518-2.522,8.444-6.234,10.452h58.34c-4.06-2.824-6.715-7.525-6.715-12.837c0-10.792,9.847-30.318,44.897-36.249l14.455-3.225
		c0,0,5.201-0.622,5.201-3.849v-2.598l1.561-1.559V57.3H272.776z"/>
</g>
<g display="none">
	<path display="inline" d="M396.761,56.942v6.08l-2.108,1.559v2.598c0,3.227-5.403,3.849-5.403,3.849l-14.655,3.225
		c-35.051,5.93-44.908,25.455-44.908,36.249c0,5.311,2.634,10.011,6.694,12.835l13.638,4.277c0,0,0.962,0.259,1.311,0.726
		l8.788,10.302c1.212,1.421,0.793,2.579,0.793,2.579v12.734h-23.094c0,0-4.254-0.543-5.915-3.561c0,0-4.37-6.984-23.656-6.984
		h-1.726c-19.286,0-23.654,6.984-23.654,6.984c-1.664,3.018-5.915,3.561-5.915,3.561h-23.598V141.22c0,0-0.171-1.28,1.046-2.701
		l8.879-10.425c0.348-0.466,1.388-0.973,1.388-0.973l13.435-4.802h0.031c3.685,0,6.186-5.431,6.186-9.927
		c0-8.202-7.304-14.719-15.509-14.719l-8.753-0.038c-41.4-0.417-60.173-31.421-60.173-31.421L199.73,66
		c-0.169-0.255-0.268-0.544-0.268-0.873c0-0.875,0.708-1.554,1.581-1.554c0.069,0,0.142,0.067,0.213,0.074l2.662,0.331
		c16.814,0.989,21.847,1.4,21.847,1.4h36.022V61.16h3.499c6.036,0,7.046-0.841,7.046-0.841v-3.376H396.761z"/>
</g>
<g display="none">
	<g display="inline">
		<path d="M333.189,114.4c0-0.483,0.002-0.972,0.007-1.455c0.782-8.408,8.699-12.301,17.584-12.352V60.069h-95.542v43.327
			l7.908,0.002c9.438,0,17.838,4.313,17.838,13.747c0,5.131-2.832,9.591-7.015,11.926h66.82
			C336.194,125.814,333.189,120.459,333.189,114.4z"/>
		<path d="M253.784,65.696l-12.749-0.002v3.108H218.51c0,0-19.156-0.074-19.238-0.074c-1.008,0-1.822,0.814-1.822,1.82
			c0,0.375,0.114,0.726,0.311,1.017c0,0,9.034,26.55,56.021,27.29V65.696H253.784z"/>
		<polygon points="357.965,60 352.233,60 352.233,100.591 356.229,100.591 374.539,84.934 386.507,84.934 386.507,72.466 		"/>
		<path d="M346.195,130.526h-76.439l-14.528,9.779c-1.396,1.634-1.273,2.965-1.273,2.965v10.096h21.979l3.383-3.566h57.314
			l3.383,3.566h21.984V143.27c0,0,0.122-1.331-1.276-2.965L346.195,130.526z"/>
	</g>
</g>
<g display="none">
	<path display="inline" d="M268.864,97.537l-1.091-0.036c-64.569-6.278-66.78-33.672-66.78-33.672s-0.065-0.715-0.065-1.014
		c0-0.799,0.652-1.447,1.451-1.447c0.065,0,0.131,0.002,0.196,0.011l2.438,0.189c15.325,2.078,53.164,1.603,53.164,1.603
		l0.005-2.105h10.846v-2.573h125.325l0.004,11.06c-34.567,0-60.946,19.679-60.946,44.566l1.953,9.024h-48.329l2.526-8.748
		C289.561,102.369,276.38,97.537,268.864,97.537z M286.121,125.553l-17.096,17.443v9.408h15.552
		c6.782-6.789,26.402-6.982,26.402-6.982h0.364c0,0,18.682-0.742,26.402,6.982h15.552v-9.408l-17.096-17.443H286.121z"/>
</g>
<g display="none">
	<g display="inline">
		<path d="M394.467,69.739c-34.566,0-60.943,19.674-60.943,44.562l2.168,10.014l17.718,18.08v9.401h-15.549
			c-7.717-7.715-26.398-6.98-26.398-6.98H311.1c0,0-19.618,0.198-26.4,6.98h-15.547v-9.399l17.717-18.08l2.813-9.733
			c0-12.032-13.179-16.859-20.693-16.859l-1.086-0.04c-64.565-6.276-66.773-33.667-66.773-33.667s-0.065-0.713-0.065-1.012
			c0-0.802,0.649-1.451,1.451-1.451c0.067,0,0.13,0.004,0.193,0.015l2.438,0.186c15.323,2.08,53.16,1.603,53.16,1.603l0.004-2.105
			h10.845v-2.571h125.302L394.467,69.739z"/>
	</g>
</g>
<g display="none">
	<path display="inline" d="M387.642,72.335v12.54h-12.035l-18.422,15.752h-5.3c-9.012,0-17.081,5.011-17.876,13.527
		c-0.002,0.491-0.002-0.122-0.002,0.365c0,6.097,3.02,11.481,7.641,14.761l20.059,10.209c1.404,1.646,1.28,2.984,1.28,2.984v10.154
		h-22.112l-3.404-3.589h-57.659l-3.403,3.589h-22.115v-10.154c0,0-0.122-1.339,1.28-2.984l18.94-10.26h0.005
		c4.156-2.364,6.968-6.82,6.968-11.943c0-9.495-8.453-13.831-17.945-13.831l-8.691-0.002l-0.008-4.553
		c-47.898-0.483-57.075-27.469-57.075-27.469c-0.198-0.293-0.312-0.646-0.312-1.023c0-1.012,0.82-1.833,1.832-1.833
		c0.085,0,19.353,0.076,19.353,0.076h22.66v-3.13l13.806,0.004v-5.661l114.506,0.165L387.642,72.335z"/>
</g>
<g display="none">
	<path display="inline" d="M224.276,67.47c-0.471,1.527,0.871,4.37,1.356,5.315l58.043,32.617l-57.859,31.548
		c-1.977,2.239-2.035,5.862-2.035,5.862l72.731-29.846l37.067,27.77c-6.796,21.32,22.462,33.418,33.536,21.393
		c14.693-21.01-18.689-35.074-29.647-26.885c-3.241-2.871-22.65-17.631-22.65-17.631c-0.987-0.867-4.494-7.491-6.778-11.926
		c1.7-3.355,4.22-8.297,5.192-9.887l0.333-0.653l0.076-0.009c0.482-0.749,0.932-1.343,1.28-1.647c0,0,19.592-14.794,22.867-17.675
		c11.049,8.273,44.859-5.827,29.996-27.012c-11.18-12.095-40.703,0.044-33.904,21.474l-37.041,27.56L224.276,67.47z M345.4,159.682
		c-13.362-7.86-7.271-16.583-6.189-17.931c4.783-6.639,13.204-3.543,13.204-3.543C378.577,146.898,364.988,170.246,345.4,159.682z
		 M345.843,51.246c19.796-10.614,33.532,12.905,7.048,21.613c0,0-8.514,3.096-13.327-3.592
		C338.476,67.911,332.352,59.133,345.843,51.246z M297.585,102.107c1.788,0,3.244,1.451,3.244,3.242s-1.453,3.241-3.244,3.241
		c-1.793,0-3.243-1.451-3.243-3.241S295.795,102.107,297.585,102.107z"/>
</g>
<g display="none">
	<path display="inline" d="M338.771,121.36c3.006-2.263,5.978-4.834,8.898-7.755l-4.6-4.598c-2.394,2.388-4.876,4.579-7.431,6.574
		l-26.572-49.008c4.563-3.048,7.571-8.244,7.571-14.145c0-8.035-5.574-14.763-13.062-16.542v-7.044h-8.672v7.25
		c-7.092,2.048-12.278,8.585-12.278,16.338c0,5.766,2.873,10.857,7.264,13.936l-60.953,111.826c-0.911,1.68-1.084,2.665-0.597,3.83
		l16.92-13.924l19.672-35.305c5.212,1.641,13.624,3.713,23.794,4.077c0.98,0.038,1.99,0.055,3.03,0.055
		c10.943,0,25.137-2.33,39.003-10.237l27.845,50.814l8.315,4.549l0.289-8.246L338.771,121.36z M299.627,43.168
		c5.118,0,9.262,4.146,9.262,9.258c0,5.116-4.144,9.265-9.262,9.265c-5.114,0-9.259-4.148-9.259-9.265
		C290.368,47.314,294.515,43.168,299.627,43.168z M289.204,130.382c-8.717-0.291-16.125-1.966-21.026-3.415L299.8,70.209
		l27.851,50.819C316.28,127.586,303.183,130.846,289.204,130.382z"/>
</g>
<g display="none">
	<path display="inline" d="M341.991,127.559h4.92v-4.737h-8.02l-29.836-56.221c4.56-3.05,7.564-8.244,7.564-14.141
		c0-8.029-5.569-14.754-13.054-16.534v-7.042h-8.668v7.249c-7.091,2.048-12.274,8.582-12.274,16.328
		c0,5.764,2.872,10.853,7.259,13.928l-29.827,56.434h-7.954v4.737h4.82l-27.901,50.5l-0.006-0.22
		c-0.911,1.679-1.133,2.983-0.646,4.147l16.911-13.916l22.467-40.511h28.233v8.05h6.502v-8.05h28.848l27.237,49.908l8.306,4.543
		l0.291-8.239L341.991,127.559z M299.618,43.204c5.116,0,9.258,4.144,9.258,9.254c0,5.112-4.142,9.256-9.258,9.256
		c-5.11,0-9.252-4.144-9.252-9.256C290.366,47.351,294.51,43.204,299.618,43.204z M302.45,122.822v-8.341h-6.502v8.341h-25.075
		l28.918-52.593l28.412,52.593H302.45z"/>
</g>
<g display="none">
	<path display="inline" d="M261.667,140.14l-18.564,16.988l-6.254,2.61l3.661-5.726l21.16-19.651v5.778H261.667z M356.303,61.607
		c-0.447,0.374-0.93,0.667-1.44,0.884l-14.237,8.216l-13.424,10.307v-6.192l8.655-7.05l-0.002-0.002l0,0l11.691-13.913
		c0.319-0.487,0.716-0.938,1.186-1.333c2.508-2.09,6.238-1.753,8.328,0.755C359.153,55.791,358.813,59.519,356.303,61.607z
		 M354.566,55.228c-0.985-1.125-2.691-1.24-3.819-0.257c-0.112,0.097-9.521,10.912-9.521,10.912
		c-0.209,0.177-0.226,0.489-0.048,0.694c0.181,0.207,0.489,0.226,0.693,0.046c0,0,12.32-7.474,12.435-7.578
		C355.434,58.062,355.548,56.354,354.566,55.228z M264.401,68.246c0.649,0.734,1.98,1.333,2.961,1.333h54.127
		c0.98,0,2.347-0.567,3.041-1.261l7.288-7.289c0.694-0.694,0.46-1.261-0.519-1.261h-72.607c-0.979,0-1.25,0.601-0.603,1.335
		L264.401,68.246z M324.612,144.701c-0.649-0.734-1.979-1.336-2.959-1.336h-54.369c-0.979,0-2.347,0.567-3.039,1.262l-6.071,6.074
		c-0.694,0.691-0.458,1.261,0.521,1.261h70.552c0.98,0,1.252-0.602,0.601-1.337L324.612,144.701z M323.498,75.594
		c0-1.067-0.873-1.94-1.942-1.94H267.52c-1.067,0-1.94,0.873-1.94,1.94v0.911c0,1.067,0.873,1.938,1.94,1.938h54.036
		c1.069,0,1.942-0.875,1.942-1.94V75.594z M323.498,110.341c0-1.067-0.873-1.938-1.94-1.938h-54.036
		c-1.066,0-1.939,0.871-1.939,1.938v0.909c0,1.071,0.873,1.942,1.939,1.942h54.034c1.069,0,1.942-0.871,1.942-1.942V110.341z
		 M323.498,119.025c0-1.065-0.873-1.938-1.942-1.938h-54.034c-1.066,0-1.939,0.873-1.939,1.938v0.914
		c0,1.067,0.873,1.942,1.939,1.942h54.034c1.069,0,1.942-0.875,1.942-1.942V119.025z M323.498,127.716
		c0-1.067-0.873-1.942-1.942-1.942H267.52c-1.067,0-1.94,0.875-1.94,1.942v0.911c0,1.067,0.873,1.938,1.94,1.938h54.036
		c1.069,0,1.942-0.871,1.942-1.938V127.716z M321.556,99.714l-54.036,0.002c-1.067,0-1.94,0.875-1.94,1.938v0.911
		c0,1.065,0.873,1.94,1.94,1.94h54.036c1.069,0,1.942-0.873,1.942-1.94l-0.002-0.911C323.496,100.587,322.625,99.714,321.556,99.714
		z M323.498,84.28c0-0.643-0.32-1.215-0.808-1.567c-0.321-0.232-0.709-0.373-1.135-0.373H267.52c-1.067,0-1.94,0.871-1.938,1.94
		v0.909c0,1.067,0.873,1.94,1.939,1.94h54.034c1.069,0,1.942-0.873,1.942-1.94V84.28z M321.556,134.46h-54.034
		c-1.066,0-1.939,0.876-1.939,1.943v0.912c0,1.068,0.873,1.941,1.939,1.941l54.034-0.002c1.069,0,1.94-0.874,1.94-1.941l0.002-0.91
		C323.498,135.336,322.625,134.46,321.556,134.46z M323.498,92.967c0-1.067-0.873-1.938-1.942-1.938H267.52
		c-1.067,0-1.94,0.875-1.94,1.938v0.911c0,1.067,0.873,1.94,1.94,1.94l54.036-0.002c1.069,0,1.942-0.875,1.942-1.938V92.967z"/>
</g>
<g display="none">
	<g display="inline">
		<path d="M216.555,166.601c-0.391,0.745-0.104,1.666,0.639,2.057l11.994,6.289c0.744,0.395,1.666,0.105,2.056-0.641l2.029-4.031
			l-14.689-7.703L216.555,166.601z"/>
		<path d="M378.728,166.601l-2.029-4.029l-14.69,7.703l2.028,4.031c0.391,0.746,1.312,1.033,2.057,0.641l11.993-6.289
			C378.828,168.267,379.117,167.346,378.728,166.601z"/>
		<path d="M371.995,152.545l-2.235,1.21l-1.008-1.859l2.235-1.211l-3.845-7.117l-6.537,3.541l-1.009-1.86l6.538-3.541l-3.805-7.04
			l-2.244,1.217l-1.008-1.859l2.246-1.217l-3.845-7.118l-6.546,3.547l-1.009-1.86l6.549-3.547l-3.805-7.038l-2.257,1.226
			l-1.008-1.86l2.259-1.225l-3.849-7.118l-6.56,3.553l-1.008-1.86l6.563-3.554l-3.805-7.038l-2.273,1.229l-1.006-1.86l2.271-1.229
			l-3.847-7.118l-6.572,3.56l-1.008-1.86l6.573-3.56l-3.802-7.038l-2.286,1.236l-1.006-1.86l2.283-1.236l-3.84-7.118l-6.589,3.564
			l-1.004-1.86l6.587-3.564l-3.805-7.038l-2.299,1.244l-1.008-1.86l2.301-1.242l-9.337-17.274l-2.665,1.44
			c-1.684-5.61-6.886-9.699-13.044-9.699c-6.105,0-11.272,4.02-12.998,9.556l-2.402-1.297l-9.33,17.274l2.299,1.242l-1.008,1.86
			l-2.297-1.244l-3.805,7.038l6.589,3.564l-1.011,1.86l-6.586-3.564l-3.847,7.118l2.284,1.236l-1.006,1.86l-2.284-1.236
			l-3.805,7.036l6.576,3.562l-1.009,1.86l-6.573-3.56l-3.849,7.118l2.275,1.229l-1.006,1.86l-2.273-1.229l-3.805,7.038l6.562,3.554
			l-1.008,1.86l-6.561-3.553l-3.849,7.118l2.263,1.225l-1.011,1.86l-2.256-1.226l-3.805,7.038l6.548,3.547l-1.006,1.86l-6.548-3.547
			l-3.847,7.118l2.248,1.217l-1.009,1.859l-2.246-1.217l-3.804,7.038l6.537,3.543l-1.006,1.86l-6.538-3.541l-3.847,7.117
			l2.233,1.211l-1.006,1.859l-2.235-1.21l-3.68,6.808l14.583,7.883l57.103-105.648c1.822,0.905,3.872,1.415,6.042,1.415
			c2.27,0,4.405-0.557,6.287-1.537l57.167,105.77l14.595-7.883L371.995,152.545z M297.638,52.88c-1.928,0-3.492-1.562-3.492-3.492
			s1.564-3.493,3.492-3.493s3.492,1.565,3.492,3.493C301.128,51.317,299.566,52.88,297.638,52.88z"/>
	</g>
</g>
<g display="none">
	<g display="inline">
		<path d="M364.756,38.333c-2.603-2.609-6.825-2.613-9.436-0.013c-0.485,0.489-0.884,1.036-1.192,1.62l-14.414,19.525l0,0
			l0.002,0.002l-12.27,12.39l-23.825-23.837c-0.696-0.696-1.314-0.462-1.371,0.517l-0.591,9.537
			c-0.061,0.979,0.458,2.347,1.152,3.041l38.351,38.379c0.694,0.698,2.067,1.263,3.046,1.263l10.336,0.004
			c0.98,0,1.217-0.569,0.523-1.261l-23.805-23.821l12.395-12.259l0.015,0.015L363.214,48.9c0.553-0.299,1.069-0.675,1.533-1.139
			C367.354,45.166,367.358,40.941,364.756,38.333z M361.826,45.566c-0.127,0.124-0.258,0.223-0.396,0.322
			c0.009,0.032,0.015,0.059,0.002,0.072l-13.037,9.066c-0.218,0.215-0.569,0.217-0.783-0.002c-0.217-0.217-0.217-0.569,0.003-0.787
			l9.505-12.601c0.017-0.017,0.046-0.019,0.084-0.015c0.095-0.131,0.192-0.262,0.311-0.377c1.189-1.192,3.123-1.189,4.314,0.004
			C363.018,42.445,363.016,44.379,361.826,45.566z"/>
		<path d="M269.235,94.891c-0.755-0.755-1.995-0.753-2.75,0.002l-0.646,0.644c-0.757,0.755-0.759,1.993-0.002,2.75l38.286,38.315
			c0.755,0.756,1.993,0.758,2.752,0.002l0.646-0.646c0.757-0.753,0.755-1.993,0.002-2.75L269.235,94.891z"/>
		<path d="M256.914,107.205c-0.758-0.759-1.993-0.759-2.75-0.002l-0.644,0.646c-0.76,0.759-0.76,1.993-0.004,2.752l38.288,38.313
			c0.755,0.756,1.992,0.756,2.752,0l0.646-0.643c0.759-0.758,0.757-1.991,0.002-2.753L256.914,107.205z"/>
		<path d="M263.073,101.046c-0.758-0.757-1.993-0.755-2.75,0l-0.646,0.647c-0.758,0.757-0.753,1.989,0,2.748l38.288,38.317
			c0.755,0.756,1.995,0.756,2.752-0.002l0.644-0.643c0.757-0.756,0.759-1.995,0.004-2.75L263.073,101.046z"/>
		<path d="M250.431,113.346c-0.693-0.694-2.064-1.266-3.045-1.266l-8.611-0.002c-0.982-0.002-1.217,0.567-0.522,1.263l24.16,24.177
			L231.68,168.55l-3.104,5.973l5.939-3.13l31.05-30.717l22.678,22.694c0.696,0.693,1.314,0.462,1.373-0.519l0.493-7.913
			c0.062-0.977-0.459-2.348-1.151-3.037L250.431,113.346z"/>
		<path d="M300.031,64.115c-0.755-0.759-1.99-0.759-2.748,0l-0.647,0.645c-0.755,0.755-0.757,1.993,0,2.75l38.288,38.316
			c0.756,0.755,1.995,0.759,2.753,0.002l0.643-0.646c0.76-0.757,0.76-1.995,0.005-2.752L300.031,64.115z"/>
		<path d="M275.395,88.737c-0.757-0.757-1.993-0.757-2.75,0l-0.646,0.645c-0.755,0.755-0.757,1.991,0,2.75l38.284,38.317
			c0.757,0.757,1.997,0.757,2.754,0.002l0.646-0.645c0.757-0.755,0.757-1.995,0.002-2.752L275.395,88.737z"/>
		<path d="M287.713,76.424c-0.755-0.757-1.993-0.759-2.75-0.002l-0.646,0.649c-0.755,0.753-0.757,1.993,0,2.748l38.288,38.318
			c0.758,0.753,1.993,0.755,2.753-0.002l0.645-0.644c0.758-0.755,0.756-1.995,0-2.752L287.713,76.424z"/>
		<path d="M332.161,108.584l-38.288-38.315c-0.755-0.757-1.995-0.757-2.75,0l-0.646,0.643c-0.757,0.755-0.757,1.993-0.002,2.752
			l38.288,38.313c0.753,0.757,1.993,0.757,2.753,0.002l0.645-0.646c0.458-0.459,0.635-1.09,0.54-1.685
			C332.636,109.261,332.463,108.883,332.161,108.584z"/>
		<path d="M281.553,82.581c-0.757-0.755-1.993-0.757-2.748-0.002l-0.646,0.647c-0.755,0.755-0.759,1.993-0.004,2.752l38.286,38.315
			c0.755,0.755,1.995,0.753,2.754,0l0.646-0.647c0.755-0.757,0.755-1.995,0.002-2.75L281.553,82.581z"/>
	</g>
</g>
<g display="none">
	<path display="inline" d="M276.215,119.304c6.198-6.198,12.602-11.184,18.289-14.499c0,0,0.482-0.28,0.588-0.341
		c3.103-1.801,18.047-10.735,30.481-22.855l54.668-54.668l0.011,0.008c1.622-1.402,4.072-1.333,5.612,0.207
		c1.539,1.54,1.606,3.99,0.206,5.612v0.002l-54.67,54.668c-12.116,12.435-21.052,27.378-22.853,30.483
		c-0.06,0.104-0.34,0.588-0.34,0.588l-0.002-0.004c-3.317,5.686-8.304,12.089-14.499,18.289
		c-9.453,9.452-19.391,16.094-26.524,18.278l-9.244-9.244C260.121,138.691,266.763,128.756,276.215,119.304z M262.507,163.862
		l-13.342-13.354c-5.009-0.931-10.356,0.835-13.651,7.886c-7.521,18.648-27.307,16.98-27.307,16.98s27.35,19.605,48.637,2.702
		C261.283,174.554,263.277,169.078,262.507,163.862z"/>
</g>
<g display="none">
	<path display="inline" d="M278.505,157.847c-22.858,47.922-69.325,18.979-69.325,18.979s23.393,3.514,23.907-18.373
		c0.487-20.617,20.969-22.534,23.34-22.686L278.505,157.847z M267.176,125.26l-6.748,5.926l21.975,21.976l5.716-6.76
		c4.271,0.302,8.301-0.942,11.198-3.838c3.427-3.428,4.536-8.442,3.516-13.565l82.167-97.175c1.468-1.468,1.468-3.849,0-5.317
		c-1.468-1.468-3.845-1.468-5.314,0l-95.829,84.114c-4.865-0.776-9.566,0.386-12.828,3.648
		C268.178,117.119,266.932,121.065,267.176,125.26z"/>
</g>
<g>
	<path d="M375.672,139.191v8.437H215.391v-8.437h29.724c0,0,6.442-0.206,16.591-10.038c3.601-3.484,7.006-6.846,10.146-9.982
		l12.751-12.289l39.842-41.515l9.621,10.821l-36.062,38.039c6.995,1.424,15.234,6.023,30.548,17.036c0,0,7.095,5.068,13.852,5.408
		c0,0,0.391-0.023,0.395-0.031c1.459-3.759,6.116-6.918,2.89-18.161c-2.13-7.426-10.834-22.026-10.834-22.026
		s-6.078-9.058,2.899-13.025c8.977-3.965,15.239-6.588,29.227-7.871c0,0,1.877,0.856,0,2.735
		c-1.879,1.879-12.816,9.872-6.966,20.212c3.996,7.057,13.097,17.487,12.799,40.686H375.672z M225.339,122.354
		c0,3.706-1.513,6.285-1.513,6.285v4.227h21.09v-4.227c0,0-1.633-2.582-1.633-6.285c0-3.701-0.552-4.5,2.974-11.15
		c3.526-6.646,4.043-4.178,4.043-9.467c0-5.29-3.178-14.273-16.043-14.273c-12.864,0-16.038,8.984-16.038,14.273
		c0,5.289,0.565,2.822,4.087,9.467C225.828,117.853,225.339,118.652,225.339,122.354z"/>
</g>
<g display="none">
	<g display="inline">
		<path d="M372.812,139.191c0.3-23.198-8.803-33.629-12.795-40.686c-5.851-10.34,5.087-18.335,6.966-20.212
			c1.877-1.879,0-2.735,0-2.735c-13.988,1.282-20.252,3.908-29.226,7.871c-8.979,3.967-2.9,13.025-2.9,13.025
			s8.704,14.601,10.834,22.026c3.227,11.243-1.43,14.402-2.89,18.161c-0.004,0.008-0.394,0.031-0.394,0.031
			c-6.758-0.34-13.853-5.408-13.853-5.408c-15.314-11.013-23.553-15.612-30.548-17.036l36.065-38.039l-9.621-10.821l-33.532,34.935
			c0.837-4.214,0.489-8.592-1.093-12.7c-1.797-4.663-5.3-8.35-9.87-10.38c-4.565-2.027-9.65-2.157-14.312-0.363
			c-7.866,3.028-11.808,11.895-8.779,19.759c2.486,6.46,9.765,9.695,16.222,7.208c2.584-0.998,4.625-2.94,5.747-5.466
			c1.124-2.529,1.196-5.342,0.203-7.928c-0.825-2.149-2.438-3.845-4.539-4.777s-4.443-0.993-6.588-0.167
			c-3.708,1.426-5.565,5.604-4.138,9.315c1.206,3.13,4.736,4.697,7.864,3.492c-0.525-1.388-0.69-1.716-1.147-2.99
			c-1.484,0.571-3.157-0.169-3.729-1.656c-0.793-2.061,0.236-4.38,2.299-5.173c1.348-0.519,2.817-0.479,4.138,0.105
			c1.317,0.582,2.332,1.651,2.849,2.999c0.69,1.786,0.64,3.731-0.137,5.477c-0.776,1.75-2.188,3.09-3.972,3.777
			c-4.808,1.854-10.23-0.559-12.082-5.368c-2.394-6.219,0.72-13.225,6.938-15.619c3.866-1.487,8.08-1.379,11.865,0.304
			c3.785,1.679,6.689,4.734,8.177,8.6c1.9,4.933,1.763,10.309-0.384,15.136c-0.38,0.856-0.829,1.66-1.314,2.436l-0.535,0.559
			l-12.751,12.289c-3.141,3.136-6.546,6.498-10.146,9.981c-10.148,9.83-16.591,10.036-16.591,10.036h-29.724v8.437h160.281v-8.437
			H372.812z"/>
		<path d="M225.339,122.354c0,3.706-1.513,6.285-1.513,6.285v4.227h21.09v-4.227c0,0-1.633-2.582-1.633-6.285
			c0-3.701-0.552-4.5,2.974-11.15c3.526-6.646,4.043-4.178,4.043-9.467c0-5.29-3.178-14.273-16.043-14.273
			c-12.864,0-16.038,8.984-16.038,14.273c0,5.289,0.565,2.822,4.087,9.467C225.828,117.853,225.339,118.652,225.339,122.354z"/>
	</g>
</g>
</svg>
