<?xml version="1.0" encoding="utf-8"?>
<!-- Generator: Adobe Illustrator 15.0.0, SVG Export Plug-In . SVG Version: 6.00 Build 0)  -->
<!DOCTYPE svg PUBLIC "-//W3C//DTD SVG 1.1//EN" "http://www.w3.org/Graphics/SVG/1.1/DTD/svg11.dtd">
<svg version="1.1" id="Calque_1" xmlns="http://www.w3.org/2000/svg" xmlns:xlink="http://www.w3.org/1999/xlink" x="0px" y="0px"
	 width="194px" height="32px" viewBox="0 0 194 32" enable-background="new 0 0 194 32" xml:space="preserve">
<g>
	<g>
		<path d="M2.711,30.995c-0.355-0.179-0.68-0.43-0.977-0.755c-0.236-0.266-0.451-0.613-0.643-1.041
			c-0.192-0.429-0.273-0.954-0.244-1.574c0.295-2.453,0.666-4.922,1.108-7.403c0.384-2.128,0.864-4.389,1.44-6.782
			c0.576-2.394,1.264-4.595,2.062-6.606c0.236-0.562,0.516-1.063,0.842-1.508C6.596,4.942,6.957,4.61,7.387,4.33
			c0.429-0.28,0.953-0.391,1.574-0.333c0.354,0.09,0.664,0.252,0.93,0.489c0.237,0.207,0.436,0.501,0.6,0.885
			c0.162,0.385,0.199,0.887,0.109,1.507c-0.531,1.952-1.062,4.006-1.595,6.163c-0.442,1.861-0.909,3.945-1.397,6.25
			c-0.486,2.306-0.895,4.642-1.219,7.005c0.473-0.118,1.088-0.258,1.84-0.422c0.754-0.16,1.537-0.315,2.351-0.464
			c0.812-0.147,1.632-0.274,2.46-0.377c0.826-0.104,1.58-0.141,2.262-0.111c0.501,0.03,0.959,0.104,1.373,0.222
			c0.355,0.119,0.688,0.295,0.997,0.532c0.311,0.236,0.495,0.562,0.554,0.976c0.059,0.325,0.029,0.635-0.088,0.93
			c-0.119,0.238-0.318,0.475-0.599,0.709c-0.28,0.238-0.718,0.429-1.308,0.578c-1.684,0.266-3.28,0.517-4.788,0.752
			c-0.65,0.089-1.314,0.193-1.994,0.311c-0.681,0.118-1.338,0.238-1.972,0.355c-0.637,0.118-1.235,0.221-1.797,0.309
			c-0.562,0.09-1.034,0.179-1.418,0.268l-0.664,0.134H3.553c-0.148,0-0.289,0.007-0.421,0.021
			C2.998,31.031,2.857,31.023,2.711,30.995z"/>
		<path d="M51.117,30.905c-0.324,0.118-0.649,0.147-0.974,0.09c-0.267-0.03-0.549-0.134-0.843-0.312
			c-0.297-0.178-0.562-0.473-0.799-0.887c-0.383-0.649-0.769-1.389-1.151-2.217c-0.326-0.709-0.704-1.572-1.131-2.592
			c-0.43-1.02-0.852-2.195-1.265-3.525c-1.359-0.089-2.623-0.177-3.789-0.266c-1.168-0.088-2.24-0.118-3.215-0.088
			c-0.737,1.684-1.484,3.25-2.238,4.698s-1.471,2.542-2.15,3.28c-0.385,0.592-0.916,1.05-1.596,1.373
			c-0.592,0.297-1.346,0.496-2.26,0.6c-0.916,0.103-2.039-0.052-3.371-0.467c-0.708-0.234-1.328-0.619-1.861-1.152
			c-0.473-0.471-0.895-1.121-1.262-1.949c-0.371-0.827-0.525-1.906-0.467-3.236c0.089-1.152,0.494-2.127,1.219-2.926
			c0.724-0.798,1.633-1.441,2.727-1.928c1.093-0.488,2.335-0.856,3.725-1.109c1.39-0.25,2.793-0.421,4.211-0.508
			c0.324-0.8,0.648-1.679,0.975-2.64c0.326-0.959,0.682-2,1.062-3.125c0.386-1.063,0.756-2.053,1.109-2.97
			c0.326-0.769,0.658-1.513,0.998-2.238c0.34-0.724,0.644-1.234,0.908-1.529c0.207-0.236,0.488-0.451,0.844-0.643
			c0.354-0.191,0.73-0.333,1.129-0.421c0.4-0.089,0.812-0.117,1.242-0.089c0.428,0.031,0.834,0.133,1.219,0.311
			c0.384,0.177,0.702,0.362,0.954,0.554c0.251,0.193,0.458,0.42,0.621,0.688c0.162,0.265,0.294,0.568,0.397,0.908
			c0.104,0.34,0.214,0.73,0.333,1.175c0.178,1.093,0.398,2.231,0.665,3.413c0.235,1.035,0.502,2.188,0.799,3.459
			c0.294,1.27,0.649,2.57,1.062,3.9c0.769,0.06,1.278,0.111,1.53,0.155c0.25,0.044,0.437,0.097,0.552,0.155
			c0.208,0.117,0.371,0.266,0.49,0.442c0.116,0.149,0.222,0.341,0.31,0.579c0.089,0.235,0.103,0.501,0.045,0.797
			c-0.061,0.264-0.149,0.502-0.266,0.708c-0.119,0.177-0.282,0.332-0.489,0.466c-0.205,0.133-0.502,0.186-0.885,0.154h-0.089
			c0.146,0.356,0.287,0.703,0.421,1.043c0.133,0.34,0.272,0.672,0.421,0.998c0.295,0.591,0.561,1.152,0.798,1.684
			c0.207,0.442,0.405,0.887,0.598,1.33c0.193,0.443,0.317,0.738,0.378,0.887c0.117,0.441,0.133,0.844,0.043,1.197
			c-0.06,0.324-0.206,0.648-0.442,0.976C52.122,30.433,51.708,30.699,51.117,30.905z M29.352,26.871
			c0.266-0.029,0.576-0.236,0.932-0.621c0.324-0.322,0.717-0.848,1.174-1.572c0.457-0.726,1.013-1.795,1.663-3.215
			c-1.538,0.148-2.712,0.406-3.524,0.775c-0.814,0.37-1.412,0.748-1.796,1.131c-0.442,0.442-0.694,0.932-0.753,1.463
			c0,0.503,0.073,0.916,0.221,1.242c0.148,0.295,0.371,0.539,0.666,0.73C28.227,26.997,28.701,27.02,29.352,26.871z M39.325,17.785
			c0.917,0.027,1.765,0.059,2.55,0.087c0.783,0.029,1.469,0.075,2.061,0.134c-0.326-1.301-0.619-2.66-0.887-4.079
			c-0.266-1.418-0.473-2.925-0.619-4.522c-0.268,0.77-0.562,1.611-0.887,2.527c-0.297,0.769-0.629,1.655-0.998,2.661
			C40.175,15.596,39.77,16.66,39.325,17.785z"/>
		<path d="M56.659,19.467c-0.532,0.475-1.021,0.814-1.463,1.021c-0.443,0.208-0.828,0.179-1.153-0.089
			c-0.236-0.177-0.354-0.398-0.354-0.664c0-0.268,0.028-0.516,0.089-0.754c0.088-0.295,0.222-0.59,0.399-0.887
			c0.206-0.384,0.518-0.76,0.93-1.13c0.415-0.37,0.857-0.725,1.332-1.065c0.472-0.339,0.943-0.656,1.417-0.953
			c0.473-0.294,0.888-0.531,1.243-0.709c0.679-0.444,1.351-0.701,2.015-0.775c0.666-0.074,1.115,0.155,1.354,0.687
			c0.059,0.149,0.029,0.466-0.089,0.955c-0.118,0.485-0.274,1.035-0.467,1.64s-0.391,1.212-0.598,1.816
			c-0.208,0.607-0.354,1.102-0.443,1.486c-0.178,0.59-0.348,1.234-0.509,1.928c-0.165,0.695-0.297,1.367-0.4,2.018
			s-0.163,1.227-0.178,1.729s0.052,0.857,0.2,1.064c0.266,0.442,0.702,0.65,1.308,0.62c0.605-0.029,1.336-0.368,2.194-1.019
			c0.856-0.65,1.469-1.05,1.84-1.197c0.369-0.146,0.644-0.163,0.82-0.045c0.089,0.06,0.192,0.178,0.312,0.354
			c0.116,0.178,0.153,0.414,0.109,0.708c-0.045,0.297-0.208,0.651-0.487,1.064c-0.28,0.414-0.763,0.857-1.441,1.33
			c-0.855,0.562-1.714,1.035-2.571,1.42c-0.738,0.324-1.529,0.598-2.371,0.819c-0.843,0.222-1.618,0.229-2.326,0.022
			c-0.71-0.208-1.228-0.532-1.554-0.975c-0.324-0.445-0.523-0.947-0.597-1.51c-0.075-0.559-0.075-1.129,0-1.705
			c0.073-0.576,0.154-1.086,0.243-1.529c0.06-0.385,0.148-0.864,0.266-1.439c0.117-0.578,0.236-1.146,0.355-1.709
			c0.117-0.561,0.229-1.07,0.332-1.527C56.519,20.008,56.599,19.675,56.659,19.467z M61.093,10.691
			c-0.771-0.296-1.301-0.827-1.597-1.596C59.2,8.328,59.214,7.529,59.54,6.702c0.324-0.828,0.849-1.433,1.573-1.818
			c0.725-0.383,1.47-0.442,2.239-0.176c0.738,0.296,1.256,0.826,1.551,1.596c0.297,0.769,0.282,1.581-0.044,2.437
			c-0.325,0.829-0.85,1.435-1.574,1.818C62.562,10.942,61.831,10.987,61.093,10.691z"/>
		<path d="M65.349,21.507c-0.355,0.178-0.652,0.273-0.888,0.289c-0.238,0.015-0.43,0-0.576-0.045c-0.148-0.045-0.26-0.112-0.335-0.2
			c-0.07-0.088-0.124-0.162-0.152-0.221c-0.03-0.029-0.083-0.133-0.156-0.311c-0.073-0.177-0.103-0.385-0.089-0.621
			c0.016-0.234,0.11-0.51,0.288-0.818c0.178-0.311,0.488-0.644,0.932-0.998c1.27-0.976,2.386-1.663,3.346-2.062
			c0.96-0.397,1.56-0.643,1.796-0.73h0.044c0.029,0,0.059-0.015,0.088-0.044v0.044c0.297-0.059,0.475-0.089,0.532-0.089
			c0.09,0,0.148,0.015,0.178,0.044c0.681,0.058,1.093,0.229,1.242,0.509c0.146,0.28,0.146,0.672,0,1.175
			c0.295-0.119,0.649-0.268,1.063-0.444c0.414-0.176,0.82-0.326,1.22-0.442c0.398-0.118,0.774-0.2,1.129-0.245
			c0.355-0.044,0.622-0.021,0.799,0.066c0.531,0.267,0.826,0.696,0.887,1.286c0.059,0.592-0.044,1.063-0.311,1.419
			c-0.117,0.177-0.407,0.341-0.863,0.487c-0.459,0.148-1.006,0.318-1.641,0.51c-0.636,0.193-1.324,0.444-2.062,0.753
			c-0.739,0.312-1.464,0.704-2.174,1.175c-0.234,0.65-0.442,1.301-0.619,1.951c-0.179,0.65-0.349,1.264-0.511,1.84
			c-0.161,0.576-0.295,1.086-0.397,1.529c-0.104,0.444-0.17,0.754-0.199,0.931c-0.238,0.947-0.585,1.662-1.042,2.151
			c-0.46,0.487-0.983,0.701-1.573,0.643c-0.563-0.06-0.917-0.178-1.064-0.355c-0.148-0.178-0.253-0.428-0.311-0.754
			c-0.029-0.148-0.044-0.473-0.044-0.975s0.044-1.131,0.132-1.884c0.089-0.755,0.237-1.604,0.444-2.55
			C64.667,23.576,64.963,22.572,65.349,21.507z"/>
		<path d="M88.575,30.905c-0.474,0.09-0.981,0.11-1.531,0.066c-0.546-0.045-1.062-0.192-1.55-0.442
			c-0.488-0.25-0.909-0.614-1.263-1.088c-0.355-0.471-0.562-1.107-0.621-1.904c-0.089-1.035,0.014-2.055,0.31-3.06
			c0.236-0.857,0.679-1.78,1.33-2.771c0.649-0.989,1.654-1.883,3.015-2.682c1.005-0.591,2.083-1.048,3.235-1.374
			c1.153-0.324,2.113-0.546,2.882-0.665l0.089-0.045c0.709-2.718,1.323-4.853,1.84-6.404s0.938-2.71,1.265-3.48
			c0.382-0.916,0.707-1.507,0.973-1.773c0.592-0.502,1.094-0.797,1.51-0.886c0.413-0.09,0.737-0.105,0.976-0.045
			c0.293,0.089,0.514,0.266,0.663,0.531c0.059,0.443,0.036,1.027-0.066,1.75c-0.104,0.726-0.259,1.516-0.466,2.373
			c-0.208,0.858-0.451,1.729-0.73,2.616c-0.282,0.887-0.554,1.721-0.821,2.504c-0.266,0.784-0.503,1.47-0.708,2.061
			c-0.208,0.592-0.356,0.991-0.444,1.198c0.207,0.061,0.466,0.162,0.777,0.311c0.309,0.148,0.567,0.295,0.774,0.443
			c0.354,0.265,0.562,0.584,0.621,0.953c0.06,0.371-0.06,0.731-0.354,1.086c-0.206,0.236-0.525,0.414-0.953,0.532
			c-0.429,0.118-1.072,0.104-1.928-0.044c-0.031,0.117-0.061,0.221-0.089,0.311c-0.03,0.088-0.061,0.162-0.091,0.221
			c-0.147,0.53-0.287,1.1-0.42,1.707c-0.133,0.605-0.243,1.182-0.332,1.729s-0.141,1.042-0.155,1.484
			c-0.016,0.444,0.036,0.754,0.155,0.932c0.236,0.385,0.612,0.561,1.13,0.531s1.16-0.324,1.929-0.885
			c0.738-0.562,1.264-0.902,1.573-1.021c0.31-0.117,0.554-0.134,0.732-0.044c0.088,0.059,0.178,0.162,0.266,0.309
			c0.09,0.149,0.11,0.355,0.064,0.622c-0.044,0.265-0.184,0.569-0.419,0.908c-0.238,0.341-0.651,0.731-1.243,1.175
			c-0.737,0.503-1.478,0.918-2.216,1.242c-0.65,0.295-1.336,0.523-2.06,0.688c-0.726,0.162-1.398,0.152-2.019-0.023
			c-0.503-0.147-0.885-0.369-1.152-0.664c-0.267-0.295-0.459-0.635-0.576-1.02c-0.501,0.385-1.101,0.781-1.795,1.195
			S89.285,30.758,88.575,30.905z M87.998,25.01c-0.087,0.236-0.147,0.487-0.177,0.754c-0.06,0.236-0.082,0.473-0.067,0.708
			c0.015,0.238,0.067,0.474,0.157,0.71c0.059,0.178,0.19,0.297,0.398,0.355c0.206,0.059,0.428,0.088,0.664,0.088
			s0.48-0.036,0.73-0.111c0.252-0.072,0.467-0.154,0.644-0.244c0.237-0.117,0.57-0.332,0.998-0.643s0.833-0.672,1.219-1.086
			c0.06-0.354,0.141-0.76,0.244-1.219c0.104-0.458,0.199-0.924,0.287-1.396c0.09-0.473,0.18-0.909,0.268-1.307
			c0.087-0.4,0.16-0.689,0.221-0.865c-0.324,0.06-0.739,0.155-1.24,0.288c-0.504,0.134-1.021,0.354-1.553,0.664
			c-0.531,0.311-1.049,0.731-1.55,1.265C88.737,23.503,88.322,24.184,87.998,25.01z"/>
		<path d="M105.286,30.905c-0.503,0-0.953-0.044-1.351-0.133c-0.4-0.089-0.732-0.259-0.998-0.51s-0.48-0.599-0.644-1.042
			c-0.161-0.441-0.242-1.02-0.242-1.729c-0.03-0.887,0.05-1.817,0.242-2.793c0.192-0.977,0.495-2.023,0.909-3.148
			c0.03-0.117,0.134-0.405,0.311-0.863c0.178-0.459,0.391-0.976,0.643-1.552c0.251-0.577,0.524-1.137,0.821-1.685
			c0.293-0.547,0.591-0.953,0.885-1.219c0.118-0.118,0.266-0.222,0.444-0.311c0.147-0.059,0.333-0.111,0.554-0.155
			c0.222-0.044,0.495-0.036,0.82,0.023c0.205,0.029,0.414,0.096,0.621,0.2c0.207,0.103,0.361,0.265,0.466,0.486
			c0.103,0.221,0.125,0.495,0.066,0.819c-0.059,0.326-0.238,0.726-0.532,1.199c-0.682,1.27-1.242,2.482-1.686,3.635
			c-0.384,1.004-0.694,2.016-0.931,3.035c-0.235,1.02-0.207,1.855,0.09,2.506c0.176,0.266,0.442,0.369,0.797,0.31
			c0.325-0.06,0.768-0.251,1.331-0.576c0.561-0.325,1.312-0.96,2.259-1.906c0.029-0.798,0.134-1.669,0.312-2.614
			c0.177-0.947,0.384-1.849,0.62-2.705c0.266-0.977,0.547-1.951,0.844-2.927c0.235-0.591,0.567-1.004,0.998-1.24
			c0.426-0.236,1.056-0.354,1.882-0.354c0.415,0,0.718,0.088,0.91,0.265c0.191,0.178,0.316,0.393,0.375,0.643
			c0.06,0.251,0.067,0.496,0.022,0.73c-0.044,0.237-0.081,0.43-0.11,0.577c-0.028,0.089-0.104,0.378-0.221,0.864
			c-0.119,0.488-0.253,1.049-0.4,1.686c-0.147,0.635-0.31,1.293-0.487,1.972c-0.177,0.681-0.34,1.241-0.487,1.685
			c-0.149,0.473-0.237,0.939-0.267,1.396c-0.029,0.459-0.037,0.865-0.021,1.221c0.013,0.354,0.059,0.65,0.132,0.885
			c0.073,0.238,0.141,0.371,0.199,0.399c0.089,0.03,0.223,0.007,0.398-0.066c0.178-0.073,0.356-0.161,0.532-0.267
			c0.178-0.104,0.363-0.205,0.555-0.31s0.361-0.185,0.51-0.243c0.296-0.09,0.591-0.141,0.888-0.156
			c0.295-0.015,0.574,0.111,0.841,0.377s0.34,0.577,0.222,0.931c-0.061,0.179-0.132,0.354-0.222,0.534
			c-0.029,0.057-0.206,0.258-0.532,0.598c-0.323,0.338-1.019,0.716-2.083,1.129c-1.095,0.414-1.878,0.605-2.35,0.578
			c-0.474-0.031-0.872-0.164-1.197-0.4c-0.502-0.354-0.945-1.078-1.329-2.172c-0.326,0.268-0.702,0.539-1.13,0.82
			c-0.431,0.281-0.882,0.547-1.354,0.798s-0.961,0.451-1.462,0.597C106.247,30.876,105.76,30.935,105.286,30.905z"/>
		<path d="M126.652,21.817c-0.265-2.363-0.132-4.61,0.398-6.738c0.237-0.915,0.569-1.847,0.999-2.792
			c0.428-0.945,1.004-1.855,1.729-2.726c0.724-0.872,1.61-1.691,2.66-2.461c1.049-0.768,2.312-1.417,3.79-1.95
			c1.537-0.562,3.072-0.901,4.61-1.02c0.65-0.059,1.322-0.074,2.016-0.043c0.695,0.029,1.398,0.125,2.106,0.287
			c0.709,0.164,1.397,0.408,2.062,0.731c0.666,0.327,1.293,0.769,1.884,1.331c0.266,0.295,0.532,0.651,0.8,1.064
			c0.235,0.355,0.457,0.797,0.664,1.331c0.206,0.53,0.369,1.152,0.486,1.861c0.029,0.148,0.052,0.287,0.066,0.421
			s0.038,0.273,0.066,0.421c0.03,0.266,0.038,0.666,0.023,1.197c-0.017,0.532-0.127,1.108-0.332,1.73
			c-0.208,0.619-0.549,1.241-1.021,1.861c-0.473,0.619-1.168,1.138-2.082,1.551c0.708,0.415,1.313,0.902,1.816,1.462
			c0.413,0.505,0.745,1.109,0.996,1.818c0.252,0.709,0.244,1.537-0.021,2.482c-0.207,0.828-0.51,1.56-0.91,2.194
			c-0.397,0.636-0.805,1.19-1.218,1.663c-0.504,0.531-1.02,1.005-1.552,1.418c-0.946,0.682-1.892,1.176-2.836,1.486
			c-0.947,0.309-1.863,0.494-2.75,0.553c-0.886,0.06-1.714,0.03-2.481-0.088c-0.77-0.117-1.448-0.296-2.041-0.532
			c-0.414,0.236-0.878,0.415-1.396,0.532c-0.517,0.118-1.103,0.147-1.75,0.088c-0.771-0.088-1.449-0.28-2.04-0.576
			c-0.591-0.295-1.123-0.665-1.598-1.109c-0.472-0.441-0.87-0.93-1.196-1.461c-0.324-0.533-0.604-1.08-0.842-1.642
			C127.229,24.861,126.859,23.414,126.652,21.817z M144.208,9.095c-0.503-0.177-1.095-0.31-1.772-0.399
			c-0.594-0.06-1.287-0.06-2.085,0c-0.798,0.059-1.697,0.251-2.704,0.577c-1.479,0.503-2.748,1.271-3.812,2.305
			c-0.473,0.442-0.916,0.968-1.328,1.574c-0.415,0.605-0.777,1.316-1.086,2.128c-0.312,0.813-0.532,1.729-0.666,2.748
			c-0.133,1.02-0.141,2.166-0.021,3.436c0.116,1.24,0.316,2.231,0.598,2.971c0.279,0.738,0.583,1.301,0.909,1.684
			c0.354,0.474,0.738,0.783,1.151,0.932c0.504,0.147,0.916,0.016,1.241-0.398s0.562-0.887,0.711-1.419
			c0.176-0.621,0.31-1.358,0.397-2.218c0.059-0.59,0.119-1.24,0.178-1.949c0.058-0.711,0.133-1.537,0.221-2.482
			c0.06-0.681,0.119-1.426,0.179-2.239c0.059-0.812,0.104-1.426,0.133-1.84c0-0.177,0.015-0.414,0.044-0.71
			c0.029-0.293,0.066-0.604,0.11-0.931c0.046-0.324,0.119-0.656,0.222-0.996c0.104-0.34,0.244-0.627,0.422-0.864
			c0.177-0.237,0.398-0.406,0.665-0.51c0.266-0.104,0.531-0.17,0.799-0.2c0.265-0.028,0.508-0.014,0.73,0.044
			s0.378,0.132,0.465,0.222c0.178,0.147,0.34,0.31,0.489,0.488c0.117,0.148,0.227,0.354,0.331,0.621
			c0.104,0.266,0.141,0.576,0.111,0.931v0.532c0,0.147-0.037,0.592-0.111,1.331c-0.074,0.738-0.141,1.581-0.199,2.525
			c1.212,0,2.194-0.155,2.948-0.466c0.754-0.31,1.337-0.687,1.75-1.129c0.413-0.444,0.703-0.922,0.865-1.441
			c0.161-0.517,0.243-0.998,0.243-1.44c0-0.444-0.059-0.96-0.177-1.552c-0.06-0.117-0.111-0.228-0.157-0.332
			c-0.044-0.104-0.125-0.23-0.242-0.378C145.404,9.804,144.889,9.42,144.208,9.095z M145.36,23.281
			c0.205-0.474,0.199-0.895-0.022-1.265c-0.221-0.368-0.548-0.671-0.975-0.907c-0.43-0.237-0.909-0.422-1.442-0.555
			c-0.531-0.133-0.989-0.215-1.371-0.244c-0.328-0.029-0.579-0.035-0.757-0.022c-0.175,0.017-0.353,0.008-0.53-0.021
			c-0.061,0.62-0.104,1.151-0.133,1.595c-0.029,0.444-0.059,0.726-0.088,0.842c-0.09,0.682-0.18,1.258-0.268,1.73
			s-0.252,1.092-0.486,1.861c0.709,0.148,1.321,0.191,1.838,0.133c0.519-0.059,0.954-0.146,1.31-0.267
			c0.413-0.116,0.768-0.295,1.062-0.53c0.147-0.09,0.325-0.236,0.532-0.443c0.205-0.208,0.384-0.385,0.532-0.533
			c0.06-0.059,0.095-0.104,0.11-0.133c0.015-0.027,0.037-0.059,0.067-0.088c0.028,0,0.044-0.016,0.044-0.044
			C145.078,24.005,145.272,23.635,145.36,23.281z M146.423,11.667l-0.131-0.354C146.35,11.429,146.394,11.548,146.423,11.667z"/>
		<path d="M152.32,28.023c-0.09-0.236-0.164-0.443-0.223-0.62c-0.06-0.178-0.162-0.517-0.312-1.019
			c-0.146-0.562-0.22-1.102-0.22-1.619s0.027-0.982,0.089-1.396c0.057-0.474,0.131-0.9,0.221-1.285
			c0.237-0.798,0.547-1.514,0.933-2.151c0.382-0.634,0.753-1.173,1.108-1.618c0.412-0.529,0.84-0.988,1.285-1.374
			c0.413-0.325,1.003-0.656,1.772-0.996c0.768-0.34,1.64-0.422,2.615-0.244c0.441,0.089,0.887,0.252,1.329,0.486
			c0.385,0.208,0.777,0.497,1.175,0.866c0.399,0.369,0.745,0.864,1.041,1.484c0.18,0.296,0.362,0.664,0.556,1.108
			c0.191,0.442,0.325,0.97,0.398,1.573c0.073,0.606,0.073,1.286,0,2.039c-0.073,0.755-0.288,1.574-0.643,2.461
			c-0.385,0.946-0.812,1.729-1.286,2.35c-0.473,0.619-0.952,1.115-1.441,1.485c-0.485,0.369-0.959,0.649-1.418,0.843
			c-0.458,0.192-0.864,0.348-1.22,0.465c-0.413,0.147-0.885,0.191-1.418,0.134c-0.531-0.061-1.048-0.201-1.551-0.421
			c-0.504-0.223-0.975-0.496-1.418-0.822c-0.443-0.324-0.799-0.693-1.064-1.107c-0.06-0.059-0.104-0.133-0.134-0.221
			c-0.028-0.09-0.073-0.164-0.134-0.223c0-0.059-0.007-0.096-0.021-0.111C152.326,28.075,152.32,28.055,152.32,28.023z
			 M155.202,24.346c-0.09,0.826,0.035,1.594,0.375,2.305c0.341,0.709,0.762,1.078,1.264,1.108c0.383,0,0.769-0.134,1.152-0.399
			c0.324-0.236,0.68-0.598,1.063-1.086s0.739-1.221,1.064-2.195c0.355-1.004,0.437-1.912,0.245-2.726
			c-0.193-0.813-0.452-1.426-0.776-1.841c-0.089-0.117-0.273-0.258-0.556-0.42c-0.279-0.163-0.642-0.096-1.086,0.198
			c-0.206,0.149-0.449,0.349-0.73,0.599c-0.281,0.252-0.562,0.578-0.843,0.976c-0.281,0.399-0.531,0.887-0.751,1.464
			C155.4,22.904,155.26,23.576,155.202,24.346z"/>
		<path d="M167.303,19.467c-0.532,0.475-1.021,0.814-1.462,1.021c-0.444,0.208-0.829,0.179-1.154-0.089
			c-0.236-0.177-0.354-0.398-0.354-0.664c0-0.268,0.029-0.516,0.088-0.754c0.088-0.295,0.222-0.59,0.398-0.887
			c0.207-0.384,0.517-0.76,0.932-1.13c0.412-0.37,0.857-0.725,1.329-1.065c0.474-0.339,0.947-0.656,1.419-0.953
			c0.473-0.294,0.888-0.531,1.242-0.709c0.679-0.444,1.352-0.701,2.016-0.775c0.666-0.074,1.115,0.155,1.353,0.687
			c0.058,0.149,0.028,0.466-0.088,0.955c-0.119,0.485-0.275,1.035-0.466,1.64c-0.193,0.605-0.392,1.212-0.598,1.816
			c-0.208,0.607-0.355,1.102-0.444,1.486c-0.177,0.59-0.348,1.234-0.509,1.928c-0.165,0.695-0.297,1.367-0.398,2.018
			c-0.105,0.65-0.164,1.227-0.178,1.729c-0.017,0.502,0.05,0.857,0.198,1.064c0.267,0.442,0.702,0.65,1.309,0.62
			c0.604-0.029,1.337-0.368,2.193-1.019s1.47-1.05,1.84-1.197c0.37-0.146,0.643-0.163,0.82-0.045
			c0.088,0.06,0.191,0.178,0.312,0.354c0.116,0.178,0.154,0.414,0.11,0.708c-0.046,0.297-0.209,0.651-0.488,1.064
			c-0.282,0.414-0.761,0.857-1.441,1.33c-0.855,0.562-1.713,1.035-2.57,1.42c-0.739,0.324-1.529,0.598-2.372,0.819
			s-1.617,0.229-2.327,0.022c-0.709-0.208-1.227-0.532-1.552-0.975c-0.324-0.445-0.525-0.947-0.598-1.51
			c-0.076-0.559-0.076-1.129,0-1.705c0.072-0.576,0.154-1.086,0.244-1.529c0.057-0.385,0.146-0.864,0.265-1.439
			c0.117-0.578,0.237-1.146,0.355-1.709c0.116-0.561,0.229-1.07,0.332-1.527C167.163,20.008,167.242,19.675,167.303,19.467z
			 M171.735,10.691c-0.768-0.296-1.301-0.827-1.596-1.596c-0.296-0.768-0.281-1.566,0.045-2.394c0.323-0.828,0.85-1.433,1.572-1.818
			c0.725-0.383,1.47-0.442,2.238-0.176c0.739,0.296,1.257,0.826,1.553,1.596c0.295,0.769,0.28,1.581-0.045,2.437
			c-0.324,0.829-0.85,1.435-1.573,1.818C173.205,10.942,172.474,10.987,171.735,10.691z"/>
		<path d="M181.887,30.995c-0.887,0.147-1.938,0.073-3.147-0.223c-1.212-0.325-2.002-0.725-2.371-1.196
			c-0.37-0.473-0.555-0.902-0.555-1.287c-0.236,0.148-0.444,0.281-0.622,0.398c-0.175,0.119-0.325,0.208-0.442,0.268
			c-0.147,0.088-0.266,0.162-0.355,0.221c-0.265,0.178-0.649,0.222-1.151,0.133c-0.502-0.088-0.857-0.383-1.064-0.885
			c-0.089-0.238-0.117-0.451-0.089-0.645c0.031-0.19,0.089-0.36,0.179-0.51c0.089-0.146,0.206-0.294,0.354-0.443
			c0.267-0.206,0.644-0.51,1.13-0.908c0.488-0.4,1.006-0.826,1.553-1.285c0.546-0.458,1.087-0.93,1.617-1.418
			c0.532-0.488,0.99-0.938,1.374-1.354c0.354-0.413,0.8-0.908,1.33-1.484c0.532-0.576,1.05-1.145,1.552-1.707
			c0.562-0.649,1.152-1.314,1.772-1.994c0.386-0.474,0.747-0.77,1.087-0.887c0.339-0.118,0.656-0.148,0.953-0.089
			c0.325,0.06,0.635,0.206,0.932,0.442c0.206,0.267,0.367,0.578,0.486,0.932v0.355c0.03,0.355,0.067,0.924,0.11,1.706
			c0.045,0.782,0.06,1.64,0.045,2.57c-0.014,0.933-0.065,1.878-0.155,2.839c-0.088,0.96-0.236,1.81-0.442,2.549
			c1.033-0.503,1.862-0.873,2.481-1.109c0.621-0.236,1.101-0.391,1.441-0.467c0.339-0.072,0.576-0.08,0.711-0.021
			c0.132,0.061,0.244,0.134,0.332,0.222c0.354,0.414,0.465,0.762,0.331,1.043c-0.133,0.279-0.539,0.672-1.219,1.174
			c-0.443,0.324-0.983,0.635-1.618,0.932c-0.638,0.295-1.293,0.561-1.972,0.797c-0.681,0.236-1.339,0.451-1.975,0.643
			c-0.636,0.192-1.173,0.347-1.617,0.466c-0.325,0.118-0.62,0.192-0.888,0.223c-0.029,0-0.058,0.014-0.087,0.044V30.995z
			 M177.72,26.871c0.205,0.119,0.399,0.281,0.575,0.488c0.296,0.295,0.582,0.516,0.866,0.664c0.28,0.15,0.538,0.244,0.774,0.289
			c0.236,0.044,0.429,0.064,0.575,0.064c0.149,0,0.252-0.012,0.311-0.043c0.03-0.029,0.171-0.082,0.422-0.154
			c0.253-0.074,0.495-0.297,0.73-0.666c0.236-0.369,0.407-0.938,0.51-1.706c0.104-0.767,0.038-1.847-0.197-3.235
			c-0.06,0.059-0.105,0.088-0.135,0.088l-0.044,0.043c-0.769,0.888-1.523,1.679-2.261,2.373
			C179.109,25.77,178.399,26.369,177.72,26.871z"/>
	</g>
	<g>
		<path d="M21.363,1.113c0.963-0.091,1.686,0.103,2.168,0.585s0.677,1.022,0.586,1.617c-0.094,0.323-0.242,0.701-0.447,1.136
			c-0.207,0.436-0.448,0.885-0.723,1.343c-0.275,0.46-0.586,0.906-0.932,1.343c-0.343,0.436-0.652,0.792-0.928,1.065
			c-0.459,0.506-0.906,0.805-1.342,0.895c-0.437,0.093-0.77,0.046-1-0.137c-0.502-0.458-0.572-1.008-0.205-1.652
			c0.275-0.503,0.449-0.974,0.516-1.41c0.07-0.437,0.104-0.7,0.104-0.792c0-0.09,0-0.378,0-0.86c0-0.481,0.113-1.044,0.346-1.685
			c0.091-0.322,0.24-0.586,0.446-0.792c0.206-0.208,0.423-0.355,0.654-0.448C20.835,1.183,21.088,1.113,21.363,1.113z"/>
	</g>
</g>
</svg>
