<?xml version="1.0" encoding="utf-8"?>
<!-- Generator: Adobe Illustrator 15.0.0, SVG Export Plug-In . SVG Version: 6.00 Build 0)  -->
<!DOCTYPE svg PUBLIC "-//W3C//DTD SVG 1.1//EN" "http://www.w3.org/Graphics/SVG/1.1/DTD/svg11.dtd">
<svg version="1.1" id="Calque_1" xmlns="http://www.w3.org/2000/svg" xmlns:xlink="http://www.w3.org/1999/xlink" x="0px" y="0px"
	 width="25.324px" height="32px" viewBox="0 0 25.324 32" enable-background="new 0 0 25.324 32" xml:space="preserve">
<g>
	<g>
		<path d="M2.711,30.995c-0.355-0.179-0.68-0.431-0.977-0.755c-0.236-0.266-0.451-0.613-0.643-1.041
			c-0.192-0.43-0.273-0.954-0.244-1.574c0.295-2.453,0.666-4.922,1.108-7.402c0.384-2.129,0.864-4.39,1.44-6.783
			c0.576-2.394,1.264-4.595,2.062-6.606c0.236-0.562,0.516-1.063,0.842-1.508C6.596,4.942,6.957,4.61,7.387,4.33
			C7.816,4.05,8.34,3.939,8.961,3.997c0.354,0.09,0.664,0.252,0.93,0.489c0.237,0.207,0.436,0.501,0.6,0.885
			c0.162,0.385,0.199,0.887,0.109,1.507c-0.531,1.952-1.062,4.006-1.595,6.163c-0.442,1.861-0.909,3.945-1.397,6.25
			c-0.486,2.307-0.895,4.643-1.219,7.005c0.473-0.118,1.088-0.258,1.84-0.422c0.754-0.16,1.537-0.315,2.351-0.464
			c0.812-0.146,1.632-0.273,2.46-0.377c0.826-0.104,1.58-0.141,2.262-0.111c0.501,0.03,0.959,0.104,1.373,0.223
			c0.355,0.119,0.688,0.295,0.997,0.531c0.311,0.236,0.495,0.562,0.554,0.977c0.059,0.324,0.029,0.635-0.088,0.93
			c-0.119,0.238-0.318,0.475-0.599,0.709c-0.28,0.238-0.718,0.43-1.308,0.578c-1.684,0.266-3.28,0.518-4.788,0.752
			c-0.65,0.089-1.314,0.193-1.994,0.311c-0.681,0.118-1.338,0.238-1.972,0.355c-0.637,0.117-1.235,0.221-1.797,0.309
			c-0.562,0.09-1.034,0.18-1.418,0.268l-0.664,0.135H3.553c-0.148,0-0.289,0.007-0.421,0.021
			C2.998,31.031,2.857,31.023,2.711,30.995z"/>
	</g>
	<g>
		<path d="M21.363,1.113c0.963-0.091,1.686,0.103,2.168,0.585c0.482,0.482,0.677,1.022,0.586,1.617
			c-0.094,0.323-0.242,0.701-0.447,1.136c-0.207,0.436-0.448,0.885-0.723,1.343c-0.275,0.46-0.586,0.906-0.932,1.343
			c-0.343,0.436-0.652,0.792-0.928,1.065c-0.459,0.506-0.906,0.805-1.342,0.895c-0.437,0.093-0.77,0.046-1-0.137
			c-0.502-0.458-0.572-1.008-0.205-1.652c0.275-0.503,0.449-0.974,0.516-1.41c0.07-0.437,0.104-0.7,0.104-0.792
			c0-0.09,0-0.378,0-0.86c0-0.481,0.113-1.044,0.346-1.685c0.091-0.322,0.24-0.586,0.446-0.792c0.206-0.208,0.423-0.355,0.654-0.448
			C20.835,1.183,21.088,1.113,21.363,1.113z"/>
	</g>
</g>
</svg>
