<?xml version="1.0" standalone="no"?>
<!DOCTYPE svg PUBLIC "-//W3C//DTD SVG 1.1//EN" "http://www.w3.org/Graphics/SVG/1.1/DTD/svg11.dtd">
<svg width="33px" height="15px" version="1.1" xmlns="http://www.w3.org/2000/svg" xmlns:xlink="http://www.w3.org/1999/xlink" xml:space="preserve" style="fill-rule:evenodd;clip-rule:evenodd;stroke-linejoin:round;stroke-miterlimit:1.41421;">
    <g>
        <g id="SAW">
            <g>
                <path d="M2.83425,0C1.27525,0 0.00025,1.275 0.00025,2.834L0.00025,12.166C0.00025,13.725 1.27525,15 2.83425,15L30.1663,15C31.7253,15 33.0003,13.725 33.0003,12.166L33.0003,2.834C33.0003,1.275 31.7253,0 30.1663,0L2.83425,0ZM6.27822,3.74056L11.8801,3.74056L11.8801,4.53588L28.5819,4.53588L28.5819,7.95923L26.8529,7.12933L25.5907,8.56437L23.8618,7.73447L22.6169,9.1868L20.888,8.35689L19.6431,9.80922L17.9141,8.97932L16.6693,10.4317L14.9403,9.60175L13.6955,11.0541L11.9665,10.2242L11.9665,11.8148L5.18898,11.8148C4.73944,11.8148 4.39365,11.469 4.39365,11.0195C4.39365,10.57 4.73944,10.2242 5.18898,10.2242L6.01888,10.2242L6.72775,5.26205L6.34738,5.26205C5.89785,5.26205 5.55206,4.91626 5.55206,4.46673C5.50019,4.10364 5.86327,3.74056 6.27822,3.74056ZM7.47121,10.2933L10.3413,10.2933L10.3586,5.33121L8.21466,5.33121L7.47121,10.2933Z" style="fill:rgb(35,31,32);"/>
            </g>
        </g>
    </g>
</svg>
