<?xml version="1.0" encoding="utf-8"?>
<!-- Generator: Adobe Illustrator 15.0.0, SVG Export Plug-In . SVG Version: 6.00 Build 0)  -->
<!DOCTYPE svg PUBLIC "-//W3C//DTD SVG 1.1//EN" "http://www.w3.org/Graphics/SVG/1.1/DTD/svg11.dtd">
<svg version="1.1" id="Calque_1" xmlns="http://www.w3.org/2000/svg" xmlns:xlink="http://www.w3.org/1999/xlink" x="0px" y="0px"
	 width="33px" height="15px" viewBox="0 0 33 15" enable-background="new 0 0 33 15" xml:space="preserve">
<g>
	<path fill="#231F20" d="M17.339,5.654c0-0.242-0.057-0.454-0.169-0.638c-0.113-0.184-0.271-0.321-0.471-0.413
		c-0.189-0.087-0.562-0.13-1.12-0.13h-1.498v2.393h1.454c0.39,0,0.718-0.037,0.983-0.11c0.267-0.073,0.47-0.198,0.61-0.374
		C17.27,6.205,17.339,5.963,17.339,5.654z"/>
	<path fill="#231F20" d="M25.259,4.76c-0.353-0.239-0.756-0.359-1.211-0.359c-0.325,0-0.625,0.066-0.899,0.199
		c-0.276,0.133-0.513,0.326-0.711,0.579c-0.199,0.254-0.355,0.577-0.471,0.971c-0.114,0.394-0.173,0.836-0.173,1.327
		c0,0.495,0.059,0.942,0.173,1.342c0.115,0.4,0.276,0.731,0.487,0.995c0.209,0.263,0.449,0.46,0.721,0.591
		c0.271,0.131,0.57,0.195,0.895,0.195c0.415,0,0.797-0.112,1.146-0.338c0.348-0.226,0.624-0.574,0.831-1.045
		c0.206-0.471,0.308-1.051,0.308-1.74c0-0.637-0.094-1.189-0.283-1.656C25.88,5.353,25.609,5,25.259,4.76z"/>
	<path fill="#231F20" d="M30.166,0H2.834C1.275,0,0,1.275,0,2.834v9.331C0,13.725,1.275,15,2.834,15h27.332
		C31.725,15,33,13.725,33,12.166V2.834C33,1.275,31.725,0,30.166,0z M10.357,7.776C9.854,8.233,9.105,8.462,8.11,8.462H6.623v2.463
		c0,0.353-0.076,0.62-0.229,0.802C6.241,11.909,6.048,12,5.814,12c-0.244,0-0.441-0.09-0.59-0.27C5.074,11.55,5,11.286,5,10.938
		V4.229c0-0.388,0.082-0.665,0.246-0.831c0.164-0.166,0.424-0.25,0.781-0.25H8.11c0.617,0,1.09,0.052,1.422,0.155
		c0.328,0.099,0.611,0.263,0.85,0.493c0.239,0.229,0.421,0.51,0.544,0.843c0.124,0.332,0.187,0.707,0.187,1.122
		C11.112,6.647,10.861,7.319,10.357,7.776z M19.026,11.635c-0.068,0.113-0.16,0.202-0.276,0.267S18.499,12,18.346,12
		c-0.183,0-0.336-0.046-0.46-0.139c-0.124-0.093-0.23-0.211-0.319-0.353c-0.09-0.143-0.211-0.353-0.363-0.63l-0.651-1.175
		c-0.232-0.431-0.441-0.76-0.626-0.985c-0.184-0.226-0.37-0.38-0.56-0.463c-0.189-0.083-0.429-0.125-0.717-0.125h-0.568v2.796
		c0,0.369-0.074,0.639-0.224,0.813C13.707,11.913,13.513,12,13.272,12c-0.26,0-0.46-0.091-0.602-0.272
		c-0.143-0.183-0.213-0.45-0.213-0.802V4.229c0-0.379,0.078-0.655,0.234-0.825c0.156-0.17,0.41-0.255,0.76-0.255h2.641
		c0.364,0,0.676,0.017,0.935,0.051c0.26,0.033,0.493,0.102,0.7,0.205c0.251,0.115,0.474,0.279,0.667,0.493
		c0.193,0.214,0.34,0.462,0.44,0.745c0.1,0.283,0.15,0.583,0.15,0.899c0,0.649-0.169,1.168-0.506,1.556s-0.849,0.663-1.534,0.825
		c0.288,0.166,0.564,0.412,0.826,0.736c0.262,0.325,0.496,0.67,0.702,1.036s0.367,0.696,0.481,0.991s0.172,0.498,0.172,0.609
		C19.127,11.409,19.094,11.522,19.026,11.635z M27.748,9.323c-0.167,0.55-0.419,1.027-0.754,1.431
		c-0.335,0.404-0.747,0.712-1.236,0.926C25.271,11.893,24.71,12,24.08,12c-0.627,0-1.188-0.109-1.684-0.329
		c-0.496-0.22-0.91-0.53-1.241-0.93c-0.332-0.399-0.582-0.88-0.752-1.442c-0.17-0.562-0.254-1.17-0.254-1.823
		c0-0.668,0.088-1.282,0.265-1.84c0.177-0.559,0.433-1.033,0.769-1.425c0.335-0.392,0.743-0.692,1.225-0.9
		C22.889,3.104,23.435,3,24.048,3c0.83,0,1.543,0.184,2.14,0.549c0.596,0.366,1.047,0.887,1.353,1.562
		C27.847,5.786,28,6.578,28,7.488C28,8.161,27.916,8.772,27.748,9.323z"/>
	<path fill="#231F20" d="M7.718,4.473H6.623v2.66h1.095c0.382,0,0.702-0.044,0.959-0.131s0.452-0.229,0.587-0.427
		s0.203-0.458,0.203-0.778c0-0.384-0.104-0.697-0.312-0.938C8.922,4.602,8.442,4.473,7.718,4.473z"/>
</g>
</svg>
