<?xml version="1.0" standalone="no"?>
<!DOCTYPE svg PUBLIC "-//W3C//DTD SVG 1.1//EN" "http://www.w3.org/Graphics/SVG/1.1/DTD/svg11.dtd">
<svg width="640px" height="640px" version="1.1" xmlns="http://www.w3.org/2000/svg" xmlns:xlink="http://www.w3.org/1999/xlink" xml:space="preserve" style="fill-rule:evenodd;clip-rule:evenodd;stroke-miterlimit:1.41421;">
    <g>
        <g id="icomoon-ignore">
            <path d="M16,0L16,640" style="fill:black;fill-opacity:0.3;fill-rule:nonzero;stroke-width:1px;stroke:rgb(68,159,219);stroke-opacity:0.3;"/>
            <path d="M32,0L32,640" style="fill:black;fill-rule:nonzero;stroke-width:1px;stroke:rgb(68,159,219);"/>
            <path d="M48,0L48,640" style="fill:black;fill-opacity:0.3;fill-rule:nonzero;stroke-width:1px;stroke:rgb(68,159,219);stroke-opacity:0.3;"/>
            <path d="M64,0L64,640" style="fill:black;fill-rule:nonzero;stroke-width:1px;stroke:rgb(68,159,219);"/>
            <path d="M80,0L80,640" style="fill:black;fill-opacity:0.3;fill-rule:nonzero;stroke-width:1px;stroke:rgb(68,159,219);stroke-opacity:0.3;"/>
            <path d="M96,0L96,640" style="fill:black;fill-rule:nonzero;stroke-width:1px;stroke:rgb(68,159,219);"/>
            <path d="M112,0L112,640" style="fill:black;fill-opacity:0.3;fill-rule:nonzero;stroke-width:1px;stroke:rgb(68,159,219);stroke-opacity:0.3;"/>
            <path d="M128,0L128,640" style="fill:black;fill-rule:nonzero;stroke-width:1px;stroke:rgb(68,159,219);"/>
            <path d="M144,0L144,640" style="fill:black;fill-opacity:0.3;fill-rule:nonzero;stroke-width:1px;stroke:rgb(68,159,219);stroke-opacity:0.3;"/>
            <path d="M160,0L160,640" style="fill:black;fill-rule:nonzero;stroke-width:1px;stroke:rgb(68,159,219);"/>
            <path d="M176,0L176,640" style="fill:black;fill-opacity:0.3;fill-rule:nonzero;stroke-width:1px;stroke:rgb(68,159,219);stroke-opacity:0.3;"/>
            <path d="M192,0L192,640" style="fill:black;fill-rule:nonzero;stroke-width:1px;stroke:rgb(68,159,219);"/>
            <path d="M208,0L208,640" style="fill:black;fill-opacity:0.3;fill-rule:nonzero;stroke-width:1px;stroke:rgb(68,159,219);stroke-opacity:0.3;"/>
            <path d="M224,0L224,640" style="fill:black;fill-rule:nonzero;stroke-width:1px;stroke:rgb(68,159,219);"/>
            <path d="M240,0L240,640" style="fill:black;fill-opacity:0.3;fill-rule:nonzero;stroke-width:1px;stroke:rgb(68,159,219);stroke-opacity:0.3;"/>
            <path d="M256,0L256,640" style="fill:black;fill-rule:nonzero;stroke-width:1px;stroke:rgb(68,159,219);"/>
            <path d="M272,0L272,640" style="fill:black;fill-opacity:0.3;fill-rule:nonzero;stroke-width:1px;stroke:rgb(68,159,219);stroke-opacity:0.3;"/>
            <path d="M288,0L288,640" style="fill:black;fill-rule:nonzero;stroke-width:1px;stroke:rgb(68,159,219);"/>
            <path d="M304,0L304,640" style="fill:black;fill-opacity:0.3;fill-rule:nonzero;stroke-width:1px;stroke:rgb(68,159,219);stroke-opacity:0.3;"/>
            <path d="M320,0L320,640" style="fill:black;fill-rule:nonzero;stroke-width:1px;stroke:rgb(68,159,219);"/>
            <path d="M336,0L336,640" style="fill:black;fill-opacity:0.3;fill-rule:nonzero;stroke-width:1px;stroke:rgb(68,159,219);stroke-opacity:0.3;"/>
            <path d="M352,0L352,640" style="fill:black;fill-rule:nonzero;stroke-width:1px;stroke:rgb(68,159,219);"/>
            <path d="M368,0L368,640" style="fill:black;fill-opacity:0.3;fill-rule:nonzero;stroke-width:1px;stroke:rgb(68,159,219);stroke-opacity:0.3;"/>
            <path d="M384,0L384,640" style="fill:black;fill-rule:nonzero;stroke-width:1px;stroke:rgb(68,159,219);"/>
            <path d="M400,0L400,640" style="fill:black;fill-opacity:0.3;fill-rule:nonzero;stroke-width:1px;stroke:rgb(68,159,219);stroke-opacity:0.3;"/>
            <path d="M416,0L416,640" style="fill:black;fill-rule:nonzero;stroke-width:1px;stroke:rgb(68,159,219);"/>
            <path d="M432,0L432,640" style="fill:black;fill-opacity:0.3;fill-rule:nonzero;stroke-width:1px;stroke:rgb(68,159,219);stroke-opacity:0.3;"/>
            <path d="M448,0L448,640" style="fill:black;fill-rule:nonzero;stroke-width:1px;stroke:rgb(68,159,219);"/>
            <path d="M464,0L464,640" style="fill:black;fill-opacity:0.3;fill-rule:nonzero;stroke-width:1px;stroke:rgb(68,159,219);stroke-opacity:0.3;"/>
            <path d="M480,0L480,640" style="fill:black;fill-rule:nonzero;stroke-width:1px;stroke:rgb(68,159,219);"/>
            <path d="M496,0L496,640" style="fill:black;fill-opacity:0.3;fill-rule:nonzero;stroke-width:1px;stroke:rgb(68,159,219);stroke-opacity:0.3;"/>
            <path d="M512,0L512,640" style="fill:black;fill-rule:nonzero;stroke-width:1px;stroke:rgb(68,159,219);"/>
            <path d="M528,0L528,640" style="fill:black;fill-opacity:0.3;fill-rule:nonzero;stroke-width:1px;stroke:rgb(68,159,219);stroke-opacity:0.3;"/>
            <path d="M544,0L544,640" style="fill:black;fill-rule:nonzero;stroke-width:1px;stroke:rgb(68,159,219);"/>
            <path d="M560,0L560,640" style="fill:black;fill-opacity:0.3;fill-rule:nonzero;stroke-width:1px;stroke:rgb(68,159,219);stroke-opacity:0.3;"/>
            <path d="M576,0L576,640" style="fill:black;fill-rule:nonzero;stroke-width:1px;stroke:rgb(68,159,219);"/>
            <path d="M592,0L592,640" style="fill:black;fill-opacity:0.3;fill-rule:nonzero;stroke-width:1px;stroke:rgb(68,159,219);stroke-opacity:0.3;"/>
            <path d="M608,0L608,640" style="fill:black;fill-rule:nonzero;stroke-width:1px;stroke:rgb(68,159,219);"/>
            <path d="M624,0L624,640" style="fill:black;fill-opacity:0.3;fill-rule:nonzero;stroke-width:1px;stroke:rgb(68,159,219);stroke-opacity:0.3;"/>
            <path d="M0,16L640,16" style="fill:black;fill-opacity:0.3;fill-rule:nonzero;stroke-width:1px;stroke:rgb(68,159,219);stroke-opacity:0.3;"/>
            <path d="M0,32L640,32" style="fill:black;fill-rule:nonzero;stroke-width:1px;stroke:rgb(68,159,219);"/>
            <path d="M0,48L640,48" style="fill:black;fill-opacity:0.3;fill-rule:nonzero;stroke-width:1px;stroke:rgb(68,159,219);stroke-opacity:0.3;"/>
            <path d="M0,64L640,64" style="fill:black;fill-rule:nonzero;stroke-width:1px;stroke:rgb(68,159,219);"/>
            <path d="M0,80L640,80" style="fill:black;fill-opacity:0.3;fill-rule:nonzero;stroke-width:1px;stroke:rgb(68,159,219);stroke-opacity:0.3;"/>
            <path d="M0,96L640,96" style="fill:black;fill-rule:nonzero;stroke-width:1px;stroke:rgb(68,159,219);"/>
            <path d="M0,112L640,112" style="fill:black;fill-opacity:0.3;fill-rule:nonzero;stroke-width:1px;stroke:rgb(68,159,219);stroke-opacity:0.3;"/>
            <path d="M0,128L640,128" style="fill:black;fill-rule:nonzero;stroke-width:1px;stroke:rgb(68,159,219);"/>
            <path d="M0,144L640,144" style="fill:black;fill-opacity:0.3;fill-rule:nonzero;stroke-width:1px;stroke:rgb(68,159,219);stroke-opacity:0.3;"/>
            <path d="M0,160L640,160" style="fill:black;fill-rule:nonzero;stroke-width:1px;stroke:rgb(68,159,219);"/>
            <path d="M0,176L640,176" style="fill:black;fill-opacity:0.3;fill-rule:nonzero;stroke-width:1px;stroke:rgb(68,159,219);stroke-opacity:0.3;"/>
            <path d="M0,192L640,192" style="fill:black;fill-rule:nonzero;stroke-width:1px;stroke:rgb(68,159,219);"/>
            <path d="M0,208L640,208" style="fill:black;fill-opacity:0.3;fill-rule:nonzero;stroke-width:1px;stroke:rgb(68,159,219);stroke-opacity:0.3;"/>
            <path d="M0,224L640,224" style="fill:black;fill-rule:nonzero;stroke-width:1px;stroke:rgb(68,159,219);"/>
            <path d="M0,240L640,240" style="fill:black;fill-opacity:0.3;fill-rule:nonzero;stroke-width:1px;stroke:rgb(68,159,219);stroke-opacity:0.3;"/>
            <path d="M0,256L640,256" style="fill:black;fill-rule:nonzero;stroke-width:1px;stroke:rgb(68,159,219);"/>
            <path d="M0,272L640,272" style="fill:black;fill-opacity:0.3;fill-rule:nonzero;stroke-width:1px;stroke:rgb(68,159,219);stroke-opacity:0.3;"/>
            <path d="M0,288L640,288" style="fill:black;fill-rule:nonzero;stroke-width:1px;stroke:rgb(68,159,219);"/>
            <path d="M0,304L640,304" style="fill:black;fill-opacity:0.3;fill-rule:nonzero;stroke-width:1px;stroke:rgb(68,159,219);stroke-opacity:0.3;"/>
            <path d="M0,320L640,320" style="fill:black;fill-rule:nonzero;stroke-width:1px;stroke:rgb(68,159,219);"/>
            <path d="M0,336L640,336" style="fill:black;fill-opacity:0.3;fill-rule:nonzero;stroke-width:1px;stroke:rgb(68,159,219);stroke-opacity:0.3;"/>
            <path d="M0,352L640,352" style="fill:black;fill-rule:nonzero;stroke-width:1px;stroke:rgb(68,159,219);"/>
            <path d="M0,368L640,368" style="fill:black;fill-opacity:0.3;fill-rule:nonzero;stroke-width:1px;stroke:rgb(68,159,219);stroke-opacity:0.3;"/>
            <path d="M0,384L640,384" style="fill:black;fill-rule:nonzero;stroke-width:1px;stroke:rgb(68,159,219);"/>
            <path d="M0,400L640,400" style="fill:black;fill-opacity:0.3;fill-rule:nonzero;stroke-width:1px;stroke:rgb(68,159,219);stroke-opacity:0.3;"/>
            <path d="M0,416L640,416" style="fill:black;fill-rule:nonzero;stroke-width:1px;stroke:rgb(68,159,219);"/>
            <path d="M0,432L640,432" style="fill:black;fill-opacity:0.3;fill-rule:nonzero;stroke-width:1px;stroke:rgb(68,159,219);stroke-opacity:0.3;"/>
            <path d="M0,448L640,448" style="fill:black;fill-rule:nonzero;stroke-width:1px;stroke:rgb(68,159,219);"/>
            <path d="M0,464L640,464" style="fill:black;fill-opacity:0.3;fill-rule:nonzero;stroke-width:1px;stroke:rgb(68,159,219);stroke-opacity:0.3;"/>
            <path d="M0,480L640,480" style="fill:black;fill-rule:nonzero;stroke-width:1px;stroke:rgb(68,159,219);"/>
            <path d="M0,496L640,496" style="fill:black;fill-opacity:0.3;fill-rule:nonzero;stroke-width:1px;stroke:rgb(68,159,219);stroke-opacity:0.3;"/>
            <path d="M0,512L640,512" style="fill:black;fill-rule:nonzero;stroke-width:1px;stroke:rgb(68,159,219);"/>
            <path d="M0,528L640,528" style="fill:black;fill-opacity:0.3;fill-rule:nonzero;stroke-width:1px;stroke:rgb(68,159,219);stroke-opacity:0.3;"/>
            <path d="M0,544L640,544" style="fill:black;fill-rule:nonzero;stroke-width:1px;stroke:rgb(68,159,219);"/>
            <path d="M0,560L640,560" style="fill:black;fill-opacity:0.3;fill-rule:nonzero;stroke-width:1px;stroke:rgb(68,159,219);stroke-opacity:0.3;"/>
            <path d="M0,576L640,576" style="fill:black;fill-rule:nonzero;stroke-width:1px;stroke:rgb(68,159,219);"/>
            <path d="M0,592L640,592" style="fill:black;fill-opacity:0.3;fill-rule:nonzero;stroke-width:1px;stroke:rgb(68,159,219);stroke-opacity:0.3;"/>
            <path d="M0,608L640,608" style="fill:black;fill-rule:nonzero;stroke-width:1px;stroke:rgb(68,159,219);"/>
            <path d="M0,624L640,624" style="fill:black;fill-opacity:0.3;fill-rule:nonzero;stroke-width:1px;stroke:rgb(68,159,219);stroke-opacity:0.3;"/>
        </g>
        <g id="eshop">
            <path d="M640,64C640,28.6538 611.346,0 576,0L64,0C28.6538,0 0,28.6538 0,64L0,576C0,611.346 28.6538,640 64,640L576,640C611.346,640 640,611.346 640,576L640,64ZM567.809,459.448L528.958,381.746L470.682,381.746L470.682,342.896C470.682,332.212 461.94,323.47 451.256,323.47L276.428,323.47C265.744,323.47 257.003,332.212 257.003,342.896L257.003,498.299L276.428,517.724L301.064,517.724C297.756,523.44 295.854,530.071 295.854,537.149C295.854,558.606 313.248,576 334.704,576C356.161,576 373.555,558.606 373.555,537.149C373.555,530.071 371.652,523.44 368.345,517.724L475.893,517.724C472.585,523.44 470.682,530.071 470.682,537.149C470.682,558.606 488.076,576 509.533,576C530.989,576 548.383,558.606 548.383,537.149C548.383,530.071 546.48,523.44 543.172,517.724L567.809,517.724ZM235.297,364.004L132.001,364.004L132.001,265.302C121.051,269.253 109.001,271.503 96.2758,271.503C91.4007,271.503 86.6757,270.928 82.0006,270.278L82.0006,429.005C82.0006,448.255 97.7258,464.005 116.951,464.005L235.297,464.005L235.297,364.004ZM470.682,459.448L470.682,401.172L510.949,401.172L540.087,459.448ZM382.004,304.645L432.005,304.645L432.005,270.303C427.305,270.928 422.605,271.528 417.73,271.528C405.08,271.503 392.981,269.203 382.004,265.152L382.004,304.645ZM480.006,176.501L436.98,64L334.154,64L353.904,195.052C357.754,219.802 384.829,239.002 417.73,239.002C453.23,239.002 482.006,216.602 482.006,189.002C482.006,184.651 481.306,180.501 480.006,176.501ZM257.003,239.002C292.503,239.002 321.279,216.602 321.279,189.002C321.279,187.977 321.204,186.952 321.154,185.977L308.428,64L205.577,64L192.827,185.877C192.777,186.902 192.727,187.927 192.727,189.002C192.727,216.602 221.502,239.002 257.003,239.002ZM160.077,195.252L179.852,64L77.0006,64L34.025,176.501C32.7,180.501 32,184.651 32,189.002C32,216.602 60.7504,239.002 96.2758,239.002C129.026,239.002 156.102,219.902 160.077,195.252Z" style="fill:black;"/>
        </g>
    </g>
</svg>
