<?xml version="1.0" standalone="no"?>
<!DOCTYPE svg PUBLIC "-//W3C//DTD SVG 1.1//EN" "http://www.w3.org/Graphics/SVG/1.1/DTD/svg11.dtd">
<svg width="512px" height="512px" version="1.1" xmlns="http://www.w3.org/2000/svg" xmlns:xlink="http://www.w3.org/1999/xlink" xml:space="preserve" style="fill-rule:evenodd;clip-rule:evenodd;stroke-miterlimit:1.41421;">
    <g>
        <g id="icomoon-ignore">
            <path d="M16,0L16,512" style="fill:black;fill-opacity:0.3;fill-rule:nonzero;stroke-width:1px;stroke:rgb(68,159,219);stroke-opacity:0.3;"/>
            <path d="M32,0L32,512" style="fill:black;fill-rule:nonzero;stroke-width:1px;stroke:rgb(68,159,219);"/>
            <path d="M48,0L48,512" style="fill:black;fill-opacity:0.3;fill-rule:nonzero;stroke-width:1px;stroke:rgb(68,159,219);stroke-opacity:0.3;"/>
            <path d="M64,0L64,512" style="fill:black;fill-rule:nonzero;stroke-width:1px;stroke:rgb(68,159,219);"/>
            <path d="M80,0L80,512" style="fill:black;fill-opacity:0.3;fill-rule:nonzero;stroke-width:1px;stroke:rgb(68,159,219);stroke-opacity:0.3;"/>
            <path d="M96,0L96,512" style="fill:black;fill-rule:nonzero;stroke-width:1px;stroke:rgb(68,159,219);"/>
            <path d="M112,0L112,512" style="fill:black;fill-opacity:0.3;fill-rule:nonzero;stroke-width:1px;stroke:rgb(68,159,219);stroke-opacity:0.3;"/>
            <path d="M128,0L128,512" style="fill:black;fill-rule:nonzero;stroke-width:1px;stroke:rgb(68,159,219);"/>
            <path d="M144,0L144,512" style="fill:black;fill-opacity:0.3;fill-rule:nonzero;stroke-width:1px;stroke:rgb(68,159,219);stroke-opacity:0.3;"/>
            <path d="M160,0L160,512" style="fill:black;fill-rule:nonzero;stroke-width:1px;stroke:rgb(68,159,219);"/>
            <path d="M176,0L176,512" style="fill:black;fill-opacity:0.3;fill-rule:nonzero;stroke-width:1px;stroke:rgb(68,159,219);stroke-opacity:0.3;"/>
            <path d="M192,0L192,512" style="fill:black;fill-rule:nonzero;stroke-width:1px;stroke:rgb(68,159,219);"/>
            <path d="M208,0L208,512" style="fill:black;fill-opacity:0.3;fill-rule:nonzero;stroke-width:1px;stroke:rgb(68,159,219);stroke-opacity:0.3;"/>
            <path d="M224,0L224,512" style="fill:black;fill-rule:nonzero;stroke-width:1px;stroke:rgb(68,159,219);"/>
            <path d="M240,0L240,512" style="fill:black;fill-opacity:0.3;fill-rule:nonzero;stroke-width:1px;stroke:rgb(68,159,219);stroke-opacity:0.3;"/>
            <path d="M256,0L256,512" style="fill:black;fill-rule:nonzero;stroke-width:1px;stroke:rgb(68,159,219);"/>
            <path d="M272,0L272,512" style="fill:black;fill-opacity:0.3;fill-rule:nonzero;stroke-width:1px;stroke:rgb(68,159,219);stroke-opacity:0.3;"/>
            <path d="M288,0L288,512" style="fill:black;fill-rule:nonzero;stroke-width:1px;stroke:rgb(68,159,219);"/>
            <path d="M304,0L304,512" style="fill:black;fill-opacity:0.3;fill-rule:nonzero;stroke-width:1px;stroke:rgb(68,159,219);stroke-opacity:0.3;"/>
            <path d="M320,0L320,512" style="fill:black;fill-rule:nonzero;stroke-width:1px;stroke:rgb(68,159,219);"/>
            <path d="M336,0L336,512" style="fill:black;fill-opacity:0.3;fill-rule:nonzero;stroke-width:1px;stroke:rgb(68,159,219);stroke-opacity:0.3;"/>
            <path d="M352,0L352,512" style="fill:black;fill-rule:nonzero;stroke-width:1px;stroke:rgb(68,159,219);"/>
            <path d="M368,0L368,512" style="fill:black;fill-opacity:0.3;fill-rule:nonzero;stroke-width:1px;stroke:rgb(68,159,219);stroke-opacity:0.3;"/>
            <path d="M384,0L384,512" style="fill:black;fill-rule:nonzero;stroke-width:1px;stroke:rgb(68,159,219);"/>
            <path d="M400,0L400,512" style="fill:black;fill-opacity:0.3;fill-rule:nonzero;stroke-width:1px;stroke:rgb(68,159,219);stroke-opacity:0.3;"/>
            <path d="M416,0L416,512" style="fill:black;fill-rule:nonzero;stroke-width:1px;stroke:rgb(68,159,219);"/>
            <path d="M432,0L432,512" style="fill:black;fill-opacity:0.3;fill-rule:nonzero;stroke-width:1px;stroke:rgb(68,159,219);stroke-opacity:0.3;"/>
            <path d="M448,0L448,512" style="fill:black;fill-rule:nonzero;stroke-width:1px;stroke:rgb(68,159,219);"/>
            <path d="M464,0L464,512" style="fill:black;fill-opacity:0.3;fill-rule:nonzero;stroke-width:1px;stroke:rgb(68,159,219);stroke-opacity:0.3;"/>
            <path d="M480,0L480,512" style="fill:black;fill-rule:nonzero;stroke-width:1px;stroke:rgb(68,159,219);"/>
            <path d="M496,0L496,512" style="fill:black;fill-opacity:0.3;fill-rule:nonzero;stroke-width:1px;stroke:rgb(68,159,219);stroke-opacity:0.3;"/>
            <path d="M0,16L512,16" style="fill:black;fill-opacity:0.3;fill-rule:nonzero;stroke-width:1px;stroke:rgb(68,159,219);stroke-opacity:0.3;"/>
            <path d="M0,32L512,32" style="fill:black;fill-rule:nonzero;stroke-width:1px;stroke:rgb(68,159,219);"/>
            <path d="M0,48L512,48" style="fill:black;fill-opacity:0.3;fill-rule:nonzero;stroke-width:1px;stroke:rgb(68,159,219);stroke-opacity:0.3;"/>
            <path d="M0,64L512,64" style="fill:black;fill-rule:nonzero;stroke-width:1px;stroke:rgb(68,159,219);"/>
            <path d="M0,80L512,80" style="fill:black;fill-opacity:0.3;fill-rule:nonzero;stroke-width:1px;stroke:rgb(68,159,219);stroke-opacity:0.3;"/>
            <path d="M0,96L512,96" style="fill:black;fill-rule:nonzero;stroke-width:1px;stroke:rgb(68,159,219);"/>
            <path d="M0,112L512,112" style="fill:black;fill-opacity:0.3;fill-rule:nonzero;stroke-width:1px;stroke:rgb(68,159,219);stroke-opacity:0.3;"/>
            <path d="M0,128L512,128" style="fill:black;fill-rule:nonzero;stroke-width:1px;stroke:rgb(68,159,219);"/>
            <path d="M0,144L512,144" style="fill:black;fill-opacity:0.3;fill-rule:nonzero;stroke-width:1px;stroke:rgb(68,159,219);stroke-opacity:0.3;"/>
            <path d="M0,160L512,160" style="fill:black;fill-rule:nonzero;stroke-width:1px;stroke:rgb(68,159,219);"/>
            <path d="M0,176L512,176" style="fill:black;fill-opacity:0.3;fill-rule:nonzero;stroke-width:1px;stroke:rgb(68,159,219);stroke-opacity:0.3;"/>
            <path d="M0,192L512,192" style="fill:black;fill-rule:nonzero;stroke-width:1px;stroke:rgb(68,159,219);"/>
            <path d="M0,208L512,208" style="fill:black;fill-opacity:0.3;fill-rule:nonzero;stroke-width:1px;stroke:rgb(68,159,219);stroke-opacity:0.3;"/>
            <path d="M0,224L512,224" style="fill:black;fill-rule:nonzero;stroke-width:1px;stroke:rgb(68,159,219);"/>
            <path d="M0,240L512,240" style="fill:black;fill-opacity:0.3;fill-rule:nonzero;stroke-width:1px;stroke:rgb(68,159,219);stroke-opacity:0.3;"/>
            <path d="M0,256L512,256" style="fill:black;fill-rule:nonzero;stroke-width:1px;stroke:rgb(68,159,219);"/>
            <path d="M0,272L512,272" style="fill:black;fill-opacity:0.3;fill-rule:nonzero;stroke-width:1px;stroke:rgb(68,159,219);stroke-opacity:0.3;"/>
            <path d="M0,288L512,288" style="fill:black;fill-rule:nonzero;stroke-width:1px;stroke:rgb(68,159,219);"/>
            <path d="M0,304L512,304" style="fill:black;fill-opacity:0.3;fill-rule:nonzero;stroke-width:1px;stroke:rgb(68,159,219);stroke-opacity:0.3;"/>
            <path d="M0,320L512,320" style="fill:black;fill-rule:nonzero;stroke-width:1px;stroke:rgb(68,159,219);"/>
            <path d="M0,336L512,336" style="fill:black;fill-opacity:0.3;fill-rule:nonzero;stroke-width:1px;stroke:rgb(68,159,219);stroke-opacity:0.3;"/>
            <path d="M0,352L512,352" style="fill:black;fill-rule:nonzero;stroke-width:1px;stroke:rgb(68,159,219);"/>
            <path d="M0,368L512,368" style="fill:black;fill-opacity:0.3;fill-rule:nonzero;stroke-width:1px;stroke:rgb(68,159,219);stroke-opacity:0.3;"/>
            <path d="M0,384L512,384" style="fill:black;fill-rule:nonzero;stroke-width:1px;stroke:rgb(68,159,219);"/>
            <path d="M0,400L512,400" style="fill:black;fill-opacity:0.3;fill-rule:nonzero;stroke-width:1px;stroke:rgb(68,159,219);stroke-opacity:0.3;"/>
            <path d="M0,416L512,416" style="fill:black;fill-rule:nonzero;stroke-width:1px;stroke:rgb(68,159,219);"/>
            <path d="M0,432L512,432" style="fill:black;fill-opacity:0.3;fill-rule:nonzero;stroke-width:1px;stroke:rgb(68,159,219);stroke-opacity:0.3;"/>
            <path d="M0,448L512,448" style="fill:black;fill-rule:nonzero;stroke-width:1px;stroke:rgb(68,159,219);"/>
            <path d="M0,464L512,464" style="fill:black;fill-opacity:0.3;fill-rule:nonzero;stroke-width:1px;stroke:rgb(68,159,219);stroke-opacity:0.3;"/>
            <path d="M0,480L512,480" style="fill:black;fill-rule:nonzero;stroke-width:1px;stroke:rgb(68,159,219);"/>
            <path d="M0,496L512,496" style="fill:black;fill-opacity:0.3;fill-rule:nonzero;stroke-width:1px;stroke:rgb(68,159,219);stroke-opacity:0.3;"/>
        </g>
        <path d="M255.528,0C327.136,0 388.104,25 438.368,74.976C462.448,99.048 480.728,126.56 493.208,157.488C505.704,188.424 511.976,221.256 511.976,256C511.976,291.048 505.808,323.888 493.48,354.496C481.136,385.12 462.92,412.184 438.856,435.648C413.872,460.328 385.528,479.232 353.824,492.336C322.136,505.44 289.352,511.992 255.544,511.992C221.712,511.992 189.336,505.528 158.384,492.56C127.456,479.616 99.72,460.872 75.184,436.344C50.648,411.816 31.984,384.16 19.184,353.368C6.384,322.576 1.06581e-14,290.144 1.06581e-14,256C1.06581e-14,222.168 6.472,189.64 19.424,158.4C32.376,127.16 51.2,99.2 75.88,74.512C124.64,24.848 184.52,-5.68434e-14 255.528,-5.68434e-14ZM256.456,46.176C197.96,46.176 148.72,66.6 108.792,107.432C88.672,127.856 73.208,150.784 62.392,176.232C51.56,201.68 46.16,228.272 46.16,256.008C46.16,283.44 51.56,309.872 62.392,335.312C73.216,360.784 88.672,383.48 108.792,403.44C128.904,423.408 151.6,438.632 176.912,449.16C202.2,459.672 228.72,464.944 256.456,464.944C283.88,464.944 310.456,459.624 336.24,448.952C362.008,438.272 385.208,422.88 405.96,402.784C445.864,363.784 465.816,314.864 465.816,256.024C465.816,227.68 460.648,200.864 450.288,175.568C439.944,150.272 424.832,127.728 405.056,107.904C363.872,66.752 314.36,46.176 256.456,46.176Z" style="fill:black;fill-rule:nonzero;"/>
        <g>
            <path d="M357.371,306.99C357.371,322.421 353.397,336.285 345.45,348.583C337.503,360.881 325.872,370.51 310.558,377.471C295.243,384.432 277.086,387.913 256.087,387.913C230.911,387.913 210.144,383.156 193.785,373.643C182.183,366.798 172.757,357.661 165.506,346.233C158.254,334.806 154.629,323.697 154.629,312.907C154.629,306.642 156.804,301.276 161.155,296.809C165.506,292.343 171.045,290.109 177.775,290.109C183.227,290.109 187.839,291.85 191.61,295.33C195.38,298.811 198.6,303.974 201.268,310.819C204.517,318.94 208.026,325.727 211.797,331.18C215.568,336.633 220.875,341.129 227.721,344.667C234.566,348.206 243.557,349.975 254.695,349.975C270.009,349.975 282.452,346.407 292.024,339.272C301.595,332.137 306.381,323.233 306.381,312.559C306.381,304.09 303.8,297.216 298.637,291.937C293.474,286.658 286.803,282.626 278.624,279.842C270.444,277.057 259.51,274.099 245.819,270.966C227.488,266.674 212.145,261.656 199.789,255.913C187.433,250.17 177.63,242.339 170.378,232.419C163.127,222.5 159.502,210.173 159.502,195.438C159.502,181.4 163.33,168.928 170.987,158.022C178.645,147.117 189.724,138.734 204.227,132.875C218.729,127.016 235.784,124.087 255.391,124.087C271.053,124.087 284.599,126.03 296.026,129.917C307.454,133.804 316.939,138.966 324.48,145.405C332.021,151.844 337.532,158.603 341.013,165.68C344.493,172.757 346.233,179.66 346.233,186.389C346.233,192.538 344.058,198.078 339.707,203.009C335.357,207.939 329.933,210.405 323.436,210.405C317.519,210.405 313.023,208.926 309.949,205.967C306.874,203.009 303.539,198.165 299.942,191.436C295.301,181.806 289.732,174.294 283.235,168.899C276.738,163.504 266.297,160.807 251.91,160.807C238.568,160.807 227.808,163.736 219.628,169.595C211.449,175.454 207.359,182.502 207.359,190.74C207.359,195.844 208.751,200.253 211.536,203.966C214.32,207.678 218.149,210.869 223.022,213.537C227.895,216.206 232.825,218.294 237.814,219.802C242.803,221.31 251.04,223.515 262.526,226.415C276.912,229.78 289.935,233.492 301.595,237.553C313.255,241.614 323.175,246.544 331.354,252.345C339.533,258.146 345.914,265.485 350.497,274.36C355.08,283.235 357.371,294.112 357.371,306.99Z" style="fill:black;fill-rule:nonzero;"/>
        </g>
    </g>
</svg>
