<?xml version="1.0" standalone="no"?>
<!DOCTYPE svg PUBLIC "-//W3C//DTD SVG 1.1//EN" "http://www.w3.org/Graphics/SVG/1.1/DTD/svg11.dtd">
<svg width="512px" height="512px" version="1.1" xmlns="http://www.w3.org/2000/svg" xmlns:xlink="http://www.w3.org/1999/xlink" xml:space="preserve" style="fill-rule:evenodd;clip-rule:evenodd;stroke-miterlimit:1.41421;">
    <g>
        <g id="icomoon-ignore">
            <path d="M16,0L16,512" style="fill:black;fill-opacity:0.3;fill-rule:nonzero;stroke-width:1px;stroke:rgb(68,159,219);stroke-opacity:0.3;"/>
            <path d="M32,0L32,512" style="fill:black;fill-rule:nonzero;stroke-width:1px;stroke:rgb(68,159,219);"/>
            <path d="M48,0L48,512" style="fill:black;fill-opacity:0.3;fill-rule:nonzero;stroke-width:1px;stroke:rgb(68,159,219);stroke-opacity:0.3;"/>
            <path d="M64,0L64,512" style="fill:black;fill-rule:nonzero;stroke-width:1px;stroke:rgb(68,159,219);"/>
            <path d="M80,0L80,512" style="fill:black;fill-opacity:0.3;fill-rule:nonzero;stroke-width:1px;stroke:rgb(68,159,219);stroke-opacity:0.3;"/>
            <path d="M96,0L96,512" style="fill:black;fill-rule:nonzero;stroke-width:1px;stroke:rgb(68,159,219);"/>
            <path d="M112,0L112,512" style="fill:black;fill-opacity:0.3;fill-rule:nonzero;stroke-width:1px;stroke:rgb(68,159,219);stroke-opacity:0.3;"/>
            <path d="M128,0L128,512" style="fill:black;fill-rule:nonzero;stroke-width:1px;stroke:rgb(68,159,219);"/>
            <path d="M144,0L144,512" style="fill:black;fill-opacity:0.3;fill-rule:nonzero;stroke-width:1px;stroke:rgb(68,159,219);stroke-opacity:0.3;"/>
            <path d="M160,0L160,512" style="fill:black;fill-rule:nonzero;stroke-width:1px;stroke:rgb(68,159,219);"/>
            <path d="M176,0L176,512" style="fill:black;fill-opacity:0.3;fill-rule:nonzero;stroke-width:1px;stroke:rgb(68,159,219);stroke-opacity:0.3;"/>
            <path d="M192,0L192,512" style="fill:black;fill-rule:nonzero;stroke-width:1px;stroke:rgb(68,159,219);"/>
            <path d="M208,0L208,512" style="fill:black;fill-opacity:0.3;fill-rule:nonzero;stroke-width:1px;stroke:rgb(68,159,219);stroke-opacity:0.3;"/>
            <path d="M224,0L224,512" style="fill:black;fill-rule:nonzero;stroke-width:1px;stroke:rgb(68,159,219);"/>
            <path d="M240,0L240,512" style="fill:black;fill-opacity:0.3;fill-rule:nonzero;stroke-width:1px;stroke:rgb(68,159,219);stroke-opacity:0.3;"/>
            <path d="M256,0L256,512" style="fill:black;fill-rule:nonzero;stroke-width:1px;stroke:rgb(68,159,219);"/>
            <path d="M272,0L272,512" style="fill:black;fill-opacity:0.3;fill-rule:nonzero;stroke-width:1px;stroke:rgb(68,159,219);stroke-opacity:0.3;"/>
            <path d="M288,0L288,512" style="fill:black;fill-rule:nonzero;stroke-width:1px;stroke:rgb(68,159,219);"/>
            <path d="M304,0L304,512" style="fill:black;fill-opacity:0.3;fill-rule:nonzero;stroke-width:1px;stroke:rgb(68,159,219);stroke-opacity:0.3;"/>
            <path d="M320,0L320,512" style="fill:black;fill-rule:nonzero;stroke-width:1px;stroke:rgb(68,159,219);"/>
            <path d="M336,0L336,512" style="fill:black;fill-opacity:0.3;fill-rule:nonzero;stroke-width:1px;stroke:rgb(68,159,219);stroke-opacity:0.3;"/>
            <path d="M352,0L352,512" style="fill:black;fill-rule:nonzero;stroke-width:1px;stroke:rgb(68,159,219);"/>
            <path d="M368,0L368,512" style="fill:black;fill-opacity:0.3;fill-rule:nonzero;stroke-width:1px;stroke:rgb(68,159,219);stroke-opacity:0.3;"/>
            <path d="M384,0L384,512" style="fill:black;fill-rule:nonzero;stroke-width:1px;stroke:rgb(68,159,219);"/>
            <path d="M400,0L400,512" style="fill:black;fill-opacity:0.3;fill-rule:nonzero;stroke-width:1px;stroke:rgb(68,159,219);stroke-opacity:0.3;"/>
            <path d="M416,0L416,512" style="fill:black;fill-rule:nonzero;stroke-width:1px;stroke:rgb(68,159,219);"/>
            <path d="M432,0L432,512" style="fill:black;fill-opacity:0.3;fill-rule:nonzero;stroke-width:1px;stroke:rgb(68,159,219);stroke-opacity:0.3;"/>
            <path d="M448,0L448,512" style="fill:black;fill-rule:nonzero;stroke-width:1px;stroke:rgb(68,159,219);"/>
            <path d="M464,0L464,512" style="fill:black;fill-opacity:0.3;fill-rule:nonzero;stroke-width:1px;stroke:rgb(68,159,219);stroke-opacity:0.3;"/>
            <path d="M480,0L480,512" style="fill:black;fill-rule:nonzero;stroke-width:1px;stroke:rgb(68,159,219);"/>
            <path d="M496,0L496,512" style="fill:black;fill-opacity:0.3;fill-rule:nonzero;stroke-width:1px;stroke:rgb(68,159,219);stroke-opacity:0.3;"/>
            <path d="M0,16L512,16" style="fill:black;fill-opacity:0.3;fill-rule:nonzero;stroke-width:1px;stroke:rgb(68,159,219);stroke-opacity:0.3;"/>
            <path d="M0,32L512,32" style="fill:black;fill-rule:nonzero;stroke-width:1px;stroke:rgb(68,159,219);"/>
            <path d="M0,48L512,48" style="fill:black;fill-opacity:0.3;fill-rule:nonzero;stroke-width:1px;stroke:rgb(68,159,219);stroke-opacity:0.3;"/>
            <path d="M0,64L512,64" style="fill:black;fill-rule:nonzero;stroke-width:1px;stroke:rgb(68,159,219);"/>
            <path d="M0,80L512,80" style="fill:black;fill-opacity:0.3;fill-rule:nonzero;stroke-width:1px;stroke:rgb(68,159,219);stroke-opacity:0.3;"/>
            <path d="M0,96L512,96" style="fill:black;fill-rule:nonzero;stroke-width:1px;stroke:rgb(68,159,219);"/>
            <path d="M0,112L512,112" style="fill:black;fill-opacity:0.3;fill-rule:nonzero;stroke-width:1px;stroke:rgb(68,159,219);stroke-opacity:0.3;"/>
            <path d="M0,128L512,128" style="fill:black;fill-rule:nonzero;stroke-width:1px;stroke:rgb(68,159,219);"/>
            <path d="M0,144L512,144" style="fill:black;fill-opacity:0.3;fill-rule:nonzero;stroke-width:1px;stroke:rgb(68,159,219);stroke-opacity:0.3;"/>
            <path d="M0,160L512,160" style="fill:black;fill-rule:nonzero;stroke-width:1px;stroke:rgb(68,159,219);"/>
            <path d="M0,176L512,176" style="fill:black;fill-opacity:0.3;fill-rule:nonzero;stroke-width:1px;stroke:rgb(68,159,219);stroke-opacity:0.3;"/>
            <path d="M0,192L512,192" style="fill:black;fill-rule:nonzero;stroke-width:1px;stroke:rgb(68,159,219);"/>
            <path d="M0,208L512,208" style="fill:black;fill-opacity:0.3;fill-rule:nonzero;stroke-width:1px;stroke:rgb(68,159,219);stroke-opacity:0.3;"/>
            <path d="M0,224L512,224" style="fill:black;fill-rule:nonzero;stroke-width:1px;stroke:rgb(68,159,219);"/>
            <path d="M0,240L512,240" style="fill:black;fill-opacity:0.3;fill-rule:nonzero;stroke-width:1px;stroke:rgb(68,159,219);stroke-opacity:0.3;"/>
            <path d="M0,256L512,256" style="fill:black;fill-rule:nonzero;stroke-width:1px;stroke:rgb(68,159,219);"/>
            <path d="M0,272L512,272" style="fill:black;fill-opacity:0.3;fill-rule:nonzero;stroke-width:1px;stroke:rgb(68,159,219);stroke-opacity:0.3;"/>
            <path d="M0,288L512,288" style="fill:black;fill-rule:nonzero;stroke-width:1px;stroke:rgb(68,159,219);"/>
            <path d="M0,304L512,304" style="fill:black;fill-opacity:0.3;fill-rule:nonzero;stroke-width:1px;stroke:rgb(68,159,219);stroke-opacity:0.3;"/>
            <path d="M0,320L512,320" style="fill:black;fill-rule:nonzero;stroke-width:1px;stroke:rgb(68,159,219);"/>
            <path d="M0,336L512,336" style="fill:black;fill-opacity:0.3;fill-rule:nonzero;stroke-width:1px;stroke:rgb(68,159,219);stroke-opacity:0.3;"/>
            <path d="M0,352L512,352" style="fill:black;fill-rule:nonzero;stroke-width:1px;stroke:rgb(68,159,219);"/>
            <path d="M0,368L512,368" style="fill:black;fill-opacity:0.3;fill-rule:nonzero;stroke-width:1px;stroke:rgb(68,159,219);stroke-opacity:0.3;"/>
            <path d="M0,384L512,384" style="fill:black;fill-rule:nonzero;stroke-width:1px;stroke:rgb(68,159,219);"/>
            <path d="M0,400L512,400" style="fill:black;fill-opacity:0.3;fill-rule:nonzero;stroke-width:1px;stroke:rgb(68,159,219);stroke-opacity:0.3;"/>
            <path d="M0,416L512,416" style="fill:black;fill-rule:nonzero;stroke-width:1px;stroke:rgb(68,159,219);"/>
            <path d="M0,432L512,432" style="fill:black;fill-opacity:0.3;fill-rule:nonzero;stroke-width:1px;stroke:rgb(68,159,219);stroke-opacity:0.3;"/>
            <path d="M0,448L512,448" style="fill:black;fill-rule:nonzero;stroke-width:1px;stroke:rgb(68,159,219);"/>
            <path d="M0,464L512,464" style="fill:black;fill-opacity:0.3;fill-rule:nonzero;stroke-width:1px;stroke:rgb(68,159,219);stroke-opacity:0.3;"/>
            <path d="M0,480L512,480" style="fill:black;fill-rule:nonzero;stroke-width:1px;stroke:rgb(68,159,219);"/>
            <path d="M0,496L512,496" style="fill:black;fill-opacity:0.3;fill-rule:nonzero;stroke-width:1px;stroke:rgb(68,159,219);stroke-opacity:0.3;"/>
        </g>
        <path d="M255.528,0C327.136,0 388.104,25 438.368,74.976C462.448,99.048 480.728,126.56 493.208,157.488C505.704,188.424 511.976,221.256 511.976,256C511.976,291.048 505.808,323.888 493.48,354.496C481.136,385.12 462.92,412.184 438.856,435.648C413.872,460.328 385.528,479.232 353.824,492.336C322.136,505.44 289.352,511.992 255.544,511.992C221.712,511.992 189.336,505.528 158.384,492.56C127.456,479.616 99.72,460.872 75.184,436.344C50.648,411.816 31.984,384.16 19.184,353.368C6.384,322.576 1.06581e-14,290.144 1.06581e-14,256C1.06581e-14,222.168 6.472,189.64 19.424,158.4C32.376,127.16 51.2,99.2 75.88,74.512C124.64,24.848 184.52,-5.68434e-14 255.528,-5.68434e-14ZM256.456,46.176C197.96,46.176 148.72,66.6 108.792,107.432C88.672,127.856 73.208,150.784 62.392,176.232C51.56,201.68 46.16,228.272 46.16,256.008C46.16,283.44 51.56,309.872 62.392,335.312C73.216,360.784 88.672,383.48 108.792,403.44C128.904,423.408 151.6,438.632 176.912,449.16C202.2,459.672 228.72,464.944 256.456,464.944C283.88,464.944 310.456,459.624 336.24,448.952C362.008,438.272 385.208,422.88 405.96,402.784C445.864,363.784 465.816,314.864 465.816,256.024C465.816,227.68 460.648,200.864 450.288,175.568C439.944,150.272 424.832,127.728 405.056,107.904C363.872,66.752 314.36,46.176 256.456,46.176Z" style="fill:black;fill-rule:nonzero;"/>
        <g>
            <path d="M267.74,282.017L220.405,282.017L220.405,354.239C220.405,364.564 217.968,372.396 213.096,377.732C208.223,383.069 202.074,385.738 194.649,385.738C186.875,385.738 180.61,383.098 175.854,377.819C171.097,372.541 168.719,364.796 168.719,354.587L168.719,157.935C168.719,146.566 171.329,138.444 176.55,133.572C181.771,128.699 190.066,126.262 201.436,126.262L267.74,126.262C287.347,126.262 302.43,127.771 312.987,130.787C323.429,133.688 332.45,138.502 340.049,145.231C347.648,151.96 353.42,160.198 357.365,169.943C361.309,179.689 363.281,190.653 363.281,202.835C363.281,228.823 355.276,248.517 339.266,261.917C323.255,275.317 299.413,282.017 267.74,282.017ZM255.21,165.071L220.405,165.071L220.405,243.035L255.21,243.035C267.392,243.035 277.573,241.759 285.752,239.206C293.931,236.654 300.167,232.477 304.46,226.676C308.753,220.875 310.899,213.276 310.899,203.879C310.899,192.625 307.593,183.459 300.98,176.382C293.554,168.841 278.298,165.071 255.21,165.071Z" style="fill:black;fill-rule:nonzero;"/>
        </g>
    </g>
</svg>
