<?xml version="1.0" standalone="no"?>
<!DOCTYPE svg PUBLIC "-//W3C//DTD SVG 1.1//EN" "http://www.w3.org/Graphics/SVG/1.1/DTD/svg11.dtd">
<svg width="640px" height="640px" version="1.1" xmlns="http://www.w3.org/2000/svg" xmlns:xlink="http://www.w3.org/1999/xlink" xml:space="preserve" style="fill-rule:evenodd;clip-rule:evenodd;stroke-miterlimit:1.41421;">
    <g>
        <g id="icomoon-ignore">
            <path d="M16,0L16,640" style="fill:black;fill-opacity:0.3;fill-rule:nonzero;stroke-width:1px;stroke:rgb(68,159,219);stroke-opacity:0.3;"/>
            <path d="M32,0L32,640" style="fill:black;fill-rule:nonzero;stroke-width:1px;stroke:rgb(68,159,219);"/>
            <path d="M48,0L48,640" style="fill:black;fill-opacity:0.3;fill-rule:nonzero;stroke-width:1px;stroke:rgb(68,159,219);stroke-opacity:0.3;"/>
            <path d="M64,0L64,640" style="fill:black;fill-rule:nonzero;stroke-width:1px;stroke:rgb(68,159,219);"/>
            <path d="M80,0L80,640" style="fill:black;fill-opacity:0.3;fill-rule:nonzero;stroke-width:1px;stroke:rgb(68,159,219);stroke-opacity:0.3;"/>
            <path d="M96,0L96,640" style="fill:black;fill-rule:nonzero;stroke-width:1px;stroke:rgb(68,159,219);"/>
            <path d="M112,0L112,640" style="fill:black;fill-opacity:0.3;fill-rule:nonzero;stroke-width:1px;stroke:rgb(68,159,219);stroke-opacity:0.3;"/>
            <path d="M128,0L128,640" style="fill:black;fill-rule:nonzero;stroke-width:1px;stroke:rgb(68,159,219);"/>
            <path d="M144,0L144,640" style="fill:black;fill-opacity:0.3;fill-rule:nonzero;stroke-width:1px;stroke:rgb(68,159,219);stroke-opacity:0.3;"/>
            <path d="M160,0L160,640" style="fill:black;fill-rule:nonzero;stroke-width:1px;stroke:rgb(68,159,219);"/>
            <path d="M176,0L176,640" style="fill:black;fill-opacity:0.3;fill-rule:nonzero;stroke-width:1px;stroke:rgb(68,159,219);stroke-opacity:0.3;"/>
            <path d="M192,0L192,640" style="fill:black;fill-rule:nonzero;stroke-width:1px;stroke:rgb(68,159,219);"/>
            <path d="M208,0L208,640" style="fill:black;fill-opacity:0.3;fill-rule:nonzero;stroke-width:1px;stroke:rgb(68,159,219);stroke-opacity:0.3;"/>
            <path d="M224,0L224,640" style="fill:black;fill-rule:nonzero;stroke-width:1px;stroke:rgb(68,159,219);"/>
            <path d="M240,0L240,640" style="fill:black;fill-opacity:0.3;fill-rule:nonzero;stroke-width:1px;stroke:rgb(68,159,219);stroke-opacity:0.3;"/>
            <path d="M256,0L256,640" style="fill:black;fill-rule:nonzero;stroke-width:1px;stroke:rgb(68,159,219);"/>
            <path d="M272,0L272,640" style="fill:black;fill-opacity:0.3;fill-rule:nonzero;stroke-width:1px;stroke:rgb(68,159,219);stroke-opacity:0.3;"/>
            <path d="M288,0L288,640" style="fill:black;fill-rule:nonzero;stroke-width:1px;stroke:rgb(68,159,219);"/>
            <path d="M304,0L304,640" style="fill:black;fill-opacity:0.3;fill-rule:nonzero;stroke-width:1px;stroke:rgb(68,159,219);stroke-opacity:0.3;"/>
            <path d="M320,0L320,640" style="fill:black;fill-rule:nonzero;stroke-width:1px;stroke:rgb(68,159,219);"/>
            <path d="M336,0L336,640" style="fill:black;fill-opacity:0.3;fill-rule:nonzero;stroke-width:1px;stroke:rgb(68,159,219);stroke-opacity:0.3;"/>
            <path d="M352,0L352,640" style="fill:black;fill-rule:nonzero;stroke-width:1px;stroke:rgb(68,159,219);"/>
            <path d="M368,0L368,640" style="fill:black;fill-opacity:0.3;fill-rule:nonzero;stroke-width:1px;stroke:rgb(68,159,219);stroke-opacity:0.3;"/>
            <path d="M384,0L384,640" style="fill:black;fill-rule:nonzero;stroke-width:1px;stroke:rgb(68,159,219);"/>
            <path d="M400,0L400,640" style="fill:black;fill-opacity:0.3;fill-rule:nonzero;stroke-width:1px;stroke:rgb(68,159,219);stroke-opacity:0.3;"/>
            <path d="M416,0L416,640" style="fill:black;fill-rule:nonzero;stroke-width:1px;stroke:rgb(68,159,219);"/>
            <path d="M432,0L432,640" style="fill:black;fill-opacity:0.3;fill-rule:nonzero;stroke-width:1px;stroke:rgb(68,159,219);stroke-opacity:0.3;"/>
            <path d="M448,0L448,640" style="fill:black;fill-rule:nonzero;stroke-width:1px;stroke:rgb(68,159,219);"/>
            <path d="M464,0L464,640" style="fill:black;fill-opacity:0.3;fill-rule:nonzero;stroke-width:1px;stroke:rgb(68,159,219);stroke-opacity:0.3;"/>
            <path d="M480,0L480,640" style="fill:black;fill-rule:nonzero;stroke-width:1px;stroke:rgb(68,159,219);"/>
            <path d="M496,0L496,640" style="fill:black;fill-opacity:0.3;fill-rule:nonzero;stroke-width:1px;stroke:rgb(68,159,219);stroke-opacity:0.3;"/>
            <path d="M512,0L512,640" style="fill:black;fill-rule:nonzero;stroke-width:1px;stroke:rgb(68,159,219);"/>
            <path d="M528,0L528,640" style="fill:black;fill-opacity:0.3;fill-rule:nonzero;stroke-width:1px;stroke:rgb(68,159,219);stroke-opacity:0.3;"/>
            <path d="M544,0L544,640" style="fill:black;fill-rule:nonzero;stroke-width:1px;stroke:rgb(68,159,219);"/>
            <path d="M560,0L560,640" style="fill:black;fill-opacity:0.3;fill-rule:nonzero;stroke-width:1px;stroke:rgb(68,159,219);stroke-opacity:0.3;"/>
            <path d="M576,0L576,640" style="fill:black;fill-rule:nonzero;stroke-width:1px;stroke:rgb(68,159,219);"/>
            <path d="M592,0L592,640" style="fill:black;fill-opacity:0.3;fill-rule:nonzero;stroke-width:1px;stroke:rgb(68,159,219);stroke-opacity:0.3;"/>
            <path d="M608,0L608,640" style="fill:black;fill-rule:nonzero;stroke-width:1px;stroke:rgb(68,159,219);"/>
            <path d="M624,0L624,640" style="fill:black;fill-opacity:0.3;fill-rule:nonzero;stroke-width:1px;stroke:rgb(68,159,219);stroke-opacity:0.3;"/>
            <path d="M0,16L640,16" style="fill:black;fill-opacity:0.3;fill-rule:nonzero;stroke-width:1px;stroke:rgb(68,159,219);stroke-opacity:0.3;"/>
            <path d="M0,32L640,32" style="fill:black;fill-rule:nonzero;stroke-width:1px;stroke:rgb(68,159,219);"/>
            <path d="M0,48L640,48" style="fill:black;fill-opacity:0.3;fill-rule:nonzero;stroke-width:1px;stroke:rgb(68,159,219);stroke-opacity:0.3;"/>
            <path d="M0,64L640,64" style="fill:black;fill-rule:nonzero;stroke-width:1px;stroke:rgb(68,159,219);"/>
            <path d="M0,80L640,80" style="fill:black;fill-opacity:0.3;fill-rule:nonzero;stroke-width:1px;stroke:rgb(68,159,219);stroke-opacity:0.3;"/>
            <path d="M0,96L640,96" style="fill:black;fill-rule:nonzero;stroke-width:1px;stroke:rgb(68,159,219);"/>
            <path d="M0,112L640,112" style="fill:black;fill-opacity:0.3;fill-rule:nonzero;stroke-width:1px;stroke:rgb(68,159,219);stroke-opacity:0.3;"/>
            <path d="M0,128L640,128" style="fill:black;fill-rule:nonzero;stroke-width:1px;stroke:rgb(68,159,219);"/>
            <path d="M0,144L640,144" style="fill:black;fill-opacity:0.3;fill-rule:nonzero;stroke-width:1px;stroke:rgb(68,159,219);stroke-opacity:0.3;"/>
            <path d="M0,160L640,160" style="fill:black;fill-rule:nonzero;stroke-width:1px;stroke:rgb(68,159,219);"/>
            <path d="M0,176L640,176" style="fill:black;fill-opacity:0.3;fill-rule:nonzero;stroke-width:1px;stroke:rgb(68,159,219);stroke-opacity:0.3;"/>
            <path d="M0,192L640,192" style="fill:black;fill-rule:nonzero;stroke-width:1px;stroke:rgb(68,159,219);"/>
            <path d="M0,208L640,208" style="fill:black;fill-opacity:0.3;fill-rule:nonzero;stroke-width:1px;stroke:rgb(68,159,219);stroke-opacity:0.3;"/>
            <path d="M0,224L640,224" style="fill:black;fill-rule:nonzero;stroke-width:1px;stroke:rgb(68,159,219);"/>
            <path d="M0,240L640,240" style="fill:black;fill-opacity:0.3;fill-rule:nonzero;stroke-width:1px;stroke:rgb(68,159,219);stroke-opacity:0.3;"/>
            <path d="M0,256L640,256" style="fill:black;fill-rule:nonzero;stroke-width:1px;stroke:rgb(68,159,219);"/>
            <path d="M0,272L640,272" style="fill:black;fill-opacity:0.3;fill-rule:nonzero;stroke-width:1px;stroke:rgb(68,159,219);stroke-opacity:0.3;"/>
            <path d="M0,288L640,288" style="fill:black;fill-rule:nonzero;stroke-width:1px;stroke:rgb(68,159,219);"/>
            <path d="M0,304L640,304" style="fill:black;fill-opacity:0.3;fill-rule:nonzero;stroke-width:1px;stroke:rgb(68,159,219);stroke-opacity:0.3;"/>
            <path d="M0,320L640,320" style="fill:black;fill-rule:nonzero;stroke-width:1px;stroke:rgb(68,159,219);"/>
            <path d="M0,336L640,336" style="fill:black;fill-opacity:0.3;fill-rule:nonzero;stroke-width:1px;stroke:rgb(68,159,219);stroke-opacity:0.3;"/>
            <path d="M0,352L640,352" style="fill:black;fill-rule:nonzero;stroke-width:1px;stroke:rgb(68,159,219);"/>
            <path d="M0,368L640,368" style="fill:black;fill-opacity:0.3;fill-rule:nonzero;stroke-width:1px;stroke:rgb(68,159,219);stroke-opacity:0.3;"/>
            <path d="M0,384L640,384" style="fill:black;fill-rule:nonzero;stroke-width:1px;stroke:rgb(68,159,219);"/>
            <path d="M0,400L640,400" style="fill:black;fill-opacity:0.3;fill-rule:nonzero;stroke-width:1px;stroke:rgb(68,159,219);stroke-opacity:0.3;"/>
            <path d="M0,416L640,416" style="fill:black;fill-rule:nonzero;stroke-width:1px;stroke:rgb(68,159,219);"/>
            <path d="M0,432L640,432" style="fill:black;fill-opacity:0.3;fill-rule:nonzero;stroke-width:1px;stroke:rgb(68,159,219);stroke-opacity:0.3;"/>
            <path d="M0,448L640,448" style="fill:black;fill-rule:nonzero;stroke-width:1px;stroke:rgb(68,159,219);"/>
            <path d="M0,464L640,464" style="fill:black;fill-opacity:0.3;fill-rule:nonzero;stroke-width:1px;stroke:rgb(68,159,219);stroke-opacity:0.3;"/>
            <path d="M0,480L640,480" style="fill:black;fill-rule:nonzero;stroke-width:1px;stroke:rgb(68,159,219);"/>
            <path d="M0,496L640,496" style="fill:black;fill-opacity:0.3;fill-rule:nonzero;stroke-width:1px;stroke:rgb(68,159,219);stroke-opacity:0.3;"/>
            <path d="M0,512L640,512" style="fill:black;fill-rule:nonzero;stroke-width:1px;stroke:rgb(68,159,219);"/>
            <path d="M0,528L640,528" style="fill:black;fill-opacity:0.3;fill-rule:nonzero;stroke-width:1px;stroke:rgb(68,159,219);stroke-opacity:0.3;"/>
            <path d="M0,544L640,544" style="fill:black;fill-rule:nonzero;stroke-width:1px;stroke:rgb(68,159,219);"/>
            <path d="M0,560L640,560" style="fill:black;fill-opacity:0.3;fill-rule:nonzero;stroke-width:1px;stroke:rgb(68,159,219);stroke-opacity:0.3;"/>
            <path d="M0,576L640,576" style="fill:black;fill-rule:nonzero;stroke-width:1px;stroke:rgb(68,159,219);"/>
            <path d="M0,592L640,592" style="fill:black;fill-opacity:0.3;fill-rule:nonzero;stroke-width:1px;stroke:rgb(68,159,219);stroke-opacity:0.3;"/>
            <path d="M0,608L640,608" style="fill:black;fill-rule:nonzero;stroke-width:1px;stroke:rgb(68,159,219);"/>
            <path d="M0,624L640,624" style="fill:black;fill-opacity:0.3;fill-rule:nonzero;stroke-width:1px;stroke:rgb(68,159,219);stroke-opacity:0.3;"/>
        </g>
        <g id="proonly">
            <path d="M640,64C640,28.6538 611.346,0 576,0L64,0C28.6538,0 0,28.6538 0,64L0,576C0,611.346 28.6538,640 64,640L576,640C611.346,640 640,611.346 640,576L640,64ZM281.989,331.903L270.31,331.903L270.31,384.793C270.31,391.755 268.776,396.883 265.706,400.177C262.637,403.471 258.632,405.118 253.691,405.118C248.376,405.118 244.258,403.396 241.339,399.953C238.419,396.509 236.959,391.456 236.959,384.793L236.959,258.127C236.959,250.94 238.569,245.737 241.788,242.518C245.007,239.299 250.21,237.689 257.397,237.689L311.634,237.689C319.12,237.689 325.521,238.007 330.836,238.644C336.151,239.28 340.943,240.571 345.21,242.518C350.375,244.689 354.942,247.796 358.91,251.838C362.877,255.881 365.89,260.578 367.949,265.931C370.008,271.284 371.037,276.954 371.037,282.943C371.037,295.221 367.575,305.028 360.65,312.364C353.725,319.701 343.226,324.903 329.152,327.973C335.066,331.117 340.718,335.758 346.108,341.897C351.498,348.036 356.308,354.568 360.538,361.492C364.767,368.417 368.061,374.668 370.42,380.245C372.778,385.822 373.957,389.659 373.957,391.755C373.957,393.926 373.264,396.078 371.879,398.212C370.494,400.346 368.604,402.03 366.209,403.265C363.813,404.5 361.043,405.118 357.899,405.118C354.156,405.118 351.012,404.238 348.466,402.479C345.921,400.72 343.731,398.493 341.897,395.798C340.063,393.103 337.574,389.135 334.43,383.895L321.067,361.661C316.276,353.501 311.99,347.287 308.209,343.02C304.429,338.753 300.592,335.833 296.699,334.261C292.806,332.689 287.903,331.903 281.989,331.903ZM147.686,338.191L117.143,338.191L117.143,384.793C117.143,391.456 115.571,396.509 112.426,399.953C109.282,403.396 105.315,405.118 100.523,405.118C95.5077,405.118 91.4651,403.415 88.3958,400.009C85.3264,396.603 83.7918,391.605 83.7918,385.018L83.7918,258.127C83.7918,250.79 85.4762,245.55 88.845,242.406C92.2137,239.261 97.5664,237.689 104.903,237.689L147.686,237.689C160.338,237.689 170.07,238.662 176.883,240.609C183.62,242.48 189.441,245.587 194.344,249.929C199.248,254.271 202.972,259.586 205.517,265.875C208.063,272.163 209.335,279.238 209.335,287.098C209.335,303.867 204.17,316.575 193.839,325.222C183.508,333.868 168.124,338.191 147.686,338.191ZM475.02,234.882C492.089,234.882 506.743,238.344 518.983,245.269C531.223,252.194 540.487,262.038 546.776,274.802C553.064,287.566 556.208,302.557 556.208,319.775C556.208,332.502 554.486,344.068 551.043,354.474C547.599,364.88 542.434,373.901 535.546,381.537C528.659,389.172 520.2,395.012 510.168,399.054C500.137,403.097 488.645,405.118 475.694,405.118C462.818,405.118 451.289,403.041 441.108,398.886C430.927,394.731 422.43,388.873 415.617,381.312C408.805,373.751 403.658,364.655 400.177,354.025C396.696,343.394 394.956,331.903 394.956,319.551C394.956,306.899 396.771,295.296 400.402,284.74C404.033,274.184 409.292,265.201 416.179,257.79C423.066,250.378 431.451,244.708 441.333,240.777C451.214,236.847 462.444,234.882 475.02,234.882ZM522.408,319.551C522.408,307.498 520.462,297.055 516.569,288.221C512.676,279.387 507.117,272.706 499.893,268.177C492.669,263.648 484.378,261.383 475.02,261.383C468.358,261.383 462.2,262.637 456.548,265.145C450.896,267.653 446.03,271.302 441.95,276.093C437.87,280.885 434.651,287.005 432.293,294.453C429.935,301.902 428.756,310.268 428.756,319.551C428.756,328.909 429.935,337.368 432.293,344.929C434.651,352.49 437.982,358.76 442.287,363.738C446.592,368.716 451.532,372.441 457.11,374.911C462.687,377.382 468.807,378.617 475.47,378.617C484.004,378.617 491.846,376.483 498.995,372.216C506.144,367.949 511.834,361.361 516.063,352.453C520.293,343.544 522.408,332.577 522.408,319.551ZM139.601,262.731L117.143,262.731L117.143,313.038L139.601,313.038C147.462,313.038 154.031,312.214 159.309,310.567C164.587,308.92 168.61,306.225 171.38,302.482C174.15,298.739 175.535,293.836 175.535,287.772C175.535,280.51 173.402,274.596 169.134,270.03C164.343,265.164 154.499,262.731 139.601,262.731ZM301.079,262.731L270.31,262.731L270.31,307.985L300.18,307.985C308.191,307.985 314.928,307.292 320.393,305.907C325.858,304.522 330.032,302.164 332.914,298.833C335.796,295.501 337.237,290.916 337.237,285.077C337.237,280.51 336.077,276.486 333.756,273.005C331.435,269.524 328.216,266.923 324.099,265.201C320.206,263.554 312.533,262.731 301.079,262.731Z" style="fill:black;"/>
        </g>
    </g>
</svg>
