<?xml version="1.0" encoding="utf-8"?>
<!-- Generator: Adobe Illustrator 15.0.0, SVG Export Plug-In . SVG Version: 6.00 Build 0)  -->
<!DOCTYPE svg PUBLIC "-//W3C//DTD SVG 1.0//EN" "http://www.w3.org/TR/2001/REC-SVG-20010904/DTD/svg10.dtd">
<svg version="1.0" id="Calque_1" xmlns="http://www.w3.org/2000/svg" xmlns:xlink="http://www.w3.org/1999/xlink" x="0px" y="0px"
	 width="1024px" height="1024px" viewBox="496.5 528.5 1024 1024" enable-background="new 496.5 528.5 1024 1024"
	 xml:space="preserve">
<path d="M1101.168,1488.5l-20-128h268.667c16.384,0,31.36-9.429,38.443-24.149c7.125-14.805,5.12-32.341-5.12-45.184h-0.002
	l-115.2-144h39.211c15.915,0,30.507-8.832,37.845-22.955c7.339-14.123,6.229-31.104-2.899-44.16L1043.444,610.69
	c-13.525-19.285-40.107-23.979-59.437-10.496c-3.883,2.688-6.741,6.229-9.429,9.856c-1.067,0.64-299.733,470.001-299.733,470.001
	c-9.131,13.058-10.24,30.037-2.901,44.16c7.381,14.123,21.973,22.955,37.888,22.955h39.211l-115.2,144
	c-10.24,12.843-12.245,30.379-5.163,45.184c7.125,14.722,22.101,24.149,38.485,24.149h268.667l-20,128"/>
</svg>
