<?xml version="1.0" standalone="no"?>
<!DOCTYPE svg PUBLIC "-//W3C//DTD SVG 1.1//EN" "http://www.w3.org/Graphics/SVG/1.1/DTD/svg11.dtd">
<svg width="640px" height="640px" version="1.1" xmlns="http://www.w3.org/2000/svg" xmlns:xlink="http://www.w3.org/1999/xlink" xml:space="preserve" style="fill-rule:evenodd;clip-rule:evenodd;stroke-miterlimit:1.41421;">
    <g>
        <g id="icomoon-ignore">
            <path d="M16,0L16,640" style="fill:black;fill-opacity:0.3;fill-rule:nonzero;stroke-width:1px;stroke:rgb(68,159,219);stroke-opacity:0.3;"/>
            <path d="M32,0L32,640" style="fill:black;fill-rule:nonzero;stroke-width:1px;stroke:rgb(68,159,219);"/>
            <path d="M48,0L48,640" style="fill:black;fill-opacity:0.3;fill-rule:nonzero;stroke-width:1px;stroke:rgb(68,159,219);stroke-opacity:0.3;"/>
            <path d="M64,0L64,640" style="fill:black;fill-rule:nonzero;stroke-width:1px;stroke:rgb(68,159,219);"/>
            <path d="M80,0L80,640" style="fill:black;fill-opacity:0.3;fill-rule:nonzero;stroke-width:1px;stroke:rgb(68,159,219);stroke-opacity:0.3;"/>
            <path d="M96,0L96,640" style="fill:black;fill-rule:nonzero;stroke-width:1px;stroke:rgb(68,159,219);"/>
            <path d="M112,0L112,640" style="fill:black;fill-opacity:0.3;fill-rule:nonzero;stroke-width:1px;stroke:rgb(68,159,219);stroke-opacity:0.3;"/>
            <path d="M128,0L128,640" style="fill:black;fill-rule:nonzero;stroke-width:1px;stroke:rgb(68,159,219);"/>
            <path d="M144,0L144,640" style="fill:black;fill-opacity:0.3;fill-rule:nonzero;stroke-width:1px;stroke:rgb(68,159,219);stroke-opacity:0.3;"/>
            <path d="M160,0L160,640" style="fill:black;fill-rule:nonzero;stroke-width:1px;stroke:rgb(68,159,219);"/>
            <path d="M176,0L176,640" style="fill:black;fill-opacity:0.3;fill-rule:nonzero;stroke-width:1px;stroke:rgb(68,159,219);stroke-opacity:0.3;"/>
            <path d="M192,0L192,640" style="fill:black;fill-rule:nonzero;stroke-width:1px;stroke:rgb(68,159,219);"/>
            <path d="M208,0L208,640" style="fill:black;fill-opacity:0.3;fill-rule:nonzero;stroke-width:1px;stroke:rgb(68,159,219);stroke-opacity:0.3;"/>
            <path d="M224,0L224,640" style="fill:black;fill-rule:nonzero;stroke-width:1px;stroke:rgb(68,159,219);"/>
            <path d="M240,0L240,640" style="fill:black;fill-opacity:0.3;fill-rule:nonzero;stroke-width:1px;stroke:rgb(68,159,219);stroke-opacity:0.3;"/>
            <path d="M256,0L256,640" style="fill:black;fill-rule:nonzero;stroke-width:1px;stroke:rgb(68,159,219);"/>
            <path d="M272,0L272,640" style="fill:black;fill-opacity:0.3;fill-rule:nonzero;stroke-width:1px;stroke:rgb(68,159,219);stroke-opacity:0.3;"/>
            <path d="M288,0L288,640" style="fill:black;fill-rule:nonzero;stroke-width:1px;stroke:rgb(68,159,219);"/>
            <path d="M304,0L304,640" style="fill:black;fill-opacity:0.3;fill-rule:nonzero;stroke-width:1px;stroke:rgb(68,159,219);stroke-opacity:0.3;"/>
            <path d="M320,0L320,640" style="fill:black;fill-rule:nonzero;stroke-width:1px;stroke:rgb(68,159,219);"/>
            <path d="M336,0L336,640" style="fill:black;fill-opacity:0.3;fill-rule:nonzero;stroke-width:1px;stroke:rgb(68,159,219);stroke-opacity:0.3;"/>
            <path d="M352,0L352,640" style="fill:black;fill-rule:nonzero;stroke-width:1px;stroke:rgb(68,159,219);"/>
            <path d="M368,0L368,640" style="fill:black;fill-opacity:0.3;fill-rule:nonzero;stroke-width:1px;stroke:rgb(68,159,219);stroke-opacity:0.3;"/>
            <path d="M384,0L384,640" style="fill:black;fill-rule:nonzero;stroke-width:1px;stroke:rgb(68,159,219);"/>
            <path d="M400,0L400,640" style="fill:black;fill-opacity:0.3;fill-rule:nonzero;stroke-width:1px;stroke:rgb(68,159,219);stroke-opacity:0.3;"/>
            <path d="M416,0L416,640" style="fill:black;fill-rule:nonzero;stroke-width:1px;stroke:rgb(68,159,219);"/>
            <path d="M432,0L432,640" style="fill:black;fill-opacity:0.3;fill-rule:nonzero;stroke-width:1px;stroke:rgb(68,159,219);stroke-opacity:0.3;"/>
            <path d="M448,0L448,640" style="fill:black;fill-rule:nonzero;stroke-width:1px;stroke:rgb(68,159,219);"/>
            <path d="M464,0L464,640" style="fill:black;fill-opacity:0.3;fill-rule:nonzero;stroke-width:1px;stroke:rgb(68,159,219);stroke-opacity:0.3;"/>
            <path d="M480,0L480,640" style="fill:black;fill-rule:nonzero;stroke-width:1px;stroke:rgb(68,159,219);"/>
            <path d="M496,0L496,640" style="fill:black;fill-opacity:0.3;fill-rule:nonzero;stroke-width:1px;stroke:rgb(68,159,219);stroke-opacity:0.3;"/>
            <path d="M512,0L512,640" style="fill:black;fill-rule:nonzero;stroke-width:1px;stroke:rgb(68,159,219);"/>
            <path d="M528,0L528,640" style="fill:black;fill-opacity:0.3;fill-rule:nonzero;stroke-width:1px;stroke:rgb(68,159,219);stroke-opacity:0.3;"/>
            <path d="M544,0L544,640" style="fill:black;fill-rule:nonzero;stroke-width:1px;stroke:rgb(68,159,219);"/>
            <path d="M560,0L560,640" style="fill:black;fill-opacity:0.3;fill-rule:nonzero;stroke-width:1px;stroke:rgb(68,159,219);stroke-opacity:0.3;"/>
            <path d="M576,0L576,640" style="fill:black;fill-rule:nonzero;stroke-width:1px;stroke:rgb(68,159,219);"/>
            <path d="M592,0L592,640" style="fill:black;fill-opacity:0.3;fill-rule:nonzero;stroke-width:1px;stroke:rgb(68,159,219);stroke-opacity:0.3;"/>
            <path d="M608,0L608,640" style="fill:black;fill-rule:nonzero;stroke-width:1px;stroke:rgb(68,159,219);"/>
            <path d="M624,0L624,640" style="fill:black;fill-opacity:0.3;fill-rule:nonzero;stroke-width:1px;stroke:rgb(68,159,219);stroke-opacity:0.3;"/>
            <path d="M0,16L640,16" style="fill:black;fill-opacity:0.3;fill-rule:nonzero;stroke-width:1px;stroke:rgb(68,159,219);stroke-opacity:0.3;"/>
            <path d="M0,32L640,32" style="fill:black;fill-rule:nonzero;stroke-width:1px;stroke:rgb(68,159,219);"/>
            <path d="M0,48L640,48" style="fill:black;fill-opacity:0.3;fill-rule:nonzero;stroke-width:1px;stroke:rgb(68,159,219);stroke-opacity:0.3;"/>
            <path d="M0,64L640,64" style="fill:black;fill-rule:nonzero;stroke-width:1px;stroke:rgb(68,159,219);"/>
            <path d="M0,80L640,80" style="fill:black;fill-opacity:0.3;fill-rule:nonzero;stroke-width:1px;stroke:rgb(68,159,219);stroke-opacity:0.3;"/>
            <path d="M0,96L640,96" style="fill:black;fill-rule:nonzero;stroke-width:1px;stroke:rgb(68,159,219);"/>
            <path d="M0,112L640,112" style="fill:black;fill-opacity:0.3;fill-rule:nonzero;stroke-width:1px;stroke:rgb(68,159,219);stroke-opacity:0.3;"/>
            <path d="M0,128L640,128" style="fill:black;fill-rule:nonzero;stroke-width:1px;stroke:rgb(68,159,219);"/>
            <path d="M0,144L640,144" style="fill:black;fill-opacity:0.3;fill-rule:nonzero;stroke-width:1px;stroke:rgb(68,159,219);stroke-opacity:0.3;"/>
            <path d="M0,160L640,160" style="fill:black;fill-rule:nonzero;stroke-width:1px;stroke:rgb(68,159,219);"/>
            <path d="M0,176L640,176" style="fill:black;fill-opacity:0.3;fill-rule:nonzero;stroke-width:1px;stroke:rgb(68,159,219);stroke-opacity:0.3;"/>
            <path d="M0,192L640,192" style="fill:black;fill-rule:nonzero;stroke-width:1px;stroke:rgb(68,159,219);"/>
            <path d="M0,208L640,208" style="fill:black;fill-opacity:0.3;fill-rule:nonzero;stroke-width:1px;stroke:rgb(68,159,219);stroke-opacity:0.3;"/>
            <path d="M0,224L640,224" style="fill:black;fill-rule:nonzero;stroke-width:1px;stroke:rgb(68,159,219);"/>
            <path d="M0,240L640,240" style="fill:black;fill-opacity:0.3;fill-rule:nonzero;stroke-width:1px;stroke:rgb(68,159,219);stroke-opacity:0.3;"/>
            <path d="M0,256L640,256" style="fill:black;fill-rule:nonzero;stroke-width:1px;stroke:rgb(68,159,219);"/>
            <path d="M0,272L640,272" style="fill:black;fill-opacity:0.3;fill-rule:nonzero;stroke-width:1px;stroke:rgb(68,159,219);stroke-opacity:0.3;"/>
            <path d="M0,288L640,288" style="fill:black;fill-rule:nonzero;stroke-width:1px;stroke:rgb(68,159,219);"/>
            <path d="M0,304L640,304" style="fill:black;fill-opacity:0.3;fill-rule:nonzero;stroke-width:1px;stroke:rgb(68,159,219);stroke-opacity:0.3;"/>
            <path d="M0,320L640,320" style="fill:black;fill-rule:nonzero;stroke-width:1px;stroke:rgb(68,159,219);"/>
            <path d="M0,336L640,336" style="fill:black;fill-opacity:0.3;fill-rule:nonzero;stroke-width:1px;stroke:rgb(68,159,219);stroke-opacity:0.3;"/>
            <path d="M0,352L640,352" style="fill:black;fill-rule:nonzero;stroke-width:1px;stroke:rgb(68,159,219);"/>
            <path d="M0,368L640,368" style="fill:black;fill-opacity:0.3;fill-rule:nonzero;stroke-width:1px;stroke:rgb(68,159,219);stroke-opacity:0.3;"/>
            <path d="M0,384L640,384" style="fill:black;fill-rule:nonzero;stroke-width:1px;stroke:rgb(68,159,219);"/>
            <path d="M0,400L640,400" style="fill:black;fill-opacity:0.3;fill-rule:nonzero;stroke-width:1px;stroke:rgb(68,159,219);stroke-opacity:0.3;"/>
            <path d="M0,416L640,416" style="fill:black;fill-rule:nonzero;stroke-width:1px;stroke:rgb(68,159,219);"/>
            <path d="M0,432L640,432" style="fill:black;fill-opacity:0.3;fill-rule:nonzero;stroke-width:1px;stroke:rgb(68,159,219);stroke-opacity:0.3;"/>
            <path d="M0,448L640,448" style="fill:black;fill-rule:nonzero;stroke-width:1px;stroke:rgb(68,159,219);"/>
            <path d="M0,464L640,464" style="fill:black;fill-opacity:0.3;fill-rule:nonzero;stroke-width:1px;stroke:rgb(68,159,219);stroke-opacity:0.3;"/>
            <path d="M0,480L640,480" style="fill:black;fill-rule:nonzero;stroke-width:1px;stroke:rgb(68,159,219);"/>
            <path d="M0,496L640,496" style="fill:black;fill-opacity:0.3;fill-rule:nonzero;stroke-width:1px;stroke:rgb(68,159,219);stroke-opacity:0.3;"/>
            <path d="M0,512L640,512" style="fill:black;fill-rule:nonzero;stroke-width:1px;stroke:rgb(68,159,219);"/>
            <path d="M0,528L640,528" style="fill:black;fill-opacity:0.3;fill-rule:nonzero;stroke-width:1px;stroke:rgb(68,159,219);stroke-opacity:0.3;"/>
            <path d="M0,544L640,544" style="fill:black;fill-rule:nonzero;stroke-width:1px;stroke:rgb(68,159,219);"/>
            <path d="M0,560L640,560" style="fill:black;fill-opacity:0.3;fill-rule:nonzero;stroke-width:1px;stroke:rgb(68,159,219);stroke-opacity:0.3;"/>
            <path d="M0,576L640,576" style="fill:black;fill-rule:nonzero;stroke-width:1px;stroke:rgb(68,159,219);"/>
            <path d="M0,592L640,592" style="fill:black;fill-opacity:0.3;fill-rule:nonzero;stroke-width:1px;stroke:rgb(68,159,219);stroke-opacity:0.3;"/>
            <path d="M0,608L640,608" style="fill:black;fill-rule:nonzero;stroke-width:1px;stroke:rgb(68,159,219);"/>
            <path d="M0,624L640,624" style="fill:black;fill-opacity:0.3;fill-rule:nonzero;stroke-width:1px;stroke:rgb(68,159,219);stroke-opacity:0.3;"/>
        </g>
        <path d="M195.936,232L221.248,64L89.6,64L34.592,208C32.896,213.12 32,218.432 32,224C32,259.328 68.8,288 114.272,288C156.192,288 190.848,263.552 195.936,232ZM320,288C365.44,288 402.272,259.328 402.272,224C402.272,222.688 402.176,221.376 402.112,220.128L385.824,64L254.176,64L237.856,220C237.792,221.312 237.728,222.624 237.728,224C237.728,259.328 274.56,288 320,288ZM480,321.472L480,448L160,448L160,321.664C145.984,326.72 130.56,329.6 114.272,329.6C108.032,329.6 101.984,328.864 96,328.032L96,531.2C96,555.84 116.128,576 140.736,576L499.2,576C523.84,576 544,555.808 544,531.2L544,328.064C537.984,328.864 531.968,329.632 525.728,329.632C509.536,329.6 494.048,326.656 480,321.472ZM605.44,208L550.368,64L418.752,64L444.032,231.744C448.96,263.424 483.616,288 525.728,288C571.168,288 608,259.328 608,224C608,218.432 607.104,213.12 605.44,208Z" style="fill:black;fill-rule:nonzero;"/>
    </g>
</svg>
