<?xml version="1.0" standalone="no"?>
<!DOCTYPE svg PUBLIC "-//W3C//DTD SVG 1.1//EN" "http://www.w3.org/Graphics/SVG/1.1/DTD/svg11.dtd">
<svg width="33px" height="15px" version="1.1" xmlns="http://www.w3.org/2000/svg" xmlns:xlink="http://www.w3.org/1999/xlink" xml:space="preserve" style="fill-rule:evenodd;clip-rule:evenodd;stroke-linejoin:round;stroke-miterlimit:1.41421;">
    <g>
        <g id="VPC">
            <path d="M30.166,-0.0002L2.834,-0.0002C1.275,-0.0002 0,1.2758 0,2.8348L0,12.1658C0,13.7248 1.275,14.9998 2.834,14.9998L30.166,14.9998C31.725,14.9998 33,13.7248 33,12.1658L33,2.8348C33,1.2758 31.725,-0.0002 30.166,-0.0002ZM12.7059,12.9185L20.2932,12.9185C20.8147,12.9185 21.2414,12.4911 21.2414,11.9703L21.2414,7.67068C21.1141,7.68762 20.9868,7.70387 20.8547,7.70387C20.512,7.70319 20.1842,7.64088 19.8868,7.53116L19.8868,10.2093L13.1137,10.2093L13.1137,7.53522C12.817,7.64224 12.4906,7.70319 12.1458,7.70319C12.0137,7.70319 11.8857,7.68762 11.7591,7.67001L11.7591,11.9703C11.7591,12.4837 12.1719,12.9052 12.6816,12.9182L12.7059,12.9185ZM22.5419,5.1294L21.3762,2.08149L18.5904,2.08149L19.1255,5.63197C19.2298,6.30251 19.9634,6.82269 20.8547,6.82269C21.8165,6.82269 22.5961,6.21581 22.5961,5.46806C22.5961,5.35021 22.5771,5.23777 22.5419,5.1294ZM16.5003,6.82269C17.462,6.82269 18.2416,6.21581 18.2416,5.46806C18.2416,5.44029 18.2396,5.41252 18.2382,5.3861L17.8935,2.08149L15.107,2.08149L14.7616,5.38339C14.7602,5.41116 14.7589,5.43893 14.7589,5.46806C14.7589,6.21581 15.5385,6.82269 16.5003,6.82269ZM13.8743,5.63739L14.4101,2.08149L11.6236,2.08149L10.4593,5.1294C10.4234,5.23777 10.4044,5.35021 10.4044,5.46806C10.4044,6.21581 11.1833,6.82269 12.1458,6.82269C13.0331,6.82269 13.7666,6.30522 13.8743,5.63739Z" style="fill:rgb(35,31,32);"/>
        </g>
    </g>
</svg>
