<?xml version="1.0" encoding="utf-8"?>
<!-- Generator: Adobe Illustrator 15.0.0, SVG Export Plug-In . SVG Version: 6.00 Build 0)  -->
<!DOCTYPE svg PUBLIC "-//W3C//DTD SVG 1.1//EN" "http://www.w3.org/Graphics/SVG/1.1/DTD/svg11.dtd">
<svg version="1.1" id="Calque_1" xmlns="http://www.w3.org/2000/svg" xmlns:xlink="http://www.w3.org/1999/xlink" x="0px" y="0px"
	 width="512px" height="512px" viewBox="0 0 512 512" enable-background="new 0 0 512 512" xml:space="preserve">
<path d="M288.622,125.896c-6.899-2.541-44.327-7.165-68.52-9.882c3.793-22.146,5.523-42.438,5.523-63.808
	c0-24.333-19.798-44.115-44.115-44.115s-44.115,19.781-44.115,44.115c0,33.086-11.752,48.314-28.516,65.272
	c-9.67-12.741-24.828-21.157-42.068-21.157c-29.187,0-52.938,23.751-52.938,52.938v105.875c0,29.187,23.751,52.938,52.938,52.938
	c13.323,0,25.375-5.118,34.674-13.271c1.129,1.094,2.065,2.488,3.317,3.406c16.94,12.988,64.708,27.51,103.193,27.51
	c33.157,0,46.021-5.17,57.403-9.759c1.835-0.724,3.653-1.482,5.576-2.17c14.717-5.383,27.812-21.651,30.633-38.822l11.753-105.417
	C316.414,151.252,305.544,132.055,288.622,125.896L288.622,125.896z M66.812,272.782c-9.723,0-17.646-7.905-17.646-17.646V149.261
	c0-9.741,7.922-17.646,17.646-17.646c9.724,0,17.646,7.906,17.646,17.646v105.876C84.457,264.877,76.534,272.782,66.812,272.782
	L66.812,272.782z M266.688,270.135c-0.652,3.953-5.152,9.547-7.816,10.517c-2.312,0.864-4.482,1.746-6.636,2.576
	c-9.617,3.864-17.928,7.198-44.256,7.198c-33.774,0-72.666-13.287-81.736-20.222c-2.788-2.117-6.494-9.952-6.494-15.07v-87.877
	c0.053-0.829,0.9-11.575,12.475-23.152c16.111-16.128,40.463-40.479,40.463-91.9c0-4.853,3.97-8.823,8.822-8.823
	c4.853,0,8.823,3.97,8.823,8.823c0,24.828-2.576,48.173-8.452,75.754l-5.241,24.634l23.31-3.317
	c10.642,0.882,69.403,7.887,76.477,9.705c1.024,0.529,2.329,3.229,1.959,5.699l-11.699,105.452L266.688,270.135z"/>
<path d="M451.056,198.521l0.001-0.001c-13.324,0-25.378,5.101-34.678,13.254c-1.13-1.094-2.047-2.47-3.318-3.389
	c-16.941-13.006-64.678-27.512-103.186-27.512c-1.138,0-2.246,0.007-3.336,0.019v35.298c1.088-0.013,2.197-0.021,3.353-0.021
	c33.777,0,72.673,13.289,81.762,20.225c2.753,2.117,6.46,9.953,6.46,15.071v87.833c-0.019,0.459-0.707,11.454-12.478,23.225
	c-16.113,16.113-40.467,40.467-40.467,91.891h0.001c0,4.854-3.971,8.822-8.824,8.822c-4.852,0-8.823-3.969-8.823-8.822
	c0-31.854,4.519-57.197,8.453-75.762l5.241-24.672l-23.312,3.318c-10.678-0.883-69.427-7.889-76.503-9.742
	c-1.024-0.494-2.329-3.177-1.906-5.665l3.48-31.367h-35.511l-2.946,26.497c-3.071,18.336,7.783,37.537,24.707,43.731
	c6.954,2.54,44.332,7.147,68.526,9.882c-3.793,22.166-5.506,42.443-5.506,63.814c0,24.336,19.783,44.119,44.119,44.119
	s44.12-19.783,44.12-44.119c0-33.088,11.771-48.301,28.519-65.278c9.67,12.776,24.848,21.159,42.071,21.159
	c29.173,0,52.926-23.771,52.926-52.943V251.499C503.98,222.275,480.245,198.521,451.056,198.521z M468.703,357.349
	c0,9.741-7.905,17.647-17.646,17.647s-17.647-7.906-17.647-17.647V251.462c0-9.741,7.906-17.648,17.647-17.648
	s17.646,7.906,17.646,17.648V357.349z"/>
</svg>
