<?xml version="1.0" standalone="no"?>
<!DOCTYPE svg PUBLIC "-//W3C//DTD SVG 1.1//EN" "http://www.w3.org/Graphics/SVG/1.1/DTD/svg11.dtd">
<svg width="33px" height="15px" version="1.1" xmlns="http://www.w3.org/2000/svg" xmlns:xlink="http://www.w3.org/1999/xlink" xml:space="preserve" style="fill-rule:evenodd;clip-rule:evenodd;stroke-linejoin:round;stroke-miterlimit:1.41421;">
    <g>
        <g id="PRO">
            <path d="M30.166,-0.0002L2.834,-0.0002C1.275,-0.0002 0,1.2758 0,2.8348L0,12.1658C0,13.7248 1.275,14.9998 2.834,14.9998L30.166,14.9998C31.725,14.9998 33,13.7248 33,12.1658L33,2.8348C33,1.2758 31.725,-0.0002 30.166,-0.0002ZM16.5911,8.44922L14.9973,8.44922L14.9973,10.8809C14.9973,11.2285 14.9153,11.4922 14.7512,11.6719C14.5872,11.8516 14.3801,11.9414 14.1301,11.9414C13.8684,11.9414 13.6575,11.8525 13.4973,11.6748C13.3372,11.4971 13.2571,11.2363 13.2571,10.8926L13.2571,4.27148C13.2571,3.88867 13.345,3.61523 13.5208,3.45117C13.6965,3.28711 13.9758,3.20508 14.3586,3.20508L16.5911,3.20508C17.2512,3.20508 17.759,3.25586 18.1145,3.35742C18.4661,3.45508 18.7698,3.61719 19.0256,3.84375C19.2815,4.07031 19.4758,4.34766 19.6086,4.67578C19.7415,5.00391 19.8079,5.37305 19.8079,5.7832C19.8079,6.6582 19.5383,7.32129 18.9993,7.77246C18.4602,8.22363 17.6575,8.44922 16.5911,8.44922ZM6.27271,4.20117L8.21802,9.96094L10.1692,4.16016C10.2708,3.85547 10.3469,3.64355 10.3977,3.52441C10.4485,3.40527 10.5325,3.29785 10.6497,3.20215C10.7669,3.10645 10.927,3.05859 11.1301,3.05859C11.2786,3.05859 11.4163,3.0957 11.5432,3.16992C11.6702,3.24414 11.7698,3.34277 11.842,3.46582C11.9143,3.58887 11.9504,3.71289 11.9504,3.83789C11.9504,3.92383 11.9387,4.0166 11.9153,4.11621C11.8919,4.21582 11.8626,4.31348 11.8274,4.40918C11.7922,4.50488 11.7571,4.60352 11.7219,4.70508L9.64185,10.3184C9.56763,10.5332 9.49341,10.7373 9.4192,10.9307C9.34498,11.124 9.25904,11.2939 9.16138,11.4404C9.06373,11.5869 8.93384,11.707 8.77173,11.8008C8.60962,11.8945 8.41138,11.9414 8.17701,11.9414C7.94263,11.9414 7.74439,11.8955 7.58228,11.8037C7.42017,11.7119 7.28931,11.5908 7.1897,11.4404C7.09009,11.29 7.00318,11.1191 6.92896,10.9277C6.85474,10.7363 6.78052,10.5332 6.7063,10.3184L4.66138,4.75195C4.62623,4.65039 4.59009,4.55078 4.55298,4.45312C4.51587,4.35547 4.48462,4.25 4.45923,4.13672C4.43384,4.02344 4.42115,3.92773 4.42115,3.84961C4.42115,3.65039 4.50123,3.46875 4.66138,3.30469C4.82154,3.14062 5.02271,3.05859 5.2649,3.05859C5.56177,3.05859 5.77173,3.14941 5.89478,3.33105C6.01783,3.5127 6.1438,3.80273 6.27271,4.20117ZM28.5794,9.08203C28.5794,9.35547 28.512,9.65137 28.3772,9.96973C28.2424,10.2881 28.0305,10.6006 27.7415,10.9072C27.4524,11.2139 27.0833,11.4629 26.634,11.6543C26.1848,11.8457 25.6614,11.9414 25.0637,11.9414C24.6106,11.9414 24.1985,11.8984 23.8274,11.8125C23.4563,11.7266 23.1194,11.5928 22.8167,11.4111C22.5139,11.2295 22.2356,10.9902 21.9817,10.6934C21.7551,10.4238 21.5618,10.1221 21.4016,9.78809C21.2415,9.4541 21.1213,9.09766 21.0413,8.71875C20.9612,8.33984 20.9211,7.9375 20.9211,7.51172C20.9211,6.82031 21.0217,6.20117 21.2229,5.6543C21.4241,5.10742 21.7122,4.63965 22.0872,4.25098C22.4622,3.8623 22.9016,3.56641 23.4055,3.36328C23.9094,3.16016 24.4465,3.05859 25.0169,3.05859C25.7122,3.05859 26.3313,3.19727 26.8743,3.47461C27.4172,3.75195 27.8333,4.09473 28.1223,4.50293C28.4114,4.91113 28.5559,5.29688 28.5559,5.66016C28.5559,5.85938 28.4856,6.03516 28.345,6.1875C28.2044,6.33984 28.0344,6.41602 27.8352,6.41602C27.6126,6.41602 27.4456,6.36328 27.3342,6.25781C27.2229,6.15234 27.0989,5.9707 26.9622,5.71289C26.7356,5.28711 26.469,4.96875 26.1624,4.75781C25.8557,4.54688 25.4778,4.44141 25.0286,4.44141C24.3137,4.44141 23.7444,4.71289 23.3206,5.25586C22.8967,5.79883 22.6848,6.57031 22.6848,7.57031C22.6848,8.23828 22.7786,8.79395 22.9661,9.2373C23.1536,9.68066 23.4192,10.0117 23.7629,10.2305C24.1067,10.4492 24.509,10.5586 24.97,10.5586C25.47,10.5586 25.8928,10.4346 26.2385,10.1865C26.5842,9.93848 26.845,9.57422 27.0208,9.09375C27.095,8.86719 27.1868,8.68262 27.2961,8.54004C27.4055,8.39746 27.5813,8.32617 27.8235,8.32617C28.0305,8.32617 28.2083,8.39844 28.3567,8.54297C28.5051,8.6875 28.5794,8.86719 28.5794,9.08203ZM16.1692,4.51172L14.9973,4.51172L14.9973,7.13672L16.1692,7.13672C16.5794,7.13672 16.9221,7.09375 17.1975,7.00781C17.4729,6.92188 17.6829,6.78125 17.8274,6.58594C17.9719,6.39062 18.0442,6.13477 18.0442,5.81836C18.0442,5.43945 17.9329,5.13086 17.7102,4.89258C17.4602,4.63867 16.9465,4.51172 16.1692,4.51172Z" style="fill:rgb(35,31,32);"/>
        </g>
    </g>
</svg>
