<?xml version="1.0" encoding="utf-8"?>
<!-- Generator: Adobe Illustrator 15.0.0, SVG Export Plug-In . SVG Version: 6.00 Build 0)  -->
<!DOCTYPE svg PUBLIC "-//W3C//DTD SVG 1.1//EN" "http://www.w3.org/Graphics/SVG/1.1/DTD/svg11.dtd">
<svg version="1.1" id="Calque_1" xmlns="http://www.w3.org/2000/svg" xmlns:xlink="http://www.w3.org/1999/xlink" x="0px" y="0px"
	 width="17px" height="15px" viewBox="111.5 812.5 17 15" enable-background="new 111.5 812.5 17 15" xml:space="preserve">
<path d="M118.068,812.5c-1.752,0.001-3.401,0.683-4.641,1.924c-1.24,1.239-1.923,2.889-1.926,4.643l0.003,2.131l2-0.001v-2.132
	c0-1.219,0.475-2.364,1.337-3.227c0.862-0.862,2.007-1.337,3.226-1.337c2.438-0.002,4.562,2.122,4.562,4.561v3.855l-1.774-1.778
	l-1.416,1.415l4.244,4.243l4.243-4.243l-1.415-1.414l-1.881,1.881l0-3.959C124.631,815.556,121.573,812.501,118.068,812.5
	L118.068,812.5z M111.5,823.931l2.002-0.002l0.001,2l-2.002,0.002L111.5,823.931z"/>
</svg>
