<?xml version="1.0" standalone="no"?>
<!DOCTYPE svg PUBLIC "-//W3C//DTD SVG 1.1//EN" "http://www.w3.org/Graphics/SVG/1.1/DTD/svg11.dtd" >
<svg xmlns="http://www.w3.org/2000/svg">
<metadata>Generated by IcoMoon</metadata>
<defs>
<font id="ladbicons" horiz-adv-x="1024">
<font-face units-per-em="1024" ascent="896" descent="-128" />
<missing-glyph horiz-adv-x="1024" />
<glyph unicode="&#x20;" horiz-adv-x="512" d="" />
<glyph unicode="&#xe600;" glyph-name="referral" horiz-adv-x="1022" d="M1023.936 128h-768.192v-128l-255.744 192 255.744 192v-128h768.192zM0 512h767.936v-128l256 192-256 192v-128h-767.936z" />
<glyph unicode="&#xe601;" glyph-name="hardwood" d="M832 416c0 50.92-24.288 97.862-65.174 135.485 0.767 8.069 1.174 16.244 1.174 24.515 0 141.385-114.614 256-256 256s-256-114.615-256-256c0-8.271 0.408-16.445 1.174-24.515-40.886-37.623-65.174-84.565-65.174-135.485 0-105.312 103.83-200.053 243.734-224l-16.401-256h185.335l-16.401 256c139.904 23.948 243.733 118.688 243.733 224z" />
<glyph unicode="&#xe602;" glyph-name="resinous" d="M604.668-64l-20 128h268.667c16.384 0 31.36 9.429 38.443 24.149 7.125 14.805 5.12 32.341-5.12 45.184h-0.002l-115.2 144h39.211c15.915 0 30.507 8.832 37.845 22.955s6.229 31.104-2.899 44.16l-298.669 469.362c-13.525 19.285-40.107 23.979-59.437 10.496-3.883-2.688-6.741-6.229-9.429-9.856-1.067-0.64-299.733-470.001-299.733-470.001-9.131-13.058-10.24-30.037-2.901-44.16 7.381-14.123 21.973-22.955 37.888-22.955h39.211l-115.2-144c-10.24-12.843-12.245-30.379-5.163-45.184 7.125-14.722 22.101-24.149 38.485-24.149h268.667l-20-128z" />
<glyph unicode="&#xe603;" glyph-name="help" d="M505.754 854.989c-260.147-3.482-468.224-217.19-464.742-477.338 3.482-259.994 217.19-468.122 477.338-464.64 260.045 3.482 468.173 217.19 464.64 477.338-3.43 260.045-217.139 468.122-477.235 464.64zM504.371 97.28h-2.611c-40.038 1.178-68.301 30.72-67.174 70.195 1.126 38.758 30.054 66.97 68.813 66.97l2.355-0.051c41.165-1.229 69.12-30.464 67.891-71.066-1.126-38.861-29.645-66.048-69.274-66.048zM672.87 431.718c-9.472-13.363-30.157-30.003-56.269-50.33l-28.774-19.866c-15.77-12.288-25.293-23.808-28.826-35.123-2.867-9.011-4.198-11.315-4.454-29.491l-0.051-4.659h-109.722l0.307 9.318c1.331 38.195 2.304 60.621 18.125 79.206 24.832 29.133 79.616 64.41 81.92 65.894 7.834 5.939 14.438 12.646 19.405 19.814 11.52 15.872 16.589 28.416 16.589 40.653 0 17.050-5.069 32.819-15.053 46.848-9.626 13.568-27.904 20.429-54.323 20.429-26.214 0-44.134-8.346-54.886-25.395-11.11-17.562-16.64-35.942-16.64-54.784v-4.71h-113.152l0.205 4.915c2.918 69.325 27.648 119.194 73.523 148.326 28.774 18.586 64.614 27.955 106.394 27.955 54.733 0 101.018-13.312 137.37-39.526 36.864-26.573 55.552-66.406 55.552-118.323 0-29.082-9.165-56.371-27.238-81.152z" />
<glyph unicode="&#xe604;" glyph-name="badge-pro" horiz-adv-x="2251" d="M1183.675 510.021c0 16.521-3.89 30.992-11.536 43.554-7.714 12.56-18.501 21.913-32.153 28.194-12.903 5.938-38.366 8.875-76.459 8.875h-102.263v-163.362h99.259c26.624 0 49.015 2.526 67.106 7.509 18.226 4.983 32.085 13.518 41.643 25.531 9.691 12.082 14.402 28.603 14.402 49.698zM1724.347 571.051c-24.098 16.315-51.609 24.507-82.672 24.507-22.187 0-42.667-4.505-61.371-13.584-18.841-9.079-35.022-22.256-48.537-39.527-13.584-17.339-24.235-39.39-32.153-66.288-7.783-26.896-11.81-57.072-11.81-90.59 0-33.792 4.027-64.306 11.81-91.614 7.851-27.307 18.841-49.904 33.246-67.925 14.267-17.954 30.651-31.403 49.221-40.345 18.501-8.944 38.912-13.312 61.099-13.312 28.331 0 54.409 7.646 78.233 23.074 23.758 15.429 42.599 39.184 56.729 71.339 14.064 32.153 21.026 71.749 21.026 118.784 0 43.486-6.416 81.168-19.319 113.049-13.109 31.947-31.609 56.046-55.502 72.43zM2059.333 896h-1865.865c-106.427 0-193.467-87.040-193.467-193.467v-636.997c0-106.496 87.040-193.536 193.467-193.536h1865.865c106.427 0 193.467 87.040 193.467 193.467v637.065c0 106.427-87.040 193.467-193.467 193.467zM707.038 365.159c-34.338-31.198-85.47-46.832-153.394-46.832h-101.513v-168.142c0-24.098-5.189-42.325-15.632-54.75-10.446-12.423-23.621-18.635-39.595-18.635-16.656 0-30.105 6.144-40.277 18.432-10.242 12.288-15.294 30.311-15.294 54.066v458.002c0 26.487 5.598 45.397 16.793 56.729s28.944 17.067 53.317 17.067h142.201c42.121 0 74.411-3.55 97.074-10.581 22.391-6.759 41.712-17.954 58.027-33.655 16.315-15.632 28.741-34.816 37.136-57.55 8.464-22.665 12.766-48.265 12.766-76.594-0.069-60.487-17.202-106.361-51.609-137.559zM1298.841 101.717c-4.642-7.714-10.923-13.79-18.841-18.226s-17.136-6.69-27.579-6.69c-12.494 0-22.937 3.141-31.403 9.488-8.464 6.35-15.701 14.405-21.776 24.098-6.144 9.762-14.405 24.098-24.782 43.008l-44.441 80.213c-15.838 29.424-30.105 51.883-42.736 67.243-12.56 15.429-25.259 25.941-38.229 31.607-12.903 5.666-29.287 8.533-48.946 8.533h-38.775v-190.873c0-25.191-5.051-43.623-15.291-55.502-10.311-11.877-23.554-17.815-40.007-17.815-17.749 0-31.403 6.213-41.097 18.569-9.762 12.494-14.542 30.72-14.542 54.75l0.002 457.182c0 25.872 5.326 44.715 15.975 56.32s27.989 17.408 51.883 17.408h180.293c24.848 0 46.149-1.161 63.829-3.481 17.749-2.254 33.655-6.962 47.787-13.995 17.136-7.851 32.359-19.047 45.534-33.655s23.211-31.538 30.037-50.859c6.827-19.319 10.24-39.799 10.24-61.371 0-44.304-11.536-79.735-34.544-106.224s-57.959-45.262-104.72-56.32c19.662-11.333 38.503-28.126 56.389-50.245 17.886-22.187 33.861-45.739 47.922-70.725s25.054-47.513 32.837-67.653 11.742-33.998 11.742-41.575c0.137-7.781-2.117-15.495-6.759-23.209zM1894.263 259.55c-11.401-37.547-28.603-70.11-51.472-97.689s-50.994-48.606-84.377-63.216c-33.246-14.539-71.545-21.845-114.553-21.845-42.802 0-81.102 7.44-114.96 22.459-33.861 15.019-62.123 36.181-84.72 63.488-22.665 27.239-39.73 60.075-51.337 98.441-11.605 38.366-17.339 79.872-17.339 124.45 0 45.602 6.007 87.518 18.091 125.611 12.082 38.16 29.559 70.519 52.496 97.28 22.869 26.761 50.722 47.241 83.627 61.44 32.837 14.13 70.11 21.23 111.959 21.23 56.661 0 105.335-12.56 146.091-37.479 40.688-24.985 71.474-60.553 92.366-106.633 20.887-46.080 31.333-100.146 31.333-162.27 0-45.943-5.735-87.653-17.205-125.269zM526.882 590.642h-74.752v-181.589h74.752c26.078 0 47.922 3.003 65.467 8.944s30.857 15.632 40.073 29.15 13.858 31.266 13.858 53.111c0 26.215-7.099 47.582-21.298 64.034-15.909 17.545-48.677 26.35-98.101 26.35z" />
<glyph unicode="&#xe605;" glyph-name="mini-logo" horiz-adv-x="800" d="M81.568-95.84c-11.36 5.728-21.76 13.792-31.264 24.16-7.552 8.512-14.432 19.616-20.576 33.312-6.144 13.76-8.736 30.528-7.808 50.368 9.44 78.496 21.312 157.504 35.456 236.864 12.288 68.128 27.648 140.48 46.080 217.056 18.432 76.608 40.448 147.040 65.984 211.392 7.552 17.984 16.512 34.016 26.944 48.256 9.504 12.288 21.056 22.912 34.816 31.872 13.728 8.96 30.496 12.512 50.368 10.656 11.328-2.88 21.248-8.064 29.76-15.648 7.584-6.624 13.952-16.032 19.2-28.32 5.184-12.32 6.368-28.384 3.488-48.224-16.992-62.464-33.984-128.192-51.040-197.216-14.144-59.552-29.088-126.24-44.704-200-15.552-73.824-28.64-148.576-39.008-224.16 15.136 3.776 34.816 8.256 58.88 13.504 24.128 5.12 49.184 10.080 75.232 14.848 25.984 4.672 52.224 8.736 78.72 12.064 26.432 3.328 50.56 4.512 72.384 3.552 16.032-0.96 30.688-3.328 43.936-7.136 11.36-3.808 22.016-9.44 31.904-16.992 9.952-7.552 15.84-17.984 17.728-31.264 1.888-10.368 0.928-20.32-2.816-29.76-3.808-7.616-10.176-15.2-19.168-22.688-8.96-7.616-22.976-13.76-41.856-18.496-53.888-8.512-104.96-16.576-153.216-24.064-20.8-2.848-42.048-6.176-63.808-9.952-21.792-3.776-42.816-7.616-63.104-11.36-20.384-3.744-39.52-7.072-57.504-9.888-17.984-2.88-33.088-5.76-45.376-8.576l-21.248-4.32h-1.44c-4.736 0-9.248-0.224-13.472-0.672-4.288-0.32-8.8-0.064-13.472 0.832zM678.432 860.384c30.816 2.912 53.952-3.296 69.376-18.72s21.664-32.704 18.752-51.744c-3.008-10.336-7.744-22.432-14.304-36.352-6.624-13.952-14.336-28.32-23.136-42.976-8.8-14.72-18.752-28.992-29.824-42.976-10.976-13.952-20.864-25.344-29.696-34.080-14.688-16.192-28.992-25.76-42.944-28.64-13.984-2.976-24.64-1.472-32 4.384-16.064 14.656-18.304 32.256-6.56 52.864 8.8 16.096 14.368 31.168 16.512 45.12 2.24 13.984 3.328 22.4 3.328 25.344 0 2.88 0 12.096 0 27.52 0 15.392 3.616 33.408 11.072 53.92 2.912 10.304 7.68 18.752 14.272 25.344 6.592 6.656 13.536 11.36 20.928 14.336 7.328 4.416 15.424 6.656 24.224 6.656z" />
<glyph unicode="&#xe606;" glyph-name="blog" d="M384 309.335c0 0 203.943 122.359 318.766 74.025 23.801 36.267 47.248 75.335 70.201 115.223-112.325 27.52-260.967 2.752-260.967 2.752s190.213 114.121 306.665 78.4c23.351 42.107 46.055 83.641 67.957 122.304-92.775 6.267-182.622-8.704-182.622-8.704s119.147 71.488 226.578 83.598c33.797 54.859 65.17 97.879 93.422 119.067-560.999 0-896-640-1024-1024h64l192 320c0 0 64-64 256 0 45.474 15.159 90.949 57.253 135.573 113.934-112.617 28.555-263.573 3.401-263.573 3.401z" />
<glyph unicode="&#xe607;" glyph-name="arrow-left" horiz-adv-x="878" d="M877.714 384v-73.143q0-30.286-18.571-51.714t-48.286-21.429h-402.286l167.429-168q21.714-20.571 21.714-51.429t-21.714-51.429l-42.857-43.429q-21.143-21.143-51.429-21.143-29.714 0-52 21.143l-372 372.571q-21.143 21.143-21.143 51.429 0 29.714 21.143 52l372 371.429q21.714 21.714 52 21.714 29.714 0 51.429-21.714l42.857-42.286q21.714-21.714 21.714-52t-21.714-52l-167.429-167.429h402.286q29.714 0 48.286-21.429t18.571-51.714z" />
<glyph unicode="&#xe608;" glyph-name="arrow-up" horiz-adv-x="951" d="M920.571 341.143q0-29.143-21.143-51.429l-42.857-42.857q-21.714-21.714-52-21.714-30.857 0-51.429 21.714l-168 167.429v-402.286q0-29.714-21.429-48.286t-51.714-18.571h-73.143q-30.286 0-51.714 18.571t-21.429 48.286v402.286l-168-167.429q-20.571-21.714-51.429-21.714t-51.429 21.714l-42.857 42.857q-21.714 21.714-21.714 51.429 0 30.286 21.714 52l372 372q20 21.143 51.429 21.143 30.857 0 52-21.143l372-372q21.143-22.286 21.143-52z" />
<glyph unicode="&#xe609;" glyph-name="arrow-down" horiz-adv-x="951" d="M920.571 420.571q0-30.286-21.143-51.429l-372-372.571q-22.286-21.143-52-21.143-30.286 0-51.429 21.143l-372 372.571q-21.714 20.571-21.714 51.429 0 30.286 21.714 52l42.286 42.857q22.286 21.143 52 21.143 30.286 0 51.429-21.143l168-168v402.286q0 29.714 21.714 51.429t51.429 21.714h73.143q29.714 0 51.429-21.714t21.714-51.429v-402.286l168 168q21.143 21.143 51.429 21.143 29.714 0 52-21.143l42.857-42.857q21.143-22.286 21.143-52z" />
<glyph unicode="&#xe60a;" glyph-name="arrow-right" horiz-adv-x="878" d="M841.143 347.429q0-30.857-21.143-52l-372-372q-22.286-21.143-52-21.143-29.143 0-51.429 21.143l-42.857 42.857q-21.714 21.714-21.714 52t21.714 52l167.429 167.429h-402.286q-29.714 0-48.286 21.429t-18.571 51.714v73.143q0 30.286 18.571 51.714t48.286 21.429h402.286l-167.429 168q-21.714 20.571-21.714 51.429t21.714 51.429l42.857 42.857q21.714 21.714 51.429 21.714 30.286 0 52-21.714l372-372q21.143-20 21.143-51.429z" />
<glyph unicode="&#xe60b;" glyph-name="social" d="M864 192c-45.161 0-85.92-18.738-115.013-48.83l-431.003 215.502c1.314 8.251 2.016 16.706 2.016 25.328s-0.702 17.077-2.016 25.326l431.003 215.502c29.093-30.089 69.854-48.827 115.013-48.827 88.366 0 160 71.634 160 160s-71.634 160-160 160-160-71.634-160-160c0-8.622 0.704-17.077 2.016-25.326l-431.003-215.504c-29.093 30.089-69.854 48.83-115.013 48.83-88.366 0-160-71.637-160-160 0-88.368 71.634-160 160-160 45.161 0 85.92 18.738 115.013 48.827l431.003-215.502c-1.312-8.249-2.016-16.704-2.016-25.326 0-88.368 71.634-160 160-160s160 71.632 160 160c0 88.363-71.634 160-160 160z" />
<glyph unicode="&#xe60c;" glyph-name="pinterest-square" horiz-adv-x="1006" d="M814.914 883.322q77.369 0 132.307-54.939t54.939-132.307v-624.151q0-77.369-54.939-132.307t-132.307-54.939h-471.365q55.263 79.319 70.217 136.533 5.852 22.106 34.459 135.884 13.653-25.357 47.787-43.561t73.143-18.205q117.679 0 192.122 95.899t74.444 242.835q0 54.613-22.755 105.65t-62.74 90.372-99.15 63.066-128.081 23.73q-67.617 0-126.457-18.53t-99.475-49.737-69.892-71.191-43.235-83.22-13.979-86.146q0-66.317 25.681-117.028t75.743-71.517q8.452-3.25 15.279 0t9.427 12.353q6.501 28.607 9.751 39.66 3.902 14.954-7.152 27.307-32.508 40.31-32.508 97.523 0 97.523 67.292 166.765t175.868 69.242q96.874 0 151.162-52.663t54.288-136.533q0-109.227-43.885-185.946t-112.803-76.719q-39.010 0-63.066 28.282t-14.954 67.292q5.201 22.106 17.23 60.14t19.18 66.317 7.152 48.436q0 31.858-17.23 52.988t-49.087 21.13q-39.66 0-67.292-36.734t-27.632-90.697q0-46.812 15.603-78.67l-63.715-269.165q-15.603-65.017-4.551-165.14h-118.978q-77.369 0-132.307 54.939t-54.939 132.307v624.151q0 77.369 54.939 132.307t132.307 54.939h624.151z" />
<glyph unicode="&#xe60d;" glyph-name="youtube-square" horiz-adv-x="1006" d="M601.012 119.386v102.075q0 32.508-18.854 32.508-11.053 0-21.455-10.403v-145.635q10.403-10.403 21.455-10.403 18.854 0 18.854 31.858zM720.641 198.705h42.91v22.106q0 33.158-21.455 33.158t-21.455-33.158v-22.106zM349.4 371.647v-45.511h-52.013v-275.017h-48.112v275.017h-50.711v45.511h150.836zM480.082 289.727v-238.608h-43.561v26.006q-25.357-29.257-49.412-29.257-21.455 0-27.307 18.205-3.902 10.403-3.902 35.108v188.546h42.91v-175.543q0-15.603 0.65-16.903 0.65-9.751 9.751-9.751 13.004 0 27.307 20.155v182.045h43.561zM643.922 217.559v-94.924q0-33.808-4.551-47.461-7.802-27.307-34.459-27.307-22.755 0-44.21 26.657v-23.405h-43.561v320.528h43.561v-104.675q20.805 26.006 44.21 26.006 26.657 0 34.459-27.307 4.551-13.653 4.551-48.112zM807.112 133.689v-5.852q0-18.854-1.3-27.956-1.95-14.303-9.751-26.006-17.555-26.006-52.013-26.006-33.808 0-52.663 24.706-13.653 17.555-13.653 55.914v83.87q0 38.359 13.004 55.914 18.854 24.706 52.013 24.706t50.711-24.706q13.653-18.205 13.653-55.914v-49.412h-86.471v-42.26q0-33.158 22.106-33.158 15.603 0 19.505 16.903 0 0.65 0.325 4.551t0.325 10.729v13.979h44.21zM513.89 669.42v-101.425q0-33.158-20.805-33.158t-20.805 33.158v101.425q0 33.808 20.805 33.808t20.805-33.808zM860.425 205.857q0 115.078-12.353 169.041-6.501 28.607-27.956 47.787t-49.412 22.43q-88.421 9.751-267.866 9.751-178.794 0-267.215-9.751-28.607-3.25-49.737-22.43t-27.632-47.787q-13.004-56.563-13.004-169.041 0-114.428 13.004-169.041 6.501-27.956 27.632-47.461t49.087-22.755q89.072-9.751 267.866-9.751t267.866 9.751q27.956 3.25 49.087 22.755t27.632 47.461q13.004 54.613 13.004 169.041zM369.555 629.11l58.515 192.447h-48.762l-33.158-126.782-34.459 126.782h-50.711l15.603-44.862t14.954-44.862q22.755-66.966 29.907-102.725v-130.682h48.112v130.682zM557.45 576.447v84.521q0 37.71-13.653 56.563-18.854 24.706-50.711 24.706-33.158 0-50.711-24.706-13.653-18.854-13.653-56.563v-84.521q0-37.71 13.653-56.563 17.555-24.706 50.711-24.706 31.858 0 50.711 24.706 13.653 17.555 13.653 56.563zM675.13 498.428h43.561v240.559h-43.561v-183.995q-14.303-20.155-27.307-20.155-9.751 0-10.403 10.403-0.65 1.3-0.65 16.903v176.844h-43.561v-190.497q0-24.057 3.902-35.759 7.152-17.555 27.956-17.555 23.405 0 50.062 29.257v-26.006zM1002.159 696.077v-624.151q0-77.369-54.939-132.307t-132.307-54.939h-624.151q-77.369 0-132.307 54.939t-54.939 132.307v624.151q0 77.369 54.939 132.307t132.307 54.939h624.151q77.369 0 132.307-54.939t54.939-132.307z" />
<glyph unicode="&#xe60e;" glyph-name="google-plus-square" horiz-adv-x="1006" d="M444.324-69.161q0-24.706-6.501-46.161h-247.060q-61.765 0-111.502 36.734t-67.292 95.899q15.603 29.257 44.862 50.387t65.017 32.183 69.567 15.603 69.567 4.551q20.805 0 31.858-1.3 3.902-2.601 19.83-13.653t21.455-14.954 20.155-14.954 20.805-16.578 17.879-16.578 17.23-19.18 13.653-19.83 11.378-22.43 6.177-23.405 2.925-26.332zM253.827 159.045q-152.137-4.551-250.311-55.263v281.519q66.966-76.719 177.493-76.719 20.805 0 45.511 3.25-13.653-39.66-13.653-55.914 0-43.561 40.96-96.874zM366.303 491.277q0-65.017-28.282-104.35t-91.347-39.334q-33.158 0-63.066 16.903t-50.711 43.885-36.409 60.79-23.081 67.617-7.476 64.365q0 62.415 33.484 107.277t93.948 44.862q42.91 0 77.369-26.657t54.613-67.617 30.557-84.521 10.403-83.22zM1002.159 550.441v-478.516q0-77.369-54.939-132.307t-132.307-54.939h-304.275q25.357 47.461 25.357 102.075 0 42.91-14.303 79.645t-36.083 60.465-46.812 46.161-46.812 38.685-36.083 35.434-14.303 38.685q0 23.405 14.954 44.21t36.409 39.985 42.586 41.935 36.083 60.465 14.954 85.17-17.23 94.598-49.087 77.043q-3.902 3.902-9.102 7.152t-8.127 4.877-6.501 6.177-6.827 11.053h87.772l87.772 41.61h-284.119q-89.722 0-158.963-25.031t-118.654-86.797q0 81.92 52.663 138.483t134.583 56.563h624.151q77.369 0 132.307-54.939t54.939-132.307v-62.415h-166.441v166.441h-83.22v-166.441h-166.441v-83.22h166.441v-166.441h83.22v166.441h166.441z" />
<glyph unicode="&#xe60f;" glyph-name="facebook-square" horiz-adv-x="1006" d="M853.273 369.697l14.954 142.385h-128.732v70.867q0 31.858 10.077 44.537t46.486 12.678h71.517v142.385h-113.778q-98.823 0-141.734-46.812t-42.91-138.483v-85.17h-85.17v-142.385h85.17v-412.85h170.341v412.85h113.778zM1002.159 696.077v-624.151q0-77.369-54.939-132.307t-132.307-54.939h-624.151q-77.369 0-132.307 54.939t-54.939 132.307v624.151q0 77.369 54.939 132.307t132.307 54.939h624.151q77.369 0 132.307-54.939t54.939-132.307z" />
<glyph unicode="&#xe610;" glyph-name="twitter-square" horiz-adv-x="1006" d="M835.719 569.946q-36.409-16.254-78.67-22.106 44.21 26.006 60.465 76.068-42.26-24.706-87.121-33.158-39.66 42.91-99.475 42.91-56.563 0-96.548-39.985t-39.985-96.548q0-18.854 3.25-31.209-83.87 4.551-157.339 42.26t-124.83 100.774q-18.854-32.508-18.854-68.916 0-74.118 59.165-113.778-30.557 0.65-65.017 16.903v-1.3q0-48.762 32.508-86.797t79.97-47.137q-18.854-5.201-33.158-5.201-8.452 0-25.357 2.601 13.653-40.96 48.436-67.617t78.995-27.307q-75.419-58.515-169.692-58.515-16.903 0-32.508 1.95 96.223-61.115 209.351-61.115 72.818 0 136.533 23.081t109.227 61.765 78.343 89.072 48.762 105.325 15.929 109.552q0 11.703-0.65 17.555 40.96 29.257 68.267 70.867zM1002.159 696.077v-624.151q0-77.369-54.939-132.307t-132.307-54.939h-624.151q-77.369 0-132.307 54.939t-54.939 132.307v624.151q0 77.369 54.939 132.307t132.307 54.939h624.151q77.369 0 132.307-54.939t54.939-132.307z" />
<glyph unicode="&#xe611;" glyph-name="reorder" horiz-adv-x="878" d="M877.714 128v-73.143q0-14.857-10.857-25.714t-25.714-10.857h-804.571q-14.857 0-25.714 10.857t-10.857 25.714v73.143q0 14.857 10.857 25.714t25.714 10.857h804.571q14.857 0 25.714-10.857t10.857-25.714zM877.714 420.571v-73.143q0-14.857-10.857-25.714t-25.714-10.857h-804.571q-14.857 0-25.714 10.857t-10.857 25.714v73.143q0 14.857 10.857 25.714t25.714 10.857h804.571q14.857 0 25.714-10.857t10.857-25.714zM877.714 713.143v-73.143q0-14.857-10.857-25.714t-25.714-10.857h-804.571q-14.857 0-25.714 10.857t-10.857 25.714v73.143q0 14.857 10.857 25.714t25.714 10.857h804.571q14.857 0 25.714-10.857t10.857-25.714z" />
<glyph unicode="&#xe612;" glyph-name="inbox" d="M704 704h-384l-320-384v-256c0-35.346 28.654-64 64-64h896c35.349 0 64 28.654 64 64v256l-320 384zM768 320l-128-128h-256l-128 128h-172.69l266.665 320h324.048l266.665-320h-172.688z" />
<glyph unicode="&#xe613;" glyph-name="new-thread" d="M507.429 187.429l66.286 66.286-86.857 86.857-66.286-66.286v-32h54.857v-54.857h32zM758.857 598.857q-9.143 9.143-18.857-0.571l-200-200q-9.714-9.714-0.571-18.857t18.857 0.571l200 200q9.714 9.714 0.571 18.857zM804.571 259.429v-108.571q0-68-48.286-116.286t-116.286-48.286h-475.429q-68 0-116.286 48.286t-48.286 116.286v475.429q0 68 48.286 116.286t116.286 48.286h475.429q36 0 66.857-14.286 8.571-4 10.286-13.143 1.714-9.714-5.143-16.571l-28-28q-8-8-18.286-4.571-13.143 3.429-25.714 3.429h-475.429q-37.714 0-64.571-26.857t-26.857-64.571v-475.429q0-37.714 26.857-64.571t64.571-26.857h475.429q37.714 0 64.571 26.857t26.857 64.571v72q0 7.429 5.143 12.571l36.571 36.571q8.571 8.571 20 4t11.429-16.571zM749.714 681.143l164.571-164.571-384-384h-164.571v164.571zM1003.429 605.714l-52.571-52.571-164.571 164.571 52.571 52.571q16 16 38.857 16t38.857-16l86.857-86.857q16-16 16-38.857t-16-38.857z" />
<glyph unicode="&#xe614;" glyph-name="area" horiz-adv-x="878" d="M431.429 292.571q0-7.429-5.714-13.143l-189.714-189.714 82.286-82.286q10.857-10.857 10.857-25.714t-10.857-25.714-25.714-10.857h-256q-14.857 0-25.714 10.857t-10.857 25.714v256q0 14.857 10.857 25.714t25.714 10.857 25.714-10.857l82.286-82.286 189.714 189.714q5.714 5.714 13.143 5.714t13.143-5.714l65.143-65.143q5.714-5.714 5.714-13.143zM877.714 786.286v-256q0-14.857-10.857-25.714t-25.714-10.857-25.714 10.857l-82.286 82.286-189.714-189.714q-5.714-5.714-13.143-5.714t-13.143 5.714l-65.143 65.143q-5.714 5.714-5.714 13.143t5.714 13.143l189.714 189.714-82.286 82.286q-10.857 10.857-10.857 25.714t10.857 25.714 25.714 10.857h256q14.857 0 25.714-10.857t10.857-25.714z" />
<glyph unicode="&#xe615;" glyph-name="warning" d="M585.143 110.286v108.571q0 8-5.429 13.429t-12.857 5.429h-109.714q-7.429 0-12.857-5.429t-5.429-13.429v-108.571q0-8 5.429-13.429t12.857-5.429h109.714q7.429 0 12.857 5.429t5.429 13.429zM584 324l10.286 262.286q0 6.857-5.714 10.857-7.429 6.286-13.714 6.286h-125.714q-6.286 0-13.714-6.286-5.714-4-5.714-12l9.714-261.143q0-5.714 5.714-9.429t13.714-3.714h105.714q8 0 13.429 3.714t6 9.429zM576 857.714l438.857-804.571q20-36-1.143-72-9.714-16.571-26.571-26.286t-36.286-9.714h-877.714q-19.429 0-36.286 9.714t-26.571 26.286q-21.143 36-1.143 72l438.857 804.571q9.714 17.714 26.857 28t37.143 10.286 37.143-10.286 26.857-28z" />
<glyph unicode="&#xe616;" glyph-name="follow" horiz-adv-x="878" d="M438.857 822.857q119.429 0 220.286-58.857t159.714-159.714 58.857-220.286-58.857-220.286-159.714-159.714-220.286-58.857-220.286 58.857-159.714 159.714-58.857 220.286 58.857 220.286 159.714 159.714 220.286 58.857zM658.286 352.571q18.286 10.286 18.286 31.429t-18.286 31.429l-310.857 182.857q-17.714 10.857-36.571 0.571-18.286-10.857-18.286-32v-365.714q0-21.143 18.286-32 9.143-4.571 18.286-4.571 9.714 0 18.286 5.143z" />
<glyph unicode="&#xe617;" glyph-name="chevron-right" horiz-adv-x="658" d="M628 420.571q0-29.714-21.143-52l-372.571-372q-21.143-21.143-51.429-21.143t-51.429 21.143l-43.429 42.857q-21.143 22.286-21.143 52 0 30.286 21.143 51.429l277.714 277.714-277.714 277.143q-21.143 22.286-21.143 52 0 30.286 21.143 51.429l43.429 42.857q20.571 21.714 51.429 21.714t51.429-21.714l372.571-372q21.143-21.143 21.143-51.429z" />
<glyph unicode="&#xe618;" glyph-name="chevron-left" horiz-adv-x="658" d="M424-2.857l-372.571 372q-21.143 21.143-21.143 51.714t21.143 51.714l372.571 372q21.143 21.143 51.714 21.143t51.714-21.143l42.857-42.857q21.143-21.143 21.143-51.714t-21.143-51.714l-277.714-277.714 277.714-277.143q21.143-21.714 21.143-52t-21.143-51.429l-42.857-42.857q-21.143-21.143-51.714-21.143t-51.714 21.143z" />
<glyph unicode="&#xe619;" glyph-name="location" horiz-adv-x="585" d="M438.857 530.286q0 60.571-42.857 103.429t-103.429 42.857-103.429-42.857-42.857-103.429 42.857-103.429 103.429-42.857 103.429 42.857 42.857 103.429zM585.143 530.286q0-62.286-18.857-102.286l-208-442.286q-9.143-18.857-27.143-29.714t-38.571-10.857-38.571 10.857-26.571 29.714l-208.571 442.286q-18.857 40-18.857 102.286 0 121.143 85.714 206.857t206.857 85.714 206.857-85.714 85.714-206.857z" />
<glyph unicode="&#xe61a;" glyph-name="caret-down" horiz-adv-x="585" d="M585.143 493.714q0-14.857-10.857-25.714l-256-256q-10.857-10.857-25.714-10.857t-25.714 10.857l-256 256q-10.857 10.857-10.857 25.714t10.857 25.714 25.714 10.857h512q14.857 0 25.714-10.857t10.857-25.714z" />
<glyph unicode="&#xe61b;" glyph-name="caret-left" horiz-adv-x="366" d="M365.714 640v-512q0-14.857-10.857-25.714t-25.714-10.857-25.714 10.857l-256 256q-10.857 10.857-10.857 25.714t10.857 25.714l256 256q10.857 10.857 25.714 10.857t25.714-10.857 10.857-25.714z" />
<glyph unicode="&#xe61c;" glyph-name="caret-up" horiz-adv-x="585" d="M585.143 201.143q0-14.857-10.857-25.714t-25.714-10.857h-512q-14.857 0-25.714 10.857t-10.857 25.714 10.857 25.714l256 256q10.857 10.857 25.714 10.857t25.714-10.857l256-256q10.857-10.857 10.857-25.714z" />
<glyph unicode="&#xe61d;" glyph-name="caret-right" horiz-adv-x="366" d="M329.143 384q0-14.857-10.857-25.714l-256-256q-10.857-10.857-25.714-10.857t-25.714 10.857-10.857 25.714v512q0 14.857 10.857 25.714t25.714 10.857 25.714-10.857l256-256q10.857-10.857 10.857-25.714z" />
<glyph unicode="&#xe61e;" glyph-name="logo" horiz-adv-x="6208" d="M86.752-95.84c-11.36 5.728-21.76 13.76-31.264 24.16-7.552 8.512-14.432 19.616-20.576 33.312-6.144 13.728-8.736 30.528-7.808 50.368 9.44 78.496 21.312 157.504 35.456 236.896 12.288 68.096 27.648 140.448 46.080 217.024 18.432 76.608 40.448 147.040 65.984 211.392 7.552 17.984 16.512 34.016 26.944 48.256 9.504 12.288 21.056 22.912 34.816 31.872 13.728 8.96 30.496 12.512 50.368 10.656 11.328-2.88 21.248-8.064 29.76-15.648 7.584-6.624 13.952-16.032 19.2-28.32 5.184-12.32 6.368-28.384 3.488-48.224-16.992-62.464-33.984-128.192-51.040-197.216-14.144-59.552-29.088-126.24-44.704-200-15.552-73.792-28.64-148.544-39.008-224.16 15.136 3.776 34.816 8.256 58.88 13.504 24.128 5.12 49.184 10.080 75.232 14.848 25.984 4.704 52.224 8.768 78.72 12.064 26.432 3.328 50.56 4.512 72.384 3.552 16.032-0.96 30.688-3.328 43.936-7.104 11.36-3.808 22.016-9.44 31.904-17.024 9.952-7.552 15.84-17.984 17.728-31.232 1.888-10.4 0.928-20.32-2.816-29.76-3.808-7.616-10.176-15.2-19.168-22.688-8.96-7.616-22.976-13.728-41.856-18.496-53.888-8.512-104.96-16.544-153.216-24.064-20.8-2.848-42.048-6.176-63.808-9.952-21.792-3.776-42.816-7.616-63.104-11.36-20.384-3.776-39.52-7.072-57.504-9.888-17.984-2.88-33.088-5.728-45.376-8.576l-21.248-4.288h-1.44c-4.736 0-9.248-0.224-13.472-0.672-4.288-0.384-8.8-0.128-13.472 0.768zM1635.744-92.96c-10.368-3.776-20.768-4.704-31.168-2.88-8.544 0.96-17.568 4.288-26.976 9.984-9.504 5.696-17.984 15.136-25.568 28.384-12.256 20.768-24.608 44.448-36.832 70.944-10.432 22.688-22.528 50.304-36.192 82.944-13.76 32.64-27.264 70.24-40.48 112.8-43.488 2.848-83.936 5.664-121.248 8.512-37.376 2.816-71.68 3.776-102.88 2.816-23.584-53.888-47.488-104-71.616-150.336s-47.072-81.344-68.8-104.96c-12.32-18.944-29.312-33.6-51.072-43.936-18.944-9.504-43.072-15.872-72.32-19.2-29.312-3.296-65.248 1.664-107.872 14.944-22.656 7.488-42.496 19.808-59.552 36.864-15.136 15.072-28.64 35.872-40.384 62.368-11.872 26.464-16.8 60.992-14.944 103.552 2.848 36.864 15.808 68.064 39.008 93.632 23.168 25.536 52.256 46.112 87.264 61.696 34.976 15.616 74.72 27.392 119.2 35.488 44.48 8 89.376 13.472 134.752 16.256 10.368 25.6 20.736 53.728 31.2 84.48 10.432 30.688 21.824 64 33.984 100 12.352 34.016 24.192 65.696 35.488 95.040 10.432 24.608 21.056 48.416 31.936 71.616 10.88 23.168 20.608 39.488 29.056 48.928 6.624 7.552 15.616 14.432 27.008 20.576 11.328 6.112 23.36 10.656 36.128 13.472 12.8 2.848 25.984 3.744 39.744 2.848 13.696-0.992 26.688-4.256 39.008-9.952 12.288-5.664 22.464-11.584 30.528-17.728 8.032-6.176 14.656-13.44 19.872-22.016 5.184-8.48 9.408-18.176 12.704-29.056 3.328-10.88 6.848-23.36 10.656-37.6 5.696-34.976 12.736-71.392 21.28-109.216 7.52-33.12 16.064-70.016 25.568-110.688 9.408-40.64 20.768-82.24 33.984-124.8 24.608-1.92 40.896-3.552 48.96-4.96 8-1.408 13.984-3.104 17.664-4.96 6.656-3.744 11.872-8.512 15.68-14.144 3.712-4.768 7.104-10.912 9.92-18.528 2.848-7.52 3.296-16.032 1.44-25.504-1.952-8.448-4.768-16.064-8.512-22.656-3.808-5.664-9.024-10.624-15.648-14.912-6.56-4.256-16.064-5.952-28.32-4.928h-2.848c4.672-11.392 9.184-22.496 13.472-33.376 4.256-10.88 8.704-21.504 13.472-31.936 9.44-18.912 17.952-36.864 25.536-53.888 6.624-14.144 12.96-28.384 19.136-42.56s10.144-23.616 12.096-28.384c3.744-14.112 4.256-27.008 1.376-38.304-1.92-10.368-6.592-20.736-14.144-31.232-7.584-10.4-20.832-18.912-39.744-25.504zM939.264 36.128c8.512 0.928 18.432 7.552 29.824 19.872 10.368 10.304 22.944 27.136 37.568 50.304 14.624 23.232 32.416 57.44 53.216 102.88-49.216-4.736-86.784-12.992-112.768-24.8-26.048-11.84-45.184-23.936-57.472-36.192-14.144-14.144-22.208-29.824-24.096-46.816 0-16.096 2.336-29.312 7.072-39.744 4.736-9.44 11.872-17.248 21.312-23.36 9.344-6.176 24.512-6.912 45.344-2.144zM1258.4 326.88c29.344-0.864 56.48-1.888 81.6-2.784 25.056-0.928 47.008-2.4 65.952-4.288-10.432 41.632-19.808 85.12-28.384 130.528-8.512 45.376-15.136 93.6-19.808 144.704-8.576-24.64-17.984-51.552-28.384-80.864-9.504-24.608-20.128-52.96-31.936-85.152-11.84-32.096-24.8-66.144-39.040-102.144zM1813.088 273.056c-17.024-15.2-32.672-26.048-46.816-32.672-14.176-6.656-26.496-5.728-36.896 2.848-7.552 5.664-11.328 12.736-11.328 21.248 0 8.576 0.896 16.512 2.848 24.128 2.816 9.44 7.104 18.88 12.768 28.384 6.592 12.288 16.576 24.32 29.76 36.16 13.28 11.84 27.424 23.2 42.624 34.080 15.104 10.848 30.176 20.992 45.344 30.496 15.136 9.408 28.416 16.992 39.776 22.688 21.728 14.208 43.232 22.432 64.48 24.8 21.312 2.368 35.68-4.96 43.328-21.984 1.888-4.768 0.928-14.912-2.848-30.56-3.776-15.52-8.768-33.12-14.944-52.48s-12.512-38.784-19.136-58.112c-6.656-19.424-11.328-35.264-14.176-47.552-5.696-18.88-11.136-39.488-16.288-61.696-5.28-22.24-9.504-43.744-12.8-64.576s-5.216-39.264-5.696-55.328 1.664-27.424 6.4-34.048c8.512-14.144 22.464-20.8 41.856-19.84 19.36 0.928 42.752 11.776 70.208 32.608 27.392 20.8 47.008 33.6 58.88 38.304 11.808 4.672 20.608 5.216 26.24 1.44 2.848-1.92 6.144-5.696 9.984-11.328 3.712-5.696 4.896-13.248 3.488-22.656-1.44-9.504-6.656-20.832-15.584-34.048-8.96-13.248-24.416-27.424-46.112-42.56-27.36-17.984-54.848-33.12-82.272-45.44-23.616-10.368-48.928-19.136-75.872-26.208-26.976-7.104-51.776-7.328-74.432-0.704-22.72 6.656-39.296 17.024-49.728 31.2-10.368 14.24-16.736 30.304-19.104 48.32-2.4 17.888-2.4 36.128 0 54.56 2.336 18.432 4.928 34.752 7.776 48.928 1.92 12.32 4.736 27.648 8.512 46.048 3.744 18.496 7.552 36.672 11.36 54.688 3.744 17.952 7.328 34.24 10.624 48.864 3.296 14.688 5.856 25.344 7.776 32zM1954.976 553.888c-24.672 9.472-41.632 26.464-51.104 51.072-9.472 24.544-9.024 50.112 1.408 76.576 10.368 26.496 27.168 45.856 50.336 58.176 23.2 12.256 47.040 14.144 71.648 5.632 23.616-9.472 40.192-26.432 49.632-51.072 9.504-24.608 9.024-50.592-1.408-77.984-10.4-26.528-27.2-45.92-50.368-58.176-23.136-12.256-46.528-13.696-70.144-4.224zM2091.168 207.776c-11.36-5.696-20.864-8.736-28.416-9.248-7.616-0.48-13.76 0-18.432 1.44-4.736 1.44-8.32 3.584-10.72 6.4-2.24 2.816-3.968 5.184-4.864 7.072-0.96 0.928-2.656 4.256-4.992 9.952-2.336 5.664-3.296 12.32-2.848 19.872 0.512 7.488 3.52 16.32 9.216 26.176 5.696 9.952 15.616 20.608 29.824 31.936 40.64 31.232 76.352 53.216 107.072 65.984 30.72 12.704 49.92 20.576 57.472 23.36h1.408c0.928 0 1.888 0.48 2.816 1.408v-1.408c9.504 1.888 15.2 2.848 17.024 2.848 2.88 0 4.736-0.48 5.696-1.408 21.792-1.856 34.976-7.328 39.744-16.288 4.672-8.96 4.672-21.504 0-37.6 9.44 3.808 20.768 8.576 34.016 14.208s26.24 10.432 39.040 14.144c12.736 3.776 24.768 6.4 36.128 7.84 11.36 1.408 19.904 0.672 25.568-2.112 16.992-8.544 26.432-22.272 28.384-41.152 1.888-18.944-1.408-34.016-9.952-45.408-3.744-5.664-13.024-10.912-27.616-15.584-14.688-4.736-32.192-10.176-52.512-16.32-20.352-6.176-42.368-14.208-65.984-24.096-23.648-9.984-46.848-22.528-69.568-37.6-7.488-20.8-14.144-41.632-19.808-62.432-5.728-20.8-11.168-40.448-16.352-58.88-5.152-18.432-9.44-34.752-12.704-48.928-3.328-14.208-5.44-24.128-6.368-29.792-7.616-30.304-18.72-53.184-33.344-68.832-14.72-15.584-31.456-22.432-50.336-20.576-18.016 1.92-29.344 5.696-34.048 11.36-4.736 5.696-8.096 13.696-9.952 24.128-0.928 4.736-1.408 15.136-1.408 31.2s1.408 36.192 4.224 60.288c2.848 24.16 7.584 51.328 14.208 81.6 6.56 30.24 16.032 62.368 28.384 96.448zM2834.4-92.96c-15.168-2.88-31.392-3.52-48.992-2.112-17.472 1.44-33.984 6.144-49.6 14.144s-29.088 19.648-40.416 34.816c-11.36 15.072-17.984 35.424-19.872 60.928-2.848 33.12 0.448 65.76 9.92 97.92 7.552 27.424 21.728 56.96 42.56 88.672 20.768 31.648 52.928 60.256 96.48 85.824 32.16 18.912 66.656 33.536 103.52 43.968 36.896 10.368 67.616 17.472 92.224 21.28l2.848 1.44c22.688 86.976 42.336 155.296 58.88 204.928s30.016 86.72 40.48 111.36c12.224 29.312 22.624 48.224 31.136 56.736 18.944 16.064 35.008 25.504 48.32 28.352 13.216 2.88 23.584 3.36 31.232 1.44 9.376-2.848 16.448-8.512 21.216-16.992 1.888-14.176 1.152-32.864-2.112-56-3.328-23.232-8.288-48.512-14.912-75.936-6.656-27.456-14.432-55.328-23.36-83.712-9.024-28.384-17.728-55.072-26.272-80.128-8.512-25.088-16.096-47.040-22.656-65.952-6.656-18.944-11.392-31.712-14.208-38.336 6.624-1.952 14.912-5.184 24.864-9.952 9.888-4.736 18.144-9.44 24.768-14.176 11.328-8.48 17.984-18.688 19.872-30.496 1.92-11.872-1.92-23.392-11.328-34.752-6.592-7.552-16.8-13.248-30.496-17.024-13.728-3.776-34.304-3.328-61.696 1.408-0.992-3.744-1.952-7.072-2.848-9.952-0.96-2.816-1.952-5.184-2.912-7.072-4.704-16.96-9.184-35.2-13.44-54.624-4.256-19.36-7.776-37.824-10.624-55.328s-4.512-33.344-4.96-47.488c-0.512-14.208 1.152-24.128 4.96-29.824 7.552-12.32 19.584-17.952 36.16-16.992s37.12 10.368 61.728 28.32c23.616 17.984 40.448 28.864 50.336 32.672 9.92 3.744 17.728 4.288 23.424 1.408 2.816-1.888 5.696-5.184 8.512-9.888 2.88-4.768 3.52-11.36 2.048-19.904-1.408-8.48-5.888-18.208-13.408-29.056-7.616-10.912-20.832-23.392-39.776-37.6-23.584-16.096-47.296-29.376-70.912-39.744-20.8-9.44-42.752-16.736-65.92-22.016-23.232-5.184-44.736-4.864-64.608 0.736-16.096 4.704-28.32 11.808-36.864 21.248s-14.688 20.32-18.432 32.64c-16.032-12.32-35.232-24.992-57.44-38.24s-44.704-22.24-67.424-26.944zM2815.936 95.68c-2.784-7.552-4.704-15.584-5.664-24.128-1.92-7.552-2.624-15.136-2.144-22.656 0.48-7.616 2.144-15.168 5.024-22.72 1.888-5.696 6.080-9.504 12.736-11.36 6.592-1.888 13.696-2.816 21.248-2.816s15.36 1.152 23.36 3.552c8.064 2.304 14.944 4.928 20.608 7.808 7.584 3.744 18.24 10.624 31.936 20.576s26.656 21.504 39.008 34.752c1.92 11.328 4.512 24.32 7.808 39.008 3.328 14.656 6.368 29.568 9.184 44.672 2.88 15.136 5.76 29.088 8.576 41.824 2.784 12.8 5.12 22.048 7.072 27.68-10.368-1.92-23.648-4.96-39.68-9.216-16.128-4.288-32.672-11.328-49.696-21.248-16.992-9.952-33.568-23.392-49.6-40.48-16.128-17.024-29.408-38.816-39.776-65.248zM3369.152-92.96c-16.096 0-30.496 1.408-43.232 4.256-12.8 2.848-23.424 8.288-31.936 16.32s-15.36 19.168-20.608 33.344c-5.152 14.112-7.744 32.64-7.744 55.328-0.96 28.384 1.6 58.144 7.744 89.376 6.144 31.264 15.84 64.736 29.088 100.736 0.96 3.744 4.288 12.96 9.952 27.616 5.696 14.688 12.512 31.232 20.576 49.664 8.032 18.464 16.768 36.384 26.272 53.92 9.376 17.504 18.912 30.496 28.32 39.008 3.776 3.776 8.512 7.104 14.208 9.952 4.704 1.888 10.656 3.552 17.728 4.96 7.104 1.408 15.84 1.152 26.24-0.736 6.56-0.928 13.248-3.072 19.872-6.4 6.624-3.296 11.552-8.48 14.912-15.552 3.296-7.072 4-15.84 2.112-26.208-1.888-10.432-7.616-23.232-17.024-38.368-21.824-40.64-39.744-79.424-53.952-116.32-12.288-32.128-22.208-64.512-29.792-97.12-7.52-32.64-6.624-59.36 2.88-80.192 5.632-8.512 14.144-11.808 25.504-9.92 10.4 1.92 24.576 8.032 42.592 18.432 17.952 10.4 41.984 30.72 72.288 60.992 0.928 25.536 4.288 53.408 9.984 83.648 5.664 30.304 12.288 59.168 19.84 86.56 8.512 31.264 17.504 62.432 27.008 93.664 7.52 18.912 18.144 32.128 31.936 39.68 13.632 7.552 33.792 11.328 60.224 11.328 13.28 0 22.976-2.816 29.12-8.48 6.112-5.696 10.112-12.576 12-20.576 1.92-8.032 2.144-15.872 0.704-23.36-1.408-7.584-2.592-13.76-3.52-18.464-0.896-2.848-3.328-12.096-7.072-27.648-3.808-15.616-8.096-33.568-12.8-53.952-4.704-20.32-9.92-41.376-15.584-63.104-5.664-21.792-10.88-39.712-15.584-53.92-4.768-15.136-7.584-30.048-8.544-44.672-0.928-14.688-1.184-27.68-0.672-39.072 0.416-11.328 1.888-20.8 4.224-28.32 2.336-7.616 4.512-11.872 6.368-12.768 2.848-0.96 7.136-0.224 12.736 2.112 5.696 2.336 11.392 5.152 17.024 8.544 5.696 3.328 11.616 6.56 17.76 9.92s11.552 5.92 16.32 7.776c9.472 2.88 18.912 4.512 28.416 4.992 9.44 0.48 18.368-3.552 26.912-12.064s10.88-18.464 7.104-29.792c-1.952-5.728-4.224-11.328-7.104-17.088-0.928-1.824-6.592-8.256-17.024-19.136-10.336-10.816-32.608-22.912-66.656-36.128-35.040-13.248-60.096-19.36-75.2-18.496-15.168 0.992-27.904 5.248-38.304 12.8-16.064 11.328-30.24 34.496-42.528 69.504-10.432-8.576-22.464-17.248-36.16-26.24-13.792-8.992-28.224-17.504-43.328-25.536s-30.752-14.432-46.784-19.104c-16.064-4.768-31.648-6.656-46.816-5.696zM4052.864 197.856c-8.48 75.616-4.224 147.52 12.736 215.616 7.584 29.28 18.208 59.104 31.968 89.344 13.696 30.24 32.128 59.36 55.328 87.232 23.168 27.904 51.52 54.112 85.12 78.752 33.568 24.576 73.984 45.344 121.28 62.4 49.184 17.984 98.304 28.832 147.52 32.64 20.8 1.888 42.304 2.368 64.512 1.376 22.24-0.928 44.736-4 67.392-9.184 22.688-5.248 44.704-13.056 65.984-23.392 21.312-10.464 41.376-24.608 60.288-42.592 8.512-9.44 17.024-20.832 25.6-34.048 7.52-11.36 14.624-25.504 21.248-42.592 6.592-16.96 11.808-36.864 15.552-59.552 0.928-4.736 1.664-9.184 2.112-13.472s1.216-8.736 2.112-13.472c0.96-8.512 1.216-21.312 0.736-38.304-0.544-17.024-4.064-35.456-10.624-55.36-6.656-19.808-17.568-39.712-32.672-59.552-15.136-19.808-37.376-36.416-66.624-49.632 22.656-13.28 42.016-28.864 58.112-46.784 13.216-16.16 23.84-35.488 31.872-58.176 8.064-22.688 7.808-49.184-0.672-79.424-6.624-26.496-16.32-49.92-29.12-70.208-12.704-20.352-25.76-38.080-38.976-53.216-16.128-16.992-32.64-32.16-49.664-45.376-30.272-21.824-60.544-37.632-90.752-47.552-30.304-9.888-59.616-15.808-88-17.696-28.352-1.92-54.848-0.96-79.392 2.816-24.64 3.744-46.336 9.472-65.312 17.024-13.248-7.552-28.096-13.28-44.672-17.024-16.544-3.776-35.296-4.704-56-2.816-24.672 2.816-46.368 8.96-65.28 18.432-18.912 9.44-35.936 21.28-51.136 35.488-15.104 14.112-27.84 29.76-38.272 46.752-10.368 17.056-19.328 34.56-26.944 52.544-16.896 41.6-28.736 87.904-35.36 139.008zM4614.656 604.96c-16.096 5.664-35.040 9.92-56.704 12.768-19.008 1.92-41.184 1.92-66.72 0-25.536-1.888-54.304-8.032-86.528-18.464-47.328-16.096-87.936-40.672-121.984-73.76-15.136-14.144-29.312-30.976-42.496-50.368-13.28-19.36-24.864-42.112-34.752-68.096-9.984-26.016-17.024-55.328-21.312-87.936-4.256-32.64-4.512-69.312-0.672-109.952 3.712-39.68 10.112-71.392 19.136-95.072 8.928-23.616 18.656-41.632 29.088-53.888 11.328-15.168 23.616-25.056 36.832-29.824 16.128-4.704 29.312-0.512 39.712 12.736s17.984 28.384 22.752 45.408c5.632 19.872 9.92 43.456 12.704 70.976 1.888 18.88 3.808 39.68 5.696 62.368 1.856 22.752 4.256 49.184 7.072 79.424 1.92 21.792 3.808 45.632 5.728 71.648 1.888 25.984 3.328 45.632 4.256 58.88 0 5.664 0.48 13.248 1.408 22.72 0.928 9.376 2.112 19.328 3.52 29.792 1.472 10.368 3.808 20.992 7.104 31.872 3.328 10.88 7.808 20.064 13.504 27.648 5.664 7.584 12.736 12.992 21.28 16.32 8.512 3.328 16.992 5.44 25.568 6.4 8.48 0.896 16.256 0.448 23.36-1.408s12.096-4.224 14.88-7.104c5.696-4.704 10.88-9.92 15.648-15.616 3.744-4.736 7.264-11.328 10.592-19.872 3.328-8.512 4.512-18.432 3.552-29.792v-17.024c0-4.704-1.184-18.944-3.552-42.592-2.368-23.616-4.512-50.592-6.368-80.8 38.784 0 70.208 4.96 94.336 14.912 24.128 9.92 42.784 21.984 56 36.128 13.216 14.208 22.496 29.504 27.68 46.112 5.152 16.544 7.776 31.936 7.776 46.080 0 14.208-1.888 30.72-5.664 49.664-1.92 3.744-3.552 7.296-5.024 10.624-1.408 3.328-4 7.36-7.744 12.096-11.392 14.304-27.872 26.592-49.664 36.992zM4651.52 151.008c6.56 15.168 6.368 28.64-0.704 40.48-7.072 11.776-17.536 21.472-31.2 29.024-13.76 7.584-29.088 13.504-46.144 17.76-16.992 4.256-31.648 6.88-43.872 7.808-10.496 0.928-18.528 1.12-24.224 0.704-5.6-0.544-11.296-0.256-16.96 0.672-1.952-19.84-3.328-36.832-4.256-51.040s-1.888-23.232-2.816-26.944c-2.88-21.824-5.76-40.256-8.576-55.36s-8.064-34.944-15.552-59.552c22.688-4.736 42.272-6.112 58.816-4.256 16.608 1.888 30.528 4.672 41.92 8.544 13.216 3.712 24.576 9.44 33.984 16.96 4.704 2.88 10.4 7.552 17.024 14.176 6.56 6.656 12.288 12.32 17.024 17.056 1.92 1.888 3.040 3.328 3.52 4.256 0.48 0.864 1.184 1.888 2.144 2.816 0.896 0 1.408 0.512 1.408 1.408 9.44 12.32 15.648 24.16 18.464 35.488zM4685.536 522.656l-4.192 11.328c1.856-3.712 3.264-7.52 4.192-11.328zM4874.24-0.736c-2.88 7.552-5.248 14.176-7.136 19.84-1.92 5.696-5.184 16.544-9.984 32.608-4.672 17.984-7.040 35.264-7.040 51.808s0.864 31.424 2.848 44.672c1.824 15.168 4.192 28.8 7.072 41.12 7.584 25.536 17.504 48.448 29.856 68.832 12.224 20.288 24.096 37.536 35.456 51.776 13.184 16.928 26.88 31.616 41.12 43.968 13.216 10.4 32.096 20.992 56.704 31.872 24.576 10.88 52.48 13.504 83.68 7.808 14.112-2.848 28.384-8.064 42.528-15.552 12.32-6.656 24.864-15.904 37.6-27.712 12.768-11.808 23.84-27.648 33.312-47.488 5.76-9.472 11.584-21.248 17.792-35.456 6.112-14.144 10.4-31.040 12.736-50.336 2.336-19.392 2.336-41.152 0-65.248-2.336-24.16-9.216-50.368-20.576-78.752-12.32-30.272-25.984-55.328-41.152-75.2-15.136-19.808-30.464-35.68-46.112-47.52-15.52-11.808-30.688-20.768-45.376-26.976-14.656-6.144-27.648-11.136-39.040-14.88-13.216-4.704-28.32-6.112-45.376-4.288-16.992 1.952-33.536 6.432-49.632 13.472-16.128 7.136-31.2 15.872-45.376 26.304-14.176 10.368-25.568 22.176-34.048 35.424-1.92 1.888-3.328 4.256-4.288 7.072-0.896 2.88-2.336 5.248-4.288 7.136 0 1.888-0.224 3.072-0.672 3.552-0.416 0.48-0.608 1.12-0.608 2.144zM4966.464 116.928c-2.88-26.432 1.12-51.008 12-73.76 10.912-22.688 24.384-34.496 40.448-35.456 12.256 0 24.608 4.288 36.864 12.768 10.368 7.552 21.76 19.136 34.016 34.752s23.648 39.072 34.048 70.24c11.36 32.128 13.984 61.184 7.84 87.232-6.176 26.016-14.464 45.632-24.832 58.912-2.848 3.744-8.736 8.256-17.792 13.44-8.928 5.216-20.544 3.072-34.752-6.336-6.592-4.768-14.368-11.168-23.36-19.168-8.992-8.064-17.984-18.496-26.976-31.232-8.992-12.768-16.992-28.384-24.032-46.848-7.136-18.4-11.616-39.904-13.472-64.544zM5353.696 273.056c-17.024-15.2-32.672-26.048-46.784-32.672-14.208-6.656-26.528-5.728-36.928 2.848-7.552 5.664-11.328 12.736-11.328 21.248 0 8.576 0.928 16.512 2.816 24.128 2.816 9.44 7.104 18.88 12.736 28.384 6.624 12.288 16.544 24.32 29.824 36.16 13.184 11.84 27.424 23.2 42.528 34.080 15.168 10.848 30.304 20.992 45.408 30.496 15.136 9.408 28.416 16.992 39.744 22.688 21.728 14.208 43.264 22.432 64.512 24.8 21.312 2.368 35.68-4.96 43.296-21.984 1.856-4.768 0.896-14.912-2.816-30.56-3.808-15.52-8.8-33.12-14.912-52.48-6.176-19.36-12.544-38.784-19.136-58.112-6.656-19.424-11.36-35.264-14.208-47.552-5.664-18.88-11.136-39.488-16.288-61.696-5.28-22.24-9.504-43.744-12.736-64.576-3.36-20.8-5.248-39.264-5.696-55.328-0.544-16.064 1.6-27.424 6.336-34.048 8.544-14.144 22.464-20.8 41.888-19.84 19.328 0.928 42.784 11.776 70.176 32.608s47.040 33.6 58.88 38.304c11.84 4.672 20.576 5.216 26.24 1.44 2.816-1.92 6.112-5.696 9.984-11.328 3.712-5.696 4.928-13.248 3.52-22.656-1.472-9.504-6.688-20.832-15.616-34.048-9.024-13.248-24.352-27.424-46.112-42.56-27.36-17.984-54.816-33.12-82.24-45.44-23.648-10.368-48.928-19.136-75.904-26.208s-51.744-7.328-74.464-0.704c-22.688 6.656-39.264 17.024-49.664 31.2-10.368 14.24-16.8 30.304-19.136 48.32-2.432 17.888-2.432 36.128 0 54.56 2.304 18.432 4.928 34.752 7.808 48.928 1.824 12.32 4.672 27.648 8.48 46.048 3.744 18.496 7.584 36.672 11.36 54.688 3.712 17.952 7.328 34.24 10.624 48.864 3.328 14.688 5.856 25.344 7.808 32zM5495.52 553.888c-24.576 9.472-41.632 26.464-51.072 51.072-9.472 24.576-8.992 50.112 1.44 76.608 10.336 26.496 27.2 45.856 50.304 58.176 23.2 12.256 47.040 14.144 71.616 5.632 23.648-9.472 40.224-26.432 49.696-51.072 9.44-24.608 8.96-50.592-1.44-77.984-10.368-26.528-27.2-45.92-50.336-58.176-23.168-12.288-46.56-13.728-70.208-4.256zM5820.384-95.84c-28.384-4.704-62.016-2.336-100.704 7.136-38.784 10.4-64.064 23.2-75.872 38.272-11.84 15.136-17.76 28.864-17.76 41.184-7.552-4.736-14.208-8.992-19.904-12.736-5.6-3.808-10.4-6.656-14.144-8.576-4.704-2.816-8.512-5.184-11.36-7.072-8.48-5.696-20.768-7.104-36.832-4.256-16.064 2.816-27.424 12.256-34.048 28.32-2.848 7.616-3.744 14.432-2.848 20.64 0.992 6.080 2.848 11.52 5.728 16.32 2.848 4.672 6.592 9.408 11.328 14.176 8.544 6.592 20.608 16.32 36.16 29.056 15.616 12.8 32.192 26.432 49.696 41.12 17.472 14.656 34.784 29.76 51.744 45.376 17.024 15.616 31.68 30.016 43.968 43.328 11.328 13.216 25.6 29.056 42.56 47.488 17.024 18.432 33.6 36.64 49.664 54.624 17.984 20.768 36.864 42.048 56.704 63.808 12.352 15.168 23.904 24.64 34.784 28.384 10.848 3.776 20.992 4.736 30.496 2.848 10.4-1.92 20.32-6.592 29.824-14.144 6.592-8.544 11.744-18.496 15.552-29.824v-11.36c0.96-11.36 2.144-29.568 3.52-54.592 1.44-25.024 1.92-52.48 1.44-82.24-0.448-29.856-2.080-60.096-4.96-90.848-2.816-30.72-7.552-57.92-14.144-81.568 33.056 16.096 59.584 27.936 79.392 35.488 19.872 7.552 35.232 12.512 46.112 14.944 10.848 2.304 18.432 2.56 22.752 0.672 4.224-1.952 7.808-4.288 10.624-7.104 11.328-13.248 14.88-24.384 10.592-33.376-4.256-8.928-17.248-21.504-39.008-37.568-14.176-10.368-31.456-20.32-51.776-29.824-20.416-9.44-41.376-17.952-63.104-25.504-21.792-7.552-42.848-14.432-63.2-20.576s-37.536-11.104-51.744-14.912c-10.4-3.776-19.84-6.144-28.416-7.136-0.928 0-1.856-0.448-2.784-1.408v1.44zM5687.040 36.128c6.56-3.808 12.768-8.992 18.4-15.616 9.472-9.44 18.624-16.512 27.712-21.248 8.96-4.8 17.216-7.808 24.768-9.248 7.552-1.408 13.728-2.048 18.4-2.048 4.768 0 8.064 0.384 9.952 1.376 0.96 0.928 5.472 2.624 13.504 4.928 8.096 2.368 15.84 9.504 23.36 21.312 7.552 11.808 13.024 30.016 16.32 54.592 3.328 24.544 1.216 59.104-6.304 103.52-1.92-1.888-3.36-2.816-4.32-2.816l-1.408-1.376c-24.608-28.416-48.736-53.728-72.352-75.936-23.584-22.208-46.304-41.376-68.032-57.44zM683.616 860.384c30.816 2.912 53.952-3.296 69.376-18.72s21.664-32.704 18.752-51.744c-3.008-10.336-7.744-22.432-14.304-36.352-6.624-13.952-14.336-28.32-23.136-42.976-8.8-14.72-18.752-28.992-29.824-42.976-10.976-13.952-20.864-25.344-29.696-34.080-14.688-16.192-28.992-25.76-42.944-28.64-13.984-2.976-24.64-1.472-32 4.384-16.064 14.656-18.304 32.256-6.56 52.864 8.8 16.096 14.368 31.168 16.512 45.12 2.24 13.984 3.328 22.4 3.328 25.344 0 2.88 0 12.096 0 27.52 0 15.392 3.616 33.408 11.072 53.92 2.912 10.304 7.68 18.752 14.272 25.344 6.592 6.656 13.536 11.36 20.928 14.336 7.328 4.416 15.424 6.656 24.224 6.656z" />
<glyph unicode="&#xe61f;" glyph-name="remove" d="M1014.663 73.339c-0.005 0.005-0.009 0.009-0.011 0.009l-310.645 310.651 310.645 310.649c0.005 0.005 0.009 0.007 0.011 0.009 3.344 3.346 5.762 7.255 7.312 11.417 4.247 11.376 1.824 24.681-7.323 33.831l-146.747 146.745c-9.147 9.145-22.45 11.566-33.829 7.321-4.16-1.55-8.071-3.968-11.417-7.31 0-0.005-0.005-0.007-0.009-0.009l-310.647-310.654-310.649 310.649c-0.005 0.005-0.007 0.007-0.009 0.009-3.346 3.342-7.255 5.76-11.415 7.31-11.381 4.249-24.681 1.826-33.831-7.321l-146.747-146.745c-9.147-9.147-11.568-22.453-7.321-33.829 1.552-4.16 3.97-8.071 7.312-11.417 0.005-0.002 0.007-0.007 0.009-0.009l310.651-310.647-310.651-310.651c-0.002-0.005-0.007-0.007-0.009-0.009-3.342-3.346-5.76-7.255-7.314-11.415-4.249-11.376-1.826-24.681 7.321-33.831l146.747-146.745c9.15-9.147 22.453-11.568 33.831-7.321 4.16 1.552 8.071 3.97 11.417 7.312 0.002 0.005 0.007 0.007 0.009 0.009l310.649 310.649 310.649-310.649c0.005-0.002 0.009-0.007 0.011-0.009 3.349-3.344 7.255-5.762 11.415-7.314 11.378-4.247 24.683-1.826 33.829 7.321l146.745 146.747c9.147 9.147 11.57 22.455 7.323 33.831-1.552 4.162-3.968 8.069-7.312 11.415z" />
<glyph unicode="&#xe620;" glyph-name="check-square" horiz-adv-x="878" d="M391.429 153.714l350.857 350.857q10.857 10.857 10.857 25.714t-10.857 25.714l-58.286 58.286q-10.857 10.857-25.714 10.857t-25.714-10.857l-266.857-266.857-120.571 120.571q-10.857 10.857-25.714 10.857t-25.714-10.857l-58.286-58.286q-10.857-10.857-10.857-25.714t10.857-25.714l204.571-204.571q10.857-10.857 25.714-10.857t25.714 10.857zM877.714 658.286v-548.571q0-68-48.286-116.286t-116.286-48.286h-548.571q-68 0-116.286 48.286t-48.286 116.286v548.571q0 68 48.286 116.286t116.286 48.286h548.571q68 0 116.286-48.286t48.286-116.286z" />
<glyph unicode="&#xe621;" glyph-name="bold" d="M707.879 411.349c37.499 44.542 60.121 102.007 60.121 164.651 0 141.161-114.841 256-256 256h-320v-896h384c141.159 0 256 114.841 256 256 0 92.955-49.799 174.496-124.121 219.349zM384 704h101.499c55.968 0 101.499-57.419 101.499-128s-45.531-128-101.499-128h-101.499v256zM543.001 64h-159.001v256h159.001c58.45 0 106-57.419 106-128s-47.552-128-106-128z" />
<glyph unicode="&#xe622;" glyph-name="italic" d="M896 832v-64h-128l-320-768h128v-64h-448v64h128l320 768h-128v64z" />
<glyph unicode="&#xe623;" glyph-name="title" d="M896 896h-768c-17.664 0-32-14.336-32-32v-192c0-17.664 14.336-32 32-32h32c17.664 0 32 14.336 32 32l64 96h192v-768l-160-64c-17.664 0-32-14.304-32-32s14.336-32 32-32h448c17.696 0 32 14.304 32 32s-14.304 32-32 32l-160 64v768h192l64-96c0-17.664 14.304-32 32-32h32c17.696 0 32 14.336 32 32v192c0 17.664-14.304 32-32 32z" />
<glyph unicode="&#xe624;" glyph-name="list" d="M384 832h640v-128h-640v128zM384 448h640v-128h-640v128zM384 64h640v-128h-640v128zM0 768c0-70.692 57.308-128 128-128s128 57.308 128 128c0 70.692-57.308 128-128 128s-128-57.308-128-128zM0 384c0-70.692 57.308-128 128-128s128 57.308 128 128c0 70.692-57.308 128-128 128s-128-57.308-128-128zM0 0c0-70.692 57.308-128 128-128s128 57.308 128 128c0 70.692-57.308 128-128 128s-128-57.308-128-128z" />
<glyph unicode="&#xe625;" glyph-name="body" d="M1024 128v-73.143q0-14.857-10.857-25.714t-25.714-10.857h-950.857q-14.857 0-25.714 10.857t-10.857 25.714v73.143q0 14.857 10.857 25.714t25.714 10.857h950.857q14.857 0 25.714-10.857t10.857-25.714zM804.571 347.429v-73.143q0-14.857-10.857-25.714t-25.714-10.857h-731.429q-14.857 0-25.714 10.857t-10.857 25.714v73.143q0 14.857 10.857 25.714t25.714 10.857h731.429q14.857 0 25.714-10.857t10.857-25.714zM950.857 566.857v-73.143q0-14.857-10.857-25.714t-25.714-10.857h-877.714q-14.857 0-25.714 10.857t-10.857 25.714v73.143q0 14.857 10.857 25.714t25.714 10.857h877.714q14.857 0 25.714-10.857t10.857-25.714zM731.429 786.286v-73.143q0-14.857-10.857-25.714t-25.714-10.857h-658.286q-14.857 0-25.714 10.857t-10.857 25.714v73.143q0 14.857 10.857 25.714t25.714 10.857h658.286q14.857 0 25.714-10.857t10.857-25.714z" />
<glyph unicode="&#xe626;" glyph-name="characteristics" horiz-adv-x="960" d="M864 896h-768c-52.8 0-96-43.2-96-96v-832c0-52.8 43.2-96 96-96h768c52.8 0 96 43.2 96 96v832c0 52.8-43.2 96-96 96zM832 0h-704v768h704v-768zM256 448h448v-64h-448zM256 320h448v-64h-448zM256 192h448v-64h-448zM256 576h448v-64h-448z" />
<glyph unicode="&#xe627;" glyph-name="skills" d="M512 256c-45.12 0-87.744 9.248-128 23.488v-407.488l128 128 128-128v407.488c-40.256-14.24-82.88-23.488-128-23.488zM512 896c-141.376 0-256-114.624-256-256s114.624-256 256-256 256 114.624 256 256-114.624 256-256 256zM512 512c-70.752 0-128 57.312-128 128s57.248 128 128 128 128-57.312 128-128-57.248-128-128-128z" />
<glyph unicode="&#xe628;" glyph-name="notifications" horiz-adv-x="951" d="M484.571-73.143q0 9.143-9.143 9.143-33.714 0-58 24.286t-24.286 58q0 9.143-9.143 9.143t-9.143-9.143q0-41.714 29.429-71.143t71.143-29.429q9.143 0 9.143 9.143zM950.857 91.429q0-29.714-21.714-51.429t-51.429-21.714h-256q0-60.571-42.857-103.429t-103.429-42.857-103.429 42.857-42.857 103.429h-256q-29.714 0-51.429 21.714t-21.714 51.429q108.571 92 164 227.143t55.429 284.857q0 94.286 54.857 149.714t150.857 66.857q-4.571 10.286-4.571 21.143 0 22.857 16 38.857t38.857 16 38.857-16 16-38.857q0-10.857-4.571-21.143 96-11.429 150.857-66.857t54.857-149.714q0-149.714 55.429-284.857t164-227.143z" />
<glyph unicode="&#xe629;" glyph-name="camera" horiz-adv-x="1097" d="M548.571 480q68 0 116.286-48.286t48.286-116.286-48.286-116.286-116.286-48.286-116.286 48.286-48.286 116.286 48.286 116.286 116.286 48.286zM950.857 717.714q60.571 0 103.429-42.857t42.857-103.429v-512q0-60.571-42.857-103.429t-103.429-42.857h-804.571q-60.571 0-103.429 42.857t-42.857 103.429v512q0 60.571 42.857 103.429t103.429 42.857h128l29.143 77.714q10.857 28 39.714 48.286t59.143 20.286h292.571q30.286 0 59.143-20.286t39.714-48.286l29.143-77.714h128zM548.571 59.429q105.714 0 180.857 75.143t75.143 180.857-75.143 180.857-180.857 75.143-180.857-75.143-75.143-180.857 75.143-180.857 180.857-75.143z" />
<glyph unicode="&#xe62a;" glyph-name="profile" horiz-adv-x="960" d="M864 896h-768c-52.8 0-96-43.2-96-96v-832c0-52.8 43.2-96 96-96h768c52.8 0 96 43.2 96 96v832c0 52.8-43.2 96-96 96zM832 0h-704v768h704v-768zM256 320h448v-64h-448zM256 192h448v-64h-448zM320 608c0-53.019 42.981-96 96-96s96 42.981 96 96c0 53.019-42.981 96-96 96s-96-42.981-96-96zM480 512h-128c-52.8 0-96-28.8-96-64v-64h320v64c0 35.2-43.2 64-96 64z" />
<glyph unicode="&#xe62b;" glyph-name="file" horiz-adv-x="731" d="M731.429 457.143v-457.143q0-22.857-16-38.857t-38.857-16h-621.714q-22.857 0-38.857 16t-16 38.857v768q0 22.857 16 38.857t38.857 16h310.857v-310.857q0-22.857 16-38.857t38.857-16h310.857zM729.714 530.286h-290.857v290.857q46.857-8.571 75.429-37.143l178.286-178.286q28.571-28.571 37.143-75.429z" />
<glyph unicode="&#xe62c;" glyph-name="time" horiz-adv-x="1006" d="M586.058 612.857v-291.271q0-9.102-5.852-14.954t-14.954-5.852h-208.050q-9.102 0-14.954 5.852t-5.852 14.954v41.61q0 9.102 5.852 14.954t14.954 5.852h145.635v228.857q0 9.102 5.852 14.954t14.954 5.852h41.61q9.102 0 14.954-5.852t5.852-14.954zM856.523 384q0 96.223-47.461 177.493t-128.732 128.732-177.493 47.461-177.493-47.461-128.732-128.732-47.461-177.493 47.461-177.493 128.732-128.732 177.493-47.461 177.493 47.461 128.732 128.732 47.461 177.493zM1002.159 384q0-135.884-66.966-250.637t-181.719-181.719-250.637-66.966-250.637 66.966-181.719 181.719-66.966 250.637 66.966 250.637 181.719 181.719 250.637 66.966 250.637-66.966 181.719-181.719 66.966-250.637z" />
<glyph unicode="&#xe62d;" glyph-name="play" horiz-adv-x="1006" d="M773.303 384q0-24.057-20.805-35.759l-353.686-208.050q-9.751-5.852-20.805-5.852-10.403 0-20.805 5.201-20.805 12.353-20.805 36.409v416.101q0 24.057 20.805 36.409 21.455 11.703 41.61-0.65l353.686-208.050q20.805-11.703 20.805-35.759zM856.523 384q0 96.223-47.461 177.493t-128.732 128.732-177.493 47.461-177.493-47.461-128.732-128.732-47.461-177.493 47.461-177.493 128.732-128.732 177.493-47.461 177.493 47.461 128.732 128.732 47.461 177.493zM1002.159 384q0-135.884-66.966-250.637t-181.719-181.719-250.637-66.966-250.637 66.966-181.719 181.719-66.966 250.637 66.966 250.637 181.719 181.719 250.637 66.966 250.637-66.966 181.719-181.719 66.966-250.637z" />
<glyph unicode="&#xe62e;" glyph-name="publish" horiz-adv-x="1006" d="M730.393 397.004q-5.201-13.004-19.505-13.004h-124.83v-228.857q0-9.102-5.852-14.954t-14.954-5.852h-124.83q-9.102 0-14.954 5.852t-5.852 14.954v228.857h-124.83q-9.102 0-14.954 5.852t-5.852 14.954q0 7.802 6.501 15.603l207.401 207.401q7.152 5.852 14.954 5.852t14.954-5.852l208.050-208.050q9.751-10.403 4.551-22.755zM502.837 737.686q-96.223 0-177.493-47.461t-128.732-128.732-47.461-177.493 47.461-177.493 128.732-128.732 177.493-47.461 177.493 47.461 128.732 128.732 47.461 177.493-47.461 177.493-128.732 128.732-177.493 47.461zM1002.159 384q0-135.884-66.966-250.637t-181.719-181.719-250.637-66.966-250.637 66.966-181.719 181.719-66.966 250.637 66.966 250.637 181.719 181.719 250.637 66.966 250.637-66.966 181.719-181.719 66.966-250.637z" />
<glyph unicode="&#xe62f;" glyph-name="unpublish" horiz-adv-x="1006" d="M731.693 363.195q0-7.802-6.501-15.603l-207.401-207.401q-7.152-5.852-14.954-5.852t-14.954 5.852l-208.050 208.050q-9.751 10.403-4.551 22.755 5.201 13.004 19.505 13.004h124.83v228.857q0 9.102 5.852 14.954t14.954 5.852h124.83q9.102 0 14.954-5.852t5.852-14.954v-228.857h124.83q9.102 0 14.954-5.852t5.852-14.954zM502.837 737.686q-96.223 0-177.493-47.461t-128.732-128.732-47.461-177.493 47.461-177.493 128.732-128.732 177.493-47.461 177.493 47.461 128.732 128.732 47.461 177.493-47.461 177.493-128.732 128.732-177.493 47.461zM1002.159 384q0-135.884-66.966-250.637t-181.719-181.719-250.637-66.966-250.637 66.966-181.719 181.719-66.966 250.637 66.966 250.637 181.719 181.719 250.637 66.966 250.637-66.966 181.719-181.719 66.966-250.637z" />
<glyph unicode="&#xe630;" glyph-name="license" d="M406.752 65.12c-210.496-167.68-267.264-127.136-170.272 121.824-270.4-13.952-292.096 51.808-65.056 197.056-227.040 145.28-205.344 210.976 65.056 197.088-96.96 248.928-40.192 289.536 170.272 121.792 70.144 257.472 140.32 257.472 210.496 0 210.464 167.744 267.264 127.136 170.24-121.792 270.432 13.888 292.096-51.808 65.056-197.088 227.040-145.248 205.376-211.008-65.056-197.056 96.992-248.928 40.224-289.504-170.24-121.824-70.144-257.504-140.352-257.504-210.496 0z" />
<glyph unicode="&#xe631;" glyph-name="tag" d="M927.813 896h-288.562c-52.905 0-126.795-30.606-164.203-68.014l-446.992-446.99c-37.408-37.408-37.408-98.624 0-136.032l344.91-344.905c37.408-37.41 98.622-37.41 136.030 0l446.99 446.987c37.41 37.41 68.016 111.301 68.016 164.203v288.562c0 52.903-43.287 96.187-96.187 96.187zM800 576c-53.019 0-96 42.981-96 96s42.981 96 96 96 96-42.981 96-96-42.981-96-96-96z" />
<glyph unicode="&#xe632;" glyph-name="link" d="M953.397 821.358l-4.027 4.041c-94.149 94.135-248.194 94.135-342.327 0l-218.107-218.135c-94.135-94.133-94.135-248.176 0-342.311l4.025-4.025c7.831-7.847 16.146-14.923 24.736-21.458l79.849 79.849c-9.303 5.495-18.126 12.071-26.117 20.059l-4.041 4.041c-51.113 51.097-51.113 134.272 0 185.39l218.128 218.114c51.115 51.118 134.274 51.118 185.385 0l4.041-4.023c51.099-51.115 51.099-134.293 0-185.39l-98.686-98.686c17.131-42.309 25.248-87.401 24.537-132.386l152.603 152.603c94.137 94.135 94.137 248.178 0 342.315zM631.042 507.065c-7.831 7.831-16.146 14.921-24.736 21.44l-79.849-79.831c9.305-5.497 18.126-12.073 26.117-20.062l4.041-4.041c51.115-51.115 51.115-134.272 0-185.387l-218.128-218.135c-51.118-51.102-134.277-51.102-185.387 0l-4.041 4.041c-51.097 51.12-51.097 134.277 0 185.387l98.688 98.686c-17.134 42.306-25.246 87.401-24.537 132.386l-152.601-152.599c-94.135-94.133-94.135-248.178 0-342.325l4.025-4.032c94.151-94.128 248.192-94.128 342.327 0l218.11 218.119c94.135 94.133 94.135 248.194 0 342.327l-4.027 4.025z" />
<glyph unicode="&#xe633;" glyph-name="flag" d="M832 723.694c76.466 0 145.093 41.623 192 73.106v-595.689c-46.907-31.486-115.534-73.111-192-73.111s-145.093 22.67-192 54.155c-46.907 31.481-115.534 54.151-192 54.151s-145.090-38.917-192-70.395v595.689c46.91 31.483 115.534 70.4 192 70.4s145.093-22.667 192-54.151c46.907-31.486 115.534-54.155 192-54.155zM128 896c35.346 0 64-28.654 64-64v-960h-128v960c0 35.346 28.654 64 64 64z" />
<glyph unicode="&#xe634;" glyph-name="lock" horiz-adv-x="658" d="M182.857 425.143h292.571v109.714q0 60.571-42.857 103.429t-103.429 42.857-103.429-42.857-42.857-103.429v-109.714zM658.286 370.286v-329.143q0-22.857-16-38.857t-38.857-16h-548.571q-22.857 0-38.857 16t-16 38.857v329.143q0 22.857 16 38.857t38.857 16h18.286v109.714q0 105.143 75.429 180.571t180.571 75.429 180.571-75.429 75.429-180.571v-109.714h18.286q22.857 0 38.857-16t16-38.857z" />
<glyph unicode="&#xe635;" glyph-name="off" horiz-adv-x="878" d="M877.714 384q0-89.143-34.857-170.286t-93.714-140-140-93.714-170.286-34.857-170.286 34.857-140 93.714-93.714 140-34.857 170.286q0 104 46 196t129.429 154.286q24.571 18.286 54.571 14.286t47.714-28.571q18.286-24 14-54t-28.286-48.286q-56-42.286-86.571-103.429t-30.571-130.286q0-59.429 23.143-113.429t62.571-93.429 93.429-62.571 113.429-23.143 113.429 23.143 93.429 62.571 62.571 93.429 23.143 113.429q0 69.143-30.571 130.286t-86.571 103.429q-24 18.286-28.286 48.286t14 54q17.714 24.571 48 28.571t54.286-14.286q83.429-62.286 129.429-154.286t46-196zM512 822.857v-365.714q0-29.714-21.714-51.429t-51.429-21.714-51.429 21.714-21.714 51.429v365.714q0 29.714 21.714 51.429t51.429 21.714 51.429-21.714 21.714-51.429z" />
<glyph unicode="&#xe636;" glyph-name="settings" horiz-adv-x="878" d="M585.143 384q0 60.571-42.857 103.429t-103.429 42.857-103.429-42.857-42.857-103.429 42.857-103.429 103.429-42.857 103.429 42.857 42.857 103.429zM877.714 446.286v-126.857q0-6.857-4.571-13.143t-11.429-7.429l-105.714-16q-10.857-30.857-22.286-52 20-28.571 61.143-78.857 5.714-6.857 5.714-14.286t-5.143-13.143q-15.429-21.143-56.571-61.714t-53.714-40.571q-6.857 0-14.857 5.143l-78.857 61.714q-25.143-13.143-52-21.714-9.143-77.714-16.571-106.286-4-16-20.571-16h-126.857q-8 0-14 4.857t-6.571 12.286l-16 105.143q-28 9.143-51.429 21.143l-80.571-61.143q-5.714-5.143-14.286-5.143-8 0-14.286 6.286-72 65.143-94.286 96-4 5.714-4 13.143 0 6.857 4.571 13.143 8.571 12 29.143 38t30.857 40.286q-15.429 28.571-23.429 56.571l-104.571 15.429q-7.429 1.143-12 7.143t-4.571 13.429v126.857q0 6.857 4.571 13.143t10.857 7.429l106.286 16q8 26.286 22.286 52.571-22.857 32.571-61.143 78.857-5.714 6.857-5.714 13.714 0 5.714 5.143 13.143 14.857 20.571 56.286 61.429t54 40.857q7.429 0 14.857-5.714l78.857-61.143q25.143 13.143 52 21.714 9.143 77.714 16.571 106.286 4 16 20.571 16h126.857q8 0 14-4.857t6.571-12.286l16-105.143q28-9.143 51.429-21.143l81.143 61.143q5.143 5.143 13.714 5.143 7.429 0 14.286-5.714 73.714-68 94.286-97.143 4-4.571 4-12.571 0-6.857-4.571-13.143-8.571-12-29.143-38t-30.857-40.286q14.857-28.571 23.429-56l104.571-16q7.429-1.143 12-7.143t4.571-13.429z" />
<glyph unicode="&#xe637;" glyph-name="delete" horiz-adv-x="805" d="M292.571 475.429v-329.143q0-8-5.143-13.143t-13.143-5.143h-36.571q-8 0-13.143 5.143t-5.143 13.143v329.143q0 8 5.143 13.143t13.143 5.143h36.571q8 0 13.143-5.143t5.143-13.143zM438.857 475.429v-329.143q0-8-5.143-13.143t-13.143-5.143h-36.571q-8 0-13.143 5.143t-5.143 13.143v329.143q0 8 5.143 13.143t13.143 5.143h36.571q8 0 13.143-5.143t5.143-13.143zM585.143 475.429v-329.143q0-8-5.143-13.143t-13.143-5.143h-36.571q-8 0-13.143 5.143t-5.143 13.143v329.143q0 8 5.143 13.143t13.143 5.143h36.571q8 0 13.143-5.143t5.143-13.143zM658.286 61.714v541.714h-512v-541.714q0-12.571 4-23.143t8.286-15.429 6-4.857h475.429q1.714 0 6 4.857t8.286 15.429 4 23.143zM274.286 676.571h256l-27.429 66.857q-4 5.143-9.714 6.286h-181.143q-5.714-1.143-9.714-6.286zM804.571 658.286v-36.571q0-8-5.143-13.143t-13.143-5.143h-54.857v-541.714q0-47.429-26.857-82t-64.571-34.571h-475.429q-37.714 0-64.571 33.429t-26.857 80.857v544h-54.857q-8 0-13.143 5.143t-5.143 13.143v36.571q0 8 5.143 13.143t13.143 5.143h176.571l40 95.429q8.571 21.143 30.857 36t45.143 14.857h182.857q22.857 0 45.143-14.857t30.857-36l40-95.429h176.571q8 0 13.143-5.143t5.143-13.143z" />
<glyph unicode="&#xe638;" glyph-name="message" d="M1024 490.286v-453.714q0-37.714-26.857-64.571t-64.571-26.857h-841.143q-37.714 0-64.571 26.857t-26.857 64.571v453.714q25.143-28 57.714-49.714 206.857-140.571 284-197.143 32.571-24 52.857-37.429t54-27.429 62.857-14h1.143q29.143 0 62.857 14t54 27.429 52.857 37.429q97.143 70.286 284.571 197.143 32.571 22.286 57.143 49.714zM1024 658.286q0-45.143-28-86.286t-69.714-70.286q-214.857-149.143-267.429-185.714-5.714-4-24.286-17.429t-30.857-21.714-29.714-18.571-32.857-15.429-28.571-5.143h-1.143q-13.143 0-28.571 5.143t-32.857 15.429-29.714 18.571-30.857 21.714-24.286 17.429q-52 36.571-149.714 104.286t-117.143 81.429q-35.429 24-66.857 66t-31.429 78q0 44.571 23.714 74.286t67.714 29.714h841.143q37.143 0 64.286-26.857t27.143-64.571z" />
<glyph unicode="&#xe639;" glyph-name="minus" horiz-adv-x="805" d="M804.571 443.429v-109.714q0-22.857-16-38.857t-38.857-16h-694.857q-22.857 0-38.857 16t-16 38.857v109.714q0 22.857 16 38.857t38.857 16h694.857q22.857 0 38.857-16t16-38.857z" />
<glyph unicode="&#xe63a;" glyph-name="plus" horiz-adv-x="805" d="M804.571 443.429v-109.714q0-22.857-16-38.857t-38.857-16h-237.714v-237.714q0-22.857-16-38.857t-38.857-16h-109.714q-22.857 0-38.857 16t-16 38.857v237.714h-237.714q-22.857 0-38.857 16t-16 38.857v109.714q0 22.857 16 38.857t38.857 16h237.714v237.714q0 22.857 16 38.857t38.857 16h109.714q22.857 0 38.857-16t16-38.857v-237.714h237.714q22.857 0 38.857-16t16-38.857z" />
<glyph unicode="&#xe63b;" glyph-name="edit" horiz-adv-x="1006" d="M239.524-32.101l59.165 59.165-152.787 152.787-59.165-59.165v-69.567h83.22v-83.22h69.567zM579.557 571.245q0 14.303-14.303 14.303-6.501 0-11.053-4.551l-352.386-352.386q-4.551-4.551-4.551-11.053 0-14.303 14.303-14.303 6.501 0 11.053 4.551l352.386 352.386q4.551 4.551 4.551 11.053zM544.449 696.077l270.466-270.466-540.932-540.932h-270.466v270.466zM988.506 633.662q0-34.459-24.057-58.515l-107.926-107.926-270.466 270.466 107.926 107.277q23.405 24.706 58.515 24.706 34.459 0 59.165-24.706l152.787-152.137q24.057-25.357 24.057-59.165z" />
<glyph unicode="&#xe63c;" glyph-name="home" d="M1024 305.557l-512 397.426-512-397.429v162.037l512 397.426 512-397.426zM896 320v-384h-256v256h-256v-256h-256v384l384 288z" />
<glyph unicode="&#xe63e;" glyph-name="like" d="M512-54.857q-14.857 0-25.143 10.286l-356.571 344q-5.714 4.571-15.714 14.857t-31.714 37.429-38.857 55.714-30.571 69.143-13.429 78.857q0 125.714 72.571 196.571t200.571 70.857q35.429 0 72.286-12.286t68.571-33.143 54.571-39.143 43.429-38.857q20.571 20.571 43.429 38.857t54.571 39.143 68.571 33.143 72.286 12.286q128 0 200.571-70.857t72.571-196.571q0-126.286-130.857-257.143l-356-342.857q-10.286-10.286-25.143-10.286z" />
<glyph unicode="&#xe63f;" glyph-name="eye" d="M512 704c-223.319 0-416.882-130.041-512-320 95.118-189.959 288.681-320 512-320 223.314 0 416.878 130.041 512 320-95.115 189.959-288.686 320-512 320zM764.45 534.297c60.162-38.375 111.143-89.774 149.433-150.295-38.293-60.521-89.273-111.922-149.435-150.297-75.593-48.219-162.889-73.705-252.448-73.705-89.561 0-176.855 25.486-252.45 73.703-60.16 38.373-111.141 89.774-149.433 150.297 38.293 60.523 89.273 111.925 149.433 150.295 3.918 2.501 7.877 4.921 11.858 7.301-9.959-27.328-15.408-56.821-15.408-87.595 0-141.383 114.617-256 256-256s256 114.617 256 256c0 30.775-5.449 60.267-15.408 87.598 3.979-2.377 7.938-4.802 11.858-7.301zM512 486c0-53.019-42.981-96-96-96s-96 42.981-96 96 42.981 96 96 96 96-42.981 96-96z" />
<glyph unicode="&#xe640;" glyph-name="howto" horiz-adv-x="1097" d="M1073.714 352q0-17.714-17.714-37.714l-192-226.286q-24.571-29.143-68.857-49.429t-82-20.286h-621.714q-19.429 0-34.571 7.429t-15.143 24.571q0 17.714 17.714 37.714l192 226.286q24.571 29.143 68.857 49.429t82 20.286h621.714q19.429 0 34.571-7.429t15.143-24.571zM877.714 548.571v-91.429h-475.429q-53.714 0-112.571-27.143t-93.714-68.286l-195.429-229.714q0 2.286-0.286 7.143t-0.286 7.143v548.571q0 52.571 37.714 90.286t90.286 37.714h182.857q52.571 0 90.286-37.714t37.714-90.286v-18.286h310.857q52.571 0 90.286-37.714t37.714-90.286z" />
<glyph unicode="&#xe642;" glyph-name="globe" horiz-adv-x="878" d="M438.857 822.857q119.429 0 220.286-58.857t159.714-159.714 58.857-220.286-58.857-220.286-159.714-159.714-220.286-58.857-220.286 58.857-159.714 159.714-58.857 220.286 58.857 220.286 159.714 159.714 220.286 58.857zM595.429 525.143q-1.143-0.571-5.429-5.429t-7.714-5.429q1.143 0 2.571 2.857t2.857 6.286 2 4q3.429 4 12.571 8.571 8 3.429 29.714 6.857 19.429 4.571 29.143-6.286-1.143 1.143 5.429 7.429t8.286 6.857q1.714 1.143 8.571 2.571t8.571 4.286l1.143 12.571q-6.857-0.571-10 4t-3.714 12q0-1.143-3.429-4.571 0 4-2.571 4.571t-6.571-0.571-5.143-0.571q-5.714 1.714-8.571 4.286t-4.571 9.429-2.286 8.571q-1.143 2.857-5.429 6t-5.429 6q-0.571 1.143-1.429 3.143t-1.714 3.714-2.286 3.143-3.143 1.429-4-2.857-4.286-5.714-2.571-2.857q-1.714 1.143-3.429 0.857t-2.571-0.571-2.571-1.714-2.857-2q-1.714-1.143-4.857-1.714t-4.857-1.143q8.571 2.857-0.571 6.286-5.714 2.286-9.143 1.714 5.143 2.286 4.286 6.857t-4.857 8h2.857q-0.571 2.286-4.857 4.857t-10 4.857-7.429 3.429q-4.571 2.857-19.429 5.429t-18.857 0.286q-2.857-3.429-2.571-6t2.286-8 2-7.143q0.571-3.429-3.143-7.429t-3.714-6.857q0-4 8-8.857t5.714-12.286q-1.714-4.571-9.143-9.143t-9.143-6.857q-2.857-4.571-0.857-10.571t6-9.429q1.143-1.143 0.857-2.286t-2-2.571-3.143-2.286-3.714-2l-1.714-1.143q-6.286-2.857-11.714 3.429t-7.714 14.857q-4 14.286-9.143 17.143-13.143 4.571-16.571-0.571-2.857 7.429-23.429 14.857-14.286 5.143-33.143 2.286 3.429 0.571 0 8.571-4 8.571-10.857 6.857 1.714 3.429 2.286 10t0.571 7.714q1.714 7.429 6.857 13.143 0.571 0.571 4 4.857t5.429 7.714 0.286 3.429q20-2.286 28.571 6.286 2.857 2.857 6.571 9.714t6 9.714q5.143 3.429 8 3.143t8.286-3.143 8.286-2.857q8-0.571 8.857 6.286t-4.286 11.429q6.857-0.571 1.714 9.714-2.857 4-4.571 5.143-6.857 2.286-15.429-2.857-4.571-2.286 1.143-4.571-0.571 0.571-5.429-6t-9.429-10-9.143 2.857q-0.571 0.571-3.143 7.714t-5.429 7.714q-4.571 0-9.143-8.571 1.714 4.571-6.286 8.571t-13.714 4.571q10.857 6.857-4.571 15.429-4 2.286-11.714 2.857t-11.143-2.286q-2.857-4-3.143-6.571t2.857-4.571 6-3.143 6.571-2.286 4.857-1.714q8-5.714 4.571-8-1.143-0.571-4.857-2t-6.571-2.571-3.429-2.286q-1.714-2.286 0-8t-1.143-8q-2.857 2.857-5.143 10t-4 9.429q4-5.143-14.286-3.429l-5.714 0.571q-2.286 0-9.143-1.143t-11.714-0.571-7.714 4.571q-2.286 4.571 0 11.429 0.571 2.286 2.286 1.143-2.286 1.714-6.286 5.429t-5.714 4.857q-26.286-8.571-53.714-23.429 3.429-0.571 6.857 0.571 2.857 1.143 7.429 3.714t5.714 3.143q19.429 8 24 4l2.857 2.857q8-9.143 11.429-14.286-4 2.286-17.143 0.571-11.429-3.429-12.571-6.857 4-6.857 2.857-10.286-2.286 1.714-6.571 5.714t-8.286 6.286-8.571 2.857q-9.143 0-12.571-0.571-83.429-45.714-134.286-126.857 4-4 6.857-4.571 2.286-0.571 2.857-5.143t1.429-6.286 6.571 1.714q5.143-4.571 1.714-10.857 0.571 0.571 25.143-15.429 10.857-9.714 12-12 1.714-6.286-5.714-10.286-0.571 1.143-5.143 5.143t-5.143 2.286q-1.714-2.857 0.286-10.571t6-7.143q-4 0-5.429-9.143t-1.429-20.286-0.571-13.429l1.143-0.571q-1.714-6.857 3.143-19.714t12.286-11.143q-7.429-1.714 11.429-24.571 3.429-4.571 4.571-5.143 1.714-1.143 6.857-4.286t8.571-5.714 5.714-6q2.286-2.857 5.714-12.857t8-13.429q-1.143-3.429 5.429-11.429t6-13.143q-0.571 0-1.429-0.571t-1.429-0.571q1.714-4 8.857-8t8.857-7.429q0.571-1.714 1.143-5.714t1.714-6.286 4.571-1.143q1.143 11.429-13.714 35.429-8.571 14.286-9.714 16.571-1.714 2.857-3.143 8.857t-2.571 8.286q1.143 0 3.429-0.857t4.857-2 4.286-2.286 1.143-1.714q-1.714-4 1.143-10t6.857-10.571 9.714-10.857 6.857-7.429q3.429-3.429 8-11.143t0-7.714q5.143 0 11.429-5.714t9.714-11.429q2.857-4.571 4.571-14.857t2.857-13.714q1.143-4 4.857-7.714t7.143-5.429l9.143-4.571t7.429-4q2.857-1.143 10.571-6t12.286-6.571q5.714-2.286 9.143-2.286t8.286 1.429 7.714 2q8.571 1.143 16.571-8.571t12-12q20.571-10.857 31.429-6.286-1.143-0.571 0.286-4.286t4.571-8.857 5.143-8.286 3.143-4.857q2.857-3.429 10.286-8.571t10.286-8.571q3.429 2.286 4 5.143-1.714-4.571 4-11.429t10.286-5.714q8 1.714 8 18.286-17.714-8.571-28 10.286 0 0.571-1.429 3.143t-2.286 4.857-1.429 4.857 0 4.286 2.857 1.714q5.143 0 5.714 2t-1.143 7.143-2.286 7.429q-0.571 4.571-6.286 11.429t-6.857 8.571q-2.857-5.143-9.143-4.571t-9.143 5.143q0-0.571-0.857-3.143t-0.857-3.714q-7.429 0-8.571 0.571 0.571 1.714 1.429 10t2 12.857q0.571 2.286 3.143 6.857t4.286 8.286 2.286 7.143-2.571 5.429-10 1.429q-10.857-0.571-14.857-11.429-0.571-1.714-1.714-6t-2.857-6.571-5.143-4q-4-1.714-13.714-1.143t-13.714 2.857q-7.429 4.571-12.857 16.571t-5.429 21.143q0 5.714 1.429 15.143t1.714 14.286-3.143 14q1.714 1.143 5.143 5.429t5.714 6q1.143 0.571 2.571 0.857t2.571 0 2.286 0.857 1.714 3.429q-0.571 0.571-2.286 1.714-1.714 1.714-2.286 1.714 4-1.714 16.286 0.857t15.714-0.857q8.571-6.286 12.571 1.143 0 0.571-1.429 5.429t-0.286 7.714q2.857-15.429 16.571-5.143 1.714-1.714 8.857-2.857t10-2.857q1.714-1.143 4-3.143t3.143-2.571 2.857 0.286 4.857 3.714q5.714-8 6.857-13.714 6.286-22.857 10.857-25.143 4-1.714 6.286-1.143t2.571 5.429 0 8-0.857 7.143l-0.571 4.571v10.286l-0.571 4.571q-8.571 1.714-10.571 6.857t0.857 10.571 8.571 10.571q0.571 0.571 4.571 2t8.857 3.714 7.143 4.571q12 10.857 8.571 20 4 0 6.286 5.143-0.571 0-2.857 1.714t-4.286 2.857-2.571 1.143q5.143 2.857 1.143 9.143 2.857 1.714 4.286 6.286t4.286 5.714q5.143-6.857 12-1.143 4 4.571 0.571 9.143 2.857 4 11.714 6t10.571 5.429q4-1.143 4.571 1.143t0.571 6.857 1.714 6.857q2.286 2.857 8.571 5.143t7.429 2.857l9.714 6.286q1.714 2.286 0 2.286 10.286-1.143 17.714 6.286 5.714 6.286-3.429 11.429 1.714 3.429-1.714 5.429t-8.571 3.143q1.714 0.571 6.571 0.286t6 0.857q8.571 5.714-4 9.143-9.714 2.857-24.571-6.857zM502.286 24q117.714 20.571 200.571 108-1.714 1.714-7.143 2.571t-7.143 2q-10.286 4-13.714 4.571 0.571 4-1.429 7.429t-4.571 5.143-7.143 4.571-6.286 4q-1.143 1.143-4 3.429t-4 3.143-4.286 2.571-4.857 1.143-5.714-0.571l-1.714-0.571q-1.714-0.571-3.143-1.429t-3.143-1.714-2.286-1.714 0-1.429q-12 9.714-20.571 12.571-2.857 0.571-6.286 3.143t-6 4-5.714 0.857-6.571-4q-2.857-2.857-3.429-8.571t-1.143-7.429q-4 2.857 0 10t1.143 10.571q-1.714 3.429-6 2.571t-6.857-2.571-6.571-4.857-5.143-3.714-4.857-3.143-4.857-4.286q-1.714-2.286-3.429-6.857t-2.857-6.286q-1.143 2.286-6.571 3.714t-5.429 3.143q1.143-5.714 2.286-20t2.857-21.714q4-17.714-6.857-27.429-15.429-14.286-16.571-22.857-2.286-12.571 6.857-14.857 0-4-4.571-11.714t-4-12.286q0-3.429 1.143-9.143z" />
<glyph unicode="&#xe643;" glyph-name="tool" horiz-adv-x="1015" d="M251.429 86.857q0 14.857-10.857 25.714t-25.714 10.857-25.714-10.857-10.857-25.714 10.857-25.714 25.714-10.857 25.714 10.857 10.857 25.714zM619.429 326.857l-389.714-389.714q-21.143-21.143-51.429-21.143-29.714 0-52 21.143l-60.571 61.714q-21.714 20.571-21.714 51.429 0 30.286 21.714 52l389.143 389.143q22.286-56 65.429-99.143t99.143-65.429zM981.714 575.429q0-22.286-13.143-60.571-26.857-76.571-94-124.286t-147.714-47.714q-105.714 0-180.857 75.143t-75.143 180.857 75.143 180.857 180.857 75.143q33.143 0 69.429-9.429t61.429-26.571q9.143-6.286 9.143-16t-9.143-16l-167.429-96.571v-128l110.286-61.143q2.857 1.714 45.143 27.714t77.429 46.286 40.286 20.286q8.571 0 13.429-5.714t4.857-14.286z" />
<glyph unicode="&#xe644;" glyph-name="finish" horiz-adv-x="1033" d="M516.571 205.714q0 20.571-11.429 39.429-0.571 0.571-8.857 12.857t-14.571 21.714-14.286 25.143-12 28.857q-2.286 9.143-12 9.143t-12-9.143q-4-13.143-12-28.857t-14.286-25.143-14.571-21.714-8.857-12.857q-11.429-18.857-11.429-39.429 0-30.286 21.429-51.714t51.714-21.429 51.714 21.429 21.429 51.714zM809.143 278.857q0-121.143-85.714-206.857t-206.857-85.714-206.857 85.714-85.714 206.857q0 82.857 46.286 157.143 3.429 5.143 35.714 51.714t57.714 86.286 56.857 101.714 47.429 115.143q5.143 17.143 19.429 26.857t29.143 9.714 29.429-9.714 19.143-26.857q16-53.143 47.429-115.143t56.857-101.714 57.714-86.286 35.714-51.714q46.286-72.571 46.286-157.143z" />
<glyph unicode="&#xe645;" glyph-name="plan" d="M516.736 874.667l-474.069-232.619v-470.784l469.333-277.931 469.333 277.931v470.784l-464.597 232.619zM469.333 17.749l-341.333 202.155v284.8l341.333-168.661v-318.295zM147.797 592.811l369.664 186.283 369.664-186.283-369.664-182.656-369.664 182.656zM896 219.904l-384-227.413v329.472l384 182.741v-284.8z" />
<glyph unicode="&#xe646;" glyph-name="creation" d="M321.008-128c-68.247 142.009-31.902 223.378 20.551 300.043 57.44 83.957 72.242 167.067 72.242 167.067s45.154-58.702 27.093-150.51c79.771 88.8 94.825 230.281 82.782 284.464 180.315-126.011 257.376-398.855 153.522-601.065 552.373 312.533 137.399 780.171 65.154 832.85 24.082-52.677 28.649-141.851-20-185.127-82.352 312.277-285.973 376.277-285.973 376.277 24.082-161.045-87.296-337.143-194.695-468.729-3.774 64.215-7.783 108.528-41.55 169.979-7.582-116.656-96.734-211.749-120.875-328.629-32.702-158.286 24.496-274.181 241.749-396.622z" />
<glyph unicode="&#xe647;" glyph-name="users" d="M734.994 90.626c-18.953 2.987-19.383 54.654-19.383 54.654s55.689 54.656 67.824 128.151c32.651 0 52.814 78.137 20.165 105.627 1.362 28.939 41.968 227.175-163.598 227.175-205.563 0-164.958-198.235-163.598-227.175-32.654-27.49-12.487-105.627 20.162-105.627 12.135-73.495 67.826-128.151 67.826-128.151s-0.432-51.666-19.383-54.654c-61.051-9.632-289.010-109.317-289.010-218.626h768c0 109.31-227.959 208.994-289.006 218.626zM344.055 73.191c44.094 27.15 97.625 52.309 141.538 67.424-15.753 22.432-33.294 52.937-44.329 89.063-15.406 12.567-27.945 30.533-35.998 52.601-8.066 22.105-11.122 46.853-8.608 69.685 1.803 16.391 6.478 31.666 13.65 45.088-4.35 46.585-7.415 138.034 52.448 204.731 23.214 25.865 52.555 44.459 87.701 55.687-6.277 64.759-39.163 140.768-166.457 140.768-205.563 0-164.958-198.235-163.598-227.175-32.654-27.49-12.487-105.627 20.162-105.627 12.135-73.495 67.826-128.151 67.826-128.151s-0.432-51.666-19.383-54.654c-61.049-9.637-289.008-109.321-289.008-218.631h329.595c4.711 3.074 9.506 6.139 14.459 9.191z" />
<glyph unicode="&#xe648;" glyph-name="user" d="M622.825 193.264c-22.11 3.518-22.615 64.313-22.615 64.313s64.969 64.315 79.127 150.802c38.089 0 61.618 91.945 23.522 124.297 1.593 34.053 48.962 267.323-190.859 267.323s-192.45-233.271-190.864-267.323c-38.094-32.35-14.569-124.297 23.522-124.297 14.158-86.487 79.127-150.802 79.127-150.802s-0.505-60.795-22.615-64.313c-71.218-11.333-337.17-128.633-337.17-257.264h896c0 128.631-265.952 245.931-337.175 257.264z" />
<glyph unicode="&#xe649;" glyph-name="workshop" d="M1024 512.425c0 23.255-19.2 42.24-42.665 42.24-11.735 0-22.4-4.713-30.080-12.375l-183.255-157.673v127.785c0 23.278-19.2 42.263-42.665 42.263-11.735 0-22.4-4.713-30.080-12.375l-183.255-157.673v127.785c0 23.278-19.2 42.263-42.665 42.263-11.735 0-22.4-4.713-30.080-12.375l-185.175-159.145-40.745 465.92c0 26.030-20.91 46.935-46.935 46.935h-76.8c-26.025 0-46.935-20.905-46.935-46.935l-42.665-891.73c0-47.145 38.185-85.335 85.335-85.335h853.335c47.145 0 85.335 38.185 85.335 85.335l-0.005 555.090zM405.335 237.44v-48.215c0-21.975-17.92-39.895-39.895-39.895h-48.215c-21.97 0.005-39.89 17.925-39.89 39.895v48.215c0 21.975 17.92 39.895 39.895 39.895h48.215c21.97 0 39.89-17.92 39.89-39.895zM661.335 237.44v-48.215c0-21.975-17.92-39.895-39.895-39.895h-48.215c-21.97 0.005-39.89 17.925-39.89 39.895v48.215c0 21.975 17.92 39.895 39.895 39.895h48.215c21.97 0 39.89-17.92 39.89-39.895zM917.335 237.44v-48.215c0-21.975-17.92-39.895-39.895-39.895h-48.215c-21.97 0.005-39.89 17.925-39.89 39.895v48.215c0 21.975 17.92 39.895 39.895 39.895h48.215c21.97 0 39.89-17.92 39.89-39.895z" />
<glyph unicode="&#xe64a;" glyph-name="info" horiz-adv-x="1006" d="M669.278 71.923v104.026q0 9.102-5.852 14.954t-14.954 5.852h-62.415v332.881q0 9.102-5.852 14.954t-14.954 5.852h-208.050q-9.102 0-14.954-5.852t-5.852-14.954v-104.026q0-9.102 5.852-14.954t14.954-5.852h62.415v-208.050h-62.415q-9.102 0-14.954-5.852t-5.852-14.954v-104.026q0-9.102 5.852-14.954t14.954-5.852h291.271q9.102 0 14.954 5.852t5.852 14.954zM586.058 654.466v104.026q0 9.102-5.852 14.954t-14.954 5.852h-124.83q-9.102 0-14.954-5.852t-5.852-14.954v-104.026q0-9.102 5.852-14.954t14.954-5.852h124.83q9.102 0 14.954 5.852t5.852 14.954zM1002.159 384q0-135.884-66.966-250.637t-181.719-181.719-250.637-66.966-250.637 66.966-181.719 181.719-66.966 250.637 66.966 250.637 181.719 181.719 250.637 66.966 250.637-66.966 181.719-181.719 66.966-250.637z" />
<glyph unicode="&#xe64b;" glyph-name="search" horiz-adv-x="951" d="M658.286 420.571q0 105.714-75.143 180.857t-180.857 75.143-180.857-75.143-75.143-180.857 75.143-180.857 180.857-75.143 180.857 75.143 75.143 180.857zM950.857-54.857q0-29.714-21.714-51.429t-51.429-21.714q-30.857 0-51.429 21.714l-196 195.429q-102.286-70.857-228-70.857-81.714 0-156.286 31.714t-128.571 85.714-85.714 128.571-31.714 156.286 31.714 156.286 85.714 128.571 128.571 85.714 156.286 31.714 156.286-31.714 128.571-85.714 85.714-128.571 31.714-156.286q0-125.714-70.857-228l196-196q21.143-21.143 21.143-51.429z" />
<glyph unicode="&#xe64c;" glyph-name="comment" d="M1024 448q0-99.429-68.571-183.714t-186.286-133.143-257.143-48.857q-40 0-82.857 4.571-113.143-100-262.857-138.286-28-8-65.143-12.571-9.714-1.143-17.429 5.143t-10 16.571v0.571q-1.714 2.286-0.286 6.857t1.143 5.714 2.571 5.429l3.429 5.143t4 4.857 4.571 5.143q4 4.571 17.714 19.714t19.714 21.714 17.714 22.571 18.571 29.143 15.429 33.714 14.857 43.429q-89.714 50.857-141.429 125.714t-51.714 160.571q0 74.286 40.571 142t109.143 116.857 163.429 78 198.857 28.857q139.429 0 257.143-48.857t186.286-133.143 68.571-183.714z" />
<glyph unicode="&#xe64d;" glyph-name="inspiration" horiz-adv-x="1001" d="M602.563 834c105.12-0.060 204.060-40.98 278.46-115.44 74.4-74.34 115.38-173.34 115.56-278.58l-0.18-127.86-120 0.060v127.92c0 73.14-28.5 141.84-80.22 193.62-51.72 51.72-120.42 80.22-193.56 80.22-146.28 0.12-273.72-127.32-273.72-273.66v-231.3l106.44 106.68 84.96-84.9-254.64-254.58-254.58 254.58 84.9 84.84 112.86-112.86v237.54c-0.060 210.36 183.42 393.66 393.72 393.72v0zM996.643 148.14l-120.12 0.12-0.060-120 120.12-0.12 0.060 120z" />
<glyph unicode="&#xe64e;" glyph-name="rebound" horiz-adv-x="1001" d="M398.437 834c-105.12-0.060-204.060-40.98-278.46-115.44-74.4-74.34-115.38-173.34-115.56-278.58l0.18-127.86 120 0.060v127.92c0 73.14 28.5 141.84 80.22 193.62 51.72 51.72 120.42 80.22 193.56 80.22 146.28 0.12 273.72-127.32 273.72-273.66v-231.3l-106.44 106.68-84.96-84.9 254.64-254.58 254.58 254.58-84.9 84.84-112.86-112.86v237.54c0.060 210.36-183.42 393.66-393.72 393.72v0zM4.357 148.14l120.12 0.12 0.060-120-120.12-0.12-0.060 120z" />
<glyph unicode="&#xe64f;" glyph-name="bullet" d="M768 384c0 70.699-28.672 134.699-74.965 181.035-46.336 46.293-110.336 74.965-181.035 74.965-70.656 0-134.656-28.672-180.992-74.965-46.336-46.336-75.008-110.336-75.008-181.035 0-70.656 28.672-134.656 75.008-180.992s110.336-75.008 180.992-75.008c70.699 0 134.699 28.672 181.035 75.008 46.293 46.336 74.965 110.336 74.965 180.992z" />
<glyph unicode="&#xe650;" glyph-name="thumb-up" d="M903.986 492.122c-20.246 7.457-130.076 21.024-201.068 28.997 11.133 64.987 16.208 124.534 16.208 187.243 0 71.406-58.098 129.454-129.454 129.454s-129.454-58.047-129.454-129.454c0-97.090-34.486-141.777-83.679-191.54-28.377 37.387-72.857 62.085-123.446 62.085-85.647 0-155.344-69.698-155.344-155.344v-310.689c0-85.647 69.698-155.344 155.344-155.344 39.095 0 74.462 15.017 101.75 38.94 3.314-3.21 6.059-7.301 9.734-9.995 49.711-38.112 189.884-80.726 302.818-80.726 97.298 0 135.046 15.171 168.446 28.636 5.386 2.123 10.719 4.35 16.364 6.369 43.185 15.793 81.609 63.536 89.892 113.92l34.486 309.344c8.958 53.697-22.939 110.035-72.598 128.107zM253.093 61.093c-28.531 0-51.781 23.198-51.781 51.781v310.689c0 28.583 23.249 51.781 51.781 51.781s51.781-23.198 51.781-51.781v-310.689c0-28.583-23.249-51.781-51.781-51.781zM839.622 68.86c-1.916-11.599-15.121-28.014-22.939-30.861-6.783-2.538-13.152-5.126-19.471-7.559-28.221-11.34-52.61-21.127-129.868-21.127-99.109 0-213.235 38.992-239.852 59.342-8.18 6.213-19.056 29.204-19.056 44.221v257.872c0.156 2.434 2.641 33.968 36.609 67.938 47.277 47.328 118.735 118.786 118.735 269.678 0 14.239 11.651 25.89 25.89 25.89s25.89-11.651 25.89-25.89c0-72.857-7.559-141.363-24.802-222.298l-15.379-72.288 68.404 9.734c31.225-2.589 203.657-23.146 224.421-28.48 3.004-1.553 6.834-9.476 5.748-16.725l-34.332-309.446z" />
<glyph unicode="&#xe651;" glyph-name="thumb-down" d="M770.907 778.471c-39.095 0-74.462-14.965-101.75-38.889-3.314 3.21-6.006 7.249-9.734 9.942-49.711 38.162-189.779 80.726-302.766 80.726-97.298 0-134.994-15.171-168.394-28.583-5.334-2.174-10.719-4.402-16.364-6.421-43.185-15.793-81.712-63.639-89.997-113.92l-34.384-309.238c-9.010-53.801 22.835-110.139 72.494-128.315 20.402-7.457 130.076-20.972 201.068-28.997-11.133-65.038-16.156-124.534-16.156-187.243 0-71.406 58.047-129.454 129.454-129.454s129.454 58.047 129.454 129.454c0 97.090 34.539 141.726 83.679 191.54 28.377-37.49 72.909-62.085 123.446-62.085 85.595 0 155.292 69.749 155.292 155.344v310.689c-0.052 85.749-69.698 155.447-155.344 155.447zM460.219 27.638c0-14.239-11.651-25.89-25.89-25.89s-25.89 11.651-25.89 25.89c0 93.465 13.257 167.824 24.802 222.298l15.379 72.391-68.404-9.734c-31.328 2.589-203.709 23.146-224.474 28.583-3.004 1.451-6.834 9.321-5.593 16.622l34.332 309.446c1.916 11.548 15.069 27.909 22.939 30.758 6.783 2.538 13.152 5.126 19.521 7.559 28.17 11.34 52.559 21.127 129.764 21.127 99.109 0 213.235-38.992 239.904-59.342 8.078-6.213 18.951-29.204 18.951-44.221v-257.717c-0.052-1.346-2.071-33.606-36.609-68.144-47.277-47.277-118.735-118.735-118.735-269.626zM822.689 312.437c0-28.583-23.198-51.781-51.781-51.781s-51.781 23.198-51.781 51.781v310.689c0 28.583 23.198 51.781 51.781 51.781s51.781-23.198 51.781-51.781v-310.689z" />
<glyph unicode="&#xe652;" glyph-name="proposal" d="M960 128h-448v-64h96q13 0 22.5-9.5t9.5-22.5-9.5-22.5-22.5-9.5h-256q-13 0-22.5 9.5t-9.5 22.5 9.5 22.5 22.5 9.5h96v64h-384q-27 0-45.5 18.5t-18.5 45.5v320q0 26 18.5 45t45.5 19h384v64h-96q-13 0-22.5 9.5t-9.5 22.5 9.5 22.5 22.5 9.5h256q13 0 22.5-9.5t9.5-22.5-9.5-22.5-22.5-9.5h-96v-64h448q27 0 45.5-19t18.5-45v-320q0-27-19-45.5t-45-18.5zM448 512h-384v-320h384v320zM960 512h-448v-320h448v320zM160 448q13 0 22.5-9.5t9.5-22.5v-128q0-13-9.5-22.5t-22.5-9.5-22.5 9.5-9.5 22.5v128q0 13 9.5 22.5t22.5 9.5z" />
<glyph unicode="&#xe653;" glyph-name="weight" d="M942-128h-860q-31 0-50 13t-25.5 32.5-6 45 5.5 47 12 42.5l90 490q14 47 55 72.5t89 25.5h80q-12 33-12 64 0 80 56 136t136 56 136-56 56-136q0-31-12-64h80q48 0 89-25.5t55-72.5l90-490q7-21 12-42.5t5.5-47-6-45-25.5-32.5-50-13zM512 768q-27 0-45.5-18.5t-18.5-45 18.5-45.5 45.5-19 45.5 19 18.5 45.5-18.5 45-45.5 18.5zM608 128h-32q-24 0-44 21t-20 43v64h32q13 0 22.5 9.5t9.5 22.5-9.5 22.5-22.5 9.5h-32v96q0 13-9.5 22.5t-22.5 9.5-22.5-9.5-9.5-22.5v-96h-32q-13 0-22.5-9.5t-9.5-22.5 9.5-22.5 22.5-9.5h32v-64q0-48 40-88t88-40h32q13 0 22.5 9.5t9.5 22.5-9.5 22.5-22.5 9.5z" />
<glyph unicode="&#xe654;" glyph-name="spotlight" d="M1025 433l-202-224 29-297q-3-20-19-31.5t-36-7.5l-279 119-279-119q-20-4-36 8t-19 31l29 297-202 224q-9 17-2.5 36t23.5 28l298 64 154 258q14 14 34 14t34-14l154-258 298-64q17-9 23.5-28t-2.5-36z" />
<glyph unicode="&#xe655;" glyph-name="move" d="M1013 362l-198-164q-11-8-29-5t-18 13v114h-193v-192h114q10 0 13.5-18t-5.5-29l-164-198q-9-11-21.5-11t-21.5 11l-164 198q-9 11-5.5 29t12.5 18h114v192h-191v-114q0-9-18-12.5t-29 4.5l-198 165q-11 9-11 21.5t11 21.5l198 164q11 9 29 5.5t18-12.5v-115h191v193h-113q-10 0-13.5 18t5.5 29l164 197q9 12 21.5 12t21.5-12l164-197q9-11 5.5-29t-12.5-18h-115v-193h193v114q0 10 18 13.5t29-5.5l198-164q11-9 11-22t-11-22z" />
<glyph unicode="&#xe656;" glyph-name="vimeo-square" d="M853.31 896h-682.62c-93.878 0-170.69-76.816-170.69-170.692v-682.62c0-93.938 76.812-170.688 170.69-170.688h682.62c93.878 0 170.69 76.75 170.69 170.69v682.618c0 93.876-76.812 170.692-170.69 170.692zM812.868 457.874c-33.958-191.296-223.708-353.296-280.78-390.31-57.088-37.006-109.154 14.822-128.038 53.994-21.616 44.708-86.41 286.94-103.368 307.020-16.964 20.038-67.876-20.080-67.876-20.080l-24.692 32.376c0 0 103.382 123.448 182.040 138.878 83.404 16.366 83.28-128.066 103.34-208.242 19.4-77.564 32.44-121.952 49.376-121.952 16.97 0 49.382 43.262 84.852 109.57 35.536 66.376-1.538 125.010-70.972 83.292 27.786 166.652 290.062 206.72 256.118 15.454z" />
<glyph unicode="&#xe657;" glyph-name="spinner" d="M960 320h-128c-35.376 0-64 28.624-64 64s28.624 64 64 64h128c35.376 0 64-28.624 64-64s-28.624-64-64-64zM783.5 565c-25-25-65.5-25-90.5 0s-25 65.5 0 90.5l90.5 90.5c25 25 65.5 25 90.5 0s25-65.5 0-90.5l-90.5-90.5zM512-128c-35.376 0-64 28.624-64 64v128c0 35.376 28.624 64 64 64s64-28.624 64-64v-128c0-35.376-28.624-64-64-64zM512 640c-35.376 0-64 28.624-64 64v128c0 35.376 28.624 64 64 64s64-28.624 64-64v-128c0-35.376-28.624-64-64-64zM240.5 22c-25-25-65.5-25-90.5 0-25 24.938-25 65.5 0 90.5l90.5 90.5c25 25 65.5 25 90.5 0s25-65.5 0-90.5l-90.5-90.5zM240.5 565l-90.5 90.5c-25 25-25 65.5 0 90.5s65.5 25 90.5 0l90.5-90.5c25-25 25-65.5 0-90.5s-65.5-25-90.5 0zM256 384c0-35.376-28.624-64-64-64h-128c-35.376 0-64 28.624-64 64s28.624 64 64 64h128c35.376 0 64-28.624 64-64zM783.5 203l90.5-90.5c25-25 25-65.562 0-90.5-25-25-65.5-25-90.5 0l-90.5 90.5c-25 25-25 65.5 0 90.5s65.5 25 90.5 0z" />
<glyph unicode="&#xe658;" glyph-name="rotate-left" d="M574.771 803.84c-227.584 0-412.672-182.374-418.253-409.344h-125.798l188.365-209.92 188.314 209.92h-146.227c5.53 169.011 143.77 304.384 313.6 304.384 173.414 0 313.907-140.954 313.907-314.88s-140.493-314.88-313.907-314.88c-69.478 0-133.683 22.733-185.702 61.082l-71.987-77.005c71.014-55.757 160.461-89.037 257.69-89.037 231.168 0 418.56 187.955 418.56 419.84-0.051 231.885-187.443 419.84-418.56 419.84z" />
<glyph unicode="&#xe659;" glyph-name="strikethrough" d="M1024 384v-64h-234.506c27.504-38.51 42.506-82.692 42.506-128 0-70.878-36.66-139.026-100.58-186.964-59.358-44.518-137.284-69.036-219.42-69.036-82.138 0-160.062 24.518-219.42 69.036-63.92 47.938-100.58 116.086-100.58 186.964h128c0-69.382 87.926-128 192-128s192 58.618 192 128c0 69.382-87.926 128-192 128h-512v64h299.518c-2.338 1.654-4.656 3.324-6.938 5.036-63.92 47.94-100.58 116.086-100.58 186.964s36.66 139.024 100.58 186.964c59.358 44.518 137.282 69.036 219.42 69.036 82.136 0 160.062-24.518 219.42-69.036 63.92-47.94 100.58-116.086 100.58-186.964h-128c0 69.382-87.926 128-192 128s-192-58.618-192-128c0-69.382 87.926-128 192-128 78.978 0 154.054-22.678 212.482-64h299.518z" />
<glyph unicode="&#xe65a;" glyph-name="rotate-right" d="M449.178 803.84c227.635 0 412.723-182.374 418.253-409.344h125.85l-188.365-209.971-188.365 209.971h146.227c-5.478 169.011-143.718 304.384-313.6 304.384-173.363 0-313.856-140.954-313.856-314.88s140.493-314.88 313.856-314.88c69.53 0 133.734 22.733 185.754 61.082l71.936-77.005c-71.014-55.757-160.461-89.037-257.69-89.037-231.117 0-418.458 187.955-418.458 419.84s187.341 419.84 418.458 419.84z" />
<glyph unicode="&#xe65b;" glyph-name="share" d="M768 87.040h-665.6v460.8h132.864c0 0 35.277 45.875 111.104 102.4h-295.168c-28.262 0-51.2-22.938-51.2-51.2v-563.2c0-28.314 22.938-51.2 51.2-51.2h768c28.314 0 51.2 22.886 51.2 51.2v191.795l-102.4-84.224v-56.371zM684.134 442.88v-181.76l339.866 266.291-339.866 255.949v-160.256c-412.774-0.051-412.774-408.064-412.774-408.064 116.838 191.898 188.723 227.84 412.774 227.84z" />
<glyph unicode="&#xe65c;" glyph-name="zoomin" d="M995.828-99.828c-37.566-37.562-98.452-37.562-136.016 0l-169.726 169.728c-69.778-44.732-152.262-71.436-241.32-71.436-247.83 0-448.766 200.908-448.766 448.768s200.936 448.768 448.766 448.768c247.862 0 448.768-200.906 448.768-448.768 0-89.058-26.704-171.542-71.436-241.35l169.728-169.696c37.564-37.564 37.564-98.448 0.002-136.014zM448.766 767.78c-177.022 0-320.548-143.526-320.548-320.548 0-177.052 143.526-320.548 320.548-320.548 177.054 0 320.548 143.496 320.548 320.548 0 177.022-143.494 320.548-320.548 320.548zM512.876 254.904h-128.218v128.218h-128.218v128.218h128.218v128.22h128.218v-128.22h128.22v-128.218h-128.22v-128.218z" />
<glyph unicode="&#xe65d;" glyph-name="zoomout" d="M995.828 36.188l-169.728 169.696c44.732 69.806 71.436 152.292 71.436 241.35 0 247.86-200.908 448.766-448.77 448.766-247.83 0-448.766-200.906-448.766-448.768s200.936-448.768 448.766-448.768c89.058 0 171.542 26.704 241.32 71.436l169.726-169.728c37.564-37.562 98.45-37.562 136.016 0 37.562 37.566 37.562 98.45 0 136.016zM448.766 126.684c-177.022 0-320.548 143.496-320.548 320.548 0 177.022 143.526 320.548 320.548 320.548 177.054 0 320.548-143.526 320.548-320.548 0-177.052-143.494-320.548-320.548-320.548zM256.438 383.124h384.658v128.218h-384.658v-128.218z" />
<glyph unicode="&#xe65e;" glyph-name="locate" d="M512.416-128v512.544h-512.416l1024 511.456-511.584-1024z" />
<glyph unicode="&#xe65f;" glyph-name="dailymotion-square" horiz-adv-x="1006" d="M445.324 548.1l40.406 39.128v9.894l-39.128-38.318zM589.212 374.398l-19.94 5.252 1.38-42.37 14.134-5.156-0.292 5.768 6.656 3.12zM565.328 529.546l17.92-9.222-0.686 27.072-17.234 9.434zM547.478 606.524l-17.938 9.23v-29.088l18.616-9.97zM549.362 565.308l-19.128 10.038-0.694-27.958 20.5-9.83zM589.212 420.19l-19.94 8.556 1.38-37.186 21.21-7.878zM423.398 375.7l55.014 38.448v8.564l-53.64-37.712zM439.26 504.336l44.48 43.77 0.608 10.706-43.002-44.512zM619.772 8.366l-0.034 0.486-0.064 0.11zM297.444 321.702l-0.308-1.416-1.126-0.93-10.176-8.38-64.744-234.51-0.158-0.332 27.022-26.518 67.792 321.916-9.168-8.614zM429.878 424.036l49.916 39.824 0.582 8.012 0.058 1.214-49.694-41.008zM434.61 463.85l47.148 45.186 0.702 9.16-46.478-43.704zM420.13 573.4l18.346-13.406-0.308-2.44-28.522-228.164-0.272-2.256-2.052-1-1.208-0.574-13.406-8.152-52.164-283.388 34.796-15.054 35.746 304.238 0.124 0.968v6.78l0.736-0.404 0.048 0.374 1.332-1.124 4.044-2.196 25.684-13.9-0.184-2.668-2.702-41.136-0.022-0.492-0.166-0.466-27.104-87.768-18.144-170.25 61.302-24.436 24.128 391.422 0.32 5.232 5.026-1.458 1.596-0.472 10.98 266.808-2.708 22.71-75.246-97.328zM482.602 422.712v-10.74l-1.796-1.258-62.972-44.016 1.42 9.624 1.39 9.294 0.252 1.776 1.478 1.034 60.23 42.352v-8.066zM484.61 472.886l-0.056-1.208-0.016-0.060v-0.056l-0.568-8.016-0.124-1.828-1.44-1.144-57.766-46.078 1.078 9.98 0.862 8.032 0.174 1.698 1.322 1.094 56.97 47.012-0.436-9.426zM486.638 517.876l-0.704-9.15-0.134-1.602-56.858-54.534 1.524 11.79 1.39 10.642 0.182 1.49 1.094 1.026 54.35 51.124-0.844-10.786zM488.526 558.566l-0.594-10.706-0.094-1.618-1.16-1.124-54.36-53.512 2.836 13.57 2.098 9.972 0.246 1.182 0.836 0.87 50.83 52.616-0.638-11.25zM489.914 597.122v-11.672l-50.14-48.578 1.406 11.716 1.268 10.708 0.184 1.46 1.042 1.036 46.242 45.292v-9.962zM569.272 318.696l1.38-43.1 17.3-5.818-2.142 41.934zM586.506 469.22l-19.128 9.22 1.212-36.442 20.622-8.544zM588.824 335.276l16.24-321.286 9.812-1.366-19.942 325.528zM947.22 828.382c-36.626 36.626-80.728 54.94-132.308 54.94h-624.15c-51.578-0.002-95.678-18.314-132.306-54.94-36.626-36.626-54.94-80.728-54.94-132.306v-624.15c0.002-51.58 18.316-95.682 54.94-132.308 36.624-36.624 80.728-54.938 132.306-54.938h624.15c51.58 0 95.682 18.312 132.308 54.938 36.624 36.626 54.938 80.728 54.938 132.308v624.15c0 51.578-18.312 95.678-54.938 132.306zM748.278 36.848l-31.118-5.986-22.494 5.986-1.376 0.618 2.022-15.832-75.574-12.782 0.63-1.214-19.248 2.678v-7.328l-141.248-22.53-69.626 27.748 0.67 7.974-2.432-0.662 0.446 0.088-10.004-2.764-43.11 18.65 3.286 17.814-88.102-8.538-0.736 0.742-34.38 33.742 1.27 2.682 64.992 235.444 11.204 9.224 9.404 42.494 19.826 18.458 0.036 0.124 0.080-0.014 0.026 0.014v-0.014l58.152-11.968 13.984 84.91 11.978 17.852 16.398-2.534 10.766 86.136-19.824 14.48 84.146 108.83v0.108l5.37-3.49 9.876 109.554 7.32-120.694 107.434-69.676-26.568-25.856 17.21-167.014 51.156-19.944 7.238-44.45 27.854 10.642 24.644-9.366 60.262-291.128-42.768-7.886 0.928-5.322zM583.848 508.948l-18.52 9.354 1.34-29.158 19.23-8.62zM680.728 303.398l-2.408 0.816-0.386 2.522-11.588 74.598-42.518 16.566 5.736-56.636 21.848-5.236 0.324-2.918 30.69-263.464 9.646 2.054 0.696-4.364 4.268-26.778 20.28-5.406 26.114 5.034-45.138 257.338zM530.234 363.92l20.482-6.156-0.674-15.224 4.684-1.35v43.106l-24.492 10.036zM530.744 446.044l-0.51-38.448 24.492-9.302-1.326 38.46zM551.348 497.098l-1.308 29.226-20.5 9.892 0.694-29.156zM579.872 589.288l-16.532 8.544 0.678-29.824 17.234-8.626zM530.234 497.088v-38.522l22.488-9.228-1.374 37.78z" />
<glyph unicode="&#xe660;" glyph-name="eye-blocked" d="M839.322 599.584c77.644-55.030 141.37-129.092 184.678-215.584-95.122-189.958-288.686-320-512-320-62.566 0-122.792 10.212-179.178 29.084l77.956 77.956c33.058-7.3 66.972-11.040 101.222-11.040 89.558 0 176.854 25.486 252.446 73.704 60.162 38.376 111.144 89.776 149.436 150.298-37.052 58.566-86.014 108.55-143.65 146.494l69.090 69.088zM512 198c-22.724 0-44.752 2.976-65.728 8.534l313.186 313.184c5.562-20.972 8.542-42.994 8.542-65.718 0-141.384-114.616-256-256-256zM960 896h-53.738l-219.612-219.612c-55.076 17.924-113.754 27.612-174.65 27.612-223.318 0-416.882-130.042-512-320 42.658-85.192 105.128-158.308 181.194-213.068l-181.194-181.194v-53.738h53.738l906.262 906.262v53.738zM416 582c48.044 0 87.846-35.294 94.892-81.37l-109.524-109.524c-46.074 7.048-81.368 46.85-81.368 94.894 0 53.020 42.98 96 96 96zM110.116 384c38.292 60.524 89.274 111.924 149.434 150.296 3.918 2.5 7.876 4.922 11.858 7.3-9.958-27.328-15.408-56.822-15.408-87.596 0-58.524 19.65-112.448 52.698-155.562l-58.55-58.55c-56.072 37.642-103.754 86.772-140.032 144.112z" />
<glyph unicode="&#xe661;" glyph-name="filter" d="M0 768l384-384v-384l256 64v320l384 384z" />
<glyph unicode="&#xe662;" glyph-name="emoji" d="M512-128c282.77 0 512 229.23 512 512s-229.23 512-512 512-512-229.23-512-512 229.23-512 512-512zM512 800c229.75 0 416-186.25 416-416s-186.25-416-416-416-416 186.25-416 416 186.25 416 416 416zM256 576c0 35.346 28.654 64 64 64s64-28.654 64-64c0-35.346-28.654-64-64-64s-64 28.654-64 64zM640 576c0 35.346 28.654 64 64 64s64-28.654 64-64c0-35.346-28.654-64-64-64s-64 28.654-64 64zM704.098 268.74l82.328-49.396c-55.962-93.070-157.916-155.344-274.426-155.344s-218.464 62.274-274.426 155.344l82.328 49.396c39.174-65.148 110.542-108.74 192.098-108.74s152.924 43.592 192.098 108.74z" />
<glyph unicode="&#xe663;" glyph-name="fullscreen" d="M356.75 320.376l-210.562-210.564-82.188 82.188c-35.376 0-64-28.624-64-64v-192c0-35.376 28.624-64 64-64h192c35.376 0 64 28.624 64 64l-82.188 82.124 210.562 210.624-91.624 91.628zM960 896h-192c-35.376 0-64-28.656-64-64l82.188-82.188-210.564-210.562 91.624-91.624 210.562 210.532 82.19-82.158c35.376 0 64 28.624 64 64v192c0 35.344-28.624 64-64 64zM960 192l-82.188-82.188-210.562 210.564-91.624-91.624 210.562-210.624-82.188-82.128c0-35.376 28.624-64 64-64h192c35.376 0 64 28.624 64 64v192c0 35.376-28.624 64-64 64zM320 832c0 35.344-28.624 64-64 64h-192c-35.376 0-64-28.656-64-64v-192c0-35.376 28.624-64 64-64l82.188 82.156 210.562-210.532 91.624 91.624-210.562 210.564 82.188 82.188z" />
<glyph unicode="&#xe664;" glyph-name="anchor" d="M945.868 78.172c-94.126-127.528-257.996-207.65-433.868-206.15-175.872-1.5-339.744 78.624-433.868 206.15l-78.122-78.154v255.994h255.994l-70.374-70.34c56.438-93.438 150.874-160.592 262.37-179.624v387.026c-110.246 28.53-191.996 127.778-191.996 246.932 0 141.37 114.624 255.994 255.996 255.994 141.37 0 255.996-114.624 255.996-255.996 0-119.154-81.75-218.402-191.996-246.932v-387.024c111.496 19.032 205.934 86.186 262.368 179.624l-70.372 70.34h255.992v-255.994l-78.12 78.154zM639.996 640.004c0 70.686-57.308 127.998-127.996 127.998s-127.998-57.312-127.998-127.998c0-70.686 57.31-127.998 127.998-127.998 70.688 0.002 127.996 57.314 127.996 127.998z" />
<glyph unicode="&#xe665;" glyph-name="google-plus" d="M559.066 832c0 0-200.956 0-267.94 0-120.12 0-233.17-91.006-233.17-196.422 0-107.726 81.882-194.666 204.088-194.666 8.498 0 16.756 0.17 24.842 0.752-7.93-15.186-13.602-32.288-13.602-50.042 0-29.938 16.104-54.21 36.468-74.024-15.386 0-30.242-0.448-46.452-0.448-148.782 0.002-263.3-94.758-263.3-193.020 0-96.778 125.542-157.314 274.334-157.314 169.624 0 263.306 96.244 263.306 193.028 0 77.6-22.896 124.072-93.686 174.134-24.216 17.144-70.53 58.836-70.53 83.344 0 28.72 8.196 42.868 51.428 76.646 44.312 34.624 75.672 83.302 75.672 139.916 0 67.406-30.020 133.098-86.372 154.772h84.954l59.96 43.344zM465.48 176.542c2.126-8.972 3.284-18.206 3.284-27.628 0-78.2-50.392-139.31-194.974-139.31-102.842 0-177.116 65.104-177.116 143.3 0 76.642 92.126 140.444 194.964 139.332 24-0.254 46.368-4.116 66.67-10.69 55.826-38.826 95.876-60.762 107.172-105.004zM300.818 468.224c-69.038 2.064-134.636 77.226-146.552 167.86-11.916 90.666 34.37 160.042 103.388 157.99 69.010-2.074 134.638-74.814 146.558-165.458 11.906-90.66-34.39-162.458-103.394-160.392zM832 640v192h-64v-192h-192v-64h192v-192h64v192h192v64z" />
<glyph unicode="&#xe666;" glyph-name="facebook" d="M575.87-128h-191.87v512h-128v176.45l128 0.058-0.208 103.952c0 143.952 39.034 231.54 208.598 231.54h141.176v-176.484h-88.23c-66.032 0-69.206-24.656-69.206-70.684l-0.262-88.324h158.69l-18.704-176.45-139.854-0.058-0.13-512z" />
<glyph unicode="&#xe667;" glyph-name="twitter" d="M1024 701.582c-37.676-16.708-78.164-28.002-120.66-33.080 43.372 26 76.686 67.17 92.372 116.23-40.596-24.078-85.556-41.56-133.41-50.98-38.32 40.83-92.922 66.34-153.346 66.34-116.022 0-210.088-94.058-210.088-210.078 0-16.466 1.858-32.5 5.44-47.878-174.6 8.764-329.402 92.4-433.018 219.506-18.084-31.028-28.446-67.116-28.446-105.618 0-72.888 37.088-137.192 93.46-174.866-34.438 1.092-66.832 10.542-95.154 26.278-0.020-0.876-0.020-1.756-0.020-2.642 0-101.788 72.418-186.696 168.522-206-17.626-4.8-36.188-7.372-55.348-7.372-13.538 0-26.698 1.32-39.528 3.772 26.736-83.46 104.32-144.206 196.252-145.896-71.9-56.35-162.486-89.934-260.916-89.934-16.958 0-33.68 0.994-50.116 2.94 92.972-59.61 203.402-94.394 322.042-94.394 386.422 0 597.736 320.124 597.736 597.744 0 9.108-0.206 18.168-0.61 27.18 41.056 29.62 76.672 66.62 104.836 108.748z" />
</font>
</defs>
</svg>
