<?xml version="1.0" standalone="no"?>
<!DOCTYPE svg PUBLIC "-//W3C//DTD SVG 1.1//EN" "http://www.w3.org/Graphics/SVG/1.1/DTD/svg11.dtd" >
<svg xmlns="http://www.w3.org/2000/svg">
<metadata>Generated by IcoMoon</metadata>
<defs>
<font id="ladbcc" horiz-adv-x="1024">
<font-face units-per-em="1024" ascent="960" descent="-64" />
<missing-glyph horiz-adv-x="1024" />
<glyph unicode="&#x20;" horiz-adv-x="512" d="" />
<glyph unicode="&#xe900;" horiz-adv-x="1635" d="M89.138 960h1456.645c48.029 0 86.964-38.935 86.964-86.964v-850.072c0-48.029-38.935-86.964-86.964-86.964h-1456.645c-48.029 0-86.964 38.935-86.964 86.964v850.072c0 48.029 38.935 86.964 86.964 86.964z" />
<glyph unicode="&#xe901;" horiz-adv-x="1635" d="M2.181 479.122h78.32l17.66 42.417h39.536l17.61-42.417h154.1v32.427l13.758-32.568h79.998l13.753 33.053v-32.911h382.967l-0.174 69.628h7.407c5.187-0.178 6.703-0.652 6.703-9.186v-60.44h198.073v16.208c15.98-8.522 40.83-16.208 73.528-16.208h83.327l17.832 42.417h39.536l17.436-42.417h160.579v40.29l24.322-40.29h128.678v266.34h-127.348v-31.455l-17.832 31.455h-130.674v-31.455l-16.375 31.455h-176.511c-29.546 0-55.518-4.109-76.498-15.551v15.547h-121.806v-15.551c-13.349 11.794-31.542 15.549-51.77 15.549h-445.005l-29.859-68.788-30.663 68.788h-140.164v-31.455l-15.399 31.455h-119.538l-55.513-126.626v-139.708h0.007zM496.562 517.539h-46.993l-0.174 149.565-66.469-149.565h-40.245l-66.64 149.695v-149.695h-93.234l-17.61 42.595h-95.443l-17.793-42.593h-49.787l82.085 190.966h68.106l77.963-180.807v180.804h74.811l59.992-129.548 55.107 129.548h76.32v-190.966h0.007zM149.526 599.769l-31.372 76.13-31.198-76.13h62.571zM683.575 517.545h-153.13v190.964h153.128v-39.764h-107.292v-34.425h104.718v-39.147h-104.711v-38.138h107.292v-39.495zM899.366 657.079c0-30.448-20.406-46.178-32.298-50.902 10.027-3.8 18.593-10.518 22.671-16.082 6.472-9.501 7.588-17.98 7.588-35.038v-37.512h-46.232l-0.174 24.082c0 11.49 1.104 28.015-7.235 37.203-6.696 6.718-16.908 8.175-33.412 8.175h-49.206v-69.462h-45.832v190.968h105.435c23.426 0 40.686-0.615 55.505-9.146 14.501-8.531 23.198-20.984 23.198-42.286zM841.421 628.722c-6.301-3.809-13.749-3.935-22.676-3.935h-55.681v42.417h56.444c7.988 0 16.323-0.357 21.737-3.444 5.946-2.783 9.625-8.703 9.625-16.882 0-8.349-3.5-15.066-9.444-18.154zM972.88 517.543h-46.774v190.966h46.771v-190.966zM1515.84 517.543h-64.962l-86.886 143.332v-143.332h-93.356l-17.836 42.595h-95.225l-17.306-42.595h-53.635c-22.285 0-50.493 4.907-66.469 21.121-16.11 16.219-24.493 38.177-24.493 72.906 0 28.322 5.009 54.213 24.711 74.674 14.819 15.24 38.025 22.269 69.615 22.269h44.378v-40.917h-43.447c-16.728 0-26.176-2.478-35.273-11.314-7.814-8.044-13.175-23.245-13.175-43.26 0-20.458 4.083-35.212 12.603-44.847 7.057-7.557 19.882-9.849 31.948-9.849h20.589l64.603 150.178h68.684l77.607-180.624v180.624h69.795l80.579-132.998v132.994h46.952v-190.96zM1237.207 599.767l-31.72 76.133-31.546-76.13h63.266zM1632.652 212.617c-11.131-16.214-32.829-24.437-62.201-24.437h-88.529v40.96h88.168c8.744 0 14.864 1.148 18.549 4.731 3.196 2.952 5.42 7.244 5.42 12.458 0 5.566-2.226 9.979-5.598 12.632-3.326 2.913-8.168 4.239-16.154 4.239-43.038 1.457-96.734-1.326-96.734 59.12 0 27.705 17.665 56.868 65.766 56.868h91.308v38.003h-84.833c-25.602 0-44.199-6.105-57.37-15.597v15.599h-125.48c-20.067 0-43.619-4.953-54.759-15.597v15.599h-224.073v-15.597c-17.834 12.81-47.924 15.599-61.81 15.599h-147.804v-15.597c-14.11 13.606-45.482 15.599-64.605 15.599h-165.416l-37.851-40.79-35.453 40.793h-247.099v-266.523h242.449l39.003 41.434 36.742-41.438 149.447-0.13v62.697h14.688c19.828-0.304 43.217 0.491 63.849 9.37v-71.93h123.267v69.469h5.946c7.588 0 8.335-0.311 8.335-7.862v-61.599h374.449c23.776 0 48.626 6.059 62.388 17.056v-17.058h118.775c24.719 0 48.852 3.45 67.219 12.284v49.656zM890.191 315.134c0-53.061-39.756-64.016-79.824-64.016h-57.194v-64.071h-89.095l-56.446 63.236-58.657-63.234h-181.574v191.016h184.363l56.396-62.614 58.309 62.614h146.469c36.379 0 77.252-10.031 77.252-62.931zM525.758 227.227h-112.705v38.003h100.639v38.975h-100.639v34.727h114.923l50.141-55.666-52.357-56.042zM707.351 205.355l-70.376 77.807 70.376 75.337v-153.143zM811.432 290.289h-59.238v48.641h59.77c16.549 0 28.037-6.718 28.037-23.422 0-16.519-10.957-25.22-28.568-25.22zM1121.769 378.059h152.991v-39.503h-107.34v-34.727h104.72v-38.973h-104.72v-38.003l107.34-0.174v-39.634h-152.991v191.014zM1062.953 275.811c10.203-3.748 18.545-10.47 22.458-16.034 6.47-9.327 7.407-18.030 7.592-34.866v-37.866h-46.026v23.898c0 11.492 1.113 28.507-7.407 37.39-6.696 6.842-16.908 8.479-33.629 8.479h-48.989v-69.767h-46.060v191.016h105.831c23.206 0 40.108-1.022 55.157-9.016 14.464-8.705 23.563-20.628 23.563-42.417-0.007-30.49-20.426-46.047-32.492-50.815zM1037.045 299.966c-6.131-3.624-13.719-3.935-22.637-3.935h-55.685v42.901h56.444c8.162 0 16.327-0.174 21.876-3.45 5.935-3.094 9.49-9.009 9.49-17.182 0-8.175-3.552-14.758-9.492-18.334zM1450.851 287.797c8.927-9.196 13.71-20.81 13.71-40.469 0-41.095-25.778-60.275-72.006-60.275h-89.281v40.96h88.921c8.696 0 14.862 1.146 18.726 4.729 3.152 2.957 5.414 7.248 5.414 12.458 0 5.566-2.446 9.986-5.594 12.632-3.505 2.918-8.34 4.239-16.323 4.239-42.867 1.461-96.552-1.322-96.552 59.122 0 27.707 17.48 56.87 65.536 56.87h91.899v-40.656h-84.096c-8.335 0-13.756-0.311-18.365-3.45-5.022-3.092-6.883-7.683-6.883-13.74 0-7.207 4.261-12.11 10.027-14.229 4.835-1.674 10.029-2.165 17.838-2.165l24.676-0.663c24.885-0.609 41.967-4.892 52.348-15.364zM1632.747 338.932h-83.544c-8.34 0-13.882-0.311-18.549-3.45-4.833-3.094-6.696-7.683-6.696-13.745 0-7.205 4.083-12.11 10.023-14.227 4.837-1.674 10.031-2.165 17.667-2.165l24.843-0.661c25.067-0.617 41.804-4.909 52.004-15.375 1.861-1.457 2.979-3.092 4.255-4.729v54.352z" />
<glyph unicode="&#xe902;" horiz-adv-x="1631" d="M86.964 960h1456.645c48.029 0 86.964-38.935 86.964-86.964v-850.072c0-48.029-38.935-86.964-86.964-86.964h-1456.645c-48.029 0-86.964 38.935-86.964 86.964v850.072c0 48.029 38.935 86.964 86.964 86.964z" />
<glyph unicode="&#xe903;" horiz-adv-x="1631" d="M1271.704 442.68c0 216.138-180.407 365.538-378.065 365.466h-170.108c-200.024 0.072-364.661-149.371-364.661-365.466 0-197.691 164.638-360.118 364.661-359.17h170.106c197.654-0.95 378.063 161.518 378.063 359.167z" />
<glyph unicode="&#xe904;" horiz-adv-x="1631" d="M724.583 777.528c-182.776-0.059-330.885-148.508-330.928-331.724 0.043-183.185 148.152-331.622 330.928-331.68 182.82 0.059 330.959 148.495 330.985 331.68-0.026 183.216-148.165 331.665-330.985 331.724z" />
<glyph unicode="&#xe905;" horiz-adv-x="1631" d="M515.405 446.7c0.174 89.529 55.974 165.875 134.664 196.212v-392.381c-78.689 30.322-134.49 106.626-134.664 196.169zM800.211 250.433v392.481c78.718-30.263 134.607-106.655 134.751-196.228-0.143-89.599-56.033-165.931-134.751-196.256z" />
<glyph unicode="&#xe906;" horiz-adv-x="1594" d="M112.399 960c-62.063 0-112.399-50.342-112.399-112.423v-799.153c0-62.094 50.321-112.423 112.399-112.423h1369.454c62.063 0 112.399 50.342 112.399 112.423v799.153c0 62.094-50.321 112.423-112.399 112.423h-1369.454z" />
<glyph unicode="&#xe907;" horiz-adv-x="1594" d="M848.489 630.495c63.239 0 114.504-48.195 114.504-107.735v-0.065c0-59.539-51.261-107.8-114.5-107.8s-114.506 48.263-114.506 107.8v0.067c0 59.539 51.261 107.735 114.5 107.735zM668.67 629.105c18.062 0 33.209-3.646 51.646-12.447v-46.499c-17.463 16.069-32.611 22.796-52.643 22.796-39.374 0-70.339-30.689-70.339-69.595 0-41.032 30.005-69.894 72.293-69.894 19.033 0 33.9 6.377 50.689 22.191v-46.524c-19.090-8.462-34.563-11.806-52.643-11.806-63.929 0-113.605 46.184-113.605 105.746 0 58.916 50.996 106.032 114.602 106.032zM470.18 627.823c23.597 0 45.191-7.603 63.243-22.471l-21.968-27.078c-10.935 11.54-21.277 16.409-33.855 16.409-18.095 0-31.272-9.698-31.272-22.463 0-10.941 7.399-16.734 32.588-25.508 47.756-16.443 61.91-31.020 61.91-63.212 0-39.231-30.61-66.538-74.235-66.538-31.946 0-55.173 11.844-74.517 38.573l27.119 24.588c9.668-17.598 25.798-27.025 45.825-27.025 18.728 0 32.594 12.165 32.594 28.582 0 8.511-4.198 15.808-12.584 20.966-4.223 2.442-12.586 6.085-29.024 11.542-39.427 13.363-52.958 27.648-52.958 55.564 0 33.162 29.052 58.068 67.134 58.068zM949.931 624.292h45.863l57.399-136.108 58.141 136.108h45.51l-92.986-207.837h-22.587l-91.342 207.837zM137.786 623.981h61.624c68.087 0 115.551-41.659 115.551-101.46 0-29.821-14.52-58.654-39.076-77.787-20.66-16.147-44.202-23.393-76.798-23.393h-61.299v202.64zM334.278 623.981h41.982v-202.64h-41.982v202.64zM1175.824 623.981h119.062v-34.338h-77.102v-44.976h74.266v-34.317h-74.266v-54.701h77.107v-34.307h-119.062v202.64zM1322.695 623.981h62.249c48.42 0 76.166-21.89 76.166-59.829 0-31.027-17.4-51.384-49.023-57.444l67.752-85.366h-51.629l-58.108 81.405h-5.472v-81.405h-41.933v202.64zM1364.628 592.063v-61.368h12.268c26.81 0 41.021 10.955 41.021 31.327 0 19.72-14.215 30.039-40.359 30.039h-12.93zM179.742 589.643v-133.995h11.262c27.131 0 44.265 4.893 57.454 16.106 14.52 12.171 23.254 31.609 23.254 51.057 0 19.417-8.734 38.272-23.252 50.444-13.866 11.814-30.323 16.392-57.454 16.392h-11.262z" />
<glyph unicode="&#xe908;" horiz-adv-x="1594" d="M1594.215 370.617c-53.244-37.469-451.862-305.238-1142.044-434.585h1029.645c62.063 0 112.399 50.342 112.399 112.423v322.161z" />
<glyph unicode="&#xe909;" horiz-adv-x="1631" d="M86.964 960h1456.645c48.029 0 86.964-38.935 86.964-86.964v-850.072c0-48.029-38.935-86.964-86.964-86.964h-1456.645c-48.029 0-86.964 38.935-86.964 86.964v850.072c0 48.029 38.935 86.964 86.964 86.964z" />
<glyph unicode="&#xe90a;" horiz-adv-x="1631" d="M1341.947 206.097c0-90.475-73.328-163.84-163.84-163.84h-889.48v647.62c0 90.501 73.339 163.866 163.851 163.866h889.467v-647.646z" />
<glyph unicode="&#xe90b;" horiz-adv-x="1631" d="M1051.959 433.771c25.4-0.55 50.952 1.122 76.259-0.87 25.626-4.783 31.803-43.575 9.036-56.283-15.523-8.37-33.988-3.113-50.83-4.594h-34.464v61.744zM1142.901 503.657c5.644-19.926-13.562-37.812-32.755-35.068h-58.188c0.4 18.789-0.804 39.177 0.587 56.979 23.317-0.652 46.852 1.339 70.028-1.044 9.962-2.5 18.293-10.688 20.332-20.867zM1282.979 799.123c1.083-38.047 0.152-78.109 0.465-116.929-0.076-157.831 0.157-315.666-0.12-473.497-1.022-59.151-53.446-110.54-112.183-111.72-58.803-0.239-117.61-0.035-176.413-0.102v238.607c64.071 0.335 128.185-0.667 192.227 0.504 29.713 1.87 62.249 21.471 63.636 54.168 3.5 32.833-27.463 55.548-56.859 59.135-11.299 0.296-10.964 3.296 0 4.605 28.031 6.061 50.048 35.077 41.801 64.136-7.035 30.563-40.814 42.395-68.912 42.334-57.287 0.391-114.597 0.057-171.891 0.167 0.374 44.543-0.77 89.138 0.622 133.648 4.537 58.083 58.279 105.981 116.199 104.944h171.428z" />
<glyph unicode="&#xe90c;" horiz-adv-x="1631" d="M347.29 688.151c1.465 59.055 54.113 110.031 112.781 110.894 58.579 0.18 117.162 0.026 175.748 0.078-0.161-197.593 0.322-395.201-0.243-592.785-2.257-58.34-54.331-108.344-112.357-109.372-58.69-0.217-117.388-0.030-176.080-0.091v246.66c57.009-13.469 116.793-19.204 174.954-10.266 34.77 5.598 72.806 22.663 84.577 58.731 8.666 30.855 3.787 63.323 5.074 94.991v73.537h-100.656c-0.45-48.635 0.928-97.356-0.726-145.936-2.713-29.859-32.277-48.83-60.44-47.819-34.929-0.37-104.135 25.306-104.135 25.306-0.174 91.132 1.013 205.252 1.504 296.073z" />
<glyph unicode="&#xe90d;" horiz-adv-x="1631" d="M673.362 530.855c-5.292-1.124-1.065 18.045-2.422 25.32 0.361 45.982-0.752 92.014 0.617 137.964 4.529 58.331 58.679 106.348 116.836 104.983h171.243c-0.161-197.591 0.32-395.197-0.243-592.781-2.261-58.34-54.335-108.342-112.357-109.375-58.696-0.217-117.397-0.033-176.095-0.093v270.234c40.090-32.89 94.573-38.012 144.517-38.101 37.649 0.013 75.080 5.816 111.64 14.501v49.511c-41.206-20.539-89.645-33.581-135.322-21.78-31.864 7.935-54.992 38.721-54.474 71.606-3.696 34.194 16.356 70.299 49.961 80.463 41.721 13.066 87.199 3.074 126.306-13.908 8.381-4.385 16.882-9.827 13.527 4.179v38.916c-65.406 15.56-135.011 21.289-200.734 4.357-19.017-5.366-37.547-13.501-53-25.994z" />
<glyph unicode="&#xe90e;" horiz-adv-x="1631" d="M86.964 960h1456.645c48.029 0 86.964-38.935 86.964-86.964v-850.072c0-48.029-38.935-86.964-86.964-86.964h-1456.645c-48.029 0-86.964 38.935-86.964 86.964v850.072c0 48.029 38.935 86.964 86.964 86.964z" />
<glyph unicode="&#xe90f;" horiz-adv-x="1631" d="M1467.516 447.987c0-215.527-174.689-390.242-390.214-390.242-215.497 0-390.207 174.715-390.207 390.242 0 215.54 174.71 390.268 390.207 390.268 215.525 0 390.214-174.726 390.214-390.268z" />
<glyph unicode="&#xe910;" horiz-adv-x="1631" d="M775.87 200.175c-10.777 13.073-20.706 26.872-29.729 41.33h138.299c8.299 13.251 15.79 27.046 22.485 41.33h-183.259c-6.24 13.371-11.794 27.161-16.514 41.308h216.271c13.016 38.927 20.067 80.55 20.067 123.845 0 28.363-3.029 56.009-8.762 82.642h-238.853c3.026 14.088 6.831 27.865 11.323 41.33h216.197c-4.746 14.147-10.262 27.937-16.506 41.314h-183.174c6.683 14.262 14.193 28.052 22.474 41.323h138.207c-9.012 14.414-18.967 28.209-29.72 41.29h-78.757c12.11 14.708 25.285 28.513 39.377 41.308-69.254 62.792-161.181 101.056-262.016 101.056-215.518 0.004-390.222-174.721-390.222-390.264 0-215.527 174.706-390.242 390.222-390.242 100.852 0 192.771 38.255 262.016 101.041 14.123 12.81 27.307 26.65 39.425 41.388h-78.85z" />
<glyph unicode="&#xe911;" horiz-adv-x="1631" d="M1415.501 230.495c0 6.957 5.644 12.601 12.61 12.601 6.957 0 12.592-5.644 12.592-12.601 0-6.966-5.635-12.61-12.592-12.61-6.966 0-12.61 5.644-12.61 12.61zM1428.11 220.911c5.29 0 9.575 4.276 9.575 9.583 0 5.292-4.287 9.557-9.577 9.557s-9.583-4.266-9.583-9.557c0-5.305 4.294-9.583 9.583-9.583zM1426.399 224.959h-2.574v11.071h4.674c0.97 0 1.965-0.009 2.826-0.561 0.907-0.617 1.404-1.685 1.404-2.761 0-1.27-0.733-2.422-1.913-2.865l2.031-4.883h-2.861l-1.685 4.37h-1.902v-4.37zM1426.399 231.221h1.431c0.535 0 1.096-0.037 1.576 0.217 0.428 0.283 0.652 0.796 0.652 1.283 0 0.413-0.27 0.909-0.624 1.117-0.461 0.272-1.174 0.217-1.657 0.217h-1.374v-2.835zM809.734 342.543c-16.675-4.422-32.803-6.577-49.852-6.544-54.387 0.057-82.714 24.824-82.714 72.18 0 55.353 36.064 96.063 85.007 96.063 40.043 0 65.606-22.828 65.606-58.585 0-11.866-1.731-23.415-5.97-39.777h-96.721c-3.442-23.117 13.453-33.272 42.206-33.272 17.23 0 32.811 3.098 50.059 10.027l-7.618-40.090zM783.725 438.53c0 3.496 5.381 28.335-22.611 28.879-15.453 0-26.541-10.273-31.024-28.879h53.635zM842.5 449.381c0-20.445 11.514-34.568 37.677-45.084 20.002-8.196 23.154-10.562 23.154-17.871 0-10.138-8.844-14.795-28.465-14.669-14.74 0.109-28.181 1.896-44.052 6.298l-7.022-37.294c14.106-3.27 33.89-4.348 51.417-4.757 52.235 0 76.348 17.104 76.348 54.063 0 22.213-10.057 35.292-34.859 45.032-20.737 8.279-23.172 10.081-23.172 17.573 0 8.805 8.218 13.262 24.241 13.262 9.701 0 23.002-0.898 35.612-2.409l7.081 37.481c-12.853 1.796-32.357 3.229-43.645 3.229-55.331 0-74.48-24.915-74.317-54.852zM650.653 338.675h-40.573l0.967 17.001c-12.371-13.414-28.85-19.654-51.217-19.654-26.47 0-44.606 18.097-44.606 44.123 0 39.558 31.524 62.375 85.725 62.375 5.57 0 12.653-0.413 19.928-1.217 1.5 5.287 1.909 7.562 1.909 10.451 0 10.827-8.522 14.812-31.333 14.812-22.485-0.091-37.655-3.413-51.735-7.203l6.929 36.307c24.341 6.187 40.286 8.57 58.32 8.57 41.971 0 64.136-16.454 64.136-47.389 0.363-8.253-2.518-24.813-3.957-32.059-1.652-10.553-13.284-71.691-14.495-86.12zM615.041 410.834c-5.144 0.528-7.381 0.683-10.897 0.683-27.676 0-41.706-8.24-41.706-24.498 0-10.201 6.848-16.595 17.519-16.595 19.884 0 34.242 16.632 35.086 40.408zM1037.053 341.239c-13.316-3.652-23.689-5.24-34.912-5.24-24.856 0-38.427 12.703-38.427 35.329-0.776 6.218 5.292 34.916 6.67 42.917 1.376 8.022 22.908 124.989 22.908 124.989h48.293l-7.311-38.699h24.767l-6.731-39.503h-24.872s-13.653-68.549-13.653-73.776c0-8.316 5.037-11.929 16.595-11.929 5.535 0 9.805 0.515 13.11 1.504l-6.435-35.59zM1252.824 504.244c-35.394 0-63.049-14.566-79.109-38.901l13.94 36.081c-25.691 9.429-42.249-4.022-57.233-23.154 0 0-2.509-3.181-5-6.087v28.372h-45.347c-6.142-50.069-17.001-100.835-25.502-150.982l-2.044-10.914h48.778c4.62 25.454 8.425 46.117 12.212 62.586 10.364 45.193 27.802 59.005 53.983 52.902-6.044-13.001-9.359-28.028-9.359-44.686 0-40.395 21.941-73.458 76.42-73.458 54.979 0 94.782 29.372 94.782 96.334 0 40.39-26.524 71.906-76.52 71.906zM1238.627 375.281c-17.228-0.272-27.672 14.186-27.672 35.807 0 25.639 15.245 54.598 39.732 54.598 19.756 0 26.524-15.662 26.524-32.351 0-36.477-14.947-58.055-38.582-58.055zM492.498 338.656h-48.576l28.872 152.087-66.462-152.087h-44.282l-8.101 151.208-28.959-151.208h-44.075l37.54 197.834h75.902l6.331-110.281 48.085 110.281h82.011l-38.292-197.834z" />
<glyph unicode="&#xe912;" horiz-adv-x="1631" d="M1333.048 363.46c0 6.946 5.644 12.599 12.601 12.599 6.966 0 12.601-5.653 12.601-12.599 0-6.979-5.635-12.621-12.601-12.621-6.957 0-12.601 5.644-12.601 12.621zM1345.649 353.866c5.29 0 9.583 4.305 9.583 9.594s-4.294 9.575-9.583 9.575c-5.29 0-9.583-4.287-9.583-9.577 0-5.292 4.294-9.594 9.583-9.594zM1343.947 357.925h-2.583v11.049h4.674c0.978 0 1.974 0 2.835-0.544 0.887-0.609 1.402-1.668 1.402-2.761 0-1.261-0.733-2.428-1.92-2.863l2.028-4.883h-2.863l-1.674 4.363h-1.902v-4.366zM1343.947 364.199h1.431c0.528 0 1.098-0.035 1.578 0.209 0.426 0.289 0.644 0.778 0.644 1.278 0 0.424-0.261 0.904-0.617 1.113-0.461 0.283-1.174 0.209-1.657 0.209h-1.376v-2.809zM821.926 354.736c-16.667-4.42-32.801-6.588-49.841-6.548-54.389 0.054-82.718 24.828-82.718 72.197 0 55.331 36.047 96.052 84.999 96.052 40.047 0 65.601-22.822 65.601-58.577 0-11.884-1.739-23.415-5.957-39.786h-96.726c-3.439-23.111 13.436-33.281 42.199-33.281 17.228 0 32.801 3.098 50.069 10.038l-7.631-40.095zM795.92 450.722c0 3.487 5.37 28.335-22.611 28.872-15.458 0-26.533-10.283-31.024-28.872h53.635zM854.703 461.584c0-20.454 11.494-34.568 37.664-45.104 20.010-8.19 23.154-10.562 23.154-17.854 0-10.147-8.84-14.806-28.452-14.675-14.749 0.098-28.192 1.891-44.054 6.294l-7.038-37.275c14.11-3.298 33.907-4.376 51.426-4.783 52.235 0 76.359 17.11 76.359 54.070 0 22.213-10.066 35.303-34.877 45.032-20.734 8.279-23.163 10.081-23.163 17.573 0 8.805 8.225 13.262 24.232 13.262 9.718 0 23.008-0.904 35.627-2.418l7.066 37.494c-12.855 1.794-32.351 3.224-43.628 3.224-55.353 0-74.491-24.902-74.319-54.842zM662.854 350.861h-40.584l0.978 17.001c-12.381-13.392-28.859-19.641-51.217-19.641-26.47 0-44.612 18.099-44.612 44.108 0 39.577 31.514 62.388 85.725 62.388 5.566 0 12.642-0.417 19.936-1.224 1.5 5.29 1.902 7.555 1.902 10.453 0 10.836-8.516 14.812-31.329 14.812-22.48-0.091-37.655-3.424-51.733-7.203l6.922 36.299c24.35 6.196 40.286 8.581 58.331 8.581 41.967 0 64.125-16.451 64.125-47.378 0.365-8.262-2.518-24.811-3.948-32.077-1.657-10.544-13.288-71.68-14.493-86.116zM627.227 423.028c-5.127 0.533-7.375 0.678-10.897 0.678-27.655 0-41.699-8.233-41.699-24.496 0-10.207 6.857-16.595 17.512-16.595 19.902 0 34.259 16.641 35.083 40.412zM1049.237 353.422c-13.305-3.642-23.687-5.235-34.903-5.235-24.856 0-38.416 12.708-38.416 35.338-0.789 6.205 5.29 34.912 6.657 42.91 1.376 8.029 22.908 124.995 22.908 124.995h48.287l-7.294-38.699h24.763l-6.729-39.503h-24.872s-13.664-68.549-13.664-73.776c0-8.318 5.044-11.914 16.597-11.914 5.522 0 9.801 0.5 13.11 1.5l-6.446-35.612zM1289.414 445.532c0-36.47-14.958-58.070-38.601-58.070-17.219-0.239-27.665 14.188-27.665 35.82 0 25.639 15.236 54.6 39.721 54.6 19.769 0 26.546-15.682 26.546-32.351zM1341.544 444.517c0 40.395-26.541 71.919-76.517 71.919-57.505 0-94.682-38.321-94.682-94.784 0-40.39 21.921-73.463 76.42-73.463 54.976 0 94.78 29.376 94.78 96.33zM1092.258 512.745c-6.131-50.065-16.995-100.822-25.48-150.991l-2.059-10.914h48.772c17.582 96.878 23.48 124.478 60.309 114.758l17.719 45.845c-25.687 9.436-42.23-4.029-57.194-23.169 1.348 8.614 3.896 16.921 3.279 24.476h-45.347zM504.689 350.84h-48.563l28.861 152.1-66.473-152.1h-44.271l-8.099 151.219-28.959-151.219h-44.069l37.525 197.843h75.924l4.013-122.473 53.428 122.473h78.974l-38.292-197.843z" />
<glyph unicode="&#xe913;" horiz-adv-x="1631" d="M86.964 960h1456.645c48.029 0 86.964-38.935 86.964-86.964v-850.072c0-48.029-38.935-86.964-86.964-86.964h-1456.645c-48.029 0-86.964 38.935-86.964 86.964v850.072c0 48.029 38.935 86.964 86.964 86.964z" />
<glyph unicode="&#xe914;" horiz-adv-x="1631" d="M943.576 448c0-215.544-174.732-390.259-390.268-390.259s-390.251 174.715-390.251 390.259c0 215.525 174.715 390.259 390.251 390.259 215.534 0 390.268-174.732 390.268-390.259z" />
<glyph unicode="&#xe915;" horiz-adv-x="1631" d="M1077.248 838.259c-100.835 0-192.716-38.255-261.979-101.022-14.106-12.792-27.276-26.607-39.406-41.299h78.846c10.784-13.11 20.708-26.894 29.75-41.336h-138.347c-8.288-13.273-15.817-27.061-22.48-41.33h183.298c6.261-13.386 11.788-27.165 16.523-41.314h-216.344c-4.513-13.462-8.309-27.241-11.344-41.33h239.025c5.733-26.633 8.783-54.276 8.783-82.631 0-43.336-7.072-85.035-20.117-123.967h-216.349c4.729-14.16 10.253-27.948 16.512-41.33h183.313c-6.685-14.266-14.197-28.052-22.493-41.334h-138.327c9.031-14.414 18.98-28.22 29.75-41.299h78.828c-12.11-14.719-25.291-28.552-39.416-41.334 69.267-62.76 161.14-100.996 261.972-100.996 215.536 0.002 390.268 174.717 390.268 390.261 0 215.518-174.732 390.259-390.268 390.259z" />
<glyph unicode="&#xe916;" horiz-adv-x="1631" d="M1415.501 230.464c0 6.957 5.635 12.61 12.601 12.61 6.968 0 12.603-5.653 12.603-12.61s-5.635-12.61-12.601-12.61c-6.964 0-12.599 5.653-12.599 12.61zM1428.102 220.876c5.292 0 9.588 4.296 9.588 9.588 0 5.298-4.296 9.575-9.588 9.575-5.298 0-9.573-4.276-9.573-9.575 0-5.292 4.274-9.588 9.575-9.588zM1426.402 224.92h-2.585v11.077h4.674c0.978 0 1.974 0 2.835-0.552 0.898-0.609 1.404-1.674 1.404-2.783 0-1.239-0.733-2.398-1.92-2.848l2.037-4.892h-2.861l-1.696 4.381h-1.891v-4.383zM1426.402 231.203h1.431c0.535 0 1.096-0.043 1.576 0.217 0.428 0.274 0.646 0.783 0.646 1.272 0 0.424-0.261 0.913-0.626 1.122-0.457 0.283-1.17 0.217-1.652 0.217h-1.374v-2.826zM462.185 405.27c-4.446 0.515-6.403 0.652-9.457 0.652-24.013 0-36.17-8.235-36.17-24.496 0-10.029 5.935-16.408 15.19-16.408 17.258 0 29.698 16.436 30.437 40.249zM492.992 333.534h-35.101l0.804 16.686c-10.705-13.19-24.991-19.458-44.404-19.458-22.963 0-38.708 17.936-38.708 43.982 0 39.186 27.385 62.049 74.391 62.049 4.805 0 10.962-0.435 17.267-1.239 1.315 5.309 1.659 7.581 1.659 10.436 0 10.67-7.383 14.649-27.176 14.649-20.726 0.235-37.821-4.935-44.841-7.248 0.444 2.67 5.87 36.214 5.87 36.214 21.115 6.187 35.040 8.516 50.711 8.516 36.379 0 55.648-16.332 55.613-47.204 0.070-8.272-1.298-18.48-3.435-31.894-3.679-23.328-11.566-73.306-12.647-85.49zM357.856 333.534h-42.369l24.269 152.178-54.189-152.178h-28.872l-3.566 151.309-25.511-151.309h-39.66l33.129 197.96h60.918l3.696-110.807 37.16 110.807h67.76l-32.766-197.96zM1129.607 405.27c-4.429 0.515-6.396 0.652-9.44 0.652-24.002 0-36.162-8.235-36.162-24.496 0-10.029 5.924-16.408 15.182-16.408 17.258 0 29.705 16.436 30.42 40.249zM1160.442 333.534h-35.101l0.796 16.686c-10.71-13.19-25.002-19.458-44.399-19.458-22.972 0-38.699 17.936-38.699 43.982 0 39.186 27.368 62.049 74.382 62.049 4.805 0 10.953-0.435 17.249-1.239 1.313 5.309 1.659 7.581 1.659 10.436 0 10.67-7.375 14.649-27.168 14.649-20.723 0.235-37.801-4.935-44.847-7.248 0.444 2.67 5.887 36.214 5.887 36.214 21.117 6.187 35.031 8.516 50.685 8.516 36.394 0 55.666-16.332 55.629-47.204 0.072-8.272-1.296-18.48-3.435-31.894-3.657-23.328-11.566-73.306-12.636-85.49zM681.29 335.98c-11.597-3.652-20.637-5.218-30.437-5.218-21.661 0-33.481 12.447-33.481 35.366-0.309 7.109 3.115 25.828 5.805 42.91 2.446 15.036 18.371 109.853 18.371 109.853h42.112l-4.913-24.367h25.437l-5.746-38.69h-25.528c-4.892-30.618-11.858-68.756-11.936-73.811 0-8.299 4.426-11.921 14.501-11.921 4.826 0 8.566 0.491 11.423 1.522l-5.609-35.644zM810.412 337.284c-14.466-4.42-28.426-6.559-43.221-6.522-47.139 0.043-71.715 24.667-71.715 71.817 0 55.033 31.264 95.543 73.702 95.543 34.72 0 56.896-22.682 56.896-58.257 0-11.805-1.522-23.328-5.19-39.595h-83.866c-2.835-23.354 12.11-33.083 36.605-33.083 15.075 0 28.672 3.105 43.791 10.136l-7.005-40.040zM786.743 432.727c0.239 3.352 4.468 28.735-19.593 28.735-13.414 0-23.008-10.227-26.915-28.735h46.51zM518.405 443.634c0-20.365 9.87-34.405 32.264-44.949 17.16-8.066 19.815-10.457 19.815-17.762 0-10.040-7.566-14.566-24.333-14.566-12.636 0-24.393 1.972-37.955 6.348 0 0-5.572-35.481-5.827-37.177 9.631-2.102 18.219-4.050 44.091-4.766 44.704 0 65.349 17.023 65.349 53.809 0 22.121-8.642 35.103-29.866 44.858-17.762 8.153-19.802 9.975-19.802 17.493 0 8.705 7.040 13.145 20.737 13.145 8.316 0 19.676-0.887 30.437-2.42l6.033 37.34c-10.97 1.739-27.602 3.135-37.286 3.135-47.395 0-63.801-24.756-63.658-54.487zM1016.462 493.891c11.768 0 22.741-3.087 37.858-10.697l6.929 42.965c-6.205 2.435-28.055 16.741-46.56 16.741-28.355 0-52.324-14.066-69.18-37.286-24.589 8.144-34.699-8.316-47.091-24.713l-11.005-2.565c0.833 5.4 1.587 10.762 1.333 16.191h-38.908c-5.318-49.824-14.74-100.291-22.111-150.176l-1.924-10.816h42.386c7.075 45.965 10.953 75.398 13.305 95.317l15.964 8.877c2.383 8.87 9.849 11.866 24.819 11.505-1.957-10.51-3.007-21.561-3.007-33.011 0-52.668 28.415-85.459 74.028-85.459 11.747 0 21.828 1.548 37.438 5.779l7.457 45.134c-14.045-6.914-25.567-10.166-36.003-10.166-24.628 0-39.532 18.18-39.532 48.228 0 43.591 22.167 74.154 53.8 74.154z" />
<glyph unicode="&#xe917;" horiz-adv-x="1631" d="M370.049 345.291h-42.373l24.285 152.161-54.192-152.161h-28.876l-3.572 151.291-25.509-151.291h-39.66l33.129 197.934h60.918l1.713-122.539 41.099 122.539h65.803l-32.768-197.934z" />
<glyph unicode="&#xe918;" horiz-adv-x="1631" d="M1375.16 531.494l-9.392-57.196c-11.588 15.245-24.032 26.278-40.464 26.278-21.38 0-40.838-16.206-53.574-40.058-17.736 3.679-36.081 9.92-36.081 9.92l-0.009-0.143c1.431 13.334 2 21.469 1.874 24.232h-38.916c-5.298-49.824-14.719-100.291-22.084-150.176l-1.939-10.816h42.378c5.724 37.168 10.11 68.032 13.334 92.508 14.479 13.082 21.724 24.496 36.351 23.735-6.474-15.664-10.27-33.709-10.27-52.215 0-40.249 20.363-66.799 51.163-66.799 15.523 0 27.437 5.353 39.060 17.762l-1.985-14.964h40.079l32.268 197.934h-41.786zM1322.177 370.737c-14.421 0-21.704 10.675-21.704 31.733 0 31.642 13.632 54.081 32.855 54.081 14.556 0 22.437-11.097 22.437-31.542 0-31.916-13.849-54.272-33.59-54.272z" />
<glyph unicode="&#xe919;" horiz-adv-x="1631" d="M474.371 417.002c-4.44 0.515-6.405 0.652-9.449 0.652-24.015 0-36.164-8.235-36.164-24.496 0-10.010 5.935-16.406 15.175-16.406 17.273 0 29.711 16.43 30.437 40.247zM505.199 345.291h-35.105l0.798 16.66c-10.697-13.16-25.002-19.458-44.395-19.458-22.976 0-38.71 17.936-38.71 43.982 0 39.206 27.372 62.053 74.389 62.053 4.805 0 10.962-0.435 17.258-1.239 1.315 5.305 1.659 7.579 1.659 10.451 0 10.668-7.37 14.627-27.168 14.627-20.734 0.239-37.818-4.935-44.852-7.218 0.446 2.663 5.87 36.17 5.87 36.17 21.11 6.214 35.051 8.544 50.704 8.544 36.388 0 55.663-16.345 55.629-47.189 0.065-8.305-1.315-18.506-3.444-31.905-3.668-23.317-11.566-73.321-12.636-85.479zM1073.452 537.899l-6.94-42.975c-15.11 7.601-26.089 10.697-37.847 10.697-31.633 0-53.809-30.561-53.809-74.152 0-30.046 14.91-48.221 39.532-48.221 10.436 0 21.948 3.244 35.988 10.166l-7.435-45.113c-15.619-4.261-25.691-5.805-37.451-5.805-45.602 0-74.028 32.79-74.028 85.457 0 70.767 39.264 120.228 95.417 120.228 18.497 0 40.358-7.848 46.569-10.283zM1141.81 417.002c-4.44 0.515-6.396 0.652-9.449 0.652-24.006 0-36.164-8.235-36.164-24.496 0-10.010 5.935-16.406 15.184-16.406 17.256 0 29.703 16.43 30.429 40.247zM1172.639 345.291h-35.112l0.804 16.66c-10.707-13.16-25.002-19.458-44.395-19.458-22.967 0-38.71 17.936-38.71 43.982 0 39.206 27.383 62.053 74.38 62.053 4.811 0 10.962-0.435 17.267-1.239 1.304 5.305 1.657 7.579 1.657 10.451 0 10.668-7.375 14.627-27.17 14.627-20.726 0.239-37.818-4.935-44.852-7.218 0.446 2.663 5.881 36.17 5.881 36.17 21.11 6.214 35.040 8.544 50.693 8.544 36.399 0 55.666-16.345 55.62-47.189 0.074-8.305-1.294-18.506-3.435-31.905-3.657-23.317-11.575-73.321-12.632-85.479zM693.483 347.731c-11.605-3.652-20.645-5.24-30.437-5.24-21.661 0-33.481 12.449-33.481 35.366-0.3 7.131 3.124 25.828 5.816 42.912 2.435 15.056 18.362 109.864 18.362 109.864h42.104l-4.909-24.376h21.615l-5.753-38.673h-21.687c-4.892-30.633-11.877-68.745-11.949-73.811 0-8.327 4.435-11.921 14.501-11.921 4.826 0 8.559 0.472 11.423 1.504l-5.609-35.629zM822.607 349.013c-14.458-4.42-28.437-6.548-43.221-6.522-47.141 0.048-71.717 24.669-71.717 71.819 0 55.048 31.264 95.552 73.702 95.552 34.72 0 56.896-22.676 56.896-58.266 0-11.812-1.522-23.335-5.179-39.595h-83.866c-2.837-23.354 12.11-33.090 36.605-33.090 15.066 0 28.672 3.113 43.78 10.162l-7.001-40.058zM798.927 444.484c0.254 3.344 4.474 28.735-19.595 28.735-13.405 0-23.002-10.255-26.904-28.735h46.5zM530.597 455.364c0-20.363 9.875-34.386 32.268-44.949 17.154-8.062 19.81-10.462 19.81-17.762 0-10.038-7.572-14.566-24.322-14.566-12.645 0-24.402 1.974-37.973 6.348 0 0-5.553-35.481-5.805-37.177 9.61-2.1 18.206-4.022 44.078-4.761 44.715 0 65.353 17.019 65.353 53.798 0 22.132-8.636 35.112-29.872 44.867-17.754 8.17-19.806 9.964-19.806 17.493 0 8.696 7.053 13.171 20.741 13.171 8.305 0 19.667-0.913 30.446-2.446l6.022 37.351c-10.957 1.739-27.589 3.131-37.275 3.131-47.404 0-63.799-24.737-63.664-54.496zM1396.875 345.291h-40.086l1.996 14.984c-11.623-12.429-23.535-17.784-39.062-17.784-30.798 0-51.152 26.552-51.152 66.801 0 53.548 31.568 98.687 68.936 98.687 16.432 0 28.872-6.714 40.447-21.95l9.403 57.196h41.786l-32.268-197.934zM1334.381 382.49c19.73 0 33.59 22.354 33.59 54.25 0 20.447-7.892 31.546-22.448 31.546-19.215 0-32.866-22.432-32.866-54.083 0-21.060 7.305-31.714 21.726-31.714zM1210.798 506.257c-5.305-49.824-14.727-100.291-22.093-150.15l-1.935-10.816h42.373c15.153 98.432 18.828 117.656 42.586 115.249 3.787 20.143 10.834 37.79 16.088 46.695-17.747 3.696-27.655-6.333-40.63-25.383 1.022 8.235 2.9 16.236 2.528 24.406h-38.916zM862.030 506.257c-5.318-49.824-14.74-100.291-22.104-150.15l-1.928-10.816h42.395c15.136 98.432 18.797 117.656 42.547 115.249 3.805 20.143 10.853 37.79 16.088 46.695-17.728 3.696-27.646-6.333-40.608-25.383 1.022 8.235 2.881 16.236 2.526 24.406h-38.916zM1415.483 357.892c0 6.985 5.644 12.61 12.601 12.61 6.966 0 12.599-5.624 12.599-12.61 0-6.948-5.631-12.601-12.599-12.601-6.957 0-12.601 5.653-12.601 12.601zM1428.084 348.318c5.298 0 9.575 4.294 9.575 9.575 0 5.29-4.276 9.583-9.575 9.583-5.292 0-9.588-4.294-9.588-9.583 0-5.283 4.296-9.575 9.588-9.575zM1426.38 352.383h-2.583v11.053h4.683c0.97 0 1.974-0.017 2.818-0.552 0.904-0.615 1.422-1.668 1.422-2.772 0-1.25-0.735-2.42-1.931-2.863l2.048-4.863h-2.87l-1.696 4.37h-1.891v-4.37zM1426.38 358.645h1.42c0.535 0 1.115-0.037 1.587 0.217 0.424 0.272 0.641 0.787 0.641 1.276 0 0.409-0.252 0.898-0.624 1.141-0.441 0.254-1.174 0.183-1.657 0.183h-1.37v-2.818z" />
<glyph unicode="&#xe91a;" horiz-adv-x="1631" d="M86.964 960h1456.645c48.029 0 86.964-38.935 86.964-86.964v-850.072c0-48.029-38.935-86.964-86.964-86.964h-1456.645c-48.029 0-86.964 38.935-86.964 86.964v850.072c0 48.029 38.935 86.964 86.964 86.964z" />
<glyph unicode="&#xe91b;" horiz-adv-x="1631" d="M604.827 233.356l72.528 425.608h116.010l-72.578-425.608h-115.96zM1139.897 649.782c-22.985 8.622-58.998 17.875-103.972 17.875-114.629 0-195.375-57.722-196.060-140.453-0.648-61.157 57.642-95.269 101.646-115.629 45.156-20.858 60.336-34.164 60.122-52.794-0.287-28.524-36.062-41.56-69.404-41.56-46.434 0-71.102 6.448-109.201 22.341l-14.947 6.761-16.284-95.275c27.098-11.881 77.202-22.176 129.224-22.708 121.945 0 201.104 57.066 202.008 145.41 0.439 48.413-30.468 85.259-97.395 115.636-40.549 19.686-65.384 32.829-65.119 52.761 0 17.691 21.017 36.612 66.432 36.612 37.938 0.587 65.419-7.688 86.827-16.306l10.392-4.913 15.73 92.247zM1438.416 658.964h-89.638c-27.772 0-48.552-7.581-60.749-35.294l-172.286-390.040h121.815s19.921 52.446 24.426 63.958c13.312 0 131.648-0.183 148.569-0.183 3.468-14.897 14.11-63.773 14.11-63.773h107.646l-93.895 425.336zM1296.191 384.142c9.594 24.524 46.221 118.973 46.221 118.973-0.687-1.131 9.523 24.643 15.382 40.623l7.84-36.699s22.213-101.589 26.854-122.895h-96.297zM506.354 658.964l-113.575-290.233-12.103 58.979c-21.143 67.993-87.018 141.656-160.661 178.537l103.848-372.214 122.741 0.141 182.633 424.786h-122.88z" />
<glyph unicode="&#xe91c;" horiz-adv-x="1631" d="M286.807 658.964h-187.059l-1.485-8.855c145.534-35.229 241.829-120.365 281.802-222.658l-40.673 195.582c-7.022 26.948-27.394 34.99-52.587 35.929z" />
</font>
</defs>
</svg>
