<svg xmlns="http://www.w3.org/2000/svg" width="63" height="27" viewBox="0 0 63 27"><path fill="#323B3F" d="M62.1 14.2c0-2.2-.5-4.3-1.4-5.5-1-1.3-2.4-1.9-4.3-1.9-3.8 0-6.2 2.8-6.2 7.3 0 2.5.6 4.4 1.9 5.6 1.1 1.1 2.7 1.6 4.8 1.6 1.9 0 3.7-.4 4.8-1.2l-.5-3c-1.1.6-2.4.9-3.8.9-.9 0-1.5-.2-1.9-.6-.5-.4-.7-.7-.8-1.6h7.4v-1.6zm-7.5-1.2c.1-2 .7-3.2 1.7-3.2s1.5 1.3 1.6 3.2h-3.3zm-10.2-6.3c-1.3 0-2.2.5-3.2 1.7l-.3-1.4h-3.9v19.1l4.5-.9v-4.3c.7.2 1.4.3 2 .3 1.1 0 2.5-.3 3.7-1.7 1.2-1.3 1.8-3.3 1.8-6 0-2.4-.4-4.2-1.3-5.3-.8-1-1.9-1.5-3.3-1.5zm-.2 10.2c-.4.7-.9 1.1-1.6 1.1-.4 0-.8-.1-1.2-.3v-6.8c.8-.8 1.4-.9 1.7-.9 1.1 0 1.4 1.3 1.4 3.7.1 1.4.1 2.5-.3 3.2zm-13.7 4.1h4.5v-14h-4.5v14zm2.3-20c-1.3 0-2.4 1-2.4 2.4 0 1.3 1 2.4 2.4 2.4 1.3 0 2.3-1.1 2.3-2.4 0-1.4-1.1-2.4-2.3-2.4zm-7.1 7.6l-.2-1.6h-3.9v14h4.4v-9.1c.6-.7 1.1-.9 2.2-.9.2 0 .5 0 .8.1v-4.2c-.3-.1-.6-.1-.8-.1-1.3 0-2.1.7-2.5 1.8zm-6 1.4l.5-3h-2.8v-4l-3.6.9-.8 3.1-1.2.2-.5 2.8h1.7v6.8c0 1.7.4 2.9 1.3 3.6.7.6 1.8.9 3.3.9 1.2 0 1.9-.2 2.3-.3v-3.5c-.3.1-.9.2-1.3.2-.9 0-1.3-.4-1.3-1.5v-6.2h2.4zm-12.7 2.3c-1.3-.5-2-.9-2-1.5 0-.5.4-.8 1.1-.8 1.3 0 2.5.6 3.5 1.1l.5-3.3c-.8-.4-2.1-1-4.3-1-1.5 0-2.8.4-3.7 1.1-.9.8-1.4 1.9-1.4 3.2 0 2.4 1.5 3.5 3.9 4.4 1.6.6 2.1 1 2.1 1.6 0 .6-.5 1-1.4 1-1.1 0-3-.6-4.2-1.3l-.5 3.4c1 .6 3 1.2 5 1.2 1.6 0 2.9-.4 3.8-1.1 1-.8 1.5-2 1.5-3.5.1-2.6-1.4-3.7-3.9-4.5z"/></svg>