<?xml version="1.0" standalone="no"?>
<!DOCTYPE svg PUBLIC "-//W3C//DTD SVG 20010904//EN"
 "http://www.w3.org/TR/2001/REC-SVG-20010904/DTD/svg10.dtd">
<svg version="1.0" xmlns="http://www.w3.org/2000/svg"
 width="1024.000000pt" height="1024.000000pt" viewBox="0 0 1024.000000 1024.000000"
 preserveAspectRatio="xMidYMid meet">
<metadata>
Created by potrace 1.11, written by Peter Selinger 2001-2013
</metadata>
<g transform="translate(0.000000,1024.000000) scale(0.100000,-0.100000)"
fill="#000000" stroke="none">
<path d="M837 10224 c-401 -73 -708 -361 -810 -761 l-22 -88 0 -4255 0 -4255
22 -88 c32 -124 77 -227 144 -326 138 -207 341 -351 587 -419 l97 -27 4265 0
4265 0 97 27 c369 102 636 374 731 745 l22 88 0 4255 0 4255 -22 88 c-32 124
-77 227 -144 326 -138 207 -341 351 -587 419 l-97 27 -4235 2 c-3622 1 -4246
-1 -4313 -13z m6537 -1774 c104 -26 167 -62 232 -133 68 -74 101 -137 116
-227 11 -64 10 -76 -10 -146 -91 -307 -374 -759 -661 -1057 -111 -115 -188
-169 -278 -197 -125 -38 -198 -26 -270 45 -98 99 -103 195 -20 362 91 182 127
336 127 549 0 153 15 271 51 399 43 152 78 221 142 282 59 56 175 120 241 133
82 16 248 11 330 -10z m-2949 -664 c116 -57 214 -176 261 -316 14 -41 18 -83
18 -165 -1 -106 -5 -123 -97 -470 -352 -1325 -636 -2608 -782 -3535 -56 -355
-72 -470 -65 -470 3 0 103 22 221 49 385 89 899 184 1219 226 558 73 919 18
1106 -169 78 -78 99 -134 99 -261 0 -75 -4 -98 -24 -140 -33 -66 -131 -163
-206 -202 -120 -63 -189 -77 -925 -192 -393 -62 -866 -139 -1050 -171 -184
-33 -429 -75 -545 -95 -115 -20 -286 -52 -378 -71 -117 -24 -195 -34 -257 -34
l-88 0 -76 50 c-96 65 -179 155 -238 262 -63 112 -87 183 -100 303 -13 113 -2
216 88 840 189 1304 485 2657 757 3460 183 540 285 751 436 908 167 174 280
229 466 224 88 -2 107 -6 160 -31z"/>
</g>
</svg>
